#N canvas 0 182 1920 987 12;
#X obj 541 166 dac~;
#X obj 481 336 writesf~ 2;
#X msg 481 483 stop;
#X obj 311 95 osc/unpackOSC;
#X obj 311 129 osc/routeOSC /recorder;
#X obj 311 161 tgl 15 0 empty empty empty 17 7 0 10 -4034 -1 -1 0 1
;
#X obj 226 380 osc/unpackOSC;
#X obj 226 414 osc/routeOSC /recorder;
#X obj 226 468 tgl 15 0 empty empty empty 17 7 0 10 -258113 -1 -1 0
1;
#X msg 311 196 open file_name.wav \, start;
#X obj 540 97 mrpeach/net/udpreceive~ 3010 2;
#X text 164 183 define file name \; start recording -->;
#X text 514 483 <-- STOP recording;
#X text 22 380 convert OSC to Pure Data -->;
#X text 75 336 receive OSC data -->;
#X text 165 57 receive OSC data -->;
#X text 108 96 convert OSC to Pure Data -->;
#X text 566 338 <-- record audio in the same directory as the patch
;
#X text 572 166 <-- Audio output;
#X text 759 96 <-- receive audio data;
#X obj 311 57 mrpeach/net/udpreceive 40060;
#X obj 226 337 mrpeach/net/udpreceive 40061;
#X text 1234 27 MANAGEMENT LAYER;
#X msg 1145 689 disconnect;
#X obj 1113 759 mrpeach/udpsend;
#X obj 1111 853 t b b b;
#X obj 1113 800 tgl 25 0 empty empty empty 17 7 0 10 -228856 -1 -1
0 1;
#X text 1144 803 <-- connection status;
#X text 1214 722 <-- pack messages on OSC format;
#X text 1212 758 <-- send messages via network;
#X msg 1116 159 connect 224.0.0.1 60000;
#X obj 1115 721 mrpeach/packOSC;
#X obj 1116 107 random 101;
#X obj 1145 568 bng 18 250 50 0 empty empty empty 17 7 0 10 -258113
-1 -1;
#X msg 1145 617 /hello/\$1/192.168.0.10/disconnected;
#X obj 1116 70 bng 25 250 50 0 empty empty empty 17 7 0 10 -4034 -1
-1;
#X obj 1118 135 value id;
#X obj 1145 592 value id;
#X text 1146 72 <-- Conecta e gera número de ID aleatóŕio;
#X text 1191 106 <-- gera número aleatório entre 0 e 100;
#X text 1178 132 <-- armazena número aleatório;
#X text 1286 156 <-- conecta no servidor OSC \, exibindo a coisa musical
para a rede;
#X text 1395 194 <-- apresenta a coisa musical na rede;
#X text 1691 266 <-- INPUT message;
#X text 1546 417 <-- OUTPUT message;
#X text 1171 571 <-- disconnect;
#X text 1212 591 <-- número aleatório;
#X text 1402 615 <-- GOODBYE message;
#X text 1152 642 Standard GOODBYE message: /hello/ID_number/IP_number/status
;
#X msg 1117 196 send /hello/\$1/192.168.0.10/Recorder;
#X text 1122 457 Standard OUTPUT message: /output/ID_number/IP_number/port_type_number/network_port_number/network_port_description/
;
#X text 1124 304 Standard INPUT message: /input/ID_number/IP_number/port_type_number/musical_thing_type(audio)/sample_rate/bit_depth/audio_file_format/channel_number/port_number/port_description/network_protocol/music_protocol/human_name
;
#X text 1424 208 Standard HELLO message: /hello/id/ip/human_name;
#X obj 1111 894 route /hello /input /output;
#X msg 1120 251 send /input/\$1/192.168.0.10/0/audio/44100/16bits/2/40060/START/40061/STOP/UDP/OSC/Recorder
, f 80;
#X msg 1119 404 send /output/\$1/192.168.0.10/1/audio/44100/16bits/2/3010/Loudspeaker
;
#X connect 2 0 1 0;
#X connect 3 0 4 0;
#X connect 4 0 5 0;
#X connect 5 0 9 0;
#X connect 6 0 7 0;
#X connect 7 0 8 0;
#X connect 8 0 2 0;
#X connect 9 0 1 0;
#X connect 10 0 0 0;
#X connect 10 0 0 1;
#X connect 10 0 1 0;
#X connect 20 0 3 0;
#X connect 21 0 6 0;
#X connect 23 0 24 0;
#X connect 24 0 26 0;
#X connect 25 0 55 0;
#X connect 25 1 54 0;
#X connect 25 2 49 0;
#X connect 30 0 24 0;
#X connect 31 0 24 0;
#X connect 32 0 49 0;
#X connect 32 0 54 0;
#X connect 32 0 55 0;
#X connect 32 0 36 0;
#X connect 33 0 37 0;
#X connect 34 0 31 0;
#X connect 34 0 23 0;
#X connect 35 0 30 0;
#X connect 35 0 32 0;
#X connect 37 0 34 0;
#X connect 49 0 31 0;
#X connect 53 0 25 0;
#X connect 54 0 31 0;
#X connect 55 0 31 0;
