#N canvas 1920 64 1366 704 12;
#X obj 101 203 osc/packOSC;
#X obj 33 246 mrpeach/net/udpsend;
#X msg 44 87 disconnect;
#X msg 101 174 send /drum \$1;
#X floatatom 101 142 5 0 500 0 - - -;
#X text 220 47 <-- connect to multicast address;
#X text 111 85 <-- close connection;
#X text 137 142 <-- BPM;
#X text 188 174 <-- prepare OSC message;
#X text 172 204 <-- convert Pure Data message to OSC;
#X text 159 250 <-- send OSC data packaged in UDP \, using the mrpeach
library;
#X msg 33 50 connect 224.0.0.251 40011;
#X msg 726 575 disconnect;
#X obj 679 714 mrpeach/udpsend;
#X obj 677 808 t b b b;
#X obj 679 755 tgl 25 0 empty empty empty 17 7 0 10 -228856 -1 -1 0
1;
#X text 710 758 <-- connection status;
#X text 792 677 <-- pack messages on OSC format;
#X text 793 713 <-- send messages via network;
#X msg 682 114 connect 224.0.0.1 60000;
#X obj 681 676 mrpeach/packOSC;
#X obj 677 849 route /hello;
#X obj 682 62 random 101;
#X obj 726 454 bng 18 250 50 0 empty empty empty 17 7 0 10 -258113
-1 -1;
#X msg 726 503 /hello/\$1/192.168.0.10/disconnected;
#X obj 682 25 bng 25 250 50 0 empty empty empty 17 7 0 10 -4034 -1
-1;
#X obj 684 90 value id;
#X obj 726 478 value id;
#X text 712 27 <-- Conecta e gera número de ID aleatóŕio;
#X text 759 62 <-- gera número aleatório entre 0 e 100;
#X text 746 89 <-- armazena número aleatório;
#X text 852 113 <-- conecta no servidor OSC \, exibindo a coisa musical
para a rede;
#X text 1252 191 <-- INPUT message;
#X text 1115 330 <-- OUTPUT message;
#X text 752 457 <-- disconnect;
#X text 788 476 <-- número aleatório;
#X text 984 503 <-- GOODBYE message;
#X text 733 528 Standard GOODBYE message: /hello/ID_number/IP_number/status
;
#X text 695 219 Standar INPUT message: hello/ID_number/IP_Number/port_type/port_type_number/musical_thing_type/min_range/max_range/network_port/network_protocol/music_protocol/human_name/description
;
#X text 700 373 Standard OUTPUT message: /hello/ID_number/IP_number/port_type(output)/port_type_number/network_port_number/musical_things_description/
;
#X text 1097 150 <-- apresenta a coisa musical na rede;
#X msg 683 151 send /hello/\$1/192.168.0.10/DrumMachineBPM;
#X msg 685 178 send /hello/\$1/192.168.0.10/input/0/controller/0/500/UDP/OSC/DrumMachineBPM
- Controla as BPM da Drum Machine, f 80;
#X msg 689 317 send /hello/\$1/192.168.0.10/output/0/500/controller/40011/BPM/OSC/DrumMachine
;
#X connect 0 0 1 0;
#X connect 2 0 1 0;
#X connect 3 0 0 0;
#X connect 4 0 3 0;
#X connect 11 0 1 0;
#X connect 12 0 13 0;
#X connect 13 0 15 0;
#X connect 14 0 43 0;
#X connect 14 1 42 0;
#X connect 14 2 41 0;
#X connect 19 0 13 0;
#X connect 20 0 13 0;
#X connect 21 0 14 0;
#X connect 22 0 41 0;
#X connect 22 0 42 0;
#X connect 22 0 26 0;
#X connect 22 0 43 0;
#X connect 23 0 27 0;
#X connect 24 0 20 0;
#X connect 24 0 12 0;
#X connect 25 0 19 0;
#X connect 25 0 22 0;
#X connect 27 0 24 0;
#X connect 41 0 20 0;
#X connect 42 0 20 0;
#X connect 43 0 20 0;
