#N canvas 0 182 1920 987 12;
#X msg 1224 636 disconnect;
#X obj 1190 716 mrpeach/udpsend;
#X obj 1188 810 t b b b;
#X obj 1190 757 tgl 25 0 empty empty empty 17 7 0 10 -228856 -1 -1
0 1;
#X text 1221 760 <-- connection status;
#X text 1303 679 <-- pack messages on OSC format;
#X text 1304 715 <-- send messages via network;
#X msg 1193 116 connect 224.0.0.1 60000;
#X obj 1192 678 mrpeach/packOSC;
#X obj 1193 64 random 101;
#X obj 1224 515 bng 18 250 50 0 empty empty empty 17 7 0 10 -258113
-1 -1;
#X obj 1193 27 bng 25 250 50 0 empty empty empty 17 7 0 10 -4034 -1
-1;
#X text 1686 228 <-- INPUT message;
#X text 1633 383 <-- OUTPUT message;
#X text 1250 518 <-- disconnect;
#X text 1652 569 <-- GOODBYE message;
#X obj 92 203 osc/packOSC;
#X obj 26 246 mrpeach/net/udpsend;
#X obj 92 116 tgl 15 0 empty empty empty 17 7 0 10 -232576 -1 -1 0
1;
#X msg 92 174 send /drum \$1;
#X text 196 48 <-- connect to multicast address;
#X text 218 83 <-- close connection;
#X text 108 114 <-- ON/OFF drum machine;
#X text 191 173 <-- prepare OSC message;
#X text 175 204 <-- convert Pure Data message to OSC;
#X text 169 246 <-- send OSC data packaged in UDP \, using the mrpeach
library;
#X msg 1194 153 send /hello/\$1/192.168.0.10/DrumMachineOnOff;
#X text 1203 422 Standard OUTPUT message: /output/ID_number/IP_number/port_type_number/network_port_number/network_port_description/
;
#X text 1540 172 Standard HELLO message: /hello/id/ip/human_name;
#X msg 1204 369 send /output/\$1/192.168.0.10/0/1/controller/40010/OnOff/OSC/DrumMachine
;
#X obj 1195 92 value id11;
#X obj 1224 539 value id11;
#X obj 1188 851 route /hello /input /output /goodbye;
#X text 1228 599 Standard GOODBYE message: /goodbye/ID_number/IP_number/human_name/status
;
#X msg 1224 564 /goodbye/\$1/192.168.0.10/DrumMachine_control_OnOff/disconnected
;
#X obj 465 357 osc/unpackOSC;
#X obj 465 384 osc/routeOSC /connection;
#X obj 465 410 list;
#X text 63 311 receives OSC messages from the network \, at the multicast
address and on the specified port -->;
#X text 297 356 unpack OSC messages -->;
#X text 173 385 route the OSC message to this address -->;
#X text 242 409 put the message into a list -->;
#X obj 463 503 osc/unpackOSC;
#X obj 463 556 list;
#X text 61 457 receives OSC messages from the network \, at the multicast
address and on the specified port -->;
#X text 295 502 unpack OSC messages -->;
#X text 171 531 route the OSC message to this address -->;
#X text 240 555 put the message into a list -->;
#X obj 465 316 mrpeach/net/udpreceive 224.0.0.0 55019;
#X obj 463 461 mrpeach/net/udpreceive 224.0.0.0 55020;
#X floatatom 26 280 5 0 1 0 - - -;
#X text 68 281 <-- connection status;
#X obj 463 530 osc/routeOSC /disconnection;
#X text 1223 29 <-- connect and generate random ID number;
#X text 1270 64 <-- generates random ID number between 0 - 100;
#X text 1272 91 <-- store random ID number;
#X text 1363 115 <-- connect to OSC server;
#X text 1512 153 <-- presents the musical thing on the network;
#X text 1300 538 <-- random ID number;
#X text 1213 272 Standard INPUT message: /input/ID_number/IP_number/port_type_number/musical_thing_type(audio)/sample_rate/bit_depth/audio_file_format/channel_number/IP_connection/port_number/port_description/network_protocol/music_protocol/human_name
;
#X msg 1195 217 send /input/\$1/192.168.0.10/0/controller/0/1/224.0.0.0/55019/ON_CLI/55020/OFF_CLI/UDP/OSC/DrumMachineOnOff
, f 69;
#X msg 26 50 connect 224.0.0.0 40010;
#X msg 26 85 disconnect 224.0.0.0 40010;
#X connect 0 0 1 0;
#X connect 1 0 3 0;
#X connect 2 0 29 0;
#X connect 2 1 60 0;
#X connect 2 2 26 0;
#X connect 7 0 1 0;
#X connect 8 0 1 0;
#X connect 9 0 26 0;
#X connect 9 0 60 0;
#X connect 9 0 29 0;
#X connect 9 0 30 0;
#X connect 10 0 31 0;
#X connect 11 0 7 0;
#X connect 11 0 9 0;
#X connect 16 0 17 0;
#X connect 17 0 50 0;
#X connect 18 0 19 0;
#X connect 19 0 16 0;
#X connect 26 0 8 0;
#X connect 29 0 8 0;
#X connect 31 0 34 0;
#X connect 32 0 2 0;
#X connect 34 0 8 0;
#X connect 34 0 0 0;
#X connect 35 0 36 0;
#X connect 36 0 37 0;
#X connect 37 0 61 0;
#X connect 42 0 52 0;
#X connect 43 0 62 0;
#X connect 48 0 35 0;
#X connect 49 0 42 0;
#X connect 52 0 43 0;
#X connect 60 0 8 0;
#X connect 61 0 17 0;
#X connect 62 0 17 0;
