#N canvas 0 182 1920 987 10;
#X obj 138 210 osc/packOSC;
#X obj 72 253 mrpeach/net/udpsend;
#X obj 138 137 tgl 15 0 empty empty empty 17 7 0 10 -4034 -1 -1 0 1
;
#X obj 709 202 osc/packOSC;
#X obj 643 245 mrpeach/net/udpsend;
#X obj 709 129 tgl 15 0 empty empty empty 17 7 0 10 -258113 -1 -1 0
1;
#X text 155 135 <-- ON;
#X text 730 128 <-- OFF;
#X msg 138 181 send /sound \$1;
#X msg 709 173 send /sound \$1;
#X msg 643 44 connect 239.255.255.250 40021;
#X msg 70 57 connect 239.255.255.250 40020;
#X text 249 58 <-- connect to multicast address;
#X text 283 92 <-- close connection;
#X text 236 180 <-- prepare OSC message;
#X text 213 210 <-- convert Pure Data to OSC;
#X text 199 250 <-- send data via network \, in UDP packet \, using
mrpeach library;
#X text 832 45 <-- connect to multicast addres;
#X text 848 68 <-- close connection;
#X text 804 173 <-- prepare OSC message;
#X text 783 202 <-- convert Pure Data to OSC;
#X text 765 245 <-- send data via network \, in UDP packet \, using
mrpeach library;
#X text 1302 10 MANAGEMENT LAYER;
#X msg 1229 662 disconnect;
#X obj 1181 742 mrpeach/udpsend;
#X obj 1179 836 t b b b;
#X obj 1181 783 tgl 25 0 empty empty empty 17 7 0 10 -228856 -1 -1
0 1;
#X text 1212 786 <-- connection status;
#X text 1282 705 <-- pack messages on OSC format;
#X text 1280 741 <-- send messages via network;
#X msg 1184 142 connect 224.0.0.1 60000;
#X obj 1183 704 mrpeach/packOSC;
#X obj 1184 90 random 101;
#X obj 1229 541 bng 18 250 50 0 empty empty empty 17 7 0 10 -258113
-1 -1;
#X obj 1184 53 bng 25 250 50 0 empty empty empty 17 7 0 10 -4034 -1
-1;
#X text 1661 249 <-- INPUT message;
#X text 1556 385 <-- OUTPUT message;
#X text 1255 544 <-- disconnect;
#X text 1597 596 <-- GOODBYE message;
#X msg 1185 179 send /hello/\$1/192.168.0.10/GuitarXBassControl;
#X text 1206 425 Standard OUTPUT message: /output/ID_number/IP_number/port_type_number/network_port_number/network_port_description/
;
#X text 1490 195 Standard HELLO message: /hello/id/ip/human_name;
#X msg 1190 373 send /output/\$1/192.168.0.10/1/controller/40020/ON/40021/OFF/OSC/GuitarXBassControl
;
#X obj 1186 118 value id13;
#X obj 1229 565 value id13;
#X obj 1179 877 route /hello /input /output /goodbye;
#X msg 1229 590 /goodbye/\$1/192.168.0.10/GuitarXBassRaw_control_OnOff/disconnected
;
#X text 1231 621 Standard GOODBYE message: /goodbye/ID_number/IP_number/human_name/status
;
#X obj 421 444 osc/unpackOSC;
#X obj 421 471 osc/routeOSC /connection;
#X obj 421 497 list;
#X text 59 399 receives OSC messages from the network \, at the multicast
address and on the specified port -->;
#X text 272 441 unpack OSC messages -->;
#X text 166 471 route the OSC message to this address -->;
#X text 225 497 put the message into a list -->;
#X obj 419 590 osc/unpackOSC;
#X obj 419 643 list;
#X text 74 549 receives OSC messages from the network \, at the multicast
address and on the specified port -->;
#X text 269 590 unpack OSC messages -->;
#X text 162 617 route the OSC message to this address -->;
#X text 221 643 put the message into a list -->;
#X obj 419 617 osc/routeOSC /disconnection;
#X obj 409 747 osc/unpackOSC;
#X obj 409 774 osc/routeOSC /connection;
#X obj 409 800 list;
#X text 62 705 receives OSC messages from the network \, at the multicast
address and on the specified port -->;
#X text 263 746 unpack OSC messages -->;
#X text 156 771 route the OSC message to this address -->;
#X text 213 800 put the message into a list -->;
#X obj 407 893 osc/unpackOSC;
#X obj 407 946 list;
#X text 64 850 receives OSC messages from the network \, at the multicast
address and on the specified port -->;
#X text 261 892 unpack OSC messages -->;
#X text 152 919 route the OSC message to this address -->;
#X text 212 943 put the message into a list -->;
#X obj 407 920 osc/routeOSC /disconnection;
#X obj 421 403 mrpeach/net/udpreceive 224.0.0.0 55025;
#X obj 409 706 mrpeach/net/udpreceive 224.0.0.0 55026;
#X obj 419 548 mrpeach/net/udpreceive 224.0.0.0 55027;
#X obj 407 851 mrpeach/net/udpreceive 224.0.0.0 55028;
#X floatatom 72 292 5 0 1 0 - - -;
#X text 109 291 <-- connection status;
#X msg 81 94 disconnect 239.255.255.250 40020;
#X msg 651 68 disconnect 239.255.255.250 40021;
#X floatatom 643 294 5 0 1 0 - - -;
#X text 680 295 <-- connection status;
#X text 1295 564 <-- random ID number;
#X text 1214 55 <-- Connect and generates random ID number;
#X text 1251 88 <-- generate random ID number;
#X text 1250 118 <-- store random ID number;
#X text 1332 140 <-- connect to OSC server;
#X text 1466 181 <-- presents musical things to the network;
#X text 1201 289 Standard INPUT message: /input/ID_number/IP_number/port_type_number/musical_thing_type(audio)/sample_rate/bit_depth/audio_file_format/channel_number/IP_connection/port_number/port_description/network_protocol/music_protocol/human_name
;
#X msg 1190 230 send /input/\$1/192.168.0.10/0/controller/0/1/224.0.0.0/55025/ON_CONTROL_CLI/55026/ON_CONTROL1_CLI/55027/OFF_CONTROL_CLI/55028/OFF_CONTROL1_CLI/UDP/OSC/GuitarXBassControlOnOff
, f 76;
#X connect 0 0 1 0;
#X connect 1 0 80 0;
#X connect 2 0 8 0;
#X connect 3 0 4 0;
#X connect 4 0 84 0;
#X connect 5 0 9 0;
#X connect 8 0 0 0;
#X connect 9 0 3 0;
#X connect 10 0 4 0;
#X connect 11 0 1 0;
#X connect 23 0 24 0;
#X connect 24 0 26 0;
#X connect 25 0 42 0;
#X connect 25 1 93 0;
#X connect 25 2 39 0;
#X connect 30 0 24 0;
#X connect 31 0 24 0;
#X connect 32 0 39 0;
#X connect 32 0 93 0;
#X connect 32 0 42 0;
#X connect 32 0 43 0;
#X connect 33 0 44 0;
#X connect 34 0 30 0;
#X connect 34 0 32 0;
#X connect 39 0 31 0;
#X connect 42 0 31 0;
#X connect 44 0 46 0;
#X connect 45 0 25 0;
#X connect 46 0 31 0;
#X connect 46 0 23 0;
#X connect 48 0 49 0;
#X connect 49 0 50 0;
#X connect 50 0 11 0;
#X connect 55 0 61 0;
#X connect 56 0 82 0;
#X connect 61 0 56 0;
#X connect 62 0 63 0;
#X connect 63 0 64 0;
#X connect 64 0 10 0;
#X connect 69 0 75 0;
#X connect 70 0 83 0;
#X connect 75 0 70 0;
#X connect 76 0 48 0;
#X connect 77 0 62 0;
#X connect 78 0 55 0;
#X connect 79 0 69 0;
#X connect 82 0 1 0;
#X connect 83 0 4 0;
#X connect 93 0 31 0;
