#N canvas 0 182 1920 987 12;
#X obj 121 225 osc/packOSC;
#X obj 55 268 mrpeach/net/udpsend;
#X obj 121 138 tgl 15 0 empty empty empty 17 7 0 10 -4034 -1 -1 0 1
;
#X text 237 39 ON/OFF;
#X msg 121 196 send /on_off_pitch \$1;
#X text 234 73 <-- connect to multicast address;
#X text 268 108 <-- close connection;
#X text 137 136 <-- ON/OFF pitchfor via OSC message;
#X text 204 225 <-- convert Pure Data to OSC;
#X text 275 194 <-- send message;
#X text 175 269 <-- send message via network;
#X msg 53 72 connect 224.0.0.251 40051;
#X text 1122 37 MANAGEMENT LAYER;
#X msg 1036 720 disconnect;
#X obj 1001 796 mrpeach/udpsend;
#X obj 999 890 t b b b;
#X obj 1001 837 tgl 25 0 empty empty empty 17 7 0 10 -228856 -1 -1
0 1;
#X text 1032 840 <-- connection status;
#X text 1119 757 <-- pack messages on OSC format;
#X text 1111 794 <-- send messages via network;
#X msg 1004 169 connect 224.0.0.1 60000;
#X obj 1003 758 mrpeach/packOSC;
#X obj 1004 117 random 101;
#X obj 1036 599 bng 18 250 50 0 empty empty empty 17 7 0 10 -258113
-1 -1;
#X obj 1004 80 bng 25 250 50 0 empty empty empty 17 7 0 10 -4034 -1
-1;
#X text 1439 459 <-- OUTPUT message;
#X text 1062 602 <-- disconnect;
#X text 1465 647 <-- GOODBYE message;
#X msg 1005 206 send /hello/\$1/192.168.0.10/PitchforkControl_OnOff
;
#X text 1038 510 Standard OUTPUT message: /output/ID_number/IP_number/port_type_number/network_port_number/network_port_description/
;
#X text 1389 220 Standard HELLO message: /hello/id/ip/human_name;
#X obj 1006 145 value id20;
#X obj 1036 623 value id20;
#X obj 999 931 route /hello /input /output /goodbye;
#X text 1043 673 Standard GOODBYE message: /goodbye/ID_number/IP_number/human_name/status
;
#X msg 1037 648 /goodbye/\$1/192.168.0.10/PitchforkControl_OnOff/disconnected
;
#X text 1541 277 <-- INPUT message;
#X obj 422 460 osc/unpackOSC;
#X obj 422 487 osc/routeOSC /connection;
#X obj 422 513 list;
#X text 24 417 receives OSC messages from the network \, at the multicast
address and on the specified port -->;
#X text 247 457 unpack OSC messages -->;
#X text 127 486 route the OSC message to this address -->;
#X text 199 511 put the message into a list -->;
#X obj 420 606 osc/unpackOSC;
#X obj 420 659 list;
#X text 21 565 receives OSC messages from the network \, at the multicast
address and on the specified port -->;
#X text 252 606 unpack OSC messages -->;
#X text 128 633 route the OSC message to this address -->;
#X text 193 657 put the message into a list -->;
#X obj 420 633 osc/routeOSC /disconnection;
#X msg 64 109 disconnect 224.0.0.251 40051;
#X obj 422 419 mrpeach/net/udpreceive 224.0.0.0 55041;
#X obj 420 564 mrpeach/net/udpreceive 224.0.0.0 55042;
#X floatatom 55 301 5 0 1 0 - - -;
#X text 96 300 <-- connection status;
#X text 1034 82 <-- Connect and generates random ID number;
#X text 1078 115 <-- generate a random ID number between 0 - 100;
#X text 1082 143 <-- store random ID number;
#X text 1174 167 <-- connect to OSC server;
#X text 1364 202 <-- presentes the musical thing in the network;
#X text 1112 624 <-- random ID number;
#X text 1024 342 Standard INPUT message: /input/ID_number/IP_number/port_type_number/musical_thing_type(audio)/sample_rate/bit_depth/audio_file_format/channel_number/IP_connection/port_number/port_description/network_protocol/music_protocol/human_name
;
#X obj 107 1203 osc/packOSC;
#X obj 41 1246 mrpeach/net/udpsend;
#X obj 107 1130 tgl 15 0 empty empty empty 17 7 0 10 -4034 -1 -1 0
1;
#X text 222 1051 <-- connect to multicast address;
#X text 255 1086 <-- close connection;
#X text 274 1173 <-- prepare to send message;
#X text 194 1204 <-- pack message in a OSC format;
#X text 182 1245 <-- send OSC packet via network \, using mrpeach library
;
#X floatatom 41 1282 5 0 1 0 - - -;
#X text 82 1283 <-- connection status;
#X obj 641 1203 osc/packOSC;
#X obj 575 1246 mrpeach/net/udpsend;
#X obj 641 1130 tgl 15 0 empty empty empty 17 7 0 10 -258113 -1 -1
0 1;
#X text 743 1044 <-- connect to multicast address;
#X text 763 1078 <-- close connection;
#X text 819 1172 <-- prepare to send message;
#X text 730 1203 <-- pack message in a OSC format;
#X text 720 1247 <-- send OSC packet via network \, using mrpeach library
;
#X floatatom 575 1276 5 0 1 0 - - -;
#X text 615 1280 <-- connection status;
#X obj 39 1445 osc/unpackOSC;
#X obj 39 1472 osc/routeOSC /connection;
#X obj 39 1498 list;
#X obj 26 1516 osc/unpackOSC;
#X obj 26 1569 list;
#X obj 26 1543 osc/routeOSC /disconnection;
#X obj 574 1445 osc/unpackOSC;
#X obj 574 1472 osc/routeOSC /connection;
#X obj 574 1498 list;
#X obj 561 1516 osc/unpackOSC;
#X obj 561 1569 list;
#X obj 561 1543 osc/routeOSC /disconnection;
#X msg 41 1050 connect 224.0.0.0 44444;
#X msg 55 1086 disconnect 224.0.0.0 44444;
#X text 124 1128 <-- OPEN - SUBPATCH [pitchfork2];
#X text 662 1129 <-- CLOSE - SUBPATCH [pitchfork2];
#X msg 575 1045 connect 224.0.0.0 44445;
#X msg 574 1079 disconnect 224.0.0.0 44445;
#X text 431 983 - SUBPATCH CONTROL;
#X msg 107 1173 send /open_pitchfork \$1;
#X msg 641 1173 send /close_pitchfork \$1;
#X obj 39 1404 mrpeach/net/udpreceive 224.0.0.0 45470;
#X obj 574 1404 mrpeach/net/udpreceive 224.0.0.0 45471;
#X obj 37 1549 mrpeach/net/udpreceive 224.0.0.0 45472;
#X obj 572 1549 mrpeach/net/udpreceive 224.0.0.0 45473;
#X msg 1012 439 send /output/\$1/192.168.0.10/1/controller/40051/44444/OPEN_SUBPATCH_PITCHFORK2/44445/CLOSE_SUBPATCH_PITCHFORK2/OSCmessage/Pitchfork
;
#X msg 1008 262 send /input/\$1/192.168.0.10/0/controller/0/1/224.0.0.0/45470/CONNECT_OPEN_SUBPATCH_PITCHFORK2/45471/CONNECT_CLOSE_SUBPATCH_PITCHFORK2/45472/DISCONNECT_OPEN_SUBPATCH_PITCHFORK2/45473/DISCONNECT_CLOSE_PITCHFORK2/55041/ON_CLI/55042/OFF_CLI/UDP/OSC/PitchforckControlOnOff
, f 75;
#X connect 0 0 1 0;
#X connect 1 0 54 0;
#X connect 2 0 4 0;
#X connect 4 0 0 0;
#X connect 11 0 1 0;
#X connect 13 0 14 0;
#X connect 14 0 16 0;
#X connect 15 0 108 0;
#X connect 15 1 109 0;
#X connect 15 2 28 0;
#X connect 20 0 14 0;
#X connect 21 0 14 0;
#X connect 22 0 28 0;
#X connect 22 0 109 0;
#X connect 22 0 108 0;
#X connect 22 0 31 0;
#X connect 23 0 32 0;
#X connect 24 0 20 0;
#X connect 24 0 22 0;
#X connect 28 0 21 0;
#X connect 32 0 35 0;
#X connect 33 0 15 0;
#X connect 35 0 21 0;
#X connect 35 0 13 0;
#X connect 37 0 38 0;
#X connect 38 0 39 0;
#X connect 39 0 11 0;
#X connect 44 0 50 0;
#X connect 45 0 51 0;
#X connect 50 0 45 0;
#X connect 51 0 1 0;
#X connect 52 0 37 0;
#X connect 53 0 44 0;
#X connect 63 0 64 0;
#X connect 64 0 71 0;
#X connect 65 0 102 0;
#X connect 73 0 74 0;
#X connect 74 0 81 0;
#X connect 75 0 103 0;
#X connect 83 0 84 0;
#X connect 84 0 85 0;
#X connect 85 0 95 0;
#X connect 86 0 88 0;
#X connect 87 0 96 0;
#X connect 88 0 87 0;
#X connect 89 0 90 0;
#X connect 90 0 91 0;
#X connect 91 0 99 0;
#X connect 92 0 94 0;
#X connect 93 0 100 0;
#X connect 94 0 93 0;
#X connect 95 0 64 0;
#X connect 96 0 64 0;
#X connect 99 0 74 0;
#X connect 100 0 74 0;
#X connect 102 0 63 0;
#X connect 103 0 73 0;
#X connect 104 0 83 0;
#X connect 105 0 89 0;
#X connect 106 0 86 0;
#X connect 107 0 92 0;
#X connect 108 0 21 0;
#X connect 109 0 21 0;
