#N canvas 0 182 1920 987 12;
#X obj 256 258 gemhead;
#X obj 256 343 pix_video;
#X msg 290 296 dialog;
#X obj 256 385 pix_texture;
#X obj 256 432 rectangle 4 3;
#X text 453 202 <-- receive video data from network;
#X text 312 259 <-- Read video data;
#X text 340 296 <-- indicates video device;
#X text 329 345 <-- video capture;
#X text 340 385 <-- video output;
#X text 357 433 <-- screen size;
#X text 1253 18 MANAGEMENT LAYER;
#X msg 1158 745 disconnect;
#X obj 1137 814 mrpeach/udpsend;
#X obj 1135 908 t b b b;
#X obj 1137 855 tgl 25 0 empty empty empty 17 7 0 10 -228856 -1 -1
0 1;
#X text 1168 858 <-- connection status;
#X text 1252 774 <-- pack messages on OSC format;
#X text 1252 815 <-- send messages via network;
#X msg 1135 150 connect 224.0.0.1 60000;
#X obj 1139 776 mrpeach/packOSC;
#X obj 1135 98 random 101;
#X obj 1158 624 bng 18 250 50 0 empty empty empty 17 7 0 10 -258113
-1 -1;
#X obj 1135 61 bng 25 250 50 0 empty empty empty 17 7 0 10 -4034 -1
-1;
#X text 1600 273 <-- INPUT message;
#X text 1575 466 <-- OUTPUT message;
#X text 1184 627 <-- disconnect;
#X text 1517 673 <-- GOODBYE message;
#X text 1172 503 Standard OUTPUT message: /output/ID_number/IP_number/port_type_number/network_port_number/network_port_description/
;
#X text 1161 326 Standard INPUT message: /input/ID_number/IP_number/port_type_number/musical_thing_type(audio)/sample_rate/bit_depth/audio_file_format/channel_number/port_number/port_description/network_protocol/music_protocol/human_name
;
#X text 1454 199 Standard HELLO message: /hello/id/ip/human_name;
#X obj 1138 126 value id23;
#X obj 1158 648 value id23;
#X obj 1135 949 route /hello /input /output /goodbye;
#X text 1165 698 Standard GOODBYE message: /goodbye/ID_number/IP_number/human_name/status
;
#X text 1165 63 <-- Connect and generates random ID number;
#X text 1208 96 <-- generates random ID number;
#X text 1213 125 <-- store random ID number;
#X text 1305 149 <-- connect to OSC server;
#X text 1432 182 <-- presents musical thing in the network;
#X text 1232 646 <-- random ID number;
#X obj 256 203 mrpeach/net/udpreceive 3500;
#X msg 1136 187 send /hello/\$1/192.168.0.10/VideoReceive;
#X msg 1147 449 send /output/\$1/192.168.0.10/1/controller/40100/ON/40101/OFF/OSCmessage/VideoReceive
;
#X msg 1158 673 /goodbye/\$1/192.168.0.10/VideoReceive/disconnected
;
#N canvas 0 182 1920 987 Video_Receive2 0;
#X obj 138 94 gemhead;
#X obj 138 179 pix_video;
#X msg 172 132 dialog;
#X obj 138 221 pix_texture;
#X obj 138 268 rectangle 4 3;
#X text 335 38 <-- receive video data from network;
#X text 194 95 <-- Read video data;
#X text 222 132 <-- indicates video device;
#X text 211 181 <-- video capture;
#X text 222 221 <-- video output;
#X text 239 269 <-- screen size;
#X text 1211 53 MANAGEMENT LAYER;
#X msg 1111 716 disconnect;
#X obj 1090 785 mrpeach/udpsend;
#X obj 1088 879 t b b b;
#X obj 1090 826 tgl 25 0 empty empty empty 17 7 0 10 -228856 -1 -1
0 1;
#X text 1121 829 <-- connection status;
#X text 1205 745 <-- pack messages on OSC format;
#X text 1205 786 <-- send messages via network;
#X msg 1093 185 connect 224.0.0.1 60000;
#X obj 1092 747 mrpeach/packOSC;
#X obj 1093 133 random 101;
#X obj 1111 595 bng 18 250 50 0 empty empty empty 17 7 0 10 -258113
-1 -1;
#X obj 1093 96 bng 25 250 50 0 empty empty empty 17 7 0 10 -4034 -1
-1;
#X text 1560 293 <-- INPUT message;
#X text 1528 437 <-- OUTPUT message;
#X text 1137 598 <-- disconnect;
#X text 1480 644 <-- GOODBYE message;
#X text 1125 474 Standard OUTPUT message: /output/ID_number/IP_number/port_type_number/network_port_number/network_port_description/
;
#X text 1138 339 Standard INPUT message: /input/ID_number/IP_number/port_type_number/musical_thing_type(audio)/sample_rate/bit_depth/audio_file_format/channel_number/port_number/port_description/network_protocol/music_protocol/human_name
;
#X text 1412 234 Standard HELLO message: /hello/id/ip/human_name;
#X obj 1088 920 route /hello /input /output /goodbye;
#X text 1118 669 Standard GOODBYE message: /goodbye/ID_number/IP_number/human_name/status
;
#X text 1123 98 <-- Connect and generates random ID number;
#X text 1166 131 <-- generates random ID number;
#X text 1171 160 <-- store random ID number;
#X text 1263 184 <-- connect to OSC server;
#X text 1390 217 <-- presents musical thing in the network;
#X text 1185 617 <-- random ID number;
#X obj 1096 161 value id50;
#X obj 1111 619 value id50;
#X msg 1094 222 send /hello/\$1/192.168.0.10/VideoReceive2;
#X msg 1095 289 send /input/\$1/192.168.0.10/0/3501/controller/0/1/UDP/OSC/VideoControl/VideoSender
, f 65;
#X obj 138 39 mrpeach/net/udpreceive 3501;
#X msg 1100 420 send /output/\$1/192.168.0.10/1/controller/40100/ON/40101/OFF/OSCmessage/VideoReceive2
;
#X msg 1111 644 /goodbye/\$1/192.168.0.10/VideoReceive2/disconnected
;
#X connect 0 0 1 0;
#X connect 1 0 3 0;
#X connect 2 0 1 0;
#X connect 3 0 4 0;
#X connect 12 0 13 0;
#X connect 13 0 15 0;
#X connect 14 0 44 0;
#X connect 14 1 42 0;
#X connect 14 2 41 0;
#X connect 19 0 13 0;
#X connect 20 0 13 0;
#X connect 21 0 41 0;
#X connect 21 0 42 0;
#X connect 21 0 44 0;
#X connect 21 0 39 0;
#X connect 22 0 40 0;
#X connect 23 0 19 0;
#X connect 23 0 21 0;
#X connect 31 0 14 0;
#X connect 40 0 45 0;
#X connect 41 0 20 0;
#X connect 42 0 20 0;
#X connect 43 0 0 0;
#X connect 44 0 20 0;
#X connect 45 0 20 0;
#X connect 45 0 12 0;
#X restore 333 63 pd Video_Receive2;
#X text 356 39 - SUBPATCH;
#X msg 567 841 vis 0;
#X obj 100 776 tgl 15 0 empty empty empty 17 7 0 10 -4034 -1 -1 0 1
;
#X obj 567 795 tgl 15 0 empty empty empty 17 7 0 10 -258113 -1 -1 0
1;
#X text 120 774 <-- OPEN;
#X msg 100 807 vis 1;
#X text 586 794 <-- CLOSE;
#X obj 100 689 osc/unpackOSC;
#X text 373 663 <-- Receive OSC message;
#X text 196 689 <-- convert OSC message to Pure Data;
#X obj 567 690 osc/unpackOSC;
#X text 835 664 <-- Receive OSC message;
#X text 665 690 <-- convert OSC message to Pure Data;
#X obj 100 861 s pd-Video_Receive2;
#X obj 100 737 osc/routeOSC /video_receive;
#X obj 567 724 osc/routeOSC /video_receive;
#X obj 100 666 mrpeach/net/udpreceive 224.0.0.0 3600;
#X obj 567 667 mrpeach/net/udpreceive 224.0.0.0 3601;
#X msg 1137 254 send /input/\$1/192.168.0.10/0/3500/3600/OPEN_SUBPATCH_VIDEO_RECEIVE2/3601/CLOSE_SUBPATCH_VIDEO_RECEIVE2/controller/0/1/UDP/OSC/VideoControl/VideoSender
, f 65;
#X text 472 594 - SUBPATCH CONTROL;
#X connect 0 0 1 0;
#X connect 1 0 3 0;
#X connect 2 0 1 0;
#X connect 3 0 4 0;
#X connect 12 0 13 0;
#X connect 13 0 15 0;
#X connect 14 0 43 0;
#X connect 14 1 64 0;
#X connect 14 2 42 0;
#X connect 19 0 13 0;
#X connect 20 0 13 0;
#X connect 21 0 42 0;
#X connect 21 0 64 0;
#X connect 21 0 43 0;
#X connect 21 0 31 0;
#X connect 22 0 32 0;
#X connect 23 0 19 0;
#X connect 23 0 21 0;
#X connect 32 0 44 0;
#X connect 33 0 14 0;
#X connect 41 0 0 0;
#X connect 42 0 20 0;
#X connect 43 0 20 0;
#X connect 44 0 20 0;
#X connect 44 0 12 0;
#X connect 47 0 59 0;
#X connect 48 0 51 0;
#X connect 49 0 47 0;
#X connect 51 0 59 0;
#X connect 53 0 60 0;
#X connect 56 0 61 0;
#X connect 60 0 48 0;
#X connect 61 0 49 0;
#X connect 62 0 53 0;
#X connect 63 0 56 0;
#X connect 64 0 20 0;
