#N canvas 0 64 1920 987 10;
#X floatatom 594 625 0 0 0 0 - - -;
#X obj 785 538 adc~;
#X obj 818 472 hsl 128 15 0 127 0 0 empty empty empty -2 -8 0 10 -4034
-1 -1 0 1;
#X obj 815 299 osc/unpackOSC;
#X obj 815 344 osc/routeOSC /volume;
#X obj 594 39 osc/unpackOSC;
#X obj 594 304 tgl 15 0 empty empty empty 17 7 0 10 -4034 -1 -1 0 1
;
#X obj 594 66 osc/routeOSC /mic;
#X obj 45 49 osc/unpackOSC;
#X obj 45 83 osc/routeOSC /mic;
#X obj 45 397 tgl 15 0 empty empty empty 17 7 0 10 -258113 -1 -1 0
1;
#X obj 594 600 mrpeach/net/udpsend~ 2;
#X msg 594 342 connect 239.255.255.250 3000;
#X text 815 539 <-- Audio input;
#X text 737 597 <-- send audio via Network in a UDP socket \, using
mrpeach library;
#X text 618 626 <-- connection status;
#X text 468 411 close connection -->;
#X text 413 342 connect multicast address -->;
#X text 613 302 <-- ON;
#X text 829 15 <-- Receive OSC message;
#X text 279 25 <-- Receive OSC message;
#X text 131 50 <-- convert OSC message to Pure Data;
#X text 677 38 <-- convert OSC message to Pure Data;
#X text 955 472 <-- Volume vslider (0 - 127);
#X text 940 343 <-- Receive data from 'volume' variable;
#X text -3 397 OFF -->;
#X text 1398 14 MANAGEMENT LAYER;
#X msg 1325 645 disconnect;
#X obj 1278 784 mrpeach/udpsend;
#X obj 1276 878 t b b b;
#X obj 1278 825 tgl 25 0 empty empty empty 17 7 0 10 -228856 -1 -1
0 1;
#X text 1309 828 <-- connection status;
#X text 1379 747 <-- pack messages on OSC format;
#X text 1377 783 <-- send messages via network;
#X msg 1280 146 connect 224.0.0.1 60000;
#X obj 1280 746 mrpeach/packOSC;
#X obj 1280 94 random 101;
#X obj 1325 524 bng 18 250 50 0 empty empty empty 17 7 0 10 -258113
-1 -1;
#X obj 1280 57 bng 25 250 50 0 empty empty empty 17 7 0 10 -4034 -1
-1;
#X text 1604 414 <-- OUTPUT message;
#X text 1351 527 <-- disconnect;
#X text 1623 572 <-- GOODBYE message;
#X text 1299 450 Standard OUTPUT message: /output/ID_number/IP_number/port_type_number/network_port_number/network_port_description/
;
#X text 1310 59 <-- Connect and generate random ID number;
#X text 1347 92 <-- generates random number between 0 and 100;
#X text 1344 117 <-- store random number;
#X text 1428 144 <-- connects to OSC server \, displaying the musical
thing to the network;
#X text 1386 545 <-- same random number;
#X msg 1281 183 send /hello/\$1/192.168.0.10/Microphone;
#X msg 1283 403 send /output/\$1/192.168.0.10/1/audio/44100/16bits/2/3000/Loudspeaker
, f 52;
#X obj 1286 118 value id1;
#X obj 1325 548 value id1;
#X obj 1276 919 route /hello /input /output /goodbye;
#X text 1332 598 Standard GOODBYE message: /goodbye/ID_number/IP_number/human_name/status
;
#X obj 594 132 osc/unpackOSC;
#X obj 594 159 osc/routeOSC /connection;
#X obj 594 187 list;
#X text 232 87 receives OSC messages from the network \, at the multicast
address and on the specified port -->;
#X text 445 129 unpack OSC messages -->;
#X text 339 159 route the OSC message to this address -->;
#X obj 594 738 osc/unpackOSC;
#X obj 594 791 list;
#X text 249 697 receives OSC messages from the network \, at the multicast
address and on the specified port -->;
#X text 444 738 unpack OSC messages -->;
#X text 337 765 route the OSC message to this address -->;
#X text 396 791 put the message into a list -->;
#X obj 594 765 osc/routeOSC /disconnection;
#X obj 594 91 mrpeach/net/udpreceive 224.0.0.0 55029;
#X obj 594 696 mrpeach/net/udpreceive 224.0.0.0 55030;
#X text 1296 298 Standard INPUT message: /input/ID_number/IP_number/port_type_number/musical_thing_type(audio)/sample_rate/bit_depth/audio_file_format/channel_number/IP_connection/port_number/port_description/network_protocol/music_protocol/human_name
;
#X msg 594 412 disconnect 239.255.255.250 3000;
#N canvas 0 64 1920 987 mic_aux_1 0;
#X floatatom 594 625 0 0 0 0 - - -;
#X obj 785 538 adc~;
#X obj 818 472 hsl 128 15 0 127 0 0 empty empty empty -2 -8 0 10 -4034
-1 -1 0 1;
#X obj 815 334 osc/unpackOSC;
#X obj 815 366 osc/routeOSC /volume;
#X obj 594 39 osc/unpackOSC;
#X obj 594 308 tgl 15 0 empty empty empty 17 7 0 10 -4034 -1 -1 0 1
;
#X obj 594 67 osc/routeOSC /mic;
#X obj 45 49 osc/unpackOSC;
#X obj 45 83 osc/routeOSC /mic;
#X obj 45 397 tgl 15 0 empty empty empty 17 7 0 10 -258113 -1 -1 0
1;
#X obj 594 600 mrpeach/net/udpsend~ 2;
#X text 815 539 <-- Audio input;
#X text 737 597 <-- send audio via Network in a UDP socket \, using
mrpeach library;
#X text 618 626 <-- connection status;
#X text 468 411 close connection -->;
#X text 413 342 connect multicast address -->;
#X text 615 306 <-- ON;
#X text 831 14 <-- Receive OSC message;
#X text 284 27 <-- Receive OSC message;
#X text 131 50 <-- convert OSC message to Pure Data;
#X text 677 38 <-- convert OSC message to Pure Data;
#X text 955 472 <-- Volume vslider (0 - 127);
#X text 940 365 <-- Receive data from 'volume' variable;
#X text -3 397 OFF -->;
#X text 1398 14 MANAGEMENT LAYER;
#X msg 1324 607 disconnect;
#X obj 1277 746 mrpeach/udpsend;
#X obj 1275 840 t b b b;
#X obj 1277 787 tgl 25 0 empty empty empty 17 7 0 10 -228856 -1 -1
0 1;
#X text 1308 790 <-- connection status;
#X text 1378 709 <-- pack messages on OSC format;
#X text 1376 745 <-- send messages via network;
#X msg 1280 146 connect 224.0.0.1 60000;
#X obj 1279 708 mrpeach/packOSC;
#X obj 1280 94 random 101;
#X obj 1324 486 bng 18 250 50 0 empty empty empty 17 7 0 10 -258113
-1 -1;
#X obj 1280 57 bng 25 250 50 0 empty empty empty 17 7 0 10 -4034 -1
-1;
#X text 1605 378 <-- OUTPUT message;
#X text 1350 489 <-- disconnect;
#X text 1611 539 <-- GOODBYE message;
#X text 1298 412 Standard OUTPUT message: /output/ID_number/IP_number/port_type_number/network_port_number/network_port_description/
;
#X text 1310 59 <-- Connect and generate random ID number;
#X text 1347 92 <-- generates random number between 0 and 100;
#X text 1345 118 <-- store random number;
#X text 1428 144 <-- connects to OSC server \, displaying the musical
thing to the network;
#X text 1389 508 <-- same random number;
#X obj 1275 881 route /hello /input /output /goodbye;
#X text 1330 569 Standard GOODBYE message: /goodbye/ID_number/IP_number/human_name/status
;
#X obj 595 137 osc/unpackOSC;
#X obj 595 164 osc/routeOSC /connection;
#X obj 595 193 list;
#X text 233 92 receives OSC messages from the network \, at the multicast
address and on the specified port -->;
#X text 446 134 unpack OSC messages -->;
#X text 340 164 route the OSC message to this address -->;
#X text 399 190 put the message into a list -->;
#X obj 594 738 osc/unpackOSC;
#X obj 594 791 list;
#X text 249 697 receives OSC messages from the network \, at the multicast
address and on the specified port -->;
#X text 444 738 unpack OSC messages -->;
#X text 337 765 route the OSC message to this address -->;
#X text 396 791 put the message into a list -->;
#X obj 594 765 osc/routeOSC /disconnection;
#X text 1293 292 Standard INPUT message: /input/ID_number/IP_number/port_type_number/musical_thing_type(audio)/sample_rate/bit_depth/audio_file_format/channel_number/IP_connection/port_number/port_description/network_protocol/music_protocol/human_name
;
#X msg 594 342 connect 239.255.255.250 3002;
#X msg 594 412 disconnect 239.255.255.250 3002;
#X obj 595 96 mrpeach/net/udpreceive 224.0.0.0 56029;
#X obj 594 696 mrpeach/net/udpreceive 224.0.0.0 56030;
#X obj 1281 119 value id31;
#X text 283 924 - SET AUDIO PARAMETERS;
#X msg 284 973 params @samplerate 48000;
#X msg 284 1062 params @callback 1;
#X msg 284 1016 params @advance 2;
#X obj 93 1294 mediasettings/audiosettings;
#X msg 284 1186 driver 3;
#X text 349 1186 standard (MIMO);
#X msg 284 1209 driver 4;
#X text 350 1208 ASIO;
#X text 422 1038 same as "advance";
#X msg 284 1039 params @buffersize 10;
#X msg 284 995 params @rate 44100;
#X text 406 992 same as "samplerate";
#X text 405 1016 "Delay (msec)";
#X text 407 1060 "Use callbacks" 1=on 0=off;
#X text 284 1165 Understood \, but only changes if in/outs already
set;
#X text 407 1084 indevice + inchannels;
#X text 408 1106 outdevice + outchannels;
#X msg 284 1085 params @input 0 8;
#X msg 284 1108 params @output 1 2;
#X obj 45 26 mrpeach/net/udpreceive 224.0.0.0 30031;
#X obj 594 16 mrpeach/net/udpreceive 224.0.0.0 30030;
#X obj 815 308 mrpeach/net/udpreceive 224.0.0.0 40000;
#X msg 1282 365 send /output/\$1/192.168.0.10/1/audio/44100/16bits/2/3002/Loudspeaker
, f 52;
#X text 1514 180 <-- presents the musical thing on the network Standard
HELLO message: /hello/id/ip/human_name;
#X obj 1324 510 value id31;
#X text 1811 241 <-- INPUT message;
#X msg 1281 183 send /hello/\$1/192.168.0.10/Mic_Aux_1;
#X msg 1284 233 send /input/\$1/192.168.0.10/0/audio/44100/16bits/2/224.0.0.0/40000/Volume/30030/ON/30031/OFF/56029/ON_CLI/56030/OFF_CLI/UDP/OSC/Mic_Aux_1
, f 86;
#X msg 1324 535 /goodbye/\$1/192.168.0.10/microphone/Mic_Aux_1/disconnected
, f 46;
#X obj 45 278 receive fromGUI;
#X obj 45 304 list trim;
#X obj 45 331 route /off_mobmuplat_mic_aux_1;
#X obj 594 221 receive fromGUI;
#X obj 594 247 list trim;
#X obj 594 274 route /on_mobmuplat_mic_aux_1;
#X text 1052 306 <-- Receive OSC message for volume control;
#X obj 814 393 receive fromGUI;
#X obj 814 419 list trim;
#X obj 814 446 route /volume_mobmuplat_mic_aux_1;
#X text 146 277 <-- Receive messages from MobMuPlat;
#X text 105 304 <-- Divide the commands within the list;
#X text 232 332 <-- Route information to this address;
#X text 912 394 <-- Receive messages from MobMuPlat;
#X text 873 418 <-- Divide the commands within the list;
#X text 1020 445 <-- Route information to this address;
#X text 690 220 <-- Receive messages from MobMuPlat;
#X text 654 246 <-- Divide the commands within the list;
#X text 774 272 <-- Route information to this address;
#X connect 1 0 11 0;
#X connect 2 0 11 0;
#X connect 3 0 4 0;
#X connect 4 0 2 0;
#X connect 5 0 7 0;
#X connect 6 0 64 0;
#X connect 7 0 6 0;
#X connect 8 0 9 0;
#X connect 9 0 10 0;
#X connect 10 0 65 0;
#X connect 11 0 0 0;
#X connect 26 0 27 0;
#X connect 27 0 29 0;
#X connect 28 0 92 0;
#X connect 28 1 97 0;
#X connect 28 2 96 0;
#X connect 33 0 27 0;
#X connect 34 0 27 0;
#X connect 35 0 97 0;
#X connect 35 0 92 0;
#X connect 35 0 96 0;
#X connect 35 0 68 0;
#X connect 36 0 94 0;
#X connect 37 0 33 0;
#X connect 37 0 35 0;
#X connect 47 0 28 0;
#X connect 49 0 50 0;
#X connect 50 0 51 0;
#X connect 51 0 6 0;
#X connect 56 0 62 0;
#X connect 57 0 65 0;
#X connect 62 0 57 0;
#X connect 64 0 11 0;
#X connect 65 0 11 0;
#X connect 66 0 49 0;
#X connect 67 0 56 0;
#X connect 70 0 73 0;
#X connect 71 0 73 0;
#X connect 72 0 73 0;
#X connect 74 0 73 0;
#X connect 76 0 73 0;
#X connect 79 0 73 0;
#X connect 80 0 73 0;
#X connect 87 0 73 0;
#X connect 88 0 73 0;
#X connect 89 0 8 0;
#X connect 90 0 5 0;
#X connect 91 0 3 0;
#X connect 92 0 34 0;
#X connect 94 0 98 0;
#X connect 96 0 34 0;
#X connect 97 0 34 0;
#X connect 98 0 34 0;
#X connect 98 0 26 0;
#X connect 99 0 100 0;
#X connect 100 0 101 0;
#X connect 101 0 10 0;
#X connect 102 0 103 0;
#X connect 103 0 104 0;
#X connect 104 0 6 0;
#X connect 106 0 107 0;
#X connect 107 0 108 0;
#X connect 108 0 2 0;
#X restore 367 966 pd mic_aux_1;
#X msg 513 1168 vis 0;
#X obj 83 1124 tgl 15 0 empty empty empty 17 7 0 10 -4034 -1 -1 0 1
;
#X obj 513 1131 tgl 15 0 empty empty empty 17 7 0 10 -258113 -1 -1
0 1;
#X text 103 1122 <-- OPEN;
#X obj 83 1187 s pd-mic_aux_1;
#X msg 83 1155 vis 1;
#X text 532 1130 <-- CLOSE;
#X obj 83 1037 osc/unpackOSC;
#X obj 83 1085 osc/routeOSC /mic;
#X text 319 1012 <-- Receive OSC message;
#X text 171 1037 <-- convert OSC message to Pure Data;
#X obj 513 1049 osc/unpackOSC;
#X obj 513 1098 osc/routeOSC /mic;
#X text 750 1014 <-- Receive OSC message;
#X text 599 1050 <-- convert OSC message to Pure Data;
#X text 446 965 <-- SUBPATCH;
#X obj 45 26 mrpeach/net/udpreceive 224.0.0.0 40031;
#X obj 594 16 mrpeach/net/udpreceive 224.0.0.0 40030;
#X obj 83 1014 mrpeach/net/udpreceive 224.0.0.0 40530;
#X obj 513 1015 mrpeach/net/udpreceive 224.0.0.0 40531;
#X obj 815 273 mrpeach/net/udpreceive 224.0.0.0 40000;
#N canvas 0 64 1920 987 mic_aux_2 0;
#X floatatom 594 625 0 0 0 0 - - -;
#X obj 785 538 adc~;
#X obj 818 472 hsl 128 15 0 127 0 0 empty empty empty -2 -8 0 10 -4034
-1 -1 0 1;
#X obj 815 346 osc/unpackOSC;
#X obj 815 376 osc/routeOSC /volume;
#X obj 594 39 osc/unpackOSC;
#X obj 594 311 tgl 15 0 empty empty empty 17 7 0 10 -4034 -1 -1 0 1
;
#X obj 594 67 osc/routeOSC /mic;
#X obj 45 49 osc/unpackOSC;
#X obj 45 83 osc/routeOSC /mic;
#X obj 45 397 tgl 15 0 empty empty empty 17 7 0 10 -258113 -1 -1 0
1;
#X obj 594 600 mrpeach/net/udpsend~ 2;
#X text 815 539 <-- Audio input;
#X text 737 597 <-- send audio via Network in a UDP socket \, using
mrpeach library;
#X text 618 626 <-- connection status;
#X text 468 411 close connection -->;
#X text 413 342 connect multicast address -->;
#X text 614 310 <-- ON;
#X text 831 14 <-- Receive OSC message;
#X text 284 27 <-- Receive OSC message;
#X text 131 50 <-- convert OSC message to Pure Data;
#X text 677 38 <-- convert OSC message to Pure Data;
#X text 955 472 <-- Volume vslider (0 - 127);
#X text 940 375 <-- Receive data from 'volume' variable;
#X text -3 397 OFF -->;
#X text 1398 14 MANAGEMENT LAYER;
#X msg 1324 607 disconnect;
#X obj 1277 746 mrpeach/udpsend;
#X obj 1275 840 t b b b;
#X obj 1277 787 tgl 25 0 empty empty empty 17 7 0 10 -228856 -1 -1
0 1;
#X text 1308 790 <-- connection status;
#X text 1378 709 <-- pack messages on OSC format;
#X text 1376 745 <-- send messages via network;
#X msg 1280 146 connect 224.0.0.1 60000;
#X obj 1279 708 mrpeach/packOSC;
#X obj 1280 94 random 101;
#X obj 1324 486 bng 18 250 50 0 empty empty empty 17 7 0 10 -258113
-1 -1;
#X obj 1280 57 bng 25 250 50 0 empty empty empty 17 7 0 10 -4034 -1
-1;
#X text 1685 375 <-- OUTPUT message;
#X text 1350 489 <-- disconnect;
#X text 1681 536 <-- GOODBYE message;
#X text 1298 412 Standard OUTPUT message: /output/ID_number/IP_number/port_type_number/network_port_number/network_port_description/
;
#X text 1310 59 <-- Connect and generate random ID number;
#X text 1347 92 <-- generates random number between 0 and 100;
#X text 1345 118 <-- store random number;
#X text 1428 144 <-- connects to OSC server \, displaying the musical
thing to the network;
#X text 1389 508 <-- same random number;
#X obj 1275 881 route /hello /input /output /goodbye;
#X text 1330 568 Standard GOODBYE message: /goodbye/ID_number/IP_number/human_name/status
;
#X obj 594 136 osc/unpackOSC;
#X obj 594 163 osc/routeOSC /connection;
#X obj 594 198 list;
#X text 232 91 receives OSC messages from the network \, at the multicast
address and on the specified port -->;
#X text 445 133 unpack OSC messages -->;
#X text 339 163 route the OSC message to this address -->;
#X text 398 189 put the message into a list -->;
#X obj 594 738 osc/unpackOSC;
#X obj 594 791 list;
#X text 249 697 receives OSC messages from the network \, at the multicast
address and on the specified port -->;
#X text 444 738 unpack OSC messages -->;
#X text 337 765 route the OSC message to this address -->;
#X text 396 791 put the message into a list -->;
#X obj 594 765 osc/routeOSC /disconnection;
#X text 1294 279 Standard INPUT message: /input/ID_number/IP_number/port_type_number/musical_thing_type(audio)/sample_rate/bit_depth/audio_file_format/channel_number/IP_connection/port_number/port_description/network_protocol/music_protocol/human_name
;
#X msg 594 342 connect 239.255.255.250 3002;
#X msg 594 412 disconnect 239.255.255.250 3002;
#X text 283 924 - SET AUDIO PARAMETERS;
#X msg 284 973 params @samplerate 48000;
#X msg 284 1062 params @callback 1;
#X msg 284 1016 params @advance 2;
#X obj 93 1294 mediasettings/audiosettings;
#X msg 284 1186 driver 3;
#X text 349 1186 standard (MIMO);
#X msg 284 1209 driver 4;
#X text 350 1208 ASIO;
#X text 422 1038 same as "advance";
#X msg 284 1039 params @buffersize 10;
#X msg 284 995 params @rate 44100;
#X text 406 992 same as "samplerate";
#X text 405 1016 "Delay (msec)";
#X text 407 1060 "Use callbacks" 1=on 0=off;
#X text 284 1165 Understood \, but only changes if in/outs already
set;
#X text 407 1084 indevice + inchannels;
#X text 408 1106 outdevice + outchannels;
#X msg 284 1085 params @input 0 8;
#X msg 284 1108 params @output 1 2;
#X obj 815 320 mrpeach/net/udpreceive 224.0.0.0 40000;
#X obj 1281 119 value id32;
#X msg 1282 365 send /output/\$1/192.168.0.10/1/audio/44100/16bits/2/3003/Loudspeaker
, f 65;
#X obj 594 16 mrpeach/net/udpreceive 224.0.0.0 30032;
#X obj 45 26 mrpeach/net/udpreceive 224.0.0.0 30033;
#X obj 594 95 mrpeach/net/udpreceive 224.0.0.0 56031;
#X obj 594 696 mrpeach/net/udpreceive 224.0.0.0 56032;
#X obj 1324 510 value id32;
#X text 1812 243 <-- INPUT message;
#X text 1514 181 <-- presents the musical thing on the network Standard
HELLO message: /hello/id/ip/human_name;
#X msg 1281 183 send /hello/\$1/192.168.0.10/Mic_Aux_2;
#X msg 1284 233 send /input/\$1/192.168.0.10/0/audio/44100/16bits/2/224.0.0.0/56031/ON_CLI/56032/OFF_CLI/40000/Volume/30032/ON/30033/OFF/UDP/OSC/Mic_Aux_2
, f 86;
#X msg 1324 536 /goodbye/\$1/192.168.0.10/Mic_Aux_2/disconnected;
#X text 1054 317 <-- Receive OSC message for volume control;
#X obj 816 399 receive fromGUI;
#X obj 816 425 list trim;
#X obj 816 452 route /volume_mobmuplat_mic_aux_2;
#X obj 594 225 receive fromGUI;
#X obj 594 252 list trim;
#X obj 594 279 route /on_mobmuplat_mic_aux_2;
#X obj 45 305 receive fromGUI;
#X obj 45 331 list trim;
#X obj 45 358 route /off_mobmuplat_mic_aux_2;
#X text 140 304 <-- Receive messages from MobMuPlat;
#X text 106 330 <-- Divide the commands within the list;
#X text 232 357 <-- Route information to this address;
#X text 691 224 <-- Receive messages from MobMuPlat;
#X text 656 251 <-- Divide the commands within the list;
#X text 777 279 <-- Route information to this address;
#X text 912 398 <-- Receive messages from MobMuPlat;
#X text 880 424 <-- Divide the commands within the list;
#X text 1020 450 <-- Route information to this address;
#X connect 1 0 11 0;
#X connect 2 0 11 0;
#X connect 3 0 4 0;
#X connect 4 0 2 0;
#X connect 5 0 7 0;
#X connect 6 0 64 0;
#X connect 7 0 6 0;
#X connect 8 0 9 0;
#X connect 9 0 10 0;
#X connect 10 0 65 0;
#X connect 11 0 0 0;
#X connect 26 0 27 0;
#X connect 27 0 29 0;
#X connect 28 0 88 0;
#X connect 28 1 97 0;
#X connect 28 2 96 0;
#X connect 33 0 27 0;
#X connect 34 0 27 0;
#X connect 35 0 97 0;
#X connect 35 0 88 0;
#X connect 35 0 96 0;
#X connect 35 0 87 0;
#X connect 36 0 93 0;
#X connect 37 0 33 0;
#X connect 37 0 35 0;
#X connect 47 0 28 0;
#X connect 49 0 50 0;
#X connect 50 0 51 0;
#X connect 51 0 6 0;
#X connect 56 0 62 0;
#X connect 57 0 65 0;
#X connect 62 0 57 0;
#X connect 64 0 11 0;
#X connect 65 0 11 0;
#X connect 67 0 70 0;
#X connect 68 0 70 0;
#X connect 69 0 70 0;
#X connect 71 0 70 0;
#X connect 73 0 70 0;
#X connect 76 0 70 0;
#X connect 77 0 70 0;
#X connect 84 0 70 0;
#X connect 85 0 70 0;
#X connect 86 0 3 0;
#X connect 88 0 34 0;
#X connect 89 0 5 0;
#X connect 90 0 8 0;
#X connect 91 0 49 0;
#X connect 92 0 56 0;
#X connect 93 0 98 0;
#X connect 96 0 34 0;
#X connect 97 0 34 0;
#X connect 98 0 34 0;
#X connect 98 0 26 0;
#X connect 100 0 101 0;
#X connect 101 0 102 0;
#X connect 102 0 2 0;
#X connect 103 0 104 0;
#X connect 104 0 105 0;
#X connect 105 0 6 0;
#X connect 106 0 107 0;
#X connect 107 0 108 0;
#X connect 108 0 10 0;
#X restore 1156 966 pd mic_aux_2;
#X text 1236 965 <-- SUBPATCH;
#X msg 1415 1168 vis 0;
#X obj 953 1123 tgl 15 0 empty empty empty 17 7 0 10 -4034 -1 -1 0
1;
#X obj 1415 1121 tgl 15 0 empty empty empty 17 7 0 10 -258113 -1 -1
0 1;
#X text 973 1121 <-- OPEN;
#X text 1435 1122 <-- CLOSE;
#X obj 953 1036 osc/unpackOSC;
#X obj 953 1084 osc/routeOSC /mic;
#X text 1189 1011 <-- Receive OSC message;
#X text 1041 1036 <-- convert OSC message to Pure Data;
#X obj 1415 1042 osc/unpackOSC;
#X obj 1415 1077 osc/routeOSC /mic;
#X text 1499 1043 <-- convert OSC message to Pure Data;
#X obj 953 1013 mrpeach/net/udpreceive 224.0.0.0 40532;
#X obj 1415 1013 mrpeach/net/udpreceive 224.0.0.0 40533;
#X obj 953 1186 s pd-mic_aux_2;
#X text 1526 179 <-- presents the musical thing on the network Standard
HELLO message: /hello/id/ip/human_name;
#X msg 953 1154 vis 1;
#X text 628 182 <-- put the message into a list (allows connection
using CLI);
#X text 831 91 <-- receive OSC messages to network;
#X text 1812 247 <-- INPUT message;
#X msg 1284 233 send /input/\$1/192.168.0.10/0/audio/44100/16bits/2/224.0.0.0/40530/OPEN_SUBPATCH/MIC_AUX1/40531/CLOSE_SUBPATCH/MIC_AUX1/40532/OPEN_SUBPATCH_MIC_AUX2/40533/CLOSE_SUBPATCH_MIC_AUX2/55029/ON_CLI/55030/OFF_CLI/40000/Volume/40030/ON/40031/OFF/UDP/OSC/Microphone
, f 86;
#X msg 1325 573 /goodbye/\$1/192.168.0.10/Microphone/disconnected;
#X obj 594 234 receive fromGUI;
#X obj 594 256 list trim;
#X obj 594 277 route /on_mobmuplat_mic1;
#X obj 45 291 receive fromGUI;
#X obj 45 317 list trim;
#X obj 815 376 receive fromGUI;
#X obj 815 402 list trim;
#X text 1054 271 <-- Receive OSC message for volume control;
#X obj 45 344 route /off_mobmuplat_mic;
#X obj 815 429 route /volume_mobmuplat_mic;
#X text 743 159 comment;
#X text 680 130 comment;
#X text 875 400 <-- Divide the commands within the list;
#X text 986 427 <-- Route information to this address;
#X text 912 375 <-- Receive messages from MobMuPlat;
#X text 144 290 <-- Receive messages from MobMuPlat;
#X text 107 315 <-- Divide the commands within the list;
#X text 689 233 <-- Receive messages from MobMuPlat;
#X text 352 256 Divide the commands within the list -->;
#X text 363 303 Route information to this address -->;
#X text 199 343 <-- Route information to this address;
#X connect 1 0 11 0;
#X connect 2 0 11 0;
#X connect 3 0 4 0;
#X connect 4 0 2 0;
#X connect 5 0 7 0;
#X connect 6 0 12 0;
#X connect 7 0 6 0;
#X connect 8 0 9 0;
#X connect 9 0 10 0;
#X connect 10 0 70 0;
#X connect 11 0 0 0;
#X connect 12 0 11 0;
#X connect 27 0 28 0;
#X connect 28 0 30 0;
#X connect 29 0 49 0;
#X connect 29 1 115 0;
#X connect 29 2 48 0;
#X connect 34 0 28 0;
#X connect 35 0 28 0;
#X connect 36 0 115 0;
#X connect 36 0 49 0;
#X connect 36 0 48 0;
#X connect 36 0 50 0;
#X connect 37 0 51 0;
#X connect 38 0 34 0;
#X connect 38 0 36 0;
#X connect 48 0 35 0;
#X connect 49 0 35 0;
#X connect 51 0 116 0;
#X connect 52 0 29 0;
#X connect 54 0 55 0;
#X connect 55 0 56 0;
#X connect 56 0 6 0;
#X connect 60 0 66 0;
#X connect 61 0 70 0;
#X connect 66 0 61 0;
#X connect 67 0 54 0;
#X connect 68 0 60 0;
#X connect 70 0 11 0;
#X connect 72 0 76 0;
#X connect 73 0 77 0;
#X connect 74 0 72 0;
#X connect 77 0 76 0;
#X connect 79 0 80 0;
#X connect 80 0 73 0;
#X connect 83 0 84 0;
#X connect 84 0 74 0;
#X connect 88 0 8 0;
#X connect 89 0 5 0;
#X connect 90 0 79 0;
#X connect 91 0 83 0;
#X connect 92 0 3 0;
#X connect 95 0 109 0;
#X connect 96 0 111 0;
#X connect 97 0 95 0;
#X connect 100 0 101 0;
#X connect 101 0 96 0;
#X connect 104 0 105 0;
#X connect 105 0 97 0;
#X connect 107 0 100 0;
#X connect 108 0 104 0;
#X connect 111 0 109 0;
#X connect 115 0 35 0;
#X connect 116 0 35 0;
#X connect 116 0 27 0;
#X connect 117 0 118 0;
#X connect 118 0 119 0;
#X connect 119 0 6 0;
#X connect 120 0 121 0;
#X connect 121 0 125 0;
#X connect 122 0 123 0;
#X connect 123 0 126 0;
#X connect 125 0 10 0;
#X connect 126 0 2 0;
