#N canvas 0 64 1920 987 10;
#N canvas 0 50 450 250 (subpatch) 0;
#X array \$0-drumpattern 16 float 3;
#A 0 2 1 2 2 1 0 2 1 10 10 4 0 1 2 2 2;
#X coords 0 6 16 0 200 140 1 0 0;
#X restore 1357 30 graph;
#X obj 1357 222 array set \$0-drumpattern;
#X msg 1357 189 0 2 3 4 5 6 0 1 2 3 4 5 6 0 1 2;
#N canvas 434 230 450 468 counter 0;
#X obj 62 44 inlet;
#X obj 121 43 inlet;
#X obj 62 85 tgl 15 0 empty empty empty 17 7 0 10 -204786 -1 -1 0 1
;
#X floatatom 121 84 5 0 0 0 - - -;
#X text 158 86 BPM;
#X obj 62 118 t f b;
#X msg 121 118 tempo \$1 permin;
#X obj 62 154 metro 0.25 120 permin;
#X text 145 193 reset;
#X obj 62 224 f;
#X obj 113 223 + 1;
#X obj 62 277 % 16;
#X obj 62 320 outlet;
#X msg 117 192 0;
#X connect 0 0 2 0;
#X connect 1 0 3 0;
#X connect 2 0 5 0;
#X connect 3 0 6 0;
#X connect 5 0 7 0;
#X connect 5 1 13 0;
#X connect 6 0 7 0;
#X connect 7 0 9 0;
#X connect 9 0 10 0;
#X connect 9 0 11 0;
#X connect 10 0 9 1;
#X connect 11 0 12 0;
#X connect 13 0 9 1;
#X restore 319 173 pd counter;
#X obj 136 158 tgl 15 0 empty empty empty 17 7 0 10 -232576 -1 -1 0
1;
#X floatatom 644 156 5 0 0 0 - - -;
#X obj 242 225 hradio 15 1 0 16 empty empty empty 0 -8 0 10 -4032 -1
-1 13;
#X obj 242 300 array get \$0-drumpattern;
#X msg 312 256 1;
#X floatatom 242 340 5 0 0 0 - - -;
#X obj 242 381 + 0.5;
#X obj 242 419 int;
#X floatatom 242 451 5 0 0 0 - - -;
#X obj 242 501 select 0 1 2 3 4 5 6;
#N canvas 345 257 550 366 kick 0;
#X obj 50 38 inlet;
#X obj 132 39 inlet;
#X obj 50 79 bng 15 250 50 0 empty empty empty 17 7 0 10 -262144 -1
-1;
#X obj 117 115 f;
#X msg 50 153 150 \, 50 70 0;
#X obj 50 186 vline~;
#X msg 116 187 \$1 1 0 \, 0 100 1;
#X obj 50 220 osc~;
#X obj 116 220 vline~;
#X obj 50 254 *~;
#X obj 51 288 outlet~;
#X connect 0 0 2 0;
#X connect 1 0 3 1;
#X connect 2 0 3 0;
#X connect 2 0 4 0;
#X connect 3 0 6 0;
#X connect 4 0 5 0;
#X connect 5 0 7 0;
#X connect 6 0 8 0;
#X connect 7 0 9 0;
#X connect 8 0 9 1;
#X connect 9 0 10 0;
#X restore 242 575 pd kick;
#N canvas 627 370 692 446 snare 0;
#X obj 356 49 inlet;
#X obj 295 50 inlet;
#X obj 295 95 f;
#X msg 295 136 \$1 1 0 \, 0 150 1;
#X obj 295 176 vline~;
#X obj 296 218 *~;
#X obj 123 294 *~;
#X obj 124 336 outlet~;
#X obj 96 64 noise~;
#X obj 97 102 lop~ 3000;
#X obj 96 140 hip~ 1000;
#X obj 169 174 osc~ 180;
#X obj 168 202 *~ 0.5;
#X connect 0 0 2 1;
#X connect 1 0 2 0;
#X connect 2 0 3 0;
#X connect 3 0 4 0;
#X connect 4 0 5 0;
#X connect 4 0 5 1;
#X connect 5 0 6 1;
#X connect 6 0 7 0;
#X connect 8 0 9 0;
#X connect 9 0 10 0;
#X connect 10 0 6 0;
#X connect 11 0 12 0;
#X connect 12 0 6 0;
#X restore 303 576 pd snare;
#N canvas 639 329 714 502 hats 0;
#X obj 260 62 inlet;
#X obj 356 63 inlet;
#X obj 260 101 bng 15 250 50 0 empty empty empty 17 7 0 10 -262144
-1 -1;
#X obj 260 140 f;
#X obj 383 195 t f b;
#X obj 440 230 random 10;
#X obj 440 267 / 20;
#X obj 441 301 + 0.7;
#X obj 383 371 *;
#X msg 256 205 \$1 \, 0 40 1;
#X obj 256 248 vline~;
#X obj 137 303 *~;
#X obj 67 248 hip~ 10000;
#X obj 67 204 hip~ 20000;
#X obj 66 159 noise~;
#X obj 112 382 outlet~;
#X connect 0 0 2 0;
#X connect 1 0 3 1;
#X connect 2 0 3 0;
#X connect 3 0 4 0;
#X connect 4 0 8 0;
#X connect 4 1 5 0;
#X connect 5 0 6 0;
#X connect 6 0 7 0;
#X connect 7 0 8 1;
#X connect 8 0 9 0;
#X connect 9 0 10 0;
#X connect 10 0 11 1;
#X connect 11 0 15 0;
#X connect 12 0 11 0;
#X connect 13 0 12 0;
#X connect 14 0 13 0;
#X restore 374 578 pd hats;
#X floatatom 282 476 5 0 100 0 - - -;
#X floatatom 342 474 5 0 100 0 - - -;
#X floatatom 413 477 5 0 100 0 - - -;
#X msg 1359 249 4 0 2 10 5 10 2 0 2 10 4 0 5 10 6 10;
#X text 1584 249 kick groove;
#X msg 1361 279 4 10 2 10 5 10 2 2 2 10 4 10 5 0 2 2;
#X text 1585 278 Lay back;
#X msg 1363 307 4 2 4 2 5 2 4 5 2 5 4 5 5 4 2 5;
#X text 1554 307 funkky;
#X msg 1365 336 0 2 2 10 3 10 2 2 0 2 2 10 3 10 2 10;
#X text 1594 336 House;
#X msg 1367 364 0 1 2 2 1 0 2 1 10 10 4 0 1 2 2 2 0 10 2 10;
#X text 1637 364 UK Garage;
#X msg 1363 391 4 2 2 2 5 2 2 2 4 2 2 2 5 2 4 2;
#X text 1561 394 Rock;
#X obj 1364 428 array set \$0-drumpattern;
#X obj 278 652 +~;
#X text 307 652 mixer;
#X floatatom 279 1058 5 0 1 0 - - -;
#X obj 136 80 osc/unpackOSC;
#X obj 136 118 osc/routeOSC /drum;
#X text 16 157 ON/OFF via OSC -->;
#X msg 392 884 connect 239.255.255.250 3000;
#X obj 279 992 mrpeach/net/udpsend~ 2;
#X obj 644 81 osc/unpackOSC;
#X obj 644 119 osc/routeOSC /drum;
#X obj 136 48 mrpeach/net/udpreceive 40010;
#X obj 644 49 mrpeach/net/udpreceive 40011;
#X obj 726 403 osc/unpackOSC;
#X obj 726 366 mrpeach/net/udpreceive 40012;
#X obj 601 448 osc/routeOSC /kick;
#X obj 726 454 osc/routeOSC /snare;
#X obj 847 454 osc/routeOSC /hats;
#X text 317 47 <-- receive OSC control over network;
#X text 225 80 <-- convert OSC to Pure Data;
#X text 679 157 <-- BPM;
#X text 250 118 <-- receives OSC data in the variable 'drum';
#X text 759 119 <-- receives OSC data in the variable 'drum';
#X text 728 80 <-- convert OSC to Pure Data;
#X text 817 49 <-- receive OSC control over network;
#X text 485 223 <-- BPM pattern;
#X text 391 299 <-- sends the drum pattern to the hratio;
#X text 450 476 <-- kick \, snare and hi-hats volume;
#X text 958 453 <-- kick \, snare and hi-hats volume via OSC;
#X text 6 500 defines behavior for the elements -->;
#X text 565 884 <-- connect to multicast address;
#X text 588 929 <-- close connection;
#X text 416 992 <-- send audio to network;
#X text 312 1058 <-- connection status;
#X text 1569 70 Drum pattern (ctrl + click to change);
#X text 1562 100 0 = kick \, 1 = snare \, 2 = hihat \, 3 = kick & snare
\, 4 = kick & hihat \, 5 = snare & hihat \, 6 = kick \, snare & hihat
;
#X text 1554 188 <-- send the message values to the drum pattern (can
be edited);
#X obj 1154 106 osc/unpackOSC;
#X obj 1154 74 mrpeach/net/udpreceive 40013;
#X obj 1154 144 osc/routeOSC /drum;
#X obj 1154 173 list;
#X text 1423 485 MANAGEMENT LAYER;
#X text 935 173 control drum pattern via network -->;
#X msg 1336 1108 disconnect;
#X obj 1305 1192 mrpeach/udpsend;
#X obj 1303 1286 t b b b;
#X obj 1305 1233 tgl 25 0 empty empty empty 17 7 0 10 -228856 -1 -1
0 1;
#X text 1336 1236 <-- connection status;
#X text 1406 1155 <-- pack messages on OSC format;
#X text 1404 1191 <-- send messages via network;
#X msg 1305 617 connect 224.0.0.1 60000;
#X obj 1307 1154 mrpeach/packOSC;
#X obj 1305 565 random 101;
#X obj 1336 987 bng 18 250 50 0 empty empty empty 17 7 0 10 -258113
-1 -1;
#X obj 1305 528 bng 25 250 50 0 empty empty empty 17 7 0 10 -4034 -1
-1;
#X text 1675 845 <-- OUTPUT message;
#X text 1362 990 <-- disconnect;
#X text 1639 1035 <-- GOODBYE message;
#X msg 1306 654 send /hello/\$1/192.168.0.10/DrumMachine;
#X text 1348 881 Standard OUTPUT message: /output/ID_number/IP_number/port_type_number/network_port_number/network_port_description/
;
#X text 1571 661 Standard HELLO message: /hello/id/ip/human_name;
#X msg 1307 836 send /output/\$1/192.168.0.10/1/audio/44100/16bits/2/3000/Loudspeaker
;
#X obj 1307 593 value id2;
#X obj 1336 1011 value id2;
#X msg 1336 1036 /goodbye/\$1/192.168.0.10/DrumMachine/disconnected
;
#X obj 1303 1327 route /hello /input /output /goodbye;
#X text 1355 1056 Standard GOODBYE message: /goodbye/ID_number/IP_number/status
;
#X obj 923 614 osc/unpackOSC;
#X obj 923 641 osc/routeOSC /connection;
#X obj 923 667 list;
#X text 576 570 receives OSC messages from the network \, at the multicast
address and on the specified port -->;
#X text 777 612 unpack OSC messages -->;
#X text 669 639 route the OSC message to this address -->;
#X text 727 667 put the message into a list -->;
#X obj 921 760 osc/unpackOSC;
#X obj 921 813 list;
#X text 576 717 receives OSC messages from the network \, at the multicast
address and on the specified port -->;
#X text 772 758 unpack OSC messages -->;
#X text 666 788 route the OSC message to this address -->;
#X text 725 812 put the message into a list -->;
#X obj 923 573 mrpeach/net/udpreceive 224.0.0.0 55013;
#X obj 921 719 mrpeach/net/udpreceive 224.0.0.0 55014;
#X text 1335 530 <-- Connect and generate a random ID number;
#X text 1372 563 <-- generates a random ID number between 0 - 100;
#X text 1366 593 <-- store random ID number;
#X text 1453 615 <-- connect to OSC server;
#X text 1550 650 <-- presents the musical thing to the network;
#X text 1400 1011 <-- random ID number;
#X msg 393 929 disconnect 239.255.255.250 3000;
#X obj 921 787 osc/routeOSC /disconnection;
#X text 1331 758 Standard INPUT message: /input/ID_number/IP_number/port_type_number/musical_thing_type(audio)/sample_rate/bit_depth/audio_file_format/channel_number/IP_connection/port_number/port_description/network_protocol/music_protocol/human_name
;
#X text 1802 712 <-- INPUT message;
#X msg 1308 699 send /input/\$1/192.168.0.10/0/audio/44100/16bits/2/224.0.0.0/55013/ON_CLI/5501/OFF_CI/40010/OnOff/40011/BPM/40012/KickSnareHiHats/40013/DrumPattern/55013/ON_CLI/55014/OFF_CLI/UDP/OSC/DrumMachine
, f 80;
#X obj 137 -46 receive fromGUI;
#X obj 137 -20 list trim;
#X text 236 -47 <-- Receive messages from MobMuPlat;
#X text 199 -22 <-- Divide the commands within the list;
#X text 286 6 <-- Route information to this address;
#X obj 137 6 route /on_mobmuplat_drum;
#X obj 643 -52 receive fromGUI;
#X obj 643 -26 list trim;
#X text 742 -53 <-- Receive messages from MobMuPlat;
#X text 705 -28 <-- Divide the commands within the list;
#X text 805 0 <-- Route information to this address;
#X obj 643 0 route /bpm_mobmuplat_drum;
#X obj 727 266 receive fromGUI;
#X obj 727 292 list trim;
#X text 826 265 <-- Receive messages from MobMuPlat;
#X text 789 290 <-- Divide the commands within the list;
#X text 1026 322 <-- Route information to this address;
#X obj 727 318 route /kick_mobmuplat_drum /snare_mobmuplat_drum /hats_mobmuplat_drum
;
#X text 104 451 conversion result -->;
#X text 267 418 <-- convert the drum pattern value to type int;
#X connect 2 0 1 0;
#X connect 3 0 6 0;
#X connect 4 0 3 0;
#X connect 5 0 3 1;
#X connect 6 0 7 0;
#X connect 7 0 9 0;
#X connect 8 0 7 1;
#X connect 9 0 10 0;
#X connect 10 0 11 0;
#X connect 11 0 12 0;
#X connect 12 0 13 0;
#X connect 13 0 14 0;
#X connect 13 1 15 0;
#X connect 13 2 15 0;
#X connect 13 2 16 0;
#X connect 13 3 14 0;
#X connect 13 4 14 0;
#X connect 13 4 16 0;
#X connect 13 5 15 0;
#X connect 13 5 16 0;
#X connect 13 6 14 0;
#X connect 13 6 15 0;
#X connect 13 6 16 0;
#X connect 14 0 33 0;
#X connect 15 0 33 0;
#X connect 16 0 33 0;
#X connect 17 0 14 1;
#X connect 18 0 15 1;
#X connect 19 0 16 1;
#X connect 20 0 32 0;
#X connect 22 0 32 0;
#X connect 24 0 32 0;
#X connect 26 0 32 0;
#X connect 28 0 32 0;
#X connect 30 0 32 0;
#X connect 33 0 40 0;
#X connect 36 0 37 0;
#X connect 37 0 4 0;
#X connect 39 0 40 0;
#X connect 40 0 35 0;
#X connect 41 0 42 0;
#X connect 42 0 5 0;
#X connect 43 0 36 0;
#X connect 44 0 41 0;
#X connect 45 0 47 0;
#X connect 45 0 48 0;
#X connect 45 0 49 0;
#X connect 46 0 45 0;
#X connect 47 0 17 0;
#X connect 48 0 18 0;
#X connect 49 0 19 0;
#X connect 69 0 71 0;
#X connect 70 0 69 0;
#X connect 71 0 72 0;
#X connect 72 0 32 0;
#X connect 75 0 76 0;
#X connect 76 0 78 0;
#X connect 77 0 93 0;
#X connect 77 1 124 0;
#X connect 77 2 90 0;
#X connect 82 0 76 0;
#X connect 83 0 76 0;
#X connect 84 0 90 0;
#X connect 84 0 124 0;
#X connect 84 0 93 0;
#X connect 84 0 94 0;
#X connect 85 0 95 0;
#X connect 86 0 82 0;
#X connect 86 0 84 0;
#X connect 90 0 83 0;
#X connect 93 0 83 0;
#X connect 95 0 96 0;
#X connect 96 0 83 0;
#X connect 96 0 75 0;
#X connect 97 0 77 0;
#X connect 99 0 100 0;
#X connect 100 0 101 0;
#X connect 101 0 39 0;
#X connect 106 0 121 0;
#X connect 107 0 120 0;
#X connect 112 0 99 0;
#X connect 113 0 106 0;
#X connect 120 0 40 0;
#X connect 121 0 107 0;
#X connect 124 0 83 0;
#X connect 125 0 126 0;
#X connect 126 0 130 0;
#X connect 130 0 4 0;
#X connect 131 0 132 0;
#X connect 132 0 136 0;
#X connect 136 0 5 0;
#X connect 137 0 138 0;
#X connect 138 0 142 0;
#X connect 142 0 17 0;
#X connect 142 1 18 0;
#X connect 142 2 19 0;
