#N canvas 0 182 1920 987 10;
#X msg 128 83 disconnect;
#X floatatom 254 194 0 0 0 0 - - -;
#X floatatom 271 118 0 0 0 0 - - -;
#X obj 982 187 mtof;
#X floatatom 1041 238 5 0 0 0 - - -;
#X obj 258 480 hsl 128 15 0 127 0 0 empty empty empty -2 -8 0 10 -4034
-1 -1 0 1;
#X obj 1038 150 hsl 128 15 0 127 0 0 empty empty empty -2 -8 0 10 -4032
-1 -1 0 1;
#X msg 1081 106 69;
#X obj 946 274 osc~ 440;
#X obj 254 369 osc/unpackOSC;
#X obj 830 348 osc/unpackOSC;
#X obj 830 316 mrpeach/net/udpreceive 40051;
#X obj 830 386 osc/routeOSC /on_off_pitch;
#X obj 754 36 osc/unpackOSC;
#X obj 754 84 osc/routeOSC /freq_pitch;
#X obj 754 13 mrpeach/net/udpreceive 40052;
#X obj 1498 13 mrpeach/net/udpreceive 40053;
#X obj 1498 44 osc/unpackOSC;
#X obj 1498 74 osc/routeOSC /midi_pitch;
#X obj 81 565 mrpeach/net/udpreceive 40054;
#X obj 81 597 osc/unpackOSC;
#X obj 333 127 *~ 5;
#X msg 254 26 connect 239.255.255.250 3000;
#X obj 254 169 mrpeach/net/udpsend~ 2;
#X text 996 104 MIDI note-->;
#X text 1104 105 <- A 440 (C = 63);
#X text 928 15 <-- Receive OSC message;
#X text 838 36 <-- unpack OSC message;
#X text 1018 184 <-- MIDI to frequency;
#X text 1080 239 <-- Hz value;
#X text 999 275 <-- frequency;
#X text 1009 314 <-- Receive OSC message;
#X text 919 348 <-- unpack OSC message;
#X text 990 384 comment;
#X text 222 632 <-- receive volume control via OSC;
#X text 259 565 <-- Receive OSC message;
#X text 169 594 <-- unpack OSC message;
#X text 394 477 <--volume slider (0 - 127);
#X text 428 344 <-- Receive OSC message;
#X obj 254 417 osc/routeOSC /volume;
#X text 380 414 <-- receive volume control via OSC;
#X text 338 370 <-- unpack OSC message;
#X text 119 194 connection status -->;
#X text 65 169 send audio data to network -->;
#X text 4 83 close connection -->;
#X text 56 26 connect to multicast address -->;
#X text 1170 149 <-- change frequency (MIDI note);
#X text 1675 13 <-- Receive OSC message;
#X obj 254 346 mrpeach/net/udpreceive 40000;
#X text 1581 42 <-- unpack OSC message;
#X obj 830 453 tgl 15 0 empty empty empty 17 7 0 10 -4034 -1 -1 0 1
;
#X text 850 451 <-- ON/OFF;
#X obj 81 633 osc/routeOSC /midi_vol;
#X obj 84 676 hsl 128 15 0 127 0 0 empty empty empty -2 -8 0 10 -204786
-1 -1 0 1;
#X text 222 677 <-- MIDI controller volume (0 - 127);
#X text 851 537 MANAGEMENT LAYER;
#X msg 764 1200 disconnect;
#X obj 730 1269 mrpeach/udpsend;
#X obj 728 1363 t b b b;
#X obj 730 1310 tgl 25 0 empty empty empty 17 7 0 10 -228856 -1 -1
0 1;
#X text 761 1313 <-- connection status;
#X text 831 1232 <-- pack messages on OSC format;
#X text 829 1268 <-- send messages via network;
#X msg 733 669 connect 224.0.0.1 60000;
#X obj 732 1231 mrpeach/packOSC;
#X obj 733 617 random 101;
#X obj 764 1079 bng 18 250 50 0 empty empty empty 17 7 0 10 -258113
-1 -1;
#X obj 733 580 bng 25 250 50 0 empty empty empty 17 7 0 10 -4034 -1
-1;
#X text 763 582 <-- Conecta e gera número de ID aleatóŕio;
#X text 800 615 <-- gera número aleatório entre 0 e 100;
#X text 801 644 <-- armazena número aleatório;
#X text 881 667 <-- conecta no servidor OSC \, exibindo a coisa musical
para a rede;
#X text 964 707 <-- apresenta a coisa musical na rede;
#X text 1231 783 <-- INPUT message;
#X text 1105 924 <-- OUTPUT message;
#X text 790 1082 <-- disconnect;
#X text 828 1103 <-- número aleatório;
#X text 1052 1127 <-- GOODBYE message;
#X msg 734 706 send /hello/\$1/192.168.0.10/Pitchfork;
#X text 736 967 Standard OUTPUT message: /output/ID_number/IP_number/port_type_number/network_port_number/network_port_description/
;
#X text 737 821 Standard INPUT message: /input/ID_number/IP_number/port_type_number/musical_thing_type(audio)/sample_rate/bit_depth/audio_file_format/channel_number/port_number/port_description/network_protocol/music_protocol/human_name
;
#X text 988 724 Standard HELLO message: /hello/id/ip/human_name;
#X msg 735 916 send /output/\$1/192.168.0.10/1/audio/44100/16bits/2/3000/Loudspeaker
;
#X msg 737 770 send /input/\$1/192.168.0.10/0/audio/44100/16bits/2/40000/volume/40051/OnOff/40052/Frequency/40053/MIDI/40054/VolumeByMIDI/UDP/OSC/MIDI/Pitchfork
, f 80;
#X obj 735 645 value id16;
#X obj 764 1103 value id16;
#X obj 728 1403 route /hello /input /output /goodbye;
#X msg 764 1128 /goodbye/\$1/192.168.0.10/Pitchfork/disconnected;
#X text 771 1153 Standard GOODBYE message: /goodbye/ID_number/IP_number/human_name/status
;
#X connect 0 0 23 0;
#X connect 2 0 23 0;
#X connect 3 0 4 0;
#X connect 3 0 8 0;
#X connect 5 0 23 0;
#X connect 6 0 3 0;
#X connect 7 0 6 0;
#X connect 8 0 21 0;
#X connect 9 0 39 0;
#X connect 10 0 12 0;
#X connect 11 0 10 0;
#X connect 12 0 50 0;
#X connect 13 0 14 0;
#X connect 14 0 6 0;
#X connect 15 0 13 0;
#X connect 16 0 17 0;
#X connect 17 0 18 0;
#X connect 18 0 6 0;
#X connect 19 0 20 0;
#X connect 20 0 52 0;
#X connect 21 0 23 0;
#X connect 22 0 23 0;
#X connect 23 0 1 0;
#X connect 39 0 5 0;
#X connect 48 0 9 0;
#X connect 52 0 53 0;
#X connect 53 0 23 0;
#X connect 56 0 57 0;
#X connect 57 0 59 0;
#X connect 58 0 82 0;
#X connect 58 1 83 0;
#X connect 58 2 78 0;
#X connect 63 0 57 0;
#X connect 64 0 57 0;
#X connect 65 0 78 0;
#X connect 65 0 83 0;
#X connect 65 0 82 0;
#X connect 65 0 84 0;
#X connect 66 0 85 0;
#X connect 67 0 63 0;
#X connect 67 0 65 0;
#X connect 78 0 64 0;
#X connect 82 0 64 0;
#X connect 83 0 64 0;
#X connect 85 0 87 0;
#X connect 86 0 58 0;
#X connect 87 0 64 0;
#X connect 87 0 56 0;
