#N canvas 0 182 1920 987 10;
#X obj 38 114 dac~;
#X obj 37 45 mrpeach/net/udpreceive~ 3000 2;
#X text 69 114 <-- Audio output;
#X text 224 45 <-- Receive audio from network \; port number \; channel
number;
#X text 1251 39 MANAGEMENT LAYER;
#X msg 1177 616 disconnect;
#X obj 1130 681 mrpeach/udpsend;
#X obj 1126 777 t b b b;
#X obj 1130 722 tgl 25 0 empty empty empty 17 7 0 10 -228856 -1 -1
0 1;
#X text 1161 725 <-- connection status;
#X text 1231 644 <-- pack messages on OSC format;
#X text 1229 680 <-- send messages via network;
#X msg 1133 171 connect 224.0.0.1 60000;
#X obj 1132 643 mrpeach/packOSC;
#X obj 1133 119 random 101;
#X obj 1177 511 bng 18 250 50 0 empty empty empty 17 7 0 10 -258113
-1 -1;
#X obj 1133 82 bng 25 250 50 0 empty empty empty 17 7 0 10 -4034 -1
-1;
#X text 1629 264 <-- INPUT message;
#X text 1505 402 <-- OUTPUT message;
#X text 1203 514 <-- disconnect;
#X text 1481 559 <-- GOODBYE message;
#X msg 1134 208 send /hello/\$1/192.168.0.10/Loudspeaker;
#X text 1141 437 Standard OUTPUT message: /output/ID_number/IP_number/port_type_number/network_port_number/network_port_description/
;
#X text 1178 305 Standard INPUT message: /input/ID_number/IP_number/port_type_number/musical_thing_type(audio)/sample_rate/bit_depth/audio_file_format/channel_number/port_number/port_description/network_protocol/music_protocol/human_name
;
#X text 1407 223 Standard HELLO message: /hello/id/ip/human_name;
#X msg 1135 390 send /output/\$1/192.168.0.10/1/audio/44100/16bits/wav/2/3000/Loudspeaker
;
#X obj 1135 147 value id14;
#X obj 1177 535 value id14;
#X obj 1126 806 route /hello /input /output /goodbye;
#X msg 1177 560 /goodbye/\$1/192.168.0.10/Loudspeaker/disconnected
;
#X text 1196 580 Standard GOODBYE message: /goodbye/ID_number/IP_number/human_name/status
;
#X text 1200 117 <-- generates random ID number;
#X text 1163 84 <-- Connect and generate random ID number;
#X text 1200 146 <-- store random ID number;
#X text 1282 169 <-- connect to OSC server;
#X text 1385 209 <-- presents musical thing to the network;
#X text 1242 535 <-- random ID number;
#X obj 439 1024 list;
#X text 212 1022 put the message into a list -->;
#X msg 1135 247 send /input/\$1/192.168.0.10/0/audio/44100/16bits/wav/2/40002/AudioPlayerSound/40010/DrumMachineSound/40020/GuitarXBassSound/40030/MicrophoneSound/40051/PitchforkSound/UDP/OSC/DrumMachine
, f 80;
#X connect 1 0 0 0;
#X connect 1 0 0 1;
#X connect 5 0 6 0;
#X connect 6 0 8 0;
#X connect 7 0 25 0;
#X connect 7 1 39 0;
#X connect 7 2 21 0;
#X connect 12 0 6 0;
#X connect 13 0 6 0;
#X connect 14 0 21 0;
#X connect 14 0 39 0;
#X connect 14 0 25 0;
#X connect 14 0 26 0;
#X connect 15 0 27 0;
#X connect 16 0 12 0;
#X connect 16 0 14 0;
#X connect 21 0 13 0;
#X connect 25 0 13 0;
#X connect 27 0 29 0;
#X connect 28 0 7 0;
#X connect 29 0 13 0;
#X connect 29 0 5 0;
#X connect 39 0 13 0;
