#N canvas 0 182 1920 987 10;
#X obj 138 210 osc/packOSC;
#X obj 72 253 mrpeach/net/udpsend;
#X msg 81 94 disconnect;
#X msg 138 181 send /mic \$1;
#X obj 138 137 tgl 15 0 empty empty empty 17 7 0 10 -4034 -1 -1 0 1
;
#X obj 711 207 osc/packOSC;
#X obj 645 250 mrpeach/net/udpsend;
#X msg 654 82 disconnect;
#X msg 711 178 send /mic \$1;
#X obj 711 134 tgl 15 0 empty empty empty 17 7 0 10 -258113 -1 -1 0
1;
#X text 155 135 <-- ON;
#X text 732 133 <-- OFF;
#X text 251 58 <-- connect to multicast address;
#X text 147 94 <-- close connection;
#X text 216 180 <-- prepare to send message;
#X text 213 210 <-- pack message in a OSC format;
#X text 194 255 <-- send OSC packet via network \, using mrpeach library
;
#X text 828 49 <-- connect to multicast address;
#X text 722 81 <-- close connection;
#X text 787 178 <-- prepare to send message;
#X text 783 209 <-- pack message in a OSC format;
#X text 767 251 <-- send OSC packet via network \, using mrpeach library
;
#X msg 70 57 connect 239.255.255.250 40030;
#X msg 645 49 connect 239.255.255.250 40031;
#X text 1280 18 MANAGEMENT LAYER;
#X msg 1196 671 disconnect;
#X obj 1159 750 mrpeach/udpsend;
#X obj 1157 844 t b b b;
#X obj 1159 791 tgl 25 0 empty empty empty 17 7 0 10 -228856 -1 -1
0 1;
#X text 1190 794 <-- connection status;
#X text 1260 713 <-- pack messages on OSC format;
#X text 1258 749 <-- send messages via network;
#X msg 1162 150 connect 224.0.0.1 60000;
#X obj 1161 712 mrpeach/packOSC;
#X obj 1162 98 random 101;
#X obj 1196 550 bng 18 250 50 0 empty empty empty 17 7 0 10 -258113
-1 -1;
#X obj 1162 61 bng 25 250 50 0 empty empty empty 17 7 0 10 -4034 -1
-1;
#X text 1192 63 <-- Conecta e gera número de ID aleatóŕio;
#X text 1229 96 <-- gera número aleatório entre 0 e 100;
#X text 1231 126 <-- armazena número aleatório;
#X text 1310 148 <-- conecta no servidor OSC \, exibindo a coisa musical
para a rede;
#X text 1440 188 <-- apresenta a coisa musical na rede;
#X text 1651 249 <-- INPUT message;
#X text 1535 377 <-- OUTPUT message;
#X text 1222 553 <-- disconnect;
#X text 1261 573 <-- número aleatório;
#X text 1534 599 <-- GOODBYE message;
#X msg 1163 187 send /hello/\$1/192.168.0.10/MicrophoneControl;
#X text 1171 418 Standard OUTPUT message: /output/ID_number/IP_number/port_type_number/network_port_number/network_port_description/
;
#X text 1171 268 Standard INPUT message: /input/ID_number/IP_number/port_type_number/musical_thing_type(audio)/sample_rate/bit_depth/audio_file_format/channel_number/port_number/port_description/network_protocol/music_protocol/human_name
;
#X text 1465 203 Standard HELLO message: /hello/id/ip/human_name;
#X msg 1167 366 send /output/\$1/192.168.0.10/1/controller/40030/ON/40031/OFF/OSC/Microphone
;
#X msg 1166 234 send /input/\$1/192.168.0.10/0/controller/0/1/UDP/OSC/MicrophoneControlOnOff
- Liga ou desliga o microfone de forma remota, f 80;
#X obj 1164 126 value id15;
#X obj 1196 574 value id15;
#X obj 1157 885 route /hello /input /output /goodbye;
#X msg 1196 599 /goodbye/\$1/192.168.0.10/MicrophoneControl/disconnected
;
#X text 1203 624 Standard GOODBYE message: /goodbye/ID_number/IP_number/human_name/status
;
#X connect 0 0 1 0;
#X connect 2 0 1 0;
#X connect 3 0 0 0;
#X connect 4 0 3 0;
#X connect 5 0 6 0;
#X connect 7 0 6 0;
#X connect 8 0 5 0;
#X connect 9 0 8 0;
#X connect 22 0 1 0;
#X connect 23 0 6 0;
#X connect 25 0 26 0;
#X connect 26 0 28 0;
#X connect 27 0 51 0;
#X connect 27 1 52 0;
#X connect 27 2 47 0;
#X connect 32 0 26 0;
#X connect 33 0 26 0;
#X connect 34 0 47 0;
#X connect 34 0 52 0;
#X connect 34 0 51 0;
#X connect 34 0 53 0;
#X connect 35 0 54 0;
#X connect 36 0 32 0;
#X connect 36 0 34 0;
#X connect 47 0 33 0;
#X connect 51 0 33 0;
#X connect 52 0 33 0;
#X connect 54 0 56 0;
#X connect 55 0 27 0;
#X connect 56 0 33 0;
#X connect 56 0 25 0;
