#N canvas 0 182 1920 987 12;
#X obj 121 225 osc/packOSC;
#X obj 55 268 mrpeach/net/udpsend;
#X obj 121 138 tgl 15 0 empty empty empty 17 7 0 10 -4034 -1 -1 0 1
;
#X text 237 39 ON/OFF;
#X msg 121 196 send /on_off_pitch \$1;
#X text 234 73 <-- connect to multicast address;
#X text 268 108 <-- close connection;
#X text 137 136 <-- ON/OFF pitchfor via OSC message;
#X text 204 225 <-- convert Pure Data to OSC;
#X text 275 194 <-- send message;
#X text 175 269 <-- send message via network;
#X msg 53 72 connect 224.0.0.251 40051;
#X text 1122 37 MANAGEMENT LAYER;
#X msg 1036 693 disconnect;
#X obj 1001 769 mrpeach/udpsend;
#X obj 999 863 t b b b;
#X obj 1001 810 tgl 25 0 empty empty empty 17 7 0 10 -228856 -1 -1
0 1;
#X text 1032 813 <-- connection status;
#X text 1119 730 <-- pack messages on OSC format;
#X text 1111 767 <-- send messages via network;
#X msg 1004 169 connect 224.0.0.1 60000;
#X obj 1003 731 mrpeach/packOSC;
#X obj 1004 117 random 101;
#X obj 1036 572 bng 18 250 50 0 empty empty empty 17 7 0 10 -258113
-1 -1;
#X obj 1004 80 bng 25 250 50 0 empty empty empty 17 7 0 10 -4034 -1
-1;
#X text 1442 426 <-- OUTPUT message;
#X text 1062 575 <-- disconnect;
#X text 1465 620 <-- GOODBYE message;
#X msg 1005 206 send /hello/\$1/192.168.0.10/PitchforkControl_OnOff
;
#X text 1068 467 Standard OUTPUT message: /output/ID_number/IP_number/port_type_number/network_port_number/network_port_description/
;
#X text 1389 220 Standard HELLO message: /hello/id/ip/human_name;
#X msg 1012 412 send /output/\$1/192.168.0.10/1/controller/40051/OSCmessage/Pitchfork
;
#X obj 1006 145 value id20;
#X obj 1036 596 value id20;
#X obj 999 904 route /hello /input /output /goodbye;
#X text 1043 646 Standard GOODBYE message: /goodbye/ID_number/IP_number/human_name/status
;
#X msg 1037 621 /goodbye/\$1/192.168.0.10/PitchforkControl_OnOff/disconnected
;
#X text 1541 277 <-- INPUT message;
#X obj 422 460 osc/unpackOSC;
#X obj 422 487 osc/routeOSC /connection;
#X obj 422 513 list;
#X text 24 417 receives OSC messages from the network \, at the multicast
address and on the specified port -->;
#X text 247 457 unpack OSC messages -->;
#X text 127 486 route the OSC message to this address -->;
#X text 199 511 put the message into a list -->;
#X obj 420 606 osc/unpackOSC;
#X obj 420 659 list;
#X text 21 565 receives OSC messages from the network \, at the multicast
address and on the specified port -->;
#X text 252 606 unpack OSC messages -->;
#X text 128 633 route the OSC message to this address -->;
#X text 193 657 put the message into a list -->;
#X obj 420 633 osc/routeOSC /disconnection;
#X msg 64 109 disconnect 224.0.0.251 40051;
#X obj 422 419 mrpeach/net/udpreceive 224.0.0.0 55041;
#X obj 420 564 mrpeach/net/udpreceive 224.0.0.0 55042;
#X floatatom 55 301 5 0 1 0 - - -;
#X text 96 300 <-- connection status;
#X text 1034 82 <-- Connect and generates random ID number;
#X text 1078 115 <-- generate a random ID number between 0 - 100;
#X text 1082 143 <-- store random ID number;
#X text 1174 167 <-- connect to OSC server;
#X text 1364 202 <-- presentes the musical thing in the network;
#X text 1112 597 <-- random ID number;
#X text 1023 314 Standard INPUT message: /input/ID_number/IP_number/port_type_number/musical_thing_type(audio)/sample_rate/bit_depth/audio_file_format/channel_number/IP_connection/port_number/port_description/network_protocol/music_protocol/human_name
;
#X msg 1008 262 send /input/\$1/192.168.0.10/0/controller/0/1/224.0.0.0/55041/ON_CLI/55042/OFF_CLI/UDP/OSC/PitchforckControlOnOff
, f 75;
#X connect 0 0 1 0;
#X connect 1 0 55 0;
#X connect 2 0 4 0;
#X connect 4 0 0 0;
#X connect 11 0 1 0;
#X connect 13 0 14 0;
#X connect 14 0 16 0;
#X connect 15 0 31 0;
#X connect 15 1 64 0;
#X connect 15 2 28 0;
#X connect 20 0 14 0;
#X connect 21 0 14 0;
#X connect 22 0 28 0;
#X connect 22 0 64 0;
#X connect 22 0 31 0;
#X connect 22 0 32 0;
#X connect 23 0 33 0;
#X connect 24 0 20 0;
#X connect 24 0 22 0;
#X connect 28 0 21 0;
#X connect 31 0 21 0;
#X connect 33 0 36 0;
#X connect 34 0 15 0;
#X connect 36 0 21 0;
#X connect 36 0 13 0;
#X connect 38 0 39 0;
#X connect 39 0 40 0;
#X connect 40 0 11 0;
#X connect 45 0 51 0;
#X connect 46 0 52 0;
#X connect 51 0 46 0;
#X connect 52 0 1 0;
#X connect 53 0 38 0;
#X connect 54 0 45 0;
#X connect 64 0 21 0;
