#N canvas 0 182 1920 987 12;
#X obj 64 126 bng 15 250 50 0 empty empty empty 17 7 0 10 -260097 -1
-1;
#X obj 64 183 osc/packOSC;
#X obj 47 211 mrpeach/net/udpsend;
#X text 228 72 <-- Connect to the multicast address \, on the indicated
port;
#X text 260 93 <-- Close connection;
#X text 150 181 <-- convert Pure Data message to OSC;
#X text 193 211 <-- send OSC data packaged in UDP \, using the mr peach
library;
#X text 82 124 <-- restart audio track;
#X msg 64 149 send /restart \$1;
#X msg 1126 648 disconnect;
#X obj 1092 728 mrpeach/udpsend;
#X obj 1090 822 t b b b;
#X obj 1092 769 tgl 25 0 empty empty empty 17 7 0 10 -228856 -1 -1
0 1;
#X text 1123 772 <-- connection status;
#X text 1209 690 <-- pack messages on OSC format;
#X text 1208 727 <-- send messages via network;
#X msg 1095 128 connect 224.0.0.1 60000;
#X obj 1094 690 mrpeach/packOSC;
#X obj 1095 76 random 101;
#X obj 1126 527 bng 18 250 50 0 empty empty empty 17 7 0 10 -258113
-1 -1;
#X obj 1095 39 bng 25 250 50 0 empty empty empty 17 7 0 10 -4034 -1
-1;
#X text 1637 220 <-- INPUT message;
#X text 1529 375 <-- OUTPUT message;
#X text 1152 530 <-- disconnect;
#X text 1546 584 <-- GOODBYE message;
#X text 1130 413 Standard OUTPUT message: /output/ID_number/IP_number/port_type_number/network_port_number/network_port_description/
;
#X text 1536 180 Standard HELLO message: /hello/id/ip/human_name;
#X msg 1101 358 send /output/\$1/192.168.0.10/1/controller/40006/RestartTrack/OSC/AudioPlayer
;
#X obj 1097 104 value id7;
#X obj 1126 550 value id7;
#X obj 1090 863 route /hello /input /output /goodbye;
#X text 1129 609 Standard GOODBYE message: /goodbye/ID_number/IP_number/human_name/status
;
#X obj 408 362 osc/unpackOSC;
#X obj 408 389 osc/routeOSC /connection;
#X obj 408 415 list;
#X text 6 316 receives OSC messages from the network \, at the multicast
address and on the specified port -->;
#X text 240 361 unpack OSC messages -->;
#X text 116 390 route the OSC message to this address -->;
#X text 185 414 put the message into a list -->;
#X obj 406 508 osc/unpackOSC;
#X obj 406 561 list;
#X text 4 462 receives OSC messages from the network \, at the multicast
address and on the specified port -->;
#X text 238 507 unpack OSC messages -->;
#X text 114 536 route the OSC message to this address -->;
#X text 183 560 put the message into a list -->;
#X obj 408 321 mrpeach/net/udpreceive 224.0.0.0 55009;
#X obj 406 467 mrpeach/net/udpreceive 224.0.0.0 55010;
#X text 1193 549 <-- random ID number;
#X text 1125 41 <-- Connect and generates random ID number;
#X text 1172 76 <-- generates random number between 0 and 100;
#X text 1166 104 <-- store random ID number;
#X text 1264 128 <-- connect to the OSC server;
#X text 1507 164 <-- presents the musical thing to the network;
#X floatatom 47 250 5 0 1 0 - - -;
#X text 90 250 <-- connection status;
#X obj 406 535 osc/routeOSC /disconnection;
#X text 1132 263 Standard INPUT message: /input/ID_number/IP_number/port_type_number/musical_thing_type(audio)/sample_rate/bit_depth/audio_file_format/channel_number/IP_connection/port_number/port_description/network_protocol/music_protocol/human_name
;
#X msg 47 73 connect 224.0.0.0 40006;
#X msg 56 93 disconnect 224.0.0.0 40006;
#X msg 1096 165 send /hello/\$1/192.168.0.10/AudioPlayer_Control_Restart_Track
;
#X msg 1098 209 send /input/\$1/192.168.0.10/0/controller/1/224.0.0.0/55009/ON_CLI/55010/OFF_CLI/UDP/OSC/AudioPlayer_Control_Restart_Track
, f 76;
#X msg 1126 576 /goodbye/\$1/192.168.0.10/AudioPlayer_Control_Restart_Track/disconnected
, f 59;
#X connect 0 0 8 0;
#X connect 1 0 2 0;
#X connect 2 0 53 0;
#X connect 8 0 1 0;
#X connect 9 0 10 0;
#X connect 10 0 12 0;
#X connect 11 0 27 0;
#X connect 11 1 60 0;
#X connect 11 2 59 0;
#X connect 16 0 10 0;
#X connect 17 0 10 0;
#X connect 18 0 59 0;
#X connect 18 0 60 0;
#X connect 18 0 27 0;
#X connect 18 0 28 0;
#X connect 19 0 29 0;
#X connect 20 0 16 0;
#X connect 20 0 18 0;
#X connect 27 0 17 0;
#X connect 29 0 61 0;
#X connect 30 0 11 0;
#X connect 32 0 33 0;
#X connect 33 0 34 0;
#X connect 34 0 57 0;
#X connect 39 0 55 0;
#X connect 40 0 58 0;
#X connect 45 0 32 0;
#X connect 46 0 39 0;
#X connect 55 0 40 0;
#X connect 57 0 2 0;
#X connect 58 0 2 0;
#X connect 59 0 17 0;
#X connect 60 0 17 0;
#X connect 61 0 17 0;
#X connect 61 0 9 0;
