#N canvas 0 182 1920 987 12;
#X msg 716 631 disconnect;
#X obj 667 712 mrpeach/udpsend;
#X obj 665 806 t b b b;
#X obj 667 753 tgl 25 0 empty empty empty 17 7 0 10 -228856 -1 -1 0
1;
#X text 698 756 <-- connection status;
#X text 778 675 <-- pack messages on OSC format;
#X text 778 712 <-- send messages via network;
#X msg 670 112 connect 224.0.0.1 60000;
#X obj 669 674 mrpeach/packOSC;
#X obj 670 60 random 101;
#X obj 716 510 bng 18 250 50 0 empty empty empty 17 7 0 10 -258113
-1 -1;
#X obj 670 23 bng 25 250 50 0 empty empty empty 17 7 0 10 -4034 -1
-1;
#X text 700 25 <-- Conecta e gera número de ID aleatóŕio;
#X text 747 60 <-- gera número aleatório entre 0 e 100;
#X text 741 88 <-- armazena número aleatório;
#X text 840 111 <-- conecta no servidor OSC \, exibindo a coisa musical
para a rede;
#X text 1236 192 <-- INPUT message;
#X text 1105 353 <-- OUTPUT message;
#X text 742 513 <-- disconnect;
#X text 784 533 <-- número aleatório;
#X text 1148 562 <-- GOODBYE message;
#X text 1062 148 <-- apresenta a coisa musical na rede;
#X msg 32 76 disconnect;
#X obj 66 173 osc/packOSC;
#X obj 20 229 mrpeach/net/udpsend;
#X text 201 47 <-- Connect to the multicast address \, on the indicated
port;
#X text 109 76 <-- Close connection;
#X text 151 171 <-- convert Pure Data message to OSC;
#X text 159 225 <-- send OSC data packaged in UDP \, using the mr peach
library;
#X obj 69 108 hsl 195 15 0 1 0 0 empty empty empty -2 -8 0 10 -159808
-1 -1 0 1;
#X text 268 107 <-- control track time;
#X msg 66 139 send /track_timer \$1;
#X msg 20 48 connect 224.0.0.251 40005;
#X msg 671 149 send /hello/\$1/192.168.0.10/AudioPlayerControlTrackTime
;
#X text 680 389 Standard OUTPUT message: /output/ID_number/IP_number/port_type_number/network_port_number/network_port_description/
;
#X text 680 232 Standard INPUT message: /input/ID_number/IP_number/port_type_number/musical_thing_type(audio)/sample_rate/bit_depth/audio_file_format/channel_number/port_number/port_description/network_protocol/music_protocol/human_name
;
#X text 1090 164 Standard HELLO message: /hello/id/ip/human_name;
#X msg 676 339 send /output/\$1/192.168.0.10/1/controller/40005/TimeControl/OSC/AudioPlayer
;
#X obj 672 88 value id8;
#X obj 716 534 value id8;
#X obj 665 847 route /hello /input /output /goodbye;
#X msg 716 559 /goodbye/\$1/192.168.0.10/AudioPlayer_control_TrackTime/disconnected
;
#X text 719 593 Standard GOODBYE message: /goodbye/ID_number/IP_number/human_name/status
;
#X msg 671 193 send /input/\$1/192.168.0.10/0/controller/0/1/UDP/OSC/AudioPlayerControlTrackTime
, f 80;
#X connect 0 0 1 0;
#X connect 1 0 3 0;
#X connect 2 0 37 0;
#X connect 2 1 43 0;
#X connect 2 2 33 0;
#X connect 7 0 1 0;
#X connect 8 0 1 0;
#X connect 9 0 33 0;
#X connect 9 0 43 0;
#X connect 9 0 37 0;
#X connect 9 0 38 0;
#X connect 10 0 39 0;
#X connect 11 0 7 0;
#X connect 11 0 9 0;
#X connect 22 0 24 0;
#X connect 23 0 24 0;
#X connect 29 0 31 0;
#X connect 31 0 23 0;
#X connect 32 0 24 0;
#X connect 33 0 8 0;
#X connect 37 0 8 0;
#X connect 39 0 41 0;
#X connect 40 0 2 0;
#X connect 41 0 8 0;
#X connect 41 0 0 0;
#X connect 43 0 8 0;
