#N canvas 0 182 1920 987 12;
#X obj 122 149 hsl 128 15 0 127 0 0 empty empty empty -2 -8 0 10 -4032
-1 -1 0 1;
#X obj 119 235 osc/packOSC;
#X obj 53 278 mrpeach/net/udpsend;
#X msg 119 206 send /freq_pitch \$1;
#X obj 143 177 mtof;
#X floatatom 209 176 5 0 0 0 - - -;
#X text 208 50 FREQUENCY;
#X text 229 83 <-- connect to multicast address;
#X text 264 119 <-- close connection;
#X text 257 147 <-- frequency vslider;
#X text 247 178 <-- Hertz value;
#X text 237 205 <-- send message;
#X text 194 235 <-- convert Pure Data to OSC;
#X text 172 279 <-- send message via network;
#X msg 51 82 connect 224.0.0.251 40052;
#X text 1236 30 MANAGEMENT LAYER;
#X msg 1153 690 disconnect;
#X obj 1115 762 mrpeach/udpsend;
#X obj 1113 856 t b b b;
#X obj 1115 803 tgl 25 0 empty empty empty 17 7 0 10 -228856 -1 -1
0 1;
#X text 1146 806 <-- connection status;
#X text 1229 723 <-- pack messages on OSC format;
#X text 1226 761 <-- send messages via network;
#X msg 1118 162 connect 224.0.0.1 60000;
#X obj 1117 724 mrpeach/packOSC;
#X obj 1118 110 random 101;
#X obj 1153 569 bng 18 250 50 0 empty empty empty 17 7 0 10 -258113
-1 -1;
#X obj 1118 73 bng 25 250 50 0 empty empty empty 17 7 0 10 -4034 -1
-1;
#X text 1660 265 <-- INPUT message, f 23;
#X text 1554 430 <-- OUTPUT message;
#X text 1179 572 <-- disconnect;
#X text 1585 623 <-- GOODBYE message;
#X msg 1119 199 send /hello/\$1/192.168.0.10/PitchforkControl_Frequency
;
#X text 1125 474 Standard OUTPUT message: /output/ID_number/IP_number/port_type_number/network_port_number/network_port_description/
;
#X text 1531 217 Standard HELLO message: /hello/id/ip/human_name;
#X msg 1122 415 send /output/\$1/192.168.0.10/1/controller/40052/OSCmessage/Pitchfork
;
#X obj 1120 138 value id18;
#X obj 1153 593 value id18;
#X obj 1113 897 route /hello /input /output /goodbye;
#X msg 1153 618 /goodbye/\$1/192.168.0.10/PitchforkControl_Frequency/disconnected
;
#X text 1158 651 Standard GOODBYE message: /goodbye/ID_number/IP_number/human_name/status
;
#X obj 447 503 osc/unpackOSC;
#X obj 447 530 osc/routeOSC /connection;
#X obj 447 556 list;
#X text 48 458 receives OSC messages from the network \, at the multicast
address and on the specified port -->;
#X text 275 501 unpack OSC messages -->;
#X text 154 529 route the OSC message to this address -->;
#X text 222 555 put the message into a list -->;
#X obj 445 649 osc/unpackOSC;
#X obj 445 702 list;
#X text 45 606 receives OSC messages from the network \, at the multicast
address and on the specified port -->;
#X text 273 649 unpack OSC messages -->;
#X text 152 676 route the OSC message to this address -->;
#X text 220 701 put the message into a list -->;
#X obj 445 676 osc/routeOSC /disconnection;
#X obj 447 462 mrpeach/net/udpreceive 224.0.0.0 55037;
#X obj 445 607 mrpeach/net/udpreceive 224.0.0.0 55038;
#X floatatom 53 310 5 0 1 0 - - -;
#X text 95 310 <-- connection status;
#X msg 62 119 disconnect 224.0.0.251 40052;
#X text 1230 593 <-- random ID number;
#X text 1148 75 <-- Connect and generates random ID number;
#X text 1192 108 <-- generates a random ID bumber betwween 0 - 100-
;
#X text 1196 136 <-- store random ID number;
#X text 1288 160 <-- connect to OSC server;
#X text 1504 198 <-- presents the musical thing to the network;
#X text 1138 308 Standard INPUT message: /input/ID_number/IP_number/port_type_number/musical_thing_type(audio)/sample_rate/bit_depth/audio_file_format/channel_number/IP_connection/port_number/port_description/network_protocol/music_protocol/human_name
;
#X msg 1121 256 send /input/\$1/192.168.0.10/0/controller/0/127/224.0.0.0/55037/ON_CLI/55038/OFF_CLI/UDP/OSC/PitchforckControlFrequency
, f 76;
#X connect 0 0 3 0;
#X connect 0 0 4 0;
#X connect 1 0 2 0;
#X connect 2 0 57 0;
#X connect 3 0 1 0;
#X connect 4 0 5 0;
#X connect 14 0 2 0;
#X connect 16 0 17 0;
#X connect 17 0 19 0;
#X connect 18 0 35 0;
#X connect 18 1 67 0;
#X connect 18 2 32 0;
#X connect 23 0 17 0;
#X connect 24 0 17 0;
#X connect 25 0 32 0;
#X connect 25 0 67 0;
#X connect 25 0 35 0;
#X connect 25 0 36 0;
#X connect 26 0 37 0;
#X connect 27 0 23 0;
#X connect 27 0 25 0;
#X connect 32 0 24 0;
#X connect 35 0 24 0;
#X connect 37 0 39 0;
#X connect 38 0 18 0;
#X connect 39 0 24 0;
#X connect 39 0 16 0;
#X connect 41 0 42 0;
#X connect 42 0 43 0;
#X connect 43 0 14 0;
#X connect 48 0 54 0;
#X connect 49 0 59 0;
#X connect 54 0 49 0;
#X connect 55 0 41 0;
#X connect 56 0 48 0;
#X connect 59 0 2 0;
#X connect 67 0 24 0;
