#N canvas 0 182 1920 987 10;
#X obj 937 478 adc~;
#X floatatom 662 520 5 0 0 0 - - -;
#X obj 936 546 *~ 30;
#X obj 662 96 osc/unpackOSC;
#X obj 662 245 tgl 15 0 empty empty empty 17 7 0 10 -4034 -1 -1 0 1
;
#X obj 662 73 mrpeach/net/udpreceive 40020;
#X obj 384 95 osc/unpackOSC;
#X obj 384 340 tgl 15 0 empty empty empty 17 7 0 10 -258113 -1 -1 0
1;
#X obj 384 72 mrpeach/net/udpreceive 40021;
#X obj 1285 433 hsl 128 15 0 127 0 0 empty empty empty -2 -8 0 10 -4034
-1 -1 0 1;
#X obj 1282 341 osc/unpackOSC;
#X obj 1282 318 mrpeach/net/udpreceive 40000;
#X obj 1282 389 osc/routeOSC /volume;
#X msg 662 311 connect 239.255.255.250 3000;
#X obj 662 481 mrpeach/net/udpsend~ 2;
#X text 837 309 <-- connect to multicast;
#X text 856 354 <-- close connection;
#X text 695 520 <-- connection status;
#X text 836 75 <-- Receive OSC messages;
#X text 232 70 Receive OSC messages -->;
#X text 1419 431 <-- volume vslider (0 - 127);
#X text 974 473 <-- Audio input (guitar/bass should be connected on
the computer);
#X text 976 545 <-- increases audio input volume;
#X text 1409 388 <-- control volume slider via OSC;
#X text 502 478 send audio to network -->;
#X text 1455 319 <-- Receive OSC messages;
#X text 781 143 <-- control ON button via OSC;
#X text 680 245 <-- ON;
#X text 330 340 OFF -->;
#X obj 384 143 osc/routeOSC /sound;
#X obj 662 144 osc/routeOSC /sound;
#X text 746 95 <-- OSC via Pure Data;
#X text 249 96 OSC via Pure Data -->;
#X text 402 588 MANAGEMENT LAYER;
#X msg 1213 773 disconnect;
#X obj 1211 851 mrpeach/udpsend;
#X obj 1209 945 t b b b;
#X obj 1211 892 tgl 25 0 empty empty empty 17 7 0 10 -228856 -1 -1
0 1;
#X text 1242 895 <-- connection status;
#X text 1312 814 <-- pack messages on OSC format;
#X text 1310 850 <-- send messages via network;
#X msg 383 713 connect 224.0.0.1 60000;
#X obj 1213 813 mrpeach/packOSC;
#X obj 383 661 random 101;
#X obj 1213 652 bng 18 250 50 0 empty empty empty 17 7 0 10 -258113
-1 -1;
#X obj 383 624 bng 25 250 50 0 empty empty empty 17 7 0 10 -4034 -1
-1;
#X text 879 778 <-- INPUT message;
#X text 753 948 <-- OUTPUT message;
#X text 1239 655 <-- disconnect;
#X text 1514 700 <-- GOODBYE message;
#X msg 384 750 send /hello/\$1/192.168.0.10/GuitarXBass;
#X text 386 975 Standard OUTPUT message: /output/ID_number/IP_number/port_type_number/network_port_number/network_port_description/
;
#X text 649 756 Standard HELLO message: /hello/id/ip/human_name;
#X msg 385 932 send /output/\$1/192.168.0.10/output/1/audio/44100/16bits/2/3000/Loudspeaker
;
#X obj 385 689 value id3;
#X obj 1213 676 value id3;
#X msg 1213 701 /goodbye/\$1/192.168.0.10/GuitarXBass/disconnected
;
#X obj 1209 986 route /hello /input /output /goodbye;
#X text 1232 721 Standard GOODBYE message: /goodbye/ID_number/human_name/IP_number/status
;
#X obj 1288 93 osc/unpackOSC;
#X obj 1288 120 osc/routeOSC /connection;
#X obj 1288 146 list;
#X obj 1284 233 osc/unpackOSC;
#X obj 1284 286 list;
#X obj 1284 260 osc/routeOSC /disconnection;
#X obj 1288 52 mrpeach/net/udpreceive 224.0.0.0 55023;
#X obj 1284 191 mrpeach/net/udpreceive 224.0.0.0 55024;
#X text 1527 50 <-- receives OSC messages from the network \, at the
multicast address and on the specified port;
#X text 1374 93 <-- unpack OSC messages;
#X text 1443 121 <-- route the OSC message to this address;
#X text 1325 146 <-- put the message into a list;
#X text 1522 189 <-- receives OSC messages from the network \, at the
multicast address and on the specified port;
#X text 1368 231 <-- unpack OSC messages;
#X text 1455 260 <-- route the OSC message to this address;
#X text 1319 286 <-- put the message into a list;
#X msg 662 355 disconnect 239.255.255.250 3000;
#X text 413 626 <-- Connect and generate a random ID number;
#X text 450 659 <-- generate a random ID number;
#X text 443 689 <-- store random ID number;
#X text 531 711 <-- connect to OSC server;
#X text 631 744 <-- presents musical thing to the network;
#X text 1272 675 <-- random ID number;
#X text 389 822 Standard INPUT message: /input/ID_number/IP_number/port_type_number/musical_thing_type(audio)/sample_rate/bit_depth/audio_file_format/channel_number/IP_connection/port_number/port_description/network_protocol/music_protocol/human_name
;
#X msg 386 775 send /input/\$1/192.168.0.10/0/audio/44100/16bits/2/224.0.0.0/55023/ON_CLI/55024/OFF_CLI/40000/Volume/40020/ON/40021/OFF/UDP/OSC/GuitarXBass
, f 80;
#X text 58 54 SUBPATCH;
#N canvas 0 182 1920 987 guitar2 0;
#X obj 1145 480 adc~;
#X floatatom 870 522 5 0 0 0 - - -;
#X obj 1144 548 *~ 30;
#X obj 870 98 osc/unpackOSC;
#X obj 870 247 tgl 15 0 empty empty empty 17 7 0 10 -4034 -1 -1 0 1
;
#X obj 592 97 osc/unpackOSC;
#X obj 592 342 tgl 15 0 empty empty empty 17 7 0 10 -258113 -1 -1 0
1;
#X obj 1493 435 hsl 128 15 0 127 0 0 empty empty empty -2 -8 0 10 -4034
-1 -1 0 1;
#X obj 1490 343 osc/unpackOSC;
#X obj 1490 320 mrpeach/net/udpreceive 40000;
#X obj 1490 391 osc/routeOSC /volume;
#X msg 870 313 connect 239.255.255.250 3000;
#X obj 870 483 mrpeach/net/udpsend~ 2;
#X text 1045 311 <-- connect to multicast;
#X text 1064 356 <-- close connection;
#X text 903 522 <-- connection status;
#X text 1044 77 <-- Receive OSC messages;
#X text 440 72 Receive OSC messages -->;
#X text 1627 433 <-- volume vslider (0 - 127);
#X text 1182 475 <-- Audio input (guitar/bass should be connected on
the computer);
#X text 1184 547 <-- increases audio input volume;
#X text 1617 390 <-- control volume slider via OSC;
#X text 710 480 send audio to network -->;
#X text 1663 321 <-- Receive OSC messages;
#X text 989 145 <-- control ON button via OSC;
#X text 888 247 <-- ON;
#X text 538 342 OFF -->;
#X obj 592 145 osc/routeOSC /sound;
#X obj 870 146 osc/routeOSC /sound;
#X text 954 97 <-- OSC via Pure Data;
#X text 457 98 OSC via Pure Data -->;
#X text 610 590 MANAGEMENT LAYER;
#X msg 1421 775 disconnect;
#X obj 1419 853 mrpeach/udpsend;
#X obj 1417 947 t b b b;
#X obj 1419 894 tgl 25 0 empty empty empty 17 7 0 10 -228856 -1 -1
0 1;
#X text 1450 897 <-- connection status;
#X text 1520 816 <-- pack messages on OSC format;
#X text 1518 852 <-- send messages via network;
#X msg 591 715 connect 224.0.0.1 60000;
#X obj 1421 815 mrpeach/packOSC;
#X obj 591 663 random 101;
#X obj 1421 654 bng 18 250 50 0 empty empty empty 17 7 0 10 -258113
-1 -1;
#X obj 591 626 bng 25 250 50 0 empty empty empty 17 7 0 10 -4034 -1
-1;
#X text 1053 800 <-- INPUT message;
#X text 961 950 <-- OUTPUT message;
#X text 1447 657 <-- disconnect;
#X text 1707 701 <-- GOODBYE message;
#X text 594 977 Standard OUTPUT message: /output/ID_number/IP_number/port_type_number/network_port_number/network_port_description/
;
#X text 857 758 Standard HELLO message: /hello/id/ip/human_name;
#X msg 593 934 send /output/\$1/192.168.0.10/output/1/audio/44100/16bits/2/3000/Loudspeaker
;
#X obj 1417 988 route /hello /input /output /goodbye;
#X text 1440 723 Standard GOODBYE message: /goodbye/ID_number/human_name/IP_number/status
;
#X obj 1496 95 osc/unpackOSC;
#X obj 1496 122 osc/routeOSC /connection;
#X obj 1496 148 list;
#X obj 1492 235 osc/unpackOSC;
#X obj 1492 288 list;
#X obj 1492 262 osc/routeOSC /disconnection;
#X text 1735 52 <-- receives OSC messages from the network \, at the
multicast address and on the specified port;
#X text 1582 95 <-- unpack OSC messages;
#X text 1651 123 <-- route the OSC message to this address;
#X text 1533 148 <-- put the message into a list;
#X text 1730 191 <-- receives OSC messages from the network \, at the
multicast address and on the specified port;
#X text 1576 233 <-- unpack OSC messages;
#X text 1663 262 <-- route the OSC message to this address;
#X text 1527 288 <-- put the message into a list;
#X msg 870 357 disconnect 239.255.255.250 3000;
#X text 621 628 <-- Connect and generate a random ID number;
#X text 658 661 <-- generate a random ID number;
#X text 659 688 <-- store random ID number;
#X text 739 713 <-- connect to OSC server;
#X text 839 746 <-- presents musical thing to the network;
#X text 1487 677 <-- random ID number;
#X text 597 824 Standard INPUT message: /input/ID_number/IP_number/port_type_number/musical_thing_type(audio)/sample_rate/bit_depth/audio_file_format/channel_number/IP_connection/port_number/port_description/network_protocol/music_protocol/human_name
;
#X obj 593 691 value id37;
#X obj 1421 678 value id37;
#X obj 870 75 mrpeach/net/udpreceive 46620;
#X obj 592 74 mrpeach/net/udpreceive 46621;
#X obj 1496 54 mrpeach/net/udpreceive 224.0.0.0 55623;
#X obj 1492 193 mrpeach/net/udpreceive 224.0.0.0 5524;
#X msg 592 752 send /hello/\$1/192.168.0.10/Guitar2;
#X msg 594 777 send /input/\$1/192.168.0.10/0/audio/44100/16bits/2/224.0.0.0/55623/ON_CLI/55624/OFF_CLI/40000/Volume/46620/ON/46621/OFF/UDP/OSC/Guitar2
, f 75;
#X msg 1421 703 /goodbye/\$1/192.168.0.10/Guitar2/disconnected;
#X text 71 50 - SET AUDIO PARAMETERS;
#X msg 72 99 params @samplerate 48000;
#X msg 72 188 params @callback 1;
#X msg 72 142 params @advance 2;
#X obj 72 375 mediasettings/audiosettings;
#X msg 72 312 driver 3;
#X text 137 312 standard (MIMO);
#X msg 72 335 driver 4;
#X text 138 334 ASIO;
#X text 210 164 same as "advance";
#X msg 72 165 params @buffersize 10;
#X msg 72 121 params @rate 44100;
#X text 194 118 same as "samplerate";
#X text 193 142 "Delay (msec)";
#X text 195 186 "Use callbacks" 1=on 0=off;
#X text 72 291 Understood \, but only changes if in/outs already set
;
#X text 195 210 indevice + inchannels;
#X text 196 232 outdevice + outchannels;
#X msg 72 211 params @input 0 8;
#X msg 72 234 params @output 1 2;
#X connect 0 0 2 0;
#X connect 2 0 12 0;
#X connect 3 0 28 0;
#X connect 4 0 11 0;
#X connect 5 0 27 0;
#X connect 6 0 67 0;
#X connect 7 0 12 0;
#X connect 8 0 10 0;
#X connect 9 0 8 0;
#X connect 10 0 7 0;
#X connect 11 0 12 0;
#X connect 12 0 1 0;
#X connect 27 0 6 0;
#X connect 28 0 4 0;
#X connect 32 0 33 0;
#X connect 33 0 35 0;
#X connect 34 0 50 0;
#X connect 34 1 82 0;
#X connect 34 2 81 0;
#X connect 39 0 33 0;
#X connect 40 0 33 0;
#X connect 41 0 81 0;
#X connect 41 0 82 0;
#X connect 41 0 50 0;
#X connect 41 0 75 0;
#X connect 42 0 76 0;
#X connect 43 0 39 0;
#X connect 43 0 41 0;
#X connect 50 0 40 0;
#X connect 51 0 34 0;
#X connect 53 0 54 0;
#X connect 54 0 55 0;
#X connect 55 0 11 0;
#X connect 56 0 58 0;
#X connect 57 0 67 0;
#X connect 58 0 57 0;
#X connect 67 0 12 0;
#X connect 76 0 83 0;
#X connect 77 0 3 0;
#X connect 78 0 5 0;
#X connect 79 0 53 0;
#X connect 80 0 56 0;
#X connect 81 0 40 0;
#X connect 82 0 40 0;
#X connect 83 0 40 0;
#X connect 83 0 32 0;
#X connect 85 0 88 0;
#X connect 86 0 88 0;
#X connect 87 0 88 0;
#X connect 89 0 88 0;
#X connect 91 0 88 0;
#X connect 94 0 88 0;
#X connect 95 0 88 0;
#X connect 102 0 88 0;
#X connect 103 0 88 0;
#X restore 52 80 pd guitar2;
#X msg 1132 1303 vis 0;
#X obj 706 1258 tgl 15 0 empty empty empty 17 7 0 10 -4034 -1 -1 0
1;
#X obj 1132 1228 tgl 15 0 empty empty empty 17 7 0 10 -258113 -1 -1
0 1;
#X text 726 1256 <-- OPEN;
#X msg 706 1289 vis 1;
#X text 1151 1227 <-- CLOSE;
#X obj 706 1171 osc/unpackOSC;
#X text 942 1146 <-- Receive OSC message;
#X text 794 1171 <-- convert OSC message to Pure Data;
#X obj 1132 1168 osc/unpackOSC;
#X text 1218 1169 <-- convert OSC message to Pure Data;
#X obj 706 1321 s pd-guitar2;
#X obj 706 1148 mrpeach/net/udpreceive 224.0.0.0 46530;
#X obj 1132 1145 mrpeach/net/udpreceive 224.0.0.0 46531;
#X obj 706 1219 osc/routeOSC /sound;
#X obj 1132 1202 osc/routeOSC /sound;
#X text 241 143 route OSC messages -->;
#X text 1370 1140 <-- Receive OSC message;
#X text 979 1103 - SUBPATCH CONTROL;
#X connect 0 0 2 0;
#X connect 2 0 14 0;
#X connect 3 0 30 0;
#X connect 4 0 13 0;
#X connect 5 0 3 0;
#X connect 6 0 29 0;
#X connect 7 0 75 0;
#X connect 8 0 6 0;
#X connect 9 0 14 0;
#X connect 10 0 12 0;
#X connect 11 0 10 0;
#X connect 12 0 9 0;
#X connect 13 0 14 0;
#X connect 14 0 1 0;
#X connect 29 0 7 0;
#X connect 30 0 4 0;
#X connect 34 0 35 0;
#X connect 35 0 37 0;
#X connect 36 0 53 0;
#X connect 36 1 83 0;
#X connect 36 2 50 0;
#X connect 41 0 35 0;
#X connect 42 0 35 0;
#X connect 43 0 50 0;
#X connect 43 0 83 0;
#X connect 43 0 53 0;
#X connect 43 0 54 0;
#X connect 44 0 55 0;
#X connect 45 0 41 0;
#X connect 45 0 43 0;
#X connect 50 0 42 0;
#X connect 53 0 42 0;
#X connect 55 0 56 0;
#X connect 56 0 42 0;
#X connect 56 0 34 0;
#X connect 57 0 36 0;
#X connect 59 0 60 0;
#X connect 60 0 61 0;
#X connect 61 0 13 0;
#X connect 62 0 64 0;
#X connect 63 0 75 0;
#X connect 64 0 63 0;
#X connect 65 0 59 0;
#X connect 66 0 62 0;
#X connect 75 0 14 0;
#X connect 83 0 42 0;
#X connect 86 0 97 0;
#X connect 87 0 90 0;
#X connect 88 0 86 0;
#X connect 90 0 97 0;
#X connect 92 0 100 0;
#X connect 95 0 101 0;
#X connect 98 0 92 0;
#X connect 99 0 95 0;
#X connect 100 0 87 0;
#X connect 101 0 88 0;
