#N canvas 0 64 1920 987 12;
#X obj 106 173 osc/packOSC;
#X obj 40 216 mrpeach/net/udpsend;
#X obj 106 100 tgl 15 0 empty empty empty 17 7 0 10 -4034 -1 -1 0 1
;
#X text 221 21 <-- connect to multicast address;
#X text 254 56 <-- close connection;
#X text 257 142 <-- prepare to send message;
#X text 190 171 <-- pack message in a OSC format;
#X text 179 217 <-- send OSC packet via network \, using mrpeach library
;
#X floatatom 40 252 5 0 1 0 - - -;
#X text 81 253 <-- connection status;
#X obj 640 173 osc/packOSC;
#X obj 574 216 mrpeach/net/udpsend;
#X obj 640 100 tgl 15 0 empty empty empty 17 7 0 10 -258113 -1 -1 0
1;
#X text 757 15 <-- connect to multicast address;
#X text 776 46 <-- close connection;
#X text 787 144 <-- prepare to send message;
#X text 724 174 <-- pack message in a OSC format;
#X text 715 216 <-- send OSC packet via network \, using mrpeach library
;
#X floatatom 574 246 5 0 1 0 - - -;
#X text 614 250 <-- connection status;
#X obj 38 415 osc/unpackOSC;
#X obj 38 442 osc/routeOSC /connection;
#X obj 38 468 list;
#X obj 36 561 osc/unpackOSC;
#X obj 36 614 list;
#X obj 36 588 osc/routeOSC /disconnection;
#X obj 573 415 osc/unpackOSC;
#X obj 573 442 osc/routeOSC /connection;
#X obj 573 468 list;
#X obj 571 561 osc/unpackOSC;
#X obj 571 614 list;
#X obj 571 588 osc/routeOSC /disconnection;
#X msg 40 20 connect 224.0.0.0 33530;
#X msg 54 56 disconnect 224.0.0.0 33530;
#X msg 574 15 connect 224.0.0.0 33531;
#X msg 583 48 disconnect 224.0.0.0 33531;
#X msg 106 143 send /loudspeaker \$1;
#X msg 640 144 send /loudspeaker \$1;
#X text 123 98 <-- OPEN - SUBPATCH [Loudspeaker2];
#X text 661 99 <-- CLOSE - SUBPATCH [Loudspeaker2];
#X obj 38 374 mrpeach/net/udpreceive 224.0.0.0 30535;
#X obj 36 519 mrpeach/net/udpreceive 224.0.0.0 30539;
#X obj 573 374 mrpeach/net/udpreceive 224.0.0.0 30537;
#X obj 571 519 mrpeach/net/udpreceive 224.0.0.0 30540;
#X text 1317 5 MANAGEMENT LAYER;
#X msg 1241 675 disconnect;
#X obj 1204 754 mrpeach/udpsend;
#X obj 1202 848 t b b b;
#X obj 1204 795 tgl 25 0 empty empty empty 17 7 0 10 -228856 -1 -1
0 1;
#X text 1235 798 <-- connection status;
#X text 1318 715 <-- pack messages on OSC format;
#X text 1318 752 <-- send messages via network;
#X msg 1199 137 connect 224.0.0.1 60000;
#X obj 1206 716 mrpeach/packOSC;
#X obj 1199 85 random 101;
#X obj 1241 554 bng 18 250 50 0 empty empty empty 17 7 0 10 -258113
-1 -1;
#X obj 1199 48 bng 25 250 50 0 empty empty empty 17 7 0 10 -4034 -1
-1;
#X text 1633 421 <-- OUTPUT message;
#X text 1267 557 <-- disconnect;
#X text 1640 601 <-- GOODBYE message;
#X text 1214 456 Standard OUTPUT message: /output/ID_number/IP_number/port_type_number/network_port_number/network_port_description/
;
#X text 1551 187 Standard HELLO message: /hello/id/ip/human_name;
#X text 1248 628 Standard GOODBYE message: /goodbye/ID_number/IP_number/human_name/status
;
#X text 1321 578 <-- random ID number;
#X text 1229 50 <-- Connect and generates a random ID number;
#X text 1277 84 <-- generates a random ID number between 0 - 100;
#X text 1286 112 <-- store random ID number;
#X text 1374 139 <-- connect to OSC server;
#X text 1527 171 <-- presents the musical thing on the network;
#X text 1217 290 Standard INPUT message: /input/ID_number/IP_number/port_type_number/musical_thing_type(audio)/sample_rate/bit_depth/audio_file_format/channel_number/IP_connection/port_number/port_description/network_protocol/music_protocol/human_name
;
#X obj 1201 114 value id39;
#X obj 1241 578 value id39;
#X msg 1200 174 send /hello/\$1/192.168.0.10/LoudspeakerControl;
#X msg 1241 603 /goodbye/\$1/192.168.0.10/LoudspeakerControl/disconnected
;
#X msg 1201 404 send /output/\$1/192.168.0.10/1/controller/33530/OPEN_SUBPATCH/33531/CLOSE_SUBPATCH/OFF/OSC/Loudspeaker2
;
#X msg 1203 221 send /input/\$1/192.168.0.10/0/controller/0/1/224.0.0./30535/CONNECT_OPEN_SUBPATCH/30537/CONNECT_CLOSE_SUBPATCH/30539/DISCONNECT_OPEN_SUBPATCH/30540/DISCONNECT_CLOSE_SUBPATCH/OSC/MicrophoneControlOnOff
, f 76;
#X text 1747 237 <-- INPUT message;
#X obj 1202 940 bng 22 250 50 0 empty empty empty 17 7 0 10 -159808
-1 -1;
#X text 1278 1001 <-- same random number;
#X text 1228 940 <-- mode;
#X msg 1202 1040 send /mode/\$1/192.168.0.10/Microphone/Performance_Mode
;
#X text 1219 1060 Standard MODE message: /mode/ID_number/IP_number/human_name/status
;
#X obj 1202 1003 value id39;
#X obj 1202 889 route /hello /input /output /mode /goodbye;
#X connect 0 0 1 0;
#X connect 1 0 8 0;
#X connect 2 0 36 0;
#X connect 10 0 11 0;
#X connect 11 0 18 0;
#X connect 12 0 37 0;
#X connect 20 0 21 0;
#X connect 21 0 22 0;
#X connect 22 0 32 0;
#X connect 23 0 25 0;
#X connect 24 0 33 0;
#X connect 25 0 24 0;
#X connect 26 0 27 0;
#X connect 27 0 28 0;
#X connect 28 0 34 0;
#X connect 29 0 31 0;
#X connect 30 0 35 0;
#X connect 31 0 30 0;
#X connect 32 0 1 0;
#X connect 33 0 1 0;
#X connect 34 0 11 0;
#X connect 35 0 11 0;
#X connect 36 0 0 0;
#X connect 37 0 10 0;
#X connect 40 0 20 0;
#X connect 41 0 23 0;
#X connect 42 0 26 0;
#X connect 43 0 29 0;
#X connect 45 0 46 0;
#X connect 46 0 48 0;
#X connect 47 0 74 0;
#X connect 47 0 80 0;
#X connect 47 1 75 0;
#X connect 47 2 72 0;
#X connect 52 0 46 0;
#X connect 53 0 46 0;
#X connect 54 0 72 0;
#X connect 54 0 75 0;
#X connect 54 0 74 0;
#X connect 54 0 70 0;
#X connect 55 0 71 0;
#X connect 56 0 52 0;
#X connect 56 0 54 0;
#X connect 71 0 73 0;
#X connect 72 0 53 0;
#X connect 73 0 53 0;
#X connect 73 0 45 0;
#X connect 74 0 53 0;
#X connect 75 0 53 0;
#X connect 77 0 82 0;
#X connect 80 0 53 0;
#X connect 82 0 80 0;
#X connect 83 0 47 0;
