#N canvas 0 182 1920 987 12;
#X obj 163 209 osc/packOSC;
#X obj 97 252 mrpeach/net/udpsend;
#X obj 163 125 tgl 15 0 empty empty empty 17 7 0 10 -4034 -1 -1 0 1
;
#X text 278 56 <-- connect to multicast address;
#X text 312 93 <-- close connection;
#X text 345 179 <-- prepare OSC message;
#X text 250 210 <-- convert Pure Data message to OSC;
#X text 242 253 <-- send OSC data packaged in UDP \, using the mrpeach
library;
#X text 178 122 <-- ON;
#X obj 155 521 osc/packOSC;
#X obj 89 564 mrpeach/net/udpsend;
#X obj 155 437 tgl 15 0 empty empty empty 17 7 0 10 -258113 -1 -1 0
1;
#X text 271 366 <-- connect to multicast address;
#X text 305 406 <-- close connection;
#X text 344 492 <-- prepare OSC message;
#X text 242 522 <-- convert Pure Data message to OSC;
#X text 234 565 <-- send OSC data packaged in UDP \, using the mrpeach
library;
#X text 170 434 <-- OFF;
#X msg 163 180 send /video_control_on \$1;
#X msg 155 492 send /video_control_off \$1;
#X msg 97 56 connect 224.0.0.251 40100;
#X msg 89 367 connect 224.0.0.251 40101;
#X text 1362 23 MANAGEMENT LAYER;
#X msg 1262 686 disconnect;
#X obj 1241 755 mrpeach/udpsend;
#X obj 1239 849 t b b b;
#X obj 1241 796 tgl 25 0 empty empty empty 17 7 0 10 -228856 -1 -1
0 1;
#X text 1272 799 <-- connection status;
#X text 1356 715 <-- pack messages on OSC format;
#X text 1356 756 <-- send messages via network;
#X msg 1244 155 connect 224.0.0.1 60000;
#X obj 1243 717 mrpeach/packOSC;
#X obj 1244 103 random 101;
#X obj 1262 565 bng 18 250 50 0 empty empty empty 17 7 0 10 -258113
-1 -1;
#X obj 1244 66 bng 25 250 50 0 empty empty empty 17 7 0 10 -4034 -1
-1;
#X text 1711 273 <-- INPUT message;
#X text 1680 426 <-- OUTPUT message;
#X text 1288 568 <-- disconnect;
#X text 1619 614 <-- GOODBYE message;
#X msg 1245 192 send /hello/\$1/192.168.0.10/VideoControl;
#X text 1277 463 Standard OUTPUT message: /output/ID_number/IP_number/port_type_number/network_port_number/network_port_description/
;
#X text 1566 210 Standard HELLO message: /hello/id/ip/human_name;
#X msg 1252 409 send /output/\$1/192.168.0.10/1/controller/40100/ON/40101/OFF/OSCmessage/Video_sender
;
#X obj 1247 131 value id23;
#X obj 1262 589 value id23;
#X obj 1239 890 route /hello /input /output /goodbye;
#X msg 1262 614 /goodbye/\$1/192.168.0.10/VideoControl/disconnected
;
#X text 1269 639 Standard GOODBYE message: /goodbye/ID_number/IP_number/human_name/status
;
#X floatatom 97 294 5 0 1 0 - - -;
#X text 140 294 <-- connection status;
#X floatatom 89 598 5 0 1 0 - - -;
#X text 138 599 <-- connection status;
#X obj 456 727 osc/unpackOSC;
#X obj 456 754 osc/routeOSC /connection;
#X obj 456 780 list;
#X text 58 684 receives OSC messages from the network \, at the multicast
address and on the specified port -->;
#X text 281 724 unpack OSC messages -->;
#X text 161 753 route the OSC message to this address -->;
#X text 233 778 put the message into a list -->;
#X obj 454 873 osc/unpackOSC;
#X obj 454 926 list;
#X text 55 832 receives OSC messages from the network \, at the multicast
address and on the specified port -->;
#X text 286 873 unpack OSC messages -->;
#X text 162 900 route the OSC message to this address -->;
#X text 227 924 put the message into a list -->;
#X obj 454 900 osc/routeOSC /disconnection;
#X msg 106 93 disconnect 224.0.0.251 40100;
#X msg 98 405 disconnect 224.0.0.251 40101;
#X obj 456 686 mrpeach/net/udpreceive 224.0.0.0 55047;
#X obj 454 831 mrpeach/net/udpreceive 224.0.0.0 55048;
#X text 1274 68 <-- Connect and generates random ID number;
#X text 1317 101 <-- generates random ID number;
#X text 1322 130 <-- store random ID number;
#X text 1414 154 <-- connect to OSC server;
#X text 1536 192 <-- presents musical thing in the network;
#X text 1336 587 <-- random ID number;
#X text 1259 309 Standard INPUT message: /input/ID_number/IP_number/port_type_number/musical_thing_type(audio)/sample_rate/bit_depth/audio_file_format/channel_number/IP_connection/port_number/port_description/network_protocol/music_protocol/human_name
;
#X msg 1246 259 send /input/\$1/192.168.0.10/0/controller/0/1/224.0.0.0/55047/ON_CLI/55048/OFF_CLI/UDP/OSC/VideoControl
, f 65;
#X connect 0 0 1 0;
#X connect 1 0 48 0;
#X connect 2 0 18 0;
#X connect 9 0 10 0;
#X connect 10 0 50 0;
#X connect 11 0 19 0;
#X connect 18 0 0 0;
#X connect 19 0 9 0;
#X connect 20 0 1 0;
#X connect 21 0 10 0;
#X connect 23 0 24 0;
#X connect 24 0 26 0;
#X connect 25 0 42 0;
#X connect 25 1 77 0;
#X connect 25 2 39 0;
#X connect 30 0 24 0;
#X connect 31 0 24 0;
#X connect 32 0 39 0;
#X connect 32 0 77 0;
#X connect 32 0 42 0;
#X connect 32 0 43 0;
#X connect 33 0 44 0;
#X connect 34 0 30 0;
#X connect 34 0 32 0;
#X connect 39 0 31 0;
#X connect 42 0 31 0;
#X connect 44 0 46 0;
#X connect 45 0 25 0;
#X connect 46 0 31 0;
#X connect 46 0 23 0;
#X connect 52 0 53 0;
#X connect 53 0 54 0;
#X connect 54 0 20 0;
#X connect 59 0 65 0;
#X connect 60 0 21 0;
#X connect 65 0 60 0;
#X connect 66 0 1 0;
#X connect 67 0 10 0;
#X connect 68 0 52 0;
#X connect 69 0 59 0;
#X connect 77 0 31 0;
