#N canvas 1920 376 1366 704 10;
#X obj 95 344 osc/packOSC;
#X obj 29 387 mrpeach/net/udpsend;
#X msg 95 315 send /mic \$1;
#X obj 95 271 tgl 15 0 empty empty empty 17 7 0 10 -4034 -1 -1 0 1
;
#X obj 668 341 osc/packOSC;
#X obj 602 384 mrpeach/net/udpsend;
#X msg 668 312 send /mic \$1;
#X obj 668 268 tgl 15 0 empty empty empty 17 7 0 10 -258113 -1 -1 0
1;
#X text 112 269 <-- ON;
#X text 689 267 <-- OFF;
#X text 235 227 <-- close connection;
#X text 173 314 <-- prepare to send message;
#X text 170 344 <-- pack message in a OSC format;
#X text 151 389 <-- send OSC packet via network \, using mrpeach library
;
#X text 785 183 <-- connect to multicast address;
#X text 788 217 <-- close connection;
#X text 744 312 <-- prepare to send message;
#X text 740 343 <-- pack message in a OSC format;
#X text 724 385 <-- send OSC packet via network \, using mrpeach library
;
#X text 1280 18 MANAGEMENT LAYER;
#X msg 1197 718 disconnect;
#X obj 1160 797 mrpeach/udpsend;
#X obj 1158 891 t b b b;
#X obj 1160 838 tgl 25 0 empty empty empty 17 7 0 10 -228856 -1 -1
0 1;
#X text 1191 841 <-- connection status;
#X text 1261 760 <-- pack messages on OSC format;
#X text 1259 796 <-- send messages via network;
#X msg 1162 150 connect 224.0.0.1 60000;
#X obj 1162 759 mrpeach/packOSC;
#X obj 1162 98 random 101;
#X obj 1200 602 bng 18 250 50 0 empty empty empty 17 7 0 10 -258113
-1 -1;
#X obj 1162 61 bng 25 250 50 0 empty empty empty 17 7 0 10 -4034 -1
-1;
#X text 1633 248 <-- INPUT message;
#X text 1539 465 <-- OUTPUT message;
#X text 1226 605 <-- disconnect;
#X text 1538 651 <-- GOODBYE message;
#X msg 1163 187 send /hello/\$1/192.168.0.10/MicrophoneControl;
#X text 1195 525 Standard OUTPUT message: /output/ID_number/IP_number/port_type_number/network_port_number/network_port_description/
;
#X text 1465 203 Standard HELLO message: /hello/id/ip/human_name;
#X obj 1164 126 value id15;
#X obj 1200 626 value id15;
#X msg 1200 651 /goodbye/\$1/192.168.0.10/MicrophoneControl/disconnected
;
#X text 1204 671 Standard GOODBYE message: /goodbye/ID_number/IP_number/human_name/status
;
#X obj 377 508 osc/unpackOSC;
#X obj 377 535 osc/routeOSC /connection;
#X obj 377 561 list;
#X text 15 463 receives OSC messages from the network \, at the multicast
address and on the specified port -->;
#X text 228 505 unpack OSC messages -->;
#X text 122 535 route the OSC message to this address -->;
#X text 181 561 put the message into a list -->;
#X obj 375 654 osc/unpackOSC;
#X obj 375 709 list;
#X text 30 613 receives OSC messages from the network \, at the multicast
address and on the specified port -->;
#X text 225 654 unpack OSC messages -->;
#X text 118 681 route the OSC message to this address -->;
#X text 177 707 put the message into a list -->;
#X obj 375 681 osc/routeOSC /disconnection;
#X floatatom 29 423 5 0 1 0 - - -;
#X text 70 424 <-- connection status;
#X floatatom 602 414 5 0 1 0 - - -;
#X text 642 418 <-- connection status;
#X obj 377 467 mrpeach/net/udpreceive 224.0.0.0 55031;
#X obj 375 612 mrpeach/net/udpreceive 224.0.0.0 55033;
#X obj 360 822 osc/unpackOSC;
#X obj 360 849 osc/routeOSC /connection;
#X obj 360 875 list;
#X text -2 777 receives OSC messages from the network \, at the multicast
address and on the specified port -->;
#X text 211 819 unpack OSC messages -->;
#X text 105 849 route the OSC message to this address -->;
#X text 164 875 put the message into a list -->;
#X obj 358 968 osc/unpackOSC;
#X obj 358 1021 list;
#X text 13 927 receives OSC messages from the network \, at the multicast
address and on the specified port -->;
#X text 208 968 unpack OSC messages -->;
#X text 101 995 route the OSC message to this address -->;
#X text 160 1021 put the message into a list -->;
#X obj 358 995 osc/routeOSC /disconnection;
#X obj 360 781 mrpeach/net/udpreceive 224.0.0.0 55032;
#X obj 358 926 mrpeach/net/udpreceive 224.0.0.0 55034;
#X text 1265 625 <-- random ID number;
#X text 1192 63 <-- Connect and generates a random ID number;
#X text 1229 96 <-- generates a random ID number between 0 - 100;
#X text 1231 124 <-- store random ID number;
#X text 1310 148 <-- connect to OSC server;
#X text 1440 188 <-- presents the musical thing on the network;
#X text 1180 336 Standard INPUT message: /input/ID_number/IP_number/port_type_number/musical_thing_type(audio)/sample_rate/bit_depth/audio_file_format/channel_number/IP_connection/port_number/port_description/network_protocol/music_protocol/human_name
;
#X obj 108 1265 osc/packOSC;
#X obj 42 1308 mrpeach/net/udpsend;
#X msg 108 1236 send /mic \$1;
#X obj 108 1192 tgl 15 0 empty empty empty 17 7 0 10 -4034 -1 -1 0
1;
#X text 223 1113 <-- connect to multicast address;
#X text 256 1148 <-- close connection;
#X text 186 1235 <-- prepare to send message;
#X text 183 1265 <-- pack message in a OSC format;
#X text 164 1310 <-- send OSC packet via network \, using mrpeach library
;
#X floatatom 42 1344 5 0 1 0 - - -;
#X text 83 1345 <-- connection status;
#X obj 642 1265 osc/packOSC;
#X obj 576 1308 mrpeach/net/udpsend;
#X msg 642 1236 send /mic \$1;
#X obj 642 1192 tgl 15 0 empty empty empty 17 7 0 10 -258113 -1 -1
0 1;
#X text 759 1107 <-- connect to multicast address;
#X text 762 1141 <-- close connection;
#X text 718 1236 <-- prepare to send message;
#X text 714 1267 <-- pack message in a OSC format;
#X text 698 1309 <-- send OSC packet via network \, using mrpeach library
;
#X floatatom 576 1338 5 0 1 0 - - -;
#X text 616 1342 <-- connection status;
#X obj 40 1507 osc/unpackOSC;
#X obj 40 1534 osc/routeOSC /connection;
#X obj 40 1560 list;
#X obj 38 1653 osc/unpackOSC;
#X obj 38 1706 list;
#X obj 38 1680 osc/routeOSC /disconnection;
#X obj 575 1507 osc/unpackOSC;
#X obj 575 1534 osc/routeOSC /connection;
#X obj 575 1560 list;
#X obj 573 1653 osc/unpackOSC;
#X obj 573 1706 list;
#X obj 573 1680 osc/routeOSC /disconnection;
#X msg 42 1112 connect 224.0.0.0 40530;
#X msg 56 1148 disconnect 224.0.0.0 40530;
#X msg 576 1107 connect 224.0.0.0 40531;
#X msg 585 1140 disconnect 224.0.0.0 40531;
#X text 125 1190 <-- OPEN - SUBPATCH [mic_aux_1];
#X text 663 1191 <-- CLOSE - SUBPATCH [mic_aux_1];
#X msg 27 191 connect 224.0.0.0 40030;
#X msg 38 227 disconnect 224.0.0.0 40030;
#X msg 602 183 connect 224.0.0.0 40031;
#X msg 611 216 disconnect 224.0.0.0 40031;
#X obj 1129 1256 osc/packOSC;
#X obj 1063 1299 mrpeach/net/udpsend;
#X msg 1129 1227 send /mic \$1;
#X obj 1129 1183 tgl 15 0 empty empty empty 17 7 0 10 -4034 -1 -1 0
1;
#X text 1244 1104 <-- connect to multicast address;
#X text 1277 1139 <-- close connection;
#X text 1207 1226 <-- prepare to send message;
#X text 1204 1256 <-- pack message in a OSC format;
#X text 1185 1301 <-- send OSC packet via network \, using mrpeach
library;
#X floatatom 1063 1335 5 0 1 0 - - -;
#X text 1104 1336 <-- connection status;
#X obj 1663 1256 osc/packOSC;
#X obj 1597 1299 mrpeach/net/udpsend;
#X msg 1663 1227 send /mic \$1;
#X obj 1663 1183 tgl 15 0 empty empty empty 17 7 0 10 -258113 -1 -1
0 1;
#X text 1780 1098 <-- connect to multicast address;
#X text 1783 1132 <-- close connection;
#X text 1739 1227 <-- prepare to send message;
#X text 1735 1258 <-- pack message in a OSC format;
#X text 1719 1300 <-- send OSC packet via network \, using mrpeach
library;
#X floatatom 1597 1329 5 0 1 0 - - -;
#X text 1637 1333 <-- connection status;
#X obj 1061 1498 osc/unpackOSC;
#X obj 1061 1525 osc/routeOSC /connection;
#X obj 1061 1551 list;
#X obj 1059 1644 osc/unpackOSC;
#X obj 1059 1697 list;
#X obj 1059 1671 osc/routeOSC /disconnection;
#X obj 1596 1498 osc/unpackOSC;
#X obj 1596 1525 osc/routeOSC /connection;
#X obj 1596 1551 list;
#X obj 1594 1644 osc/unpackOSC;
#X obj 1594 1697 list;
#X obj 1594 1671 osc/routeOSC /disconnection;
#X msg 1063 1103 connect 224.0.0.0 40532;
#X msg 1077 1139 disconnect 224.0.0.0 40532;
#X msg 1597 1098 connect 224.0.0.0 40533;
#X msg 1606 1131 disconnect 224.0.0.0 40533;
#X text 1146 1181 <-- OPEN - SUBPATCH [mic_aux_2];
#X text 1684 1182 <-- CLOSE - SUBPATCH [mic_aux_2];
#X obj 40 1466 mrpeach/net/udpreceive 224.0.0.0 55535;
#X obj 1059 1602 mrpeach/net/udpreceive 224.0.0.0 55541;
#X obj 1061 1457 mrpeach/net/udpreceive 224.0.0.0 55536;
#X obj 575 1466 mrpeach/net/udpreceive 224.0.0.0 55537;
#X obj 1596 1457 mrpeach/net/udpreceive 224.0.0.0 55538;
#X obj 38 1611 mrpeach/net/udpreceive 224.0.0.0 55539;
#X obj 573 1611 mrpeach/net/udpreceive 224.0.0.0 55540;
#X obj 1594 1602 mrpeach/net/udpreceive 224.0.0.0 55542;
#N canvas 0 64 1920 987 mic_control_1 0;
#X obj 160 219 osc/packOSC;
#X obj 94 262 mrpeach/net/udpsend;
#X msg 160 190 send /mic \$1;
#X obj 160 146 tgl 15 0 empty empty empty 17 7 0 10 -4034 -1 -1 0 1
;
#X obj 733 216 osc/packOSC;
#X obj 667 259 mrpeach/net/udpsend;
#X msg 733 187 send /mic \$1;
#X obj 733 143 tgl 15 0 empty empty empty 17 7 0 10 -258113 -1 -1 0
1;
#X text 177 144 <-- ON;
#X text 754 142 <-- OFF;
#X text 273 67 <-- connect to multicast address;
#X text 300 102 <-- close connection;
#X text 238 189 <-- prepare to send message;
#X text 235 219 <-- pack message in a OSC format;
#X text 216 264 <-- send OSC packet via network \, using mrpeach library
;
#X text 850 58 <-- connect to multicast address;
#X text 853 92 <-- close connection;
#X text 809 187 <-- prepare to send message;
#X text 805 218 <-- pack message in a OSC format;
#X text 789 260 <-- send OSC packet via network \, using mrpeach library
;
#X floatatom 94 298 5 0 1 0 - - -;
#X text 135 299 <-- connection status;
#X floatatom 667 289 5 0 1 0 - - -;
#X text 707 293 <-- connection status;
#X msg 92 66 connect 224.0.0.0 30030;
#X msg 667 58 connect 224.0.0.0 30031;
#X msg 676 91 disconnect 224.0.0.0 30031;
#X msg 103 102 disconnect 224.0.0.0 30030;
#X text 1341 14 MANAGEMENT LAYER;
#X msg 1257 667 disconnect;
#X obj 1220 746 mrpeach/udpsend;
#X obj 1218 840 t b b b;
#X obj 1220 787 tgl 25 0 empty empty empty 17 7 0 10 -228856 -1 -1
0 1;
#X text 1251 790 <-- connection status;
#X text 1321 709 <-- pack messages on OSC format;
#X text 1319 745 <-- send messages via network;
#X msg 1223 146 connect 224.0.0.1 60000;
#X obj 1222 708 mrpeach/packOSC;
#X obj 1223 94 random 101;
#X obj 1257 546 bng 18 250 50 0 empty empty empty 17 7 0 10 -258113
-1 -1;
#X obj 1223 57 bng 25 250 50 0 empty empty empty 17 7 0 10 -4034 -1
-1;
#X text 1693 235 <-- INPUT message;
#X text 1596 373 <-- OUTPUT message;
#X text 1280 545 <-- disconnect;
#X text 1598 593 <-- GOODBYE message;
#X text 1245 408 Standard OUTPUT message: /output/ID_number/IP_number/port_type_number/network_port_number/network_port_description/
;
#X text 1517 199 Standard HELLO message: /hello/id/ip/human_name;
#X obj 1218 881 route /hello /input /output /goodbye;
#X text 1263 626 Standard GOODBYE message: /goodbye/ID_number/IP_number/human_name/status
;
#X text 1322 569 <-- random ID number;
#X text 1253 59 <-- Connect and generates a random ID number;
#X text 1290 92 <-- generates a random ID number between 0 - 100;
#X text 1292 120 <-- store random ID number;
#X text 1371 144 <-- connect to OSC server;
#X text 1506 180 <-- presents the musical thing on the network;
#X text 1241 278 Standard INPUT message: /input/ID_number/IP_number/port_type_number/musical_thing_type(audio)/sample_rate/bit_depth/audio_file_format/channel_number/IP_connection/port_number/port_description/network_protocol/music_protocol/human_name
;
#X obj 1225 122 value id33;
#X obj 1257 570 value id33;
#X msg 1224 183 send /hello/\$1/192.168.0.10/Mic_Aux_Control_1;
#X msg 1226 238 send /input/\$1/192.168.0.10/0/controller/0/1/OSC/Mic_Aux_Control_1_OnOff
, f 76;
#X msg 1228 362 send /output/\$1/192.168.0.10/1/controller/30030/ON/30031/OFF/OSC/Mic_Aux_Control_1
;
#X msg 1257 595 /goodbye/\$1/192.168.0.10/Mic_Aux_Control_1/disconnected
;
#X obj 136 531 osc/packOSC;
#X obj 70 574 mrpeach/net/udpsend;
#X msg 136 502 send /mic \$1;
#X floatatom 70 610 5 0 1 0 - - -;
#X text 111 611 <-- connection status;
#X obj 139 473 hsl 128 15 0 300 0 0 empty empty empty -2 -8 0 10 -4160
-1 -1 0 1;
#X text 217 376 <-- connect to multicast address;
#X text 233 405 <-- close connection;
#X text 215 503 <-- prepare to send message;
#X text 208 532 <-- pack message in a OSC format;
#X text 271 472 <-- Reverb control;
#X msg 70 378 connect 224.0.0.0 41926;
#X msg 70 407 disconnect 224.0.0.0 41926;
#X obj 1216 917 bng 22 250 50 0 empty empty empty 17 7 0 10 -159808
-1 -1;
#X text 1282 979 <-- same random number;
#X text 1242 917 <-- mode;
#X msg 1216 1017 send /mode/\$1/192.168.0.10/Microphone/Performance_Mode
;
#X text 1262 1053 Standard MODE message: /mode/ID_number/IP_number/human_name/status
;
#X obj 1216 980 value id33;
#X connect 0 0 1 0;
#X connect 1 0 20 0;
#X connect 2 0 0 0;
#X connect 3 0 2 0;
#X connect 4 0 5 0;
#X connect 5 0 22 0;
#X connect 6 0 4 0;
#X connect 7 0 6 0;
#X connect 24 0 1 0;
#X connect 25 0 5 0;
#X connect 26 0 5 0;
#X connect 27 0 1 0;
#X connect 29 0 30 0;
#X connect 30 0 32 0;
#X connect 31 0 60 0;
#X connect 31 0 78 0;
#X connect 31 1 59 0;
#X connect 31 2 58 0;
#X connect 36 0 30 0;
#X connect 37 0 30 0;
#X connect 38 0 58 0;
#X connect 38 0 59 0;
#X connect 38 0 60 0;
#X connect 38 0 56 0;
#X connect 39 0 57 0;
#X connect 40 0 36 0;
#X connect 40 0 38 0;
#X connect 47 0 31 0;
#X connect 57 0 61 0;
#X connect 58 0 37 0;
#X connect 59 0 37 0;
#X connect 60 0 37 0;
#X connect 61 0 37 0;
#X connect 61 0 29 0;
#X connect 62 0 63 0;
#X connect 63 0 65 0;
#X connect 64 0 62 0;
#X connect 67 0 64 0;
#X connect 73 0 63 0;
#X connect 74 0 63 0;
#X connect 75 0 80 0;
#X connect 78 0 37 0;
#X connect 80 0 78 0;
#X restore 70 42 pd mic_control_1;
#N canvas 0 64 1920 987 mic_control_2 0;
#X text 1199 15 MANAGEMENT LAYER;
#X msg 1119 606 disconnect;
#X obj 1082 685 mrpeach/udpsend;
#X obj 1080 779 t b b b;
#X obj 1082 726 tgl 25 0 empty empty empty 17 7 0 10 -228856 -1 -1
0 1;
#X text 1113 729 <-- connection status;
#X text 1183 646 <-- pack messages on OSC format;
#X text 1181 684 <-- send messages via network;
#X msg 1081 147 connect 224.0.0.1 60000;
#X obj 1084 647 mrpeach/packOSC;
#X obj 1081 95 random 101;
#X obj 1119 485 bng 18 250 50 0 empty empty empty 17 7 0 10 -258113
-1 -1;
#X obj 1081 58 bng 25 250 50 0 empty empty empty 17 7 0 10 -4034 -1
-1;
#X text 1546 239 <-- INPUT message;
#X text 1454 374 <-- OUTPUT message;
#X text 1142 484 <-- disconnect;
#X text 1460 532 <-- GOODBYE message;
#X text 1103 409 Standard OUTPUT message: /output/ID_number/IP_number/port_type_number/network_port_number/network_port_description/
;
#X text 1375 200 Standard HELLO message: /hello/id/ip/human_name;
#X obj 1080 820 route /hello /input /output /goodbye;
#X text 1125 565 Standard GOODBYE message: /goodbye/ID_number/IP_number/human_name/status
;
#X text 1184 508 <-- random ID number;
#X text 1111 60 <-- Connect and generates a random ID number;
#X text 1148 93 <-- generates a random ID number between 0 - 100;
#X text 1150 121 <-- store random ID number;
#X text 1229 145 <-- connect to OSC server;
#X text 1364 181 <-- presents the musical thing on the network;
#X text 1099 279 Standard INPUT message: /input/ID_number/IP_number/port_type_number/musical_thing_type(audio)/sample_rate/bit_depth/audio_file_format/channel_number/IP_connection/port_number/port_description/network_protocol/music_protocol/human_name
;
#X obj 1083 123 value id34;
#X msg 1082 184 send /hello/\$1/192.168.0.10/Mic_Aux_Control_2;
#X msg 1084 239 send /input/\$1/192.168.0.10/0/controller/0/1/OSC/Mic_Aux_Control_2_OnOff
, f 76;
#X obj 1119 509 value id34;
#X msg 1119 534 /goodbye/\$1/192.168.0.10/Mic_Aux_Control_2/disconnected
;
#X obj 76 211 osc/packOSC;
#X obj 10 254 mrpeach/net/udpsend;
#X msg 76 182 send /mic \$1;
#X obj 76 138 tgl 15 0 empty empty empty 17 7 0 10 -4034 -1 -1 0 1
;
#X obj 595 229 osc/packOSC;
#X obj 529 272 mrpeach/net/udpsend;
#X msg 595 200 send /mic \$1;
#X obj 595 156 tgl 15 0 empty empty empty 17 7 0 10 -258113 -1 -1 0
1;
#X text 93 136 <-- ON;
#X text 616 155 <-- OFF;
#X text 189 59 <-- connect to multicast address;
#X text 216 94 <-- close connection;
#X text 154 181 <-- prepare to send message;
#X text 151 211 <-- pack message in a OSC format;
#X text 134 256 <-- send OSC packet via network \, using mrpeach library
;
#X text 712 71 <-- connect to multicast address;
#X text 715 105 <-- close connection;
#X text 671 200 <-- prepare to send message;
#X text 667 231 <-- pack message in a OSC format;
#X text 651 273 <-- send OSC packet via network \, using mrpeach library
;
#X floatatom 10 290 5 0 1 0 - - -;
#X text 51 291 <-- connection status;
#X floatatom 529 302 5 0 1 0 - - -;
#X text 569 306 <-- connection status;
#X msg 1086 363 send /output/\$1/192.168.0.10/1/controller/30032/ON/30033/OFF/OSC/Mic_Aux_Control_2
;
#X msg 8 58 connect 224.0.0.0 30032;
#X msg 19 94 disconnect 224.0.0.0 30032;
#X msg 530 71 connect 224.0.0.0 30033;
#X msg 538 104 disconnect 224.0.0.0 30033;
#X obj 135 566 osc/packOSC;
#X obj 69 609 mrpeach/net/udpsend;
#X msg 135 537 send /mic \$1;
#X floatatom 69 645 5 0 1 0 - - -;
#X text 110 646 <-- connection status;
#X obj 138 508 hsl 128 15 0 300 0 0 empty empty empty -2 -8 0 10 -4160
-1 -1 0 1;
#X text 216 411 <-- connect to multicast address;
#X text 232 440 <-- close connection;
#X text 214 538 <-- prepare to send message;
#X text 207 567 <-- pack message in a OSC format;
#X text 270 507 <-- Reverb control;
#X msg 69 414 connect 224.0.0.0 41977;
#X msg 69 442 disconnect 224.0.0.0 41977;
#X obj 1084 858 bng 22 250 50 0 empty empty empty 17 7 0 10 -159808
-1 -1;
#X text 1153 920 <-- same random number;
#X text 1110 858 <-- mode;
#X msg 1084 958 send /mode/\$1/192.168.0.10/Microphone/Performance_Mode
;
#X text 1130 994 Standard MODE message: /mode/ID_number/IP_number/human_name/status
;
#X obj 1084 921 value id34;
#X connect 1 0 2 0;
#X connect 2 0 4 0;
#X connect 3 0 57 0;
#X connect 3 0 78 0;
#X connect 3 1 30 0;
#X connect 3 2 29 0;
#X connect 8 0 2 0;
#X connect 9 0 2 0;
#X connect 10 0 29 0;
#X connect 10 0 30 0;
#X connect 10 0 57 0;
#X connect 10 0 28 0;
#X connect 11 0 31 0;
#X connect 12 0 8 0;
#X connect 12 0 10 0;
#X connect 19 0 3 0;
#X connect 29 0 9 0;
#X connect 30 0 9 0;
#X connect 31 0 32 0;
#X connect 32 0 9 0;
#X connect 32 0 1 0;
#X connect 33 0 34 0;
#X connect 34 0 53 0;
#X connect 35 0 33 0;
#X connect 36 0 35 0;
#X connect 37 0 38 0;
#X connect 38 0 55 0;
#X connect 39 0 37 0;
#X connect 40 0 39 0;
#X connect 57 0 9 0;
#X connect 58 0 34 0;
#X connect 59 0 34 0;
#X connect 60 0 38 0;
#X connect 61 0 38 0;
#X connect 62 0 63 0;
#X connect 63 0 65 0;
#X connect 64 0 62 0;
#X connect 67 0 64 0;
#X connect 73 0 63 0;
#X connect 74 0 63 0;
#X connect 75 0 80 0;
#X connect 78 0 9 0;
#X connect 80 0 78 0;
#X restore 213 43 pd mic_control_2;
#X text 158 12 - SUBPATCH;
#X msg 1166 234 send /input/\$1/192.168.0.10/0/controller/0/1/224.0.0./55031/ON_CLI/55032/ON1_CLI/55033/OFF_CLI/55034/OFF1_CLI/55535/CONNECT_OPEN_SUBPATCH_MIC_AUX1/55536/CONNECT_OPEN_SUBPATCH_MIC_AUX2/55537/CONNECT_CLOSE_SUBPATCH_MIC_AUX1/55538/CONNECT_CLOSE_SUBPATCH_MIC_AUX2/55539/DISCONNECT_OPEN_SUBPATCH_MIC_AUX1/55540/DISCONNECT_CLOSE_SUBPATCH_MIC_AUX1/55541/DISCONNECT_OPEN_SUBPATCH/MIC_AUX2/55542/DISCONNECT_CLOSE_SUBPATCH_MIC_AUX2/UDP/OSC/MicrophoneControlOnOff
, f 76;
#X msg 1171 454 send /output/\$1/192.168.0.10/1/controller/40030/ON/40031/OFF/40530/OPEN_SUBPATCH_MIC_AUX1/40531/CLOSE_SUBPATCH_MIC_AUX1/40532/OPEN_SUBPATCH_MIC_AUX2/40533/CLOSE_SUBPATCH_MIC_AUX2/OSC/Microphone
;
#X obj 816 659 osc/packOSC;
#X obj 750 702 mrpeach/net/udpsend;
#X msg 816 630 send /mic \$1;
#X floatatom 750 738 5 0 1 0 - - -;
#X text 791 739 <-- connection status;
#X obj 819 601 hsl 128 15 0 300 0 0 empty empty empty -2 -8 0 10 -4160
-1 -1 0 1;
#X msg 750 506 connect 224.0.0.0 41414;
#X msg 750 535 disconnect 224.0.0.0 41414;
#X text 208 192 <-- connect to multicast address;
#X text 897 504 <-- connect to multicast address;
#X text 913 533 <-- close connection;
#X text 895 631 <-- prepare to send message;
#X text 888 660 <-- pack message in a OSC format;
#X text 951 600 <-- Reverb control;
#X obj 751 822 osc/unpackOSC;
#X obj 751 849 osc/routeOSC /connection;
#X obj 751 875 list;
#X obj 749 968 osc/unpackOSC;
#X obj 749 1021 list;
#X obj 749 995 osc/routeOSC /disconnection;
#X obj 751 781 mrpeach/net/udpreceive 224.0.0.0 55144;
#X obj 749 926 mrpeach/net/udpreceive 224.0.0.0 55146;
#X obj 1745 375 bng 22 250 50 0 empty empty empty 17 7 0 10 -159808
-1 -1;
#X text 1814 437 <-- same random number;
#X text 1771 375 <-- mode;
#X msg 1745 475 send /mode/\$1/192.168.0.10/Microphone/Performance_Mode
;
#X text 1746 496 Standard MODE message: /mode/ID_number/IP_number/human_name/status
;
#X obj 1745 438 value id15;
#X obj 1158 932 route /hello /input /output /mode /goodbye;
#X connect 0 0 1 0;
#X connect 1 0 57 0;
#X connect 2 0 0 0;
#X connect 3 0 2 0;
#X connect 4 0 5 0;
#X connect 5 0 59 0;
#X connect 6 0 4 0;
#X connect 7 0 6 0;
#X connect 20 0 21 0;
#X connect 21 0 23 0;
#X connect 22 0 182 0;
#X connect 22 0 208 0;
#X connect 22 1 181 0;
#X connect 22 2 36 0;
#X connect 27 0 21 0;
#X connect 28 0 21 0;
#X connect 29 0 36 0;
#X connect 29 0 181 0;
#X connect 29 0 182 0;
#X connect 29 0 39 0;
#X connect 30 0 40 0;
#X connect 31 0 27 0;
#X connect 31 0 29 0;
#X connect 36 0 28 0;
#X connect 40 0 41 0;
#X connect 41 0 28 0;
#X connect 41 0 20 0;
#X connect 43 0 44 0;
#X connect 44 0 45 0;
#X connect 45 0 126 0;
#X connect 50 0 56 0;
#X connect 51 0 127 0;
#X connect 56 0 51 0;
#X connect 61 0 43 0;
#X connect 62 0 50 0;
#X connect 63 0 64 0;
#X connect 64 0 65 0;
#X connect 65 0 128 0;
#X connect 70 0 76 0;
#X connect 71 0 129 0;
#X connect 76 0 71 0;
#X connect 77 0 63 0;
#X connect 78 0 70 0;
#X connect 86 0 87 0;
#X connect 87 0 95 0;
#X connect 88 0 86 0;
#X connect 89 0 88 0;
#X connect 97 0 98 0;
#X connect 98 0 106 0;
#X connect 99 0 97 0;
#X connect 100 0 99 0;
#X connect 108 0 109 0;
#X connect 109 0 110 0;
#X connect 110 0 120 0;
#X connect 111 0 113 0;
#X connect 112 0 121 0;
#X connect 113 0 112 0;
#X connect 114 0 115 0;
#X connect 115 0 116 0;
#X connect 116 0 122 0;
#X connect 117 0 119 0;
#X connect 118 0 123 0;
#X connect 119 0 118 0;
#X connect 120 0 87 0;
#X connect 121 0 87 0;
#X connect 122 0 98 0;
#X connect 123 0 98 0;
#X connect 126 0 1 0;
#X connect 127 0 1 0;
#X connect 128 0 5 0;
#X connect 129 0 5 0;
#X connect 130 0 131 0;
#X connect 131 0 139 0;
#X connect 132 0 130 0;
#X connect 133 0 132 0;
#X connect 141 0 142 0;
#X connect 142 0 150 0;
#X connect 143 0 141 0;
#X connect 144 0 143 0;
#X connect 152 0 153 0;
#X connect 153 0 154 0;
#X connect 154 0 164 0;
#X connect 155 0 157 0;
#X connect 156 0 165 0;
#X connect 157 0 156 0;
#X connect 158 0 159 0;
#X connect 159 0 160 0;
#X connect 160 0 166 0;
#X connect 161 0 163 0;
#X connect 162 0 167 0;
#X connect 163 0 162 0;
#X connect 164 0 131 0;
#X connect 165 0 131 0;
#X connect 166 0 142 0;
#X connect 167 0 142 0;
#X connect 170 0 108 0;
#X connect 171 0 155 0;
#X connect 172 0 152 0;
#X connect 173 0 114 0;
#X connect 174 0 158 0;
#X connect 175 0 111 0;
#X connect 176 0 117 0;
#X connect 177 0 161 0;
#X connect 181 0 28 0;
#X connect 182 0 28 0;
#X connect 183 0 184 0;
#X connect 184 0 186 0;
#X connect 185 0 183 0;
#X connect 188 0 185 0;
#X connect 189 0 184 0;
#X connect 190 0 184 0;
#X connect 197 0 198 0;
#X connect 198 0 199 0;
#X connect 199 0 189 0;
#X connect 200 0 202 0;
#X connect 201 0 190 0;
#X connect 202 0 201 0;
#X connect 203 0 197 0;
#X connect 204 0 200 0;
#X connect 205 0 210 0;
#X connect 208 0 28 0;
#X connect 210 0 208 0;
#X connect 211 0 22 0;
