#N canvas 0 182 1920 987 10;
#X obj 120 208 osc/packOSC;
#X obj 52 247 mrpeach/net/udpsend;
#X msg 120 180 send /recorder \$1;
#X obj 120 135 tgl 15 0 empty empty empty 17 7 0 10 -4034 -1 -1 0 1
;
#X obj 585 207 osc/packOSC;
#X obj 517 250 mrpeach/net/udpsend;
#X msg 528 92 disconnect;
#X msg 585 179 send /recorder \$1;
#X obj 585 134 tgl 15 0 empty empty empty 17 7 0 10 -258113 -1 -1 0
1;
#X text 606 131 <-- interrompe gravação;
#X text 234 55 <-- connect to multicast address;
#X text 140 132 <-- START recording;
#X text 233 179 <-- send message;
#X text 195 209 <-- pack message in OSC format;
#X text 172 248 <-- send OSC message via Network;
#X text 697 53 <-- connect to multicast address;
#X text 249 92 <-- close connection;
#X text 592 93 <-- close connection;
#X text 694 179 <-- send message;
#X text 660 208 <-- pack message in OSC format;
#X text 637 251 <-- send OSC message via Network;
#X msg 52 56 connect 224.0.0.251 40060;
#X msg 517 55 connect 224.0.0.251 40061;
#X text 1149 24 MANAGEMENT LAYER;
#X msg 1055 816 disconnect;
#X obj 1031 883 mrpeach/udpsend;
#X obj 1029 977 t b b b;
#X obj 1031 924 tgl 25 0 empty empty empty 17 7 0 10 -228856 -1 -1
0 1;
#X text 1062 927 <-- connection status;
#X text 1132 846 <-- pack messages on OSC format;
#X text 1130 882 <-- send messages via network;
#X msg 1031 156 connect 224.0.0.1 60000;
#X obj 1033 845 mrpeach/packOSC;
#X obj 1031 104 random 101;
#X obj 1055 695 bng 18 250 50 0 empty empty empty 17 7 0 10 -258113
-1 -1;
#X obj 1031 67 bng 25 250 50 0 empty empty empty 17 7 0 10 -4034 -1
-1;
#X text 1451 270 <-- INPUT message;
#X text 1414 548 <-- OUTPUT message;
#X text 1081 698 <-- disconnect;
#X text 1380 745 <-- GOODBYE message;
#X msg 1032 193 send /hello/\$1/192.168.0.10/RecorderControl;
#X text 1052 597 Standard OUTPUT message: /output/ID_number/IP_number/port_type_number/network_port_number/network_port_description/
;
#X text 1321 210 Standard HELLO message: /hello/id/ip/human_name;
#X obj 1029 1018 route /hello /input /output /goodbye;
#X obj 1033 132 value id22;
#X obj 1055 719 value id22;
#X msg 1055 744 /goodbye/\$1/192.168.0.10/RecorderControl/disconnected
;
#X text 1073 766 Standard GOODBYE message: /goodbye/ID_number/IP_number/human_name/status
;
#X obj 436 455 osc/unpackOSC;
#X obj 436 482 osc/routeOSC /connection;
#X obj 436 508 list;
#X text 38 412 receives OSC messages from the network \, at the multicast
address and on the specified port -->;
#X text 261 452 unpack OSC messages -->;
#X text 141 481 route the OSC message to this address -->;
#X text 213 506 put the message into a list -->;
#X obj 434 601 osc/unpackOSC;
#X obj 434 654 list;
#X text 35 560 receives OSC messages from the network \, at the multicast
address and on the specified port -->;
#X text 266 601 unpack OSC messages -->;
#X text 142 628 route the OSC message to this address -->;
#X text 207 652 put the message into a list -->;
#X obj 434 628 osc/routeOSC /disconnection;
#X obj 434 742 osc/unpackOSC;
#X obj 434 769 osc/routeOSC /connection;
#X obj 434 795 list;
#X text 36 699 receives OSC messages from the network \, at the multicast
address and on the specified port -->;
#X text 259 739 unpack OSC messages -->;
#X text 139 768 route the OSC message to this address -->;
#X text 211 793 put the message into a list -->;
#X obj 432 888 osc/unpackOSC;
#X obj 432 941 list;
#X text 33 847 receives OSC messages from the network \, at the multicast
address and on the specified port -->;
#X text 264 888 unpack OSC messages -->;
#X text 140 915 route the OSC message to this address -->;
#X text 205 939 put the message into a list -->;
#X obj 432 915 osc/routeOSC /disconnection;
#X obj 436 414 mrpeach/net/udpreceive 224.0.0.0 55043;
#X obj 434 701 mrpeach/net/udpreceive 224.0.0.0 55044;
#X obj 434 559 mrpeach/net/udpreceive 224.0.0.0 55045;
#X obj 432 846 mrpeach/net/udpreceive 224.0.0.0 55046;
#X msg 63 93 disconnect 224.0.0.0251 40060;
#X floatatom 52 286 5 0 1 0 - - -;
#X text 88 286 <-- connection status;
#X floatatom 517 291 5 0 1 0 - - -;
#X text 554 290 <-- connection status;
#X text 1061 69 <-- Connect and generates a random ID number;
#X text 1098 102 <-- random ID number;
#X text 1101 132 <-- store random ID number;
#X text 1122 719 <-- random ID number;
#X text 1179 154 <-- connect to OSC server;
#X text 1298 193 <-- presents musical thing to the network;
#X text 1050 329 Standard INPUT message: /input/ID_number/IP_number/port_type_number/musical_thing_type(audio)/sample_rate/bit_depth/audio_file_format/channel_number/IP_connection/port_number/port_description/network_protocol/music_protocol/human_name
;
#X obj 261 1197 osc/packOSC;
#X obj 195 1240 mrpeach/net/udpsend;
#X obj 261 1124 tgl 15 0 empty empty empty 17 7 0 10 -4034 -1 -1 0
1;
#X text 376 1045 <-- connect to multicast address;
#X text 409 1080 <-- close connection;
#X text 399 1167 <-- prepare to send message;
#X text 336 1197 <-- pack message in a OSC format;
#X text 317 1242 <-- send OSC packet via network \, using mrpeach library
;
#X floatatom 195 1276 5 0 1 0 - - -;
#X text 236 1277 <-- connection status;
#X obj 795 1197 osc/packOSC;
#X obj 729 1240 mrpeach/net/udpsend;
#X obj 795 1124 tgl 15 0 empty empty empty 17 7 0 10 -258113 -1 -1
0 1;
#X text 878 1037 <-- connect to multicast address;
#X text 902 1073 <-- close connection;
#X text 939 1167 <-- prepare to send message;
#X text 867 1199 <-- pack message in a OSC format;
#X text 851 1241 <-- send OSC packet via network \, using mrpeach library
;
#X floatatom 729 1270 5 0 1 0 - - -;
#X text 769 1274 <-- connection status;
#X obj 193 1439 osc/unpackOSC;
#X obj 193 1466 osc/routeOSC /connection;
#X obj 193 1492 list;
#X obj 191 1585 osc/unpackOSC;
#X obj 191 1638 list;
#X obj 191 1612 osc/routeOSC /disconnection;
#X obj 728 1439 osc/unpackOSC;
#X obj 728 1466 osc/routeOSC /connection;
#X obj 728 1492 list;
#X obj 726 1585 osc/unpackOSC;
#X obj 726 1638 list;
#X obj 726 1612 osc/routeOSC /disconnection;
#X msg 195 1044 connect 224.0.0.0 33333;
#X msg 209 1080 disconnect 224.0.0.0 33333;
#X text 278 1122 <-- OPEN - SUBPATCH [recorder2];
#X text 816 1123 <-- CLOSE - SUBPATCH [recorder2];
#X obj 193 1398 mrpeach/net/udpreceive 224.0.0.0 33350;
#X obj 728 1398 mrpeach/net/udpreceive 224.0.0.0 33351;
#X obj 191 1543 mrpeach/net/udpreceive 224.0.0.0 33352;
#X obj 726 1543 mrpeach/net/udpreceive 224.0.0.0 33353;
#X msg 729 1038 connect 224.0.0.0 33334;
#X msg 738 1072 disconnect 224.0.0.0 33334;
#X msg 261 1168 send /open_recorder \$1;
#X msg 795 1168 send /close_recorder \$1;
#X msg 1040 522 send /output/\$1/192.168.0.10/1/controller/33333/ON_SUBPATCH_RECORDER2/33334/OFF_SUBPATCH_RECORDER2/40060/ON/40061/OFF/OSCmessage/Recorder
;
#X msg 1035 239 send /input/\$1/192.168.0.10/0/controller/0/1/224.0.0.0/33350/CONNECT_START_SUBPATCH_RECORDER2/33351/CONNECT_STOP_SUBPATCH_RECORDER2/33352/DISCONNECT_START_SUBPATCH_RECORDER2/33353/DISCONNECT_STOP_SUBPATCH/RECORDER2/55043/ON_CLI/55044/ON1_CLI/55045/OFF_CLI/55046/OFF1_CLI/UDP/OSC/RecorderControl
, f 68;
#X connect 0 0 1 0;
#X connect 1 0 81 0;
#X connect 2 0 0 0;
#X connect 3 0 2 0;
#X connect 4 0 5 0;
#X connect 5 0 83 0;
#X connect 6 0 5 0;
#X connect 7 0 4 0;
#X connect 8 0 7 0;
#X connect 21 0 1 0;
#X connect 22 0 5 0;
#X connect 24 0 25 0;
#X connect 25 0 27 0;
#X connect 26 0 136 0;
#X connect 26 1 137 0;
#X connect 26 2 40 0;
#X connect 31 0 25 0;
#X connect 32 0 25 0;
#X connect 33 0 40 0;
#X connect 33 0 137 0;
#X connect 33 0 136 0;
#X connect 33 0 44 0;
#X connect 34 0 45 0;
#X connect 35 0 31 0;
#X connect 35 0 33 0;
#X connect 40 0 32 0;
#X connect 43 0 26 0;
#X connect 45 0 46 0;
#X connect 46 0 32 0;
#X connect 46 0 24 0;
#X connect 48 0 49 0;
#X connect 49 0 50 0;
#X connect 50 0 21 0;
#X connect 55 0 61 0;
#X connect 56 0 80 0;
#X connect 61 0 56 0;
#X connect 62 0 63 0;
#X connect 63 0 64 0;
#X connect 64 0 22 0;
#X connect 69 0 75 0;
#X connect 70 0 6 0;
#X connect 75 0 70 0;
#X connect 76 0 48 0;
#X connect 77 0 62 0;
#X connect 78 0 55 0;
#X connect 79 0 69 0;
#X connect 80 0 1 0;
#X connect 92 0 93 0;
#X connect 93 0 100 0;
#X connect 94 0 134 0;
#X connect 102 0 103 0;
#X connect 103 0 110 0;
#X connect 104 0 135 0;
#X connect 112 0 113 0;
#X connect 113 0 114 0;
#X connect 114 0 124 0;
#X connect 115 0 117 0;
#X connect 116 0 125 0;
#X connect 117 0 116 0;
#X connect 118 0 119 0;
#X connect 119 0 120 0;
#X connect 120 0 132 0;
#X connect 121 0 123 0;
#X connect 122 0 133 0;
#X connect 123 0 122 0;
#X connect 124 0 93 0;
#X connect 125 0 93 0;
#X connect 128 0 112 0;
#X connect 129 0 118 0;
#X connect 130 0 115 0;
#X connect 131 0 121 0;
#X connect 132 0 103 0;
#X connect 133 0 103 0;
#X connect 134 0 92 0;
#X connect 135 0 102 0;
#X connect 136 0 32 0;
#X connect 137 0 32 0;
