#N canvas 0 64 1920 987 12;
#X msg 1147 636 disconnect;
#X obj 1098 717 mrpeach/udpsend;
#X obj 1096 811 t b b b;
#X obj 1098 758 tgl 25 0 empty empty empty 17 7 0 10 -228856 -1 -1
0 1;
#X text 1129 761 <-- connection status;
#X text 1209 680 <-- pack messages on OSC format;
#X text 1209 717 <-- send messages via network;
#X msg 1101 117 connect 224.0.0.1 60000;
#X obj 1100 679 mrpeach/packOSC;
#X obj 1101 65 random 101;
#X obj 1147 515 bng 18 250 50 0 empty empty empty 17 7 0 10 -258113
-1 -1;
#X obj 1101 28 bng 25 250 50 0 empty empty empty 17 7 0 10 -4034 -1
-1;
#X text 1669 212 <-- INPUT message;
#X text 1530 360 <-- OUTPUT message;
#X text 1173 518 <-- disconnect;
#X text 1549 573 <-- GOODBYE message;
#X obj 66 173 osc/packOSC;
#X obj 20 229 mrpeach/net/udpsend;
#X text 201 47 <-- Connect to the multicast address \, on the indicated
port;
#X text 236 76 <-- Close connection;
#X text 151 171 <-- convert Pure Data message to OSC;
#X text 159 225 <-- send OSC data packaged in UDP \, using the mr peach
library;
#X obj 69 108 hsl 195 15 0 1 0 0 empty empty empty -2 -8 0 10 -159808
-1 -1 0 1;
#X text 268 107 <-- control track time;
#X msg 66 139 send /track_timer \$1;
#X text 1127 396 Standard OUTPUT message: /output/ID_number/IP_number/port_type_number/network_port_number/network_port_description/
;
#X text 1521 169 Standard HELLO message: /hello/id/ip/human_name;
#X msg 1107 344 send /output/\$1/192.168.0.10/1/controller/40005/TimeControl/OSC/AudioPlayer
, f 59;
#X obj 1103 93 value id8;
#X obj 1147 539 value id8;
#X text 1150 598 Standard GOODBYE message: /goodbye/ID_number/IP_number/human_name/status
;
#X obj 456 388 osc/unpackOSC;
#X obj 456 415 osc/routeOSC /connection;
#X obj 456 441 list;
#X text 54 342 receives OSC messages from the network \, at the multicast
address and on the specified port -->;
#X text 288 387 unpack OSC messages -->;
#X text 164 416 route the OSC message to this address -->;
#X text 233 440 put the message into a list -->;
#X obj 454 534 osc/unpackOSC;
#X obj 454 587 list;
#X text 52 488 receives OSC messages from the network \, at the multicast
address and on the specified port -->;
#X text 286 533 unpack OSC messages -->;
#X text 162 562 route the OSC message to this address -->;
#X text 231 586 put the message into a list -->;
#X obj 456 347 mrpeach/net/udpreceive 224.0.0.0 55011;
#X obj 454 493 mrpeach/net/udpreceive 224.0.0.0 55012;
#X text 1131 30 <-- connect and generates random ID number;
#X text 1178 65 <-- generates a random number between 0 -100;
#X text 1172 91 <-- store random ID number;
#X text 1271 116 <-- connect to OSC server;
#X text 1520 152 <-- presents musical thing to the network;
#X text 1215 538 <-- random ID number;
#X floatatom 20 264 5 0 1 0 - - -;
#X text 61 264 <-- connection status;
#X obj 454 561 osc/routeOSC /disconnection;
#X text 1120 250 Standard INPUT message: /input/ID_number/IP_number/port_type_number/musical_thing_type(audio)/sample_rate/bit_depth/audio_file_format/channel_number/IP_connection/port_number/port_description/network_protocol/music_protocol/human_name
;
#X msg 20 48 connect 224.0.0.0 40005;
#X msg 32 76 disconnect 224.0.0.0 40005;
#X text 555 386 <-- unpack OSC messages;
#X text 638 415 <-- route the OSC message to this address;
#X text 494 442 <-- put the message into a list (allows connection
using CLI);
#X text 736 348 <-- receive OSC messages to network;
#X text 552 530 <-- unpack OSC messages;
#X text 649 559 <-- route the OSC message to this address;
#X text 495 586 <-- put the message into a list (allows connection
using CLI);
#X text 728 491 <-- receive OSC messages to network;
#X msg 1147 564 /goodbye/\$1/192.168.0.10/AudioPlayer_Control_Track_Time/disconnected
, f 56;
#X msg 1102 198 send /input/\$1/192.168.0.10/0/controller/0/224.0.0.0/55011/ON_CLI/55012/OFF_CLI/UDP/OSC/AudioPlayer_Control_Track_Time
, f 80;
#X msg 1102 154 send /hello/\$1/192.168.0.10/AudioPlayer_Control_Track_Time
;
#X obj 1103 899 bng 22 250 50 0 empty empty empty 17 7 0 10 -159808
-1 -1;
#X text 1172 962 <-- same random number;
#X text 1129 899 <-- mode;
#X msg 1103 999 send /mode/\$1/192.168.0.10/Microphone/Performance_Mode
;
#X text 1107 1030 Standar MODE message: /mode/ID_number/IP_number/human_name/status
;
#X obj 1103 962 value id8;
#X obj 1096 852 route /hello /input /output /mode /goodbye;
#X connect 0 0 1 0;
#X connect 1 0 3 0;
#X connect 2 0 27 0;
#X connect 2 0 72 0;
#X connect 2 1 67 0;
#X connect 2 2 68 0;
#X connect 7 0 1 0;
#X connect 8 0 1 0;
#X connect 9 0 68 0;
#X connect 9 0 67 0;
#X connect 9 0 27 0;
#X connect 9 0 28 0;
#X connect 10 0 29 0;
#X connect 11 0 7 0;
#X connect 11 0 9 0;
#X connect 16 0 17 0;
#X connect 17 0 52 0;
#X connect 22 0 24 0;
#X connect 24 0 16 0;
#X connect 27 0 8 0;
#X connect 29 0 66 0;
#X connect 31 0 32 0;
#X connect 32 0 33 0;
#X connect 33 0 56 0;
#X connect 38 0 54 0;
#X connect 39 0 57 0;
#X connect 44 0 31 0;
#X connect 45 0 38 0;
#X connect 54 0 39 0;
#X connect 56 0 17 0;
#X connect 57 0 17 0;
#X connect 66 0 8 0;
#X connect 66 0 0 0;
#X connect 67 0 8 0;
#X connect 68 0 8 0;
#X connect 69 0 74 0;
#X connect 72 0 8 0;
#X connect 74 0 72 0;
#X connect 75 0 2 0;
