#N canvas 0 182 1920 987 12;
#X obj 138 94 gemhead;
#X obj 138 179 pix_video;
#X msg 172 132 dialog;
#X obj 138 221 pix_texture;
#X obj 138 268 rectangle 4 3;
#X obj 138 39 netreceive 3500;
#X text 247 38 <-- receive video data from network;
#X text 194 95 <-- Read video data;
#X text 222 132 <-- indicates video device;
#X text 211 181 <-- video capture;
#X text 222 221 <-- video output;
#X text 239 269 <-- screen size;
#X text 1211 53 MANAGEMENT LAYER;
#X msg 1111 716 disconnect;
#X obj 1090 785 mrpeach/udpsend;
#X obj 1088 879 t b b b;
#X obj 1090 826 tgl 25 0 empty empty empty 17 7 0 10 -228856 -1 -1
0 1;
#X text 1121 829 <-- connection status;
#X text 1205 745 <-- pack messages on OSC format;
#X text 1205 786 <-- send messages via network;
#X msg 1093 185 connect 224.0.0.1 60000;
#X obj 1092 747 mrpeach/packOSC;
#X obj 1093 133 random 101;
#X obj 1111 595 bng 18 250 50 0 empty empty empty 17 7 0 10 -258113
-1 -1;
#X obj 1093 96 bng 25 250 50 0 empty empty empty 17 7 0 10 -4034 -1
-1;
#X text 1557 291 <-- INPUT message;
#X text 1528 437 <-- OUTPUT message;
#X text 1137 598 <-- disconnect;
#X text 1468 644 <-- GOODBYE message;
#X msg 1094 222 send /hello/\$1/192.168.0.10/VideoControl;
#X text 1125 474 Standard OUTPUT message: /output/ID_number/IP_number/port_type_number/network_port_number/network_port_description/
;
#X text 1138 339 Standard INPUT message: /input/ID_number/IP_number/port_type_number/musical_thing_type(audio)/sample_rate/bit_depth/audio_file_format/channel_number/port_number/port_description/network_protocol/music_protocol/human_name
;
#X text 1415 240 Standard HELLO message: /hello/id/ip/human_name;
#X msg 1100 420 send /output/\$1/192.168.0.10/1/controller/40100/ON/40101/OFF/OSCmessage/Video_sender
;
#X obj 1096 161 value id23;
#X obj 1111 619 value id23;
#X obj 1088 920 route /hello /input /output /goodbye;
#X msg 1111 644 /goodbye/\$1/192.168.0.10/VideoControl/disconnected
;
#X text 1118 669 Standard GOODBYE message: /goodbye/ID_number/IP_number/human_name/status
;
#X text 1123 98 <-- Connect and generates random ID number;
#X text 1166 131 <-- generates random ID number;
#X text 1171 160 <-- store random ID number;
#X text 1263 184 <-- connect to OSC server;
#X text 1385 222 <-- presents musical thing in the network;
#X text 1185 617 <-- random ID number;
#X msg 1095 289 send /input/\$1/192.168.0.10/0/controller/0/1/UDP/OSC/VideoControl
, f 65;
#X connect 0 0 1 0;
#X connect 1 0 3 0;
#X connect 2 0 1 0;
#X connect 3 0 4 0;
#X connect 5 0 0 0;
#X connect 13 0 14 0;
#X connect 14 0 16 0;
#X connect 15 0 33 0;
#X connect 15 1 45 0;
#X connect 15 2 29 0;
#X connect 20 0 14 0;
#X connect 21 0 14 0;
#X connect 22 0 29 0;
#X connect 22 0 45 0;
#X connect 22 0 33 0;
#X connect 22 0 34 0;
#X connect 23 0 35 0;
#X connect 24 0 20 0;
#X connect 24 0 22 0;
#X connect 29 0 21 0;
#X connect 33 0 21 0;
#X connect 35 0 37 0;
#X connect 36 0 15 0;
#X connect 37 0 21 0;
#X connect 37 0 13 0;
#X connect 45 0 21 0;
