#N canvas 0 182 1920 987 10;
#X obj 123 123 hsl 128 15 0 127 0 0 empty empty empty -2 -8 0 10 -4034
-1 -1 0 1;
#X obj 120 209 osc/packOSC;
#X obj 54 252 mrpeach/net/udpsend;
#X msg 63 93 disconnect;
#X msg 120 180 send /volume \$1;
#X text 236 56 <-- connect to multicast address;
#X text 129 93 <-- close connection;
#X text 255 120 <-- volume vslider (0 - 127);
#X text 217 179 <-- send message to volume;
#X text 195 209 <-- pack message on OSC format;
#X text 172 253 <-- send OSC message to network;
#X msg 54 56 connect 224.0.0.251 40000;
#X text 694 20 MANAGEMENT LAYER;
#X msg 620 613 disconnect;
#X obj 573 752 mrpeach/udpsend;
#X obj 571 846 t b b b;
#X obj 573 793 tgl 25 0 empty empty empty 17 7 0 10 -228856 -1 -1 0
1;
#X text 604 796 <-- connection status;
#X text 674 715 <-- pack messages on OSC format;
#X text 672 751 <-- send messages via network;
#X msg 576 152 connect 224.0.0.1 60000;
#X obj 575 714 mrpeach/packOSC;
#X obj 571 887 route /hello;
#X obj 576 100 random 101;
#X obj 620 492 bng 18 250 50 0 empty empty empty 17 7 0 10 -258113
-1 -1;
#X msg 620 541 /hello/\$1/192.168.0.10/disconnected;
#X obj 576 63 bng 25 250 50 0 empty empty empty 17 7 0 10 -4034 -1
-1;
#X obj 578 128 value id;
#X obj 620 516 value id;
#X text 606 65 <-- Conecta e gera número de ID aleatóŕio;
#X text 643 98 <-- gera número aleatório entre 0 e 100;
#X text 636 128 <-- armazena número aleatório;
#X text 724 150 <-- conecta no servidor OSC \, exibindo a coisa musical
para a rede;
#X text 828 189 <-- apresenta a coisa musical na rede;
#X text 1067 221 <-- INPUT message;
#X text 946 343 <-- OUTPUT message;
#X text 646 495 <-- disconnect;
#X text 674 516 <-- número aleatório;
#X text 836 540 <-- GOODBYE message;
#X text 627 566 Standard GOODBYE message: /hello/ID_number/IP_number/status
;
#X msg 577 189 send /hello/\$1/192.168.0.10/VolumeSlider;
#X text 588 251 Standar INPUT message: hello/ID_number/IP_Number/port_type/port_type_number/musical_thing_type/min_range/max_range/network_port/network_protocol/music_protocol/human_name/description
;
#X msg 578 214 send /hello/\$1/192.168.0.10/input/0/controller/0/127/UDP/OSC/VolumeSlider
- Controla o volume das coisas musicais de forma remota, f 80;
#X msg 580 330 send /hello/\$1/192.168.0.10/output/1/controller/40000/OSCmessage/Microphone/GuitarxBass/Loudspeaker/Pitchfork
;
#X text 592 380 Standard OUTPUT message: /hello/ID_number/IP_number/port_type(output)/port_type_number/network_port_number/musical_things_description/
;
#X connect 0 0 4 0;
#X connect 1 0 2 0;
#X connect 3 0 2 0;
#X connect 4 0 1 0;
#X connect 11 0 2 0;
#X connect 13 0 14 0;
#X connect 14 0 16 0;
#X connect 15 0 43 0;
#X connect 15 1 42 0;
#X connect 15 2 40 0;
#X connect 20 0 14 0;
#X connect 21 0 14 0;
#X connect 22 0 15 0;
#X connect 23 0 40 0;
#X connect 23 0 42 0;
#X connect 23 0 43 0;
#X connect 23 0 27 0;
#X connect 24 0 28 0;
#X connect 25 0 21 0;
#X connect 25 0 13 0;
#X connect 26 0 20 0;
#X connect 26 0 23 0;
#X connect 28 0 25 0;
#X connect 40 0 21 0;
#X connect 42 0 21 0;
#X connect 43 0 21 0;
