#N canvas 0 182 1920 987 10;
#X obj 38 114 dac~;
#X obj 37 45 mrpeach/net/udpreceive~ 3000 2;
#X text 69 114 <-- Audio output;
#X text 224 45 <-- Receive audio from network \; port number \; channel
number;
#X text 603 21 MANAGEMENT LAYER;
#X msg 529 590 disconnect;
#X obj 482 663 mrpeach/udpsend;
#X obj 478 759 t b b b;
#X obj 482 704 tgl 25 0 empty empty empty 17 7 0 10 -228856 -1 -1 0
1;
#X text 513 707 <-- connection status;
#X text 583 626 <-- pack messages on OSC format;
#X text 581 662 <-- send messages via network;
#X msg 485 153 connect 224.0.0.1 60000;
#X obj 484 625 mrpeach/packOSC;
#X obj 474 789 route /hello;
#X obj 485 101 random 101;
#X obj 529 493 bng 18 250 50 0 empty empty empty 17 7 0 10 -258113
-1 -1;
#X msg 529 542 /hello/\$1/192.168.0.10/disconnected;
#X obj 485 64 bng 25 250 50 0 empty empty empty 17 7 0 10 -4034 -1
-1;
#X obj 487 129 value id;
#X obj 529 517 value id;
#X text 515 66 <-- Conecta e gera número de ID aleatóŕio;
#X text 552 99 <-- gera número aleatório entre 0 e 100;
#X text 545 129 <-- armazena número aleatório;
#X text 633 151 <-- conecta no servidor OSC \, exibindo a coisa musical
para a rede;
#X text 737 190 <-- apresenta a coisa musical na rede;
#X text 976 233 <-- INPUT message;
#X text 495 273 Standar INPUT message: /hello/ID_number/IP_number/port_type(input)/port_type_number/musical_thing_type(audio)/sample_rate/bit_depth/audio_file_format/channel_number/port_number/port_description/network_protocol/music_protocol/human_name
;
#X text 857 380 <-- OUTPUT message;
#X text 499 422 Standard OUTPUT message: /hello/ID_number/IP_number/port_type(output)/port_type_number/network_port_number/network_port_description/
;
#X text 555 496 <-- disconnect;
#X text 583 517 <-- número aleatório;
#X text 745 541 <-- GOODBYE message;
#X text 548 562 Standard GOODBYE message: /hello/ID_number/IP_number/status
;
#X msg 486 190 send /hello/\$1/192.168.0.10/Loudspeaker;
#X msg 487 215 send /hello/\$1/192.168.0.10/input/0/audio/44100/16bits/wav/2/40002/AudioPlayerSound/40010/DrumMachineSound/40020/GuitarXBassSound/40030/MicrophoneSound/40051/PitchforkSound/UDP/OSC/DrumMachine
, f 80;
#X msg 487 372 send /hello/\$1/192.168.0.10/output/1/audio/44100/16bits/wav/2/3000/Loudspeaker
;
#X connect 1 0 0 0;
#X connect 1 0 0 1;
#X connect 5 0 6 0;
#X connect 6 0 8 0;
#X connect 7 0 36 0;
#X connect 7 1 35 0;
#X connect 7 2 34 0;
#X connect 12 0 6 0;
#X connect 13 0 6 0;
#X connect 14 0 7 0;
#X connect 15 0 34 0;
#X connect 15 0 35 0;
#X connect 15 0 36 0;
#X connect 15 0 19 0;
#X connect 16 0 20 0;
#X connect 17 0 13 0;
#X connect 17 0 5 0;
#X connect 18 0 12 0;
#X connect 18 0 15 0;
#X connect 20 0 17 0;
#X connect 34 0 13 0;
#X connect 35 0 13 0;
#X connect 36 0 13 0;
