#N canvas 0 182 1920 987 10;
#X floatatom 254 194 0 0 0 0 - - -;
#X floatatom 271 118 0 0 0 0 - - -;
#X obj 982 187 mtof;
#X floatatom 1041 238 5 0 0 0 - - -;
#X obj 258 480 hsl 128 15 0 127 0 0 empty empty empty -2 -8 0 10 -4034
-1 -1 0 1;
#X obj 1038 150 hsl 128 15 0 127 0 0 empty empty empty -2 -8 0 10 -4032
-1 -1 0 1;
#X msg 1081 106 69;
#X obj 946 274 osc~ 440;
#X obj 254 369 osc/unpackOSC;
#X obj 830 348 osc/unpackOSC;
#X obj 830 316 mrpeach/net/udpreceive 40051;
#X obj 830 386 osc/routeOSC /on_off_pitch;
#X obj 754 36 osc/unpackOSC;
#X obj 754 84 osc/routeOSC /freq_pitch;
#X obj 754 13 mrpeach/net/udpreceive 40052;
#X obj 1498 13 mrpeach/net/udpreceive 40053;
#X obj 1498 44 osc/unpackOSC;
#X obj 1498 74 osc/routeOSC /midi_pitch;
#X obj 253 570 mrpeach/net/udpreceive 40054;
#X obj 253 602 osc/unpackOSC;
#X obj 333 127 *~ 5;
#X msg 254 26 connect 239.255.255.250 3000;
#X obj 254 169 mrpeach/net/udpsend~ 2;
#X text 996 104 MIDI note-->;
#X text 1104 105 <- A 440 (C = 63);
#X text 928 15 <-- Receive OSC message;
#X text 838 36 <-- unpack OSC message;
#X text 1018 184 <-- MIDI to frequency;
#X text 1080 239 <-- Hz value;
#X text 999 275 <-- frequency;
#X text 1009 314 <-- Receive OSC message;
#X text 919 348 <-- unpack OSC message;
#X text 990 384 comment;
#X text 394 637 <-- receive volume control via OSC;
#X text 431 570 <-- Receive OSC message;
#X text 341 599 <-- unpack OSC message;
#X text 394 477 <--volume slider (0 - 127);
#X text 428 344 <-- Receive OSC message;
#X obj 254 417 osc/routeOSC /volume;
#X text 380 414 <-- receive volume control via OSC;
#X text 338 370 <-- unpack OSC message;
#X text 119 194 connection status -->;
#X text 65 169 send audio data to network -->;
#X text 4 83 close connection -->;
#X text 56 26 connect to multicast address -->;
#X text 1170 149 <-- change frequency (MIDI note);
#X text 1675 13 <-- Receive OSC message;
#X obj 254 346 mrpeach/net/udpreceive 40000;
#X text 1581 42 <-- unpack OSC message;
#X obj 830 453 tgl 15 0 empty empty empty 17 7 0 10 -4034 -1 -1 0 1
;
#X text 850 451 <-- ON/OFF;
#X obj 253 638 osc/routeOSC /midi_vol;
#X obj 256 681 hsl 128 15 0 127 0 0 empty empty empty -2 -8 0 10 -204786
-1 -1 0 1;
#X text 394 682 <-- MIDI controller volume (0 - 127);
#X text 1401 373 MANAGEMENT LAYER;
#X msg 1314 1036 disconnect;
#X obj 1280 1105 mrpeach/udpsend;
#X obj 1278 1199 t b b b;
#X obj 1280 1146 tgl 25 0 empty empty empty 17 7 0 10 -228856 -1 -1
0 1;
#X text 1311 1149 <-- connection status;
#X text 1381 1068 <-- pack messages on OSC format;
#X text 1379 1104 <-- send messages via network;
#X msg 1283 505 connect 224.0.0.1 60000;
#X obj 1282 1067 mrpeach/packOSC;
#X obj 1283 453 random 101;
#X obj 1314 915 bng 18 250 50 0 empty empty empty 17 7 0 10 -258113
-1 -1;
#X obj 1283 416 bng 25 250 50 0 empty empty empty 17 7 0 10 -4034 -1
-1;
#X text 1781 619 <-- INPUT message;
#X text 1655 760 <-- OUTPUT message;
#X text 1340 918 <-- disconnect;
#X text 1602 963 <-- GOODBYE message;
#X msg 1284 542 send /hello/\$1/192.168.0.10/Pitchfork;
#X text 1286 803 Standard OUTPUT message: /output/ID_number/IP_number/port_type_number/network_port_number/network_port_description/
;
#X text 1538 560 Standard HELLO message: /hello/id/ip/human_name;
#X msg 1285 752 send /output/\$1/192.168.0.10/1/audio/44100/16bits/2/3000/Loudspeaker
;
#X obj 1285 481 value id16;
#X obj 1314 939 value id16;
#X obj 1278 1239 route /hello /input /output /goodbye;
#X msg 1314 964 /goodbye/\$1/192.168.0.10/Pitchfork/disconnected;
#X text 1321 989 Standard GOODBYE message: /goodbye/ID_number/IP_number/human_name/status
;
#X obj 472 812 osc/unpackOSC;
#X obj 472 839 osc/routeOSC /connection;
#X obj 472 865 list;
#X text 110 767 receives OSC messages from the network \, at the multicast
address and on the specified port -->;
#X text 323 809 unpack OSC messages -->;
#X text 217 839 route the OSC message to this address -->;
#X text 276 865 put the message into a list -->;
#X obj 470 958 osc/unpackOSC;
#X obj 470 1011 list;
#X text 125 917 receives OSC messages from the network \, at the multicast
address and on the specified port -->;
#X text 320 958 unpack OSC messages -->;
#X text 213 985 route the OSC message to this address -->;
#X text 272 1011 put the message into a list -->;
#X obj 470 985 osc/routeOSC /disconnection;
#X obj 472 771 mrpeach/net/udpreceive 224.0.0.0 55035;
#X obj 470 916 mrpeach/net/udpreceive 224.0.0.0 55036;
#X msg 128 83 disconnect 239.255.255.250 3000;
#X text 1378 939 <-- random ID number;
#X text 1313 418 <-- connect and generate random ID number;
#X text 1350 451 <-- generates random ID number between 0 - 100;
#X text 1351 480 <-- store random ID number;
#X text 1431 503 <-- connect to OSC server;
#X text 1514 543 <-- presents the musical thing to the network;
#X text 1311 666 Standard INPUT message: /input/ID_number/IP_number/port_type_number/musical_thing_type(audio)/sample_rate/bit_depth/audio_file_format/channel_number/IP_connection/port_number/port_description/network_protocol/music_protocol/human_name
;
#X msg 1287 606 send /input/\$1/192.168.0.10/0/audio/44100/16bits/2/224.0.0.0/55035/ON_CLI/55036/OFF_CLI/40000/volume/40051/OnOff/40052/Frequency/40053/MIDI/40054/VolumeByMIDI/UDP/OSC/MIDI/Pitchfork
, f 80;
#X connect 1 0 22 0;
#X connect 2 0 3 0;
#X connect 2 0 7 0;
#X connect 4 0 22 0;
#X connect 5 0 2 0;
#X connect 6 0 5 0;
#X connect 7 0 20 0;
#X connect 8 0 38 0;
#X connect 9 0 11 0;
#X connect 10 0 9 0;
#X connect 11 0 49 0;
#X connect 12 0 13 0;
#X connect 13 0 5 0;
#X connect 14 0 12 0;
#X connect 15 0 16 0;
#X connect 16 0 17 0;
#X connect 17 0 5 0;
#X connect 18 0 19 0;
#X connect 19 0 51 0;
#X connect 20 0 22 0;
#X connect 21 0 22 0;
#X connect 22 0 0 0;
#X connect 38 0 4 0;
#X connect 47 0 8 0;
#X connect 51 0 52 0;
#X connect 52 0 22 0;
#X connect 55 0 56 0;
#X connect 56 0 58 0;
#X connect 57 0 74 0;
#X connect 57 1 104 0;
#X connect 57 2 71 0;
#X connect 62 0 56 0;
#X connect 63 0 56 0;
#X connect 64 0 71 0;
#X connect 64 0 104 0;
#X connect 64 0 74 0;
#X connect 64 0 75 0;
#X connect 65 0 76 0;
#X connect 66 0 62 0;
#X connect 66 0 64 0;
#X connect 71 0 63 0;
#X connect 74 0 63 0;
#X connect 76 0 78 0;
#X connect 77 0 57 0;
#X connect 78 0 63 0;
#X connect 78 0 55 0;
#X connect 80 0 81 0;
#X connect 81 0 82 0;
#X connect 82 0 21 0;
#X connect 87 0 93 0;
#X connect 88 0 96 0;
#X connect 93 0 88 0;
#X connect 94 0 80 0;
#X connect 95 0 87 0;
#X connect 96 0 22 0;
#X connect 104 0 63 0;
