#N canvas 1920 64 1366 704 12;
#X text 1968 862 <-- INPUT message;
#X text 1978 872 <-- INPUT message;
#X text 1988 882 <-- INPUT message;
#X text 1998 892 <-- INPUT message;
#X text 427 49 CONTROLADOR MIDI;
#X obj 281 105 notein;
#X floatatom 291 137 5 0 0 0 - - -;
#X floatatom 314 162 5 0 0 0 - - -;
#X floatatom 367 184 5 0 0 0 - - -;
#X obj 518 154 mtof;
#X text 555 152 <-- MIDI to frequency;
#X floatatom 518 189 5 0 0 0 - - -;
#X obj 246 364 mrpeach/net/udpsend;
#X msg 259 244 disconnect;
#X msg 274 277 send /midi_pitch \$1;
#X obj 274 306 osc/packOSC;
#X obj 562 224 ctlin;
#X floatatom 562 259 5 0 127 0 - - -;
#X floatatom 599 260 5 0 0 0 - - -;
#X floatatom 639 261 5 0 0 0 - - -;
#X obj 562 305 / 127;
#X floatatom 562 357 5 0 1 0 - - -;
#X text 346 163 <-- velocity;
#X obj 502 571 mrpeach/net/udpsend;
#X msg 510 480 disconnect;
#X obj 688 401 hsl 128 15 0 127 0 0 empty empty empty -2 -8 0 10 -4034
-1 -1 0 1;
#X obj 595 544 osc/packOSC;
#X msg 595 521 send /midi_vol \$1;
#X obj 811 56 key;
#X floatatom 807 85 5 0 0 0 - - -;
#X obj 860 55 keyname;
#X symbolatom 860 87 10 0 0 0 - - -;
#X text 328 104 <-- capture the note played by the MIDI controller
;
#X text 329 135 <-- pitch number;
#X text 405 184 <-- channel;
#X text 10 219 connect to multicast address -->;
#X text 110 245 close connection -->;
#X text 709 85 MIDI note -->;
#X text 936 91 <-- computer key;
#X text 558 186 <-- MIDI note frequency;
#X text 149 279 send message -->;
#X text 69 306 convert Pure Data to OSC -->;
#X text 41 364 send message via network -->;
#X text 606 222 <-- controls from the MIDI controller;
#X text 606 302 <-- division to match the range of the MIDI controller
with an oscillator;
#X text 679 259 <-- pitch number \, velocity and channel;
#X text 604 357 <-- only displays conversion value;
#X text 820 399 <-- changes volume via MIDI controller;
#X text 682 452 <-- connect to multicast address;
#X text 346 481 close connection -->;
#X text 722 521 <-- send message;
#X text 680 543 <-- convert Pure Data to OSC;
#X text 294 571 send message via network -->;
#X msg 502 451 connect 224.0.0.251 40054;
#X msg 246 221 connect 224.0.0.251 40053;
#X text 1334 19 MANAGEMENT LAYER;
#X msg 1260 612 disconnect;
#X obj 1213 751 mrpeach/udpsend;
#X obj 1211 845 t b b b;
#X obj 1213 792 tgl 25 0 empty empty empty 17 7 0 10 -228856 -1 -1
0 1;
#X text 1244 795 <-- connection status;
#X text 1330 712 <-- pack messages on OSC format;
#X text 1326 751 <-- send messages via network;
#X msg 1216 151 connect 224.0.0.1 60000;
#X obj 1215 713 mrpeach/packOSC;
#X obj 1211 886 route /hello;
#X obj 1216 99 random 101;
#X obj 1260 491 bng 18 250 50 0 empty empty empty 17 7 0 10 -258113
-1 -1;
#X msg 1260 540 /hello/\$1/192.168.0.10/disconnected;
#X obj 1216 62 bng 25 250 50 0 empty empty empty 17 7 0 10 -4034 -1
-1;
#X obj 1218 127 value id;
#X obj 1260 515 value id;
#X text 1246 64 <-- Conecta e gera número de ID aleatóŕio;
#X text 1298 100 <-- gera número aleatório entre 0 e 100;
#X text 1286 128 <-- armazena número aleatório;
#X text 1387 152 <-- conecta no servidor OSC \, exibindo a coisa musical
para a rede;
#X text 1566 188 <-- apresenta a coisa musical na rede;
#X text 1796 233 <-- INPUT message;
#X text 1652 347 <-- OUTPUT message;
#X text 1286 494 <-- disconnect;
#X text 1319 515 <-- número aleatório;
#X text 1512 539 <-- GOODBYE message;
#X text 1267 565 Standard GOODBYE message: /hello/ID_number/IP_number/status
;
#X text 1228 263 Standar INPUT message: hello/ID_number/IP_Number/port_type/port_type_number/musical_thing_type/min_range/max_range/network_port/network_protocol/music_protocol/human_name/description
;
#X text 1230 377 Standard OUTPUT message: /hello/ID_number/IP_number/port_type(output)/port_type_number/network_port_number/musical_things_description/
;
#X msg 1217 188 send /hello/\$1/192.168.0.10/PitchforkControl_MIDI
;
#X msg 1220 329 send /hello/\$1/192.168.0.10/output/1/controller/40054/MIDImessage/Pitchfork
;
#X msg 1218 213 send /hello/\$1/192.168.0.10/input/0/controller/0/127/UDP/OSC/MIDI/PitchforckControlMIDI
- Exerce controle no Pitchfork utilizando o protocolo MIDI, f 80;
#X connect 5 0 6 0;
#X connect 5 1 7 0;
#X connect 5 2 8 0;
#X connect 6 0 9 0;
#X connect 9 0 11 0;
#X connect 11 0 14 0;
#X connect 13 0 12 0;
#X connect 14 0 15 0;
#X connect 15 0 12 0;
#X connect 16 0 17 0;
#X connect 16 1 18 0;
#X connect 16 2 19 0;
#X connect 17 0 20 0;
#X connect 20 0 21 0;
#X connect 21 0 25 0;
#X connect 24 0 23 0;
#X connect 25 0 27 0;
#X connect 26 0 23 0;
#X connect 27 0 26 0;
#X connect 28 0 29 0;
#X connect 29 0 11 0;
#X connect 30 1 31 0;
#X connect 53 0 23 0;
#X connect 54 0 12 0;
#X connect 56 0 57 0;
#X connect 57 0 59 0;
#X connect 58 0 86 0;
#X connect 58 1 87 0;
#X connect 58 2 85 0;
#X connect 63 0 57 0;
#X connect 64 0 57 0;
#X connect 65 0 58 0;
#X connect 66 0 85 0;
#X connect 66 0 87 0;
#X connect 66 0 86 0;
#X connect 66 0 70 0;
#X connect 67 0 71 0;
#X connect 68 0 64 0;
#X connect 68 0 56 0;
#X connect 69 0 63 0;
#X connect 69 0 66 0;
#X connect 71 0 68 0;
#X connect 85 0 64 0;
#X connect 86 0 64 0;
#X connect 87 0 64 0;
