#N canvas 0 64 1920 987 12;
#X obj 444 22 import Gem;
#X msg 294 370 create \, 1;
#X msg 311 400 destroy;
#X obj 294 515 gemwin;
#X obj 294 553 netsend;
#X msg 308 431 dimen 500 500;
#X text 519 22 <-- import external Gem \, to allow video;
#X text 368 370 <-- create video object;
#X text 366 400 <-- close video object;
#X text 404 431 <-- screen dimensions;
#X text 349 554 <-- send video data to network;
#X text 342 512 <-- video object creator;
#X obj 294 333 tgl 15 0 empty empty empty 17 7 0 10 -4034 -1 -1 1 1
;
#X obj 294 255 osc/unpackOSC;
#X obj 294 223 mrpeach/net/udpreceive 40100;
#X obj 626 326 tgl 15 0 empty empty empty 17 7 0 10 -258113 -1 -1 1
1;
#X obj 626 248 osc/unpackOSC;
#X text 643 323 <-- STOP video recording via OSC;
#X text 311 330 <-- START video recording OSC;
#X text 832 215 <-- receive OSC message from network;
#X text 725 248 <-- convert OSC message to Pure data;
#X text 34 224 receive OSC message from network -->;
#X text 35 254 convert OSC message to Pure data -->;
#X obj 626 286 osc/routeOSC /video_control_off;
#X obj 294 293 osc/routeOSC /video_control_on;
#X obj 626 216 mrpeach/net/udpreceive 40101;
#X text 1261 9 MANAGEMENT LAYER;
#X msg 1215 659 disconnect;
#X obj 1188 734 mrpeach/udpsend;
#X obj 1186 828 t b b b;
#X obj 1188 775 tgl 25 0 empty empty empty 17 7 0 10 -228856 -1 -1
0 1;
#X text 1219 778 <-- connection status;
#X text 1304 694 <-- pack messages on OSC format;
#X text 1299 734 <-- send messages via network;
#X msg 1191 134 connect 224.0.0.1 60000;
#X obj 1190 696 mrpeach/packOSC;
#X obj 1191 82 random 101;
#X obj 1215 538 bng 18 250 50 0 empty empty empty 17 7 0 10 -258113
-1 -1;
#X obj 1191 45 bng 25 250 50 0 empty empty empty 17 7 0 10 -4034 -1
-1;
#X text 1760 274 <-- INPUT message;
#X text 1546 437 <-- OUTPUT message;
#X text 1241 541 <-- disconnect;
#X text 1570 586 <-- GOODBYE message;
#X msg 1192 171 send /hello/\$1/192.168.0.10/VideoSender;
#X text 1196 467 Standard OUTPUT message: /output/ID_number/IP_number/port_type_number/network_port_number/network_port_description/
;
#X text 1206 326 Standard INPUT message: /input/ID_number/IP_number/port_type_number/musical_thing_type(audio)/sample_rate/bit_depth/audio_file_format/channel_number/port_number/port_description/network_protocol/music_protocol/human_name
;
#X text 1491 192 Standard HELLO message: /hello/id/ip/human_name;
#X msg 1194 438 send /output/\$1/192.168.0.10/1/video/VideoReceive
;
#X obj 1193 110 value id25;
#X obj 1214 562 value id25;
#X obj 1186 869 route /hello /input /output /goodbye;
#X text 1222 612 Standard GOODBYE message: /goodbye/ID_number/IP_number/human_name/status
;
#X msg 1215 587 /goodbye/\$1/192.168.0.10/VideoSender/disconnected
;
#X text 1221 47 <-- connect and generates random ID number;
#X text 1265 80 <-- random ID number;
#X text 1271 109 <-- store random ID number;
#X text 1360 133 <-- connect to OSC server;
#X text 1476 170 <-- present musical thing to the network;
#X text 1291 562 <-- random ID number;
#X msg 1194 258 send /input/\$1/192.168.0.10/0/video/500x500/RGB/MPEG4/40100/START/40101/STOP/40150/ON/40151/43023/CONNECT_CLI/43025/DISCONNECT_CLI/48888/OPEN_SUBPATCH/48889/CLOSE_SUBPATCH/OFF/UDP/OSC/VideoSender
, f 80;
#X connect 1 0 3 0;
#X connect 2 0 3 0;
#X connect 3 0 4 0;
#X connect 5 0 3 0;
#X connect 12 0 1 0;
#X connect 13 0 24 0;
#X connect 14 0 13 0;
#X connect 15 0 2 0;
#X connect 16 0 23 0;
#X connect 23 0 15 0;
#X connect 24 0 12 0;
#X connect 25 0 16 0;
#X connect 27 0 28 0;
#X connect 28 0 30 0;
#X connect 29 0 47 0;
#X connect 29 1 59 0;
#X connect 29 2 43 0;
#X connect 34 0 28 0;
#X connect 35 0 28 0;
#X connect 36 0 43 0;
#X connect 36 0 59 0;
#X connect 36 0 47 0;
#X connect 36 0 48 0;
#X connect 37 0 49 0;
#X connect 38 0 34 0;
#X connect 38 0 36 0;
#X connect 43 0 35 0;
#X connect 47 0 35 0;
#X connect 49 0 52 0;
#X connect 50 0 29 0;
#X connect 52 0 35 0;
#X connect 52 0 27 0;
#X connect 59 0 35 0;
