#N canvas 0 182 1920 987 12;
#X obj 138 94 gemhead;
#X obj 138 179 pix_video;
#X msg 172 132 dialog;
#X obj 138 221 pix_texture;
#X obj 138 268 rectangle 4 3;
#X obj 138 39 netreceive 3500;
#X text 247 38 <-- receive video data from network;
#X text 194 95 <-- Read video data;
#X text 222 132 <-- indicates video device;
#X text 211 181 <-- video capture;
#X text 222 221 <-- video output;
#X text 239 269 <-- screen size;
#X text 724 15 MANAGEMENT LAYER;
#X msg 641 675 disconnect;
#X obj 603 747 mrpeach/udpsend;
#X obj 601 841 t b b b;
#X obj 603 788 tgl 25 0 empty empty empty 17 7 0 10 -228856 -1 -1 0
1;
#X text 634 791 <-- connection status;
#X text 718 708 <-- pack messages on OSC format;
#X text 714 746 <-- send messages via network;
#X msg 606 147 connect 224.0.0.1 60000;
#X obj 605 709 mrpeach/packOSC;
#X obj 606 95 random 101;
#X obj 641 554 bng 18 250 50 0 empty empty empty 17 7 0 10 -258113
-1 -1;
#X msg 641 603 /hello/\$1/192.168.0.10/disconnected;
#X obj 606 58 bng 25 250 50 0 empty empty empty 17 7 0 10 -4034 -1
-1;
#X obj 608 123 value id;
#X obj 641 578 value id;
#X text 636 60 <-- Conecta e gera número de ID aleatóŕio;
#X text 681 93 <-- gera número aleatório entre 0 e 100;
#X text 666 123 <-- armazena número aleatório;
#X text 781 144 <-- conecta no servidor OSC \, exibindo a coisa musical
para a rede;
#X text 894 185 <-- apresenta a coisa musical na rede;
#X text 1177 287 <-- INPUT message;
#X text 960 432 <-- OUTPUT message;
#X text 667 557 <-- disconnect;
#X text 702 578 <-- número aleatório;
#X text 898 602 <-- GOODBYE message;
#X text 648 628 Standard GOODBYE message: /hello/ID_number/IP_number/status
;
#X msg 607 184 send /hello/\$1/192.168.0.10/VideoReceive;
#X text 612 465 Standard OUTPUT message: /output/ID_number/IP_number/port_type_number/network_port_number/network_port_description/
;
#X text 616 308 Standard INPUT message: /input/ID_number/IP_number/port_type_number/musical_thing_type(audio)/sample_rate/bit_depth/audio_file_format/channel_number/port_number/port_description/network_protocol/music_protocol/human_name
;
#X text 923 205 Standard HELLO message: /hello/id/ip/human_name;
#X obj 601 882 route /hello /input /output;
#X msg 617 433 send /output/\$1/192.168.0.10/1/video/VideoReive;
#X msg 608 283 send /input/\$1/192.168.0.10/0/video/500x500/RGB/MPEG4/VideoReceive
, f 80;
#X connect 0 0 1 0;
#X connect 1 0 3 0;
#X connect 2 0 1 0;
#X connect 3 0 4 0;
#X connect 5 0 0 0;
#X connect 13 0 14 0;
#X connect 14 0 16 0;
#X connect 15 0 44 0;
#X connect 15 1 45 0;
#X connect 15 2 39 0;
#X connect 20 0 14 0;
#X connect 21 0 14 0;
#X connect 22 0 39 0;
#X connect 22 0 45 0;
#X connect 22 0 44 0;
#X connect 22 0 26 0;
#X connect 23 0 27 0;
#X connect 24 0 21 0;
#X connect 24 0 13 0;
#X connect 25 0 20 0;
#X connect 25 0 22 0;
#X connect 27 0 24 0;
#X connect 39 0 21 0;
#X connect 43 0 15 0;
#X connect 44 0 21 0;
#X connect 45 0 21 0;
