#N canvas 0 182 1920 987 10;
#X obj 123 123 hsl 128 15 0 127 0 0 empty empty empty -2 -8 0 10 -4034
-1 -1 0 1;
#X obj 120 209 osc/packOSC;
#X obj 54 252 mrpeach/net/udpsend;
#X msg 63 93 disconnect;
#X msg 120 180 send /volume \$1;
#X text 236 56 <-- connect to multicast address;
#X text 129 93 <-- close connection;
#X text 255 120 <-- volume vslider (0 - 127);
#X text 217 179 <-- send message to volume;
#X text 195 209 <-- pack message on OSC format;
#X text 172 253 <-- send OSC message to network;
#X msg 54 56 connect 224.0.0.251 40000;
#X text 694 20 MANAGEMENT LAYER;
#X msg 602 680 disconnect;
#X obj 573 752 mrpeach/udpsend;
#X obj 571 846 t b b b;
#X obj 573 793 tgl 25 0 empty empty empty 17 7 0 10 -228856 -1 -1 0
1;
#X text 604 796 <-- connection status;
#X text 674 715 <-- pack messages on OSC format;
#X text 672 751 <-- send messages via network;
#X msg 576 152 connect 224.0.0.1 60000;
#X obj 575 714 mrpeach/packOSC;
#X obj 576 100 random 101;
#X obj 602 559 bng 18 250 50 0 empty empty empty 17 7 0 10 -258113
-1 -1;
#X obj 576 63 bng 25 250 50 0 empty empty empty 17 7 0 10 -4034 -1
-1;
#X text 606 65 <-- Conecta e gera número de ID aleatóŕio;
#X text 643 98 <-- gera número aleatório entre 0 e 100;
#X text 645 126 <-- armazena número aleatório;
#X text 724 150 <-- conecta no servidor OSC \, exibindo a coisa musical
para a rede;
#X text 828 189 <-- apresenta a coisa musical na rede;
#X text 988 285 <-- INPUT message;
#X text 945 436 <-- OUTPUT message;
#X text 628 562 <-- disconnect;
#X text 671 583 <-- número aleatório;
#X text 911 608 <-- GOODBYE message;
#X msg 577 189 send /hello/\$1/192.168.0.10/VolumeSlider;
#X text 583 470 Standard OUTPUT message: /output/ID_number/IP_number/port_type_number/network_port_number/network_port_description/
;
#X text 584 319 Standard INPUT message: /input/ID_number/IP_number/port_type_number/musical_thing_type(audio)/sample_rate/bit_depth/audio_file_format/channel_number/port_number/port_description/network_protocol/music_protocol/human_name
;
#X text 853 205 Standard HELLO message: /hello/id/ip/human_name;
#X msg 579 423 send /output/\$1/192.168.0.10/1/controller/40000/OSCmessage/Microphone/GuitarxBass/Loudspeaker/Pitchfork
;
#X obj 578 128 value id26;
#X obj 602 583 value id26;
#X obj 571 887 route /hello /input /output /goodbye;
#X msg 602 608 /goodbye/\$1/192.168.0.10/VolumeSlider/disconnected
;
#X text 609 633 Standard GOODBYE message: /goodbye/ID_number/IP_number/human_name/status
;
#X msg 578 284 send /input/\$1/192.168.0.10/0/controller/0/127/UDP/OSC/VolumeSlider
, f 67;
#X connect 0 0 4 0;
#X connect 1 0 2 0;
#X connect 3 0 2 0;
#X connect 4 0 1 0;
#X connect 11 0 2 0;
#X connect 13 0 14 0;
#X connect 14 0 16 0;
#X connect 15 0 39 0;
#X connect 15 1 45 0;
#X connect 15 2 35 0;
#X connect 20 0 14 0;
#X connect 21 0 14 0;
#X connect 22 0 35 0;
#X connect 22 0 45 0;
#X connect 22 0 39 0;
#X connect 22 0 40 0;
#X connect 23 0 41 0;
#X connect 24 0 20 0;
#X connect 24 0 22 0;
#X connect 35 0 21 0;
#X connect 39 0 21 0;
#X connect 41 0 43 0;
#X connect 42 0 15 0;
#X connect 43 0 21 0;
#X connect 43 0 13 0;
#X connect 45 0 21 0;
