#N canvas 0 182 1920 987 12;
#X msg 750 625 disconnect;
#X obj 713 705 mrpeach/udpsend;
#X obj 711 799 t b b b;
#X obj 713 746 tgl 25 0 empty empty empty 17 7 0 10 -228856 -1 -1 0
1;
#X text 744 749 <-- connection status;
#X text 826 668 <-- pack messages on OSC format;
#X text 827 704 <-- send messages via network;
#X msg 716 105 connect 224.0.0.1 60000;
#X obj 715 667 mrpeach/packOSC;
#X obj 716 53 random 101;
#X obj 750 504 bng 18 250 50 0 empty empty empty 17 7 0 10 -258113
-1 -1;
#X obj 716 16 bng 25 250 50 0 empty empty empty 17 7 0 10 -4034 -1
-1;
#X text 746 18 <-- Conecta e gera número de ID aleatóŕio;
#X text 793 53 <-- gera número aleatório entre 0 e 100;
#X text 794 80 <-- armazena número aleatório;
#X text 886 104 <-- conecta no servidor OSC \, exibindo a coisa musical
para a rede;
#X text 1243 187 <-- INPUT message;
#X text 1154 346 <-- OUTPUT message;
#X text 776 507 <-- disconnect;
#X text 827 528 <-- número aleatório;
#X text 1178 558 <-- GOODBYE message;
#X text 1052 136 <-- apresenta a coisa musical na rede;
#X msg 73 69 disconnect;
#X obj 110 218 packOSC;
#X msg 110 193 send /drum \$1;
#X msg 110 145 2 2 2 2 0 5 4 2 2;
#X obj 110 171 list;
#X text 234 32 <-- connect to multicast address;
#X text 155 69 <-- close connection;
#X text 241 144 <-- drum pattern (can be edit);
#X text 168 219 <-- pack message on OSC format;
#X text 208 193 <-- send message;
#X obj 53 255 mrpeach/net/udpsend;
#X text 193 256 <-- send OSC data packaged in UDP \, using the mrpeach
library;
#X text 146 170 <-- put drum pattern into a list;
#X msg 48 32 connect 224.0.0.251 40013;
#X msg 717 142 send /hello/\$1/192.168.0.10/DrumMachinePattern;
#X text 728 384 Standard OUTPUT message: /output/ID_number/IP_number/port_type_number/network_port_number/network_port_description/
;
#X text 726 222 Standard INPUT message: /input/ID_number/IP_number/port_type_number/musical_thing_type(audio)/sample_rate/bit_depth/audio_file_format/channel_number/port_number/port_description/network_protocol/music_protocol/human_name
;
#X text 1081 154 Standard HELLO message: /hello/id/ip/human_name;
#X msg 723 331 send /output/\$1/192.168.0.10/0/100/controller/40013/Pattern/OSC/DrumMachine
;
#X obj 711 840 route /hello /input /output /goodbye;
#X obj 718 81 value id12;
#X obj 750 528 value id12;
#X msg 750 553 /goodbye/\$1/192.168.0.10/DrumMachine_control_Pattern/disconnected
;
#X text 754 588 Standard GOODBYE message: /goodbye/ID_number/IP_number/human_name/status
;
#X msg 722 188 send /input/\$1/192.168.0.10/0/controller/0/100/UDP/OSC/DrumMachinePattern
, f 73;
#X connect 0 0 1 0;
#X connect 1 0 3 0;
#X connect 2 0 40 0;
#X connect 2 1 46 0;
#X connect 2 2 36 0;
#X connect 7 0 1 0;
#X connect 8 0 1 0;
#X connect 9 0 36 0;
#X connect 9 0 46 0;
#X connect 9 0 40 0;
#X connect 9 0 42 0;
#X connect 10 0 43 0;
#X connect 11 0 7 0;
#X connect 11 0 9 0;
#X connect 22 0 32 0;
#X connect 23 0 32 0;
#X connect 24 0 23 0;
#X connect 25 0 26 0;
#X connect 26 0 24 0;
#X connect 35 0 32 0;
#X connect 36 0 8 0;
#X connect 40 0 8 0;
#X connect 41 0 2 0;
#X connect 43 0 44 0;
#X connect 44 0 8 0;
#X connect 44 0 0 0;
#X connect 46 0 8 0;
