#N canvas 0 64 1920 987 10;
#X floatatom 292 358 0 0 0 0 - - -;
#X floatatom 309 282 0 0 0 0 - - -;
#X obj 982 187 mtof;
#X floatatom 1041 238 5 0 1000 0 - - -;
#X obj 296 644 hsl 128 15 0 127 0 0 empty empty empty -2 -8 0 10 -4034
-1 -1 0 1;
#X obj 1038 150 hsl 128 15 0 100 0 0 empty empty empty -2 -8 0 10 -4032
-1 -1 0 1;
#X msg 1081 106 69;
#X obj 946 274 osc~ 440;
#X obj 292 533 osc/unpackOSC;
#X obj 830 348 osc/unpackOSC;
#X obj 830 316 mrpeach/net/udpreceive 40051;
#X obj 830 386 osc/routeOSC /on_off_pitch;
#X obj 722 84 osc/unpackOSC;
#X obj 722 132 osc/routeOSC /freq_pitch;
#X obj 722 61 mrpeach/net/udpreceive 40052;
#X obj 1498 13 mrpeach/net/udpreceive 40053;
#X obj 1498 44 osc/unpackOSC;
#X obj 1498 74 osc/routeOSC /midi_pitch;
#X obj 291 734 mrpeach/net/udpreceive 40054;
#X obj 291 766 osc/unpackOSC;
#X obj 371 291 *~ 5;
#X msg 292 190 connect 239.255.255.250 3000;
#X obj 292 333 mrpeach/net/udpsend~ 2;
#X text 996 104 MIDI note-->;
#X text 1018 184 <-- MIDI to frequency;
#X text 1080 239 <-- Hz value;
#X text 999 275 <-- frequency;
#X text 1009 314 <-- Receive OSC message;
#X text 919 348 <-- unpack OSC message;
#X text 990 384 comment;
#X text 432 801 <-- receive volume control via OSC;
#X text 469 734 <-- Receive OSC message;
#X text 379 763 <-- unpack OSC message;
#X text 432 641 <--volume slider (0 - 127);
#X text 466 508 <-- Receive OSC message;
#X obj 292 581 osc/routeOSC /volume;
#X text 418 578 <-- receive volume control via OSC;
#X text 376 534 <-- unpack OSC message;
#X text 157 358 connection status -->;
#X text 103 333 send audio data to network -->;
#X text 42 247 close connection -->;
#X text 94 190 connect to multicast address -->;
#X text 1170 149 <-- change frequency (MIDI note);
#X text 1675 13 <-- Receive OSC message;
#X obj 292 510 mrpeach/net/udpreceive 40000;
#X text 1581 42 <-- unpack OSC message;
#X obj 830 453 tgl 15 0 empty empty empty 17 7 0 10 -4034 -1 -1 0 1
;
#X text 850 451 <-- ON/OFF;
#X obj 291 802 osc/routeOSC /midi_vol;
#X obj 294 845 hsl 128 15 0 127 0 0 empty empty empty -2 -8 0 10 -204786
-1 -1 0 1;
#X text 432 846 <-- MIDI controller volume (0 - 127);
#X text 1401 373 MANAGEMENT LAYER;
#X msg 1311 1179 disconnect;
#X obj 1277 1248 mrpeach/udpsend;
#X obj 1275 1342 t b b b;
#X obj 1277 1289 tgl 25 0 empty empty empty 17 7 0 10 -228856 -1 -1
0 1;
#X text 1308 1292 <-- connection status;
#X text 1378 1211 <-- pack messages on OSC format;
#X text 1376 1247 <-- send messages via network;
#X msg 1283 505 connect 224.0.0.1 60000;
#X obj 1279 1210 mrpeach/packOSC;
#X obj 1283 453 random 101;
#X obj 1311 1058 bng 18 250 50 0 empty empty empty 17 7 0 10 -258113
-1 -1;
#X obj 1283 416 bng 25 250 50 0 empty empty empty 17 7 0 10 -4034 -1
-1;
#X text 1781 619 <-- INPUT message;
#X text 1652 903 <-- OUTPUT message;
#X text 1337 1061 <-- disconnect;
#X text 1599 1106 <-- GOODBYE message;
#X msg 1284 542 send /hello/\$1/192.168.0.10/Pitchfork;
#X text 1283 946 Standard OUTPUT message: /output/ID_number/IP_number/port_type_number/network_port_number/network_port_description/
;
#X text 1538 560 Standard HELLO message: /hello/id/ip/human_name;
#X msg 1282 895 send /output/\$1/192.168.0.10/1/audio/44100/16bits/2/3000/Loudspeaker
;
#X obj 1285 481 value id16;
#X obj 1311 1082 value id16;
#X obj 1275 1382 route /hello /input /output /goodbye;
#X msg 1311 1107 /goodbye/\$1/192.168.0.10/Pitchfork/disconnected;
#X text 1318 1132 Standard GOODBYE message: /goodbye/ID_number/IP_number/human_name/status
;
#X obj 510 976 osc/unpackOSC;
#X obj 510 1003 osc/routeOSC /connection;
#X obj 510 1029 list;
#X text 148 931 receives OSC messages from the network \, at the multicast
address and on the specified port -->;
#X text 361 973 unpack OSC messages -->;
#X text 255 1003 route the OSC message to this address -->;
#X text 314 1029 put the message into a list -->;
#X obj 508 1122 osc/unpackOSC;
#X obj 508 1175 list;
#X text 163 1081 receives OSC messages from the network \, at the multicast
address and on the specified port -->;
#X text 358 1122 unpack OSC messages -->;
#X text 251 1149 route the OSC message to this address -->;
#X text 310 1175 put the message into a list -->;
#X obj 508 1149 osc/routeOSC /disconnection;
#X obj 510 935 mrpeach/net/udpreceive 224.0.0.0 55035;
#X obj 508 1080 mrpeach/net/udpreceive 224.0.0.0 55036;
#X msg 166 247 disconnect 239.255.255.250 3000;
#X text 1375 1082 <-- random ID number;
#X text 1313 418 <-- connect and generate random ID number;
#X text 1350 451 <-- generates random ID number between 0 - 100;
#X text 1351 480 <-- store random ID number;
#X text 1431 503 <-- connect to OSC server;
#X text 1514 543 <-- presents the musical thing to the network;
#X text 1306 675 Standard INPUT message: /input/ID_number/IP_number/port_type_number/musical_thing_type(audio)/sample_rate/bit_depth/audio_file_format/channel_number/IP_connection/port_number/port_description/network_protocol/music_protocol/human_name
;
#X text 1104 105 <- A = 440 (C = 63);
#X text 582 84 unpack OSC message -->;
#X text 572 60 Receive OSC message -->;
#N canvas 0 64 1920 987 pitchfork2 0;
#X floatatom 292 358 0 0 0 0 - - -;
#X floatatom 309 282 0 0 0 0 - - -;
#X obj 982 187 mtof;
#X floatatom 992 246 5 0 1000 0 - - -;
#X obj 296 644 hsl 128 15 0 127 0 0 empty empty empty -2 -8 0 10 -4034
-1 -1 0 1;
#X obj 1038 150 hsl 128 15 0 127 0 0 empty empty empty -2 -8 0 10 -4032
-1 -1 0 1;
#X msg 1035 110 69;
#X obj 982 272 osc~ 440;
#X obj 292 533 osc/unpackOSC;
#X obj 830 348 osc/unpackOSC;
#X obj 830 386 osc/routeOSC /on_off_pitch;
#X obj 722 84 osc/unpackOSC;
#X obj 722 132 osc/routeOSC /freq_pitch;
#X obj 1498 44 osc/unpackOSC;
#X obj 1498 74 osc/routeOSC /midi_pitch;
#X obj 291 766 osc/unpackOSC;
#X obj 371 291 *~ 5;
#X obj 292 333 mrpeach/net/udpsend~ 2;
#X text 950 108 MIDI note-->;
#X text 1018 184 <-- MIDI to frequency;
#X text 1031 247 <-- Hz value;
#X text 1035 273 <-- frequency;
#X text 1009 314 <-- Receive OSC message;
#X text 919 348 <-- unpack OSC message;
#X text 990 384 comment;
#X text 432 801 <-- receive volume control via OSC;
#X text 469 734 <-- Receive OSC message;
#X text 379 763 <-- unpack OSC message;
#X text 432 641 <--volume slider (0 - 127);
#X text 466 508 <-- Receive OSC message;
#X obj 292 581 osc/routeOSC /volume;
#X text 418 578 <-- receive volume control via OSC;
#X text 376 534 <-- unpack OSC message;
#X text 157 358 connection status -->;
#X text 103 333 send audio data to network -->;
#X text 42 247 close connection -->;
#X text 94 190 connect to multicast address -->;
#X text 1170 149 <-- change frequency (MIDI note);
#X text 1675 13 <-- Receive OSC message;
#X obj 292 510 mrpeach/net/udpreceive 40000;
#X text 1581 42 <-- unpack OSC message;
#X obj 830 428 tgl 15 0 empty empty empty 17 7 0 10 -4034 -1 -1 0 1
;
#X text 850 426 <-- ON/OFF;
#X obj 291 802 osc/routeOSC /midi_vol;
#X obj 294 845 hsl 128 15 0 127 0 0 empty empty empty -2 -8 0 10 -204786
-1 -1 0 1;
#X text 432 846 <-- MIDI controller volume (0 - 127);
#X text 1401 373 MANAGEMENT LAYER;
#X msg 1314 1036 disconnect;
#X obj 1280 1105 mrpeach/udpsend;
#X obj 1278 1199 t b b b;
#X obj 1280 1146 tgl 25 0 empty empty empty 17 7 0 10 -228856 -1 -1
0 1;
#X text 1311 1149 <-- connection status;
#X text 1381 1068 <-- pack messages on OSC format;
#X text 1379 1104 <-- send messages via network;
#X msg 1283 505 connect 224.0.0.1 60000;
#X obj 1282 1067 mrpeach/packOSC;
#X obj 1283 453 random 101;
#X obj 1314 915 bng 18 250 50 0 empty empty empty 17 7 0 10 -258113
-1 -1;
#X obj 1283 416 bng 25 250 50 0 empty empty empty 17 7 0 10 -4034 -1
-1;
#X text 1781 619 <-- INPUT message;
#X text 1655 760 <-- OUTPUT message;
#X text 1340 918 <-- disconnect;
#X text 1608 965 <-- GOODBYE message;
#X text 1286 803 Standard OUTPUT message: /output/ID_number/IP_number/port_type_number/network_port_number/network_port_description/
;
#X text 1538 555 Standard HELLO message: /hello/id/ip/human_name;
#X obj 1278 1239 route /hello /input /output /goodbye;
#X text 1321 989 Standard GOODBYE message: /goodbye/ID_number/IP_number/human_name/status
;
#X obj 510 976 osc/unpackOSC;
#X obj 510 1003 osc/routeOSC /connection;
#X obj 510 1029 list;
#X text 148 931 receives OSC messages from the network \, at the multicast
address and on the specified port -->;
#X text 361 973 unpack OSC messages -->;
#X text 255 1003 route the OSC message to this address -->;
#X text 314 1029 put the message into a list -->;
#X obj 508 1122 osc/unpackOSC;
#X obj 508 1175 list;
#X text 163 1081 receives OSC messages from the network \, at the multicast
address and on the specified port -->;
#X text 358 1122 unpack OSC messages -->;
#X text 251 1149 route the OSC message to this address -->;
#X text 310 1175 put the message into a list -->;
#X obj 508 1149 osc/routeOSC /disconnection;
#X text 1378 939 <-- random ID number;
#X text 1313 418 <-- connect and generate random ID number;
#X text 1350 451 <-- generates random ID number between 0 - 100;
#X text 1351 480 <-- store random ID number;
#X text 1431 503 <-- connect to OSC server;
#X text 1527 540 <-- presents the musical thing to the network;
#X text 1311 666 Standard INPUT message: /input/ID_number/IP_number/port_type_number/musical_thing_type(audio)/sample_rate/bit_depth/audio_file_format/channel_number/IP_connection/port_number/port_description/network_protocol/music_protocol/human_name
;
#X text 1058 109 <- A = 440 (C = 63);
#X text 582 84 unpack OSC message -->;
#X text 572 60 Receive OSC message -->;
#X msg 292 190 connect 239.255.255.250 3007;
#X msg 166 247 disconnect 239.255.255.250 3007;
#X obj 291 734 mrpeach/net/udpreceive 44454;
#X obj 830 316 mrpeach/net/udpreceive 44451;
#X obj 722 61 mrpeach/net/udpreceive 44452;
#X obj 1498 13 mrpeach/net/udpreceive 44453;
#X obj 510 935 mrpeach/net/udpreceive 224.0.0.0 55435;
#X obj 508 1080 mrpeach/net/udpreceive 224.0.0.0 55436;
#X obj 1285 481 value id40;
#X obj 1314 939 value id40;
#X msg 1284 542 send /hello/\$1/192.168.0.10/Pitchfork2;
#X msg 1314 964 /goodbye/\$1/192.168.0.10/Pitchfork2/disconnected;
#X msg 1287 606 send /input/\$1/192.168.0.10/0/audio/44100/16bits/2/224.0.0.0/55435/ON_CLI/55436/OFF_CLI/40000/volume/44451/OnOff/44452/Frequency/44453/MIDI/44454/VolumeByMIDI/UDP/OSC/MIDI/Pitchfork2
, f 80;
#X text 490 1237 - SET AUDIO PARAMETERS;
#X msg 493 1270 params @samplerate 48000;
#X msg 493 1359 params @callback 1;
#X msg 493 1313 params @advance 2;
#X obj 492 1535 mediasettings/audiosettings;
#X msg 493 1483 driver 3;
#X text 558 1483 standard (MIMO);
#X msg 493 1506 driver 4;
#X text 559 1505 ASIO;
#X text 631 1335 same as "advance";
#X msg 493 1336 params @buffersize 10;
#X msg 493 1292 params @rate 44100;
#X text 615 1289 same as "samplerate";
#X text 614 1313 "Delay (msec)";
#X text 616 1357 "Use callbacks" 1=on 0=off;
#X text 493 1462 Understood \, but only changes if in/outs already
set;
#X text 616 1381 indevice + inchannels;
#X text 617 1403 outdevice + outchannels;
#X msg 493 1382 params @input 0 8;
#X msg 493 1405 params @output 1 2;
#X msg 1285 751 send /output/\$1/192.168.0.10/1/audio/44100/16bits/2/3007/Loudspeaker
;
#X obj 819 574 receive fromGUI;
#X obj 819 600 list trim;
#X text 918 573 <-- Receive messages from MobMuPlat;
#X text 881 598 <-- Divide the commands within the list;
#X text 1031 628 <-- Route information to this address;
#X obj 819 626 route /volume2_mobmuplat_pitchfork;
#X obj 1493 130 receive fromGUI;
#X obj 1493 156 list trim;
#X text 1592 129 <-- Receive messages from MobMuPlat;
#X text 1555 154 <-- Divide the commands within the list;
#X text 1705 181 <-- Route information to this address;
#X obj 1493 181 route /freq2_mobmuplat_pitchfork;
#X obj 831 461 receive fromGUI;
#X obj 831 487 list trim;
#X text 930 460 <-- Receive messages from MobMuPlat;
#X text 893 485 <-- Divide the commands within the list;
#X text 1016 512 <-- Route information to this address;
#X obj 831 513 route /on2_mobmuplat_pitchfork;
#X connect 1 0 17 0;
#X connect 2 0 3 0;
#X connect 2 0 7 0;
#X connect 4 0 17 0;
#X connect 5 0 2 0;
#X connect 6 0 5 0;
#X connect 7 0 16 0;
#X connect 8 0 30 0;
#X connect 9 0 10 0;
#X connect 10 0 41 0;
#X connect 11 0 12 0;
#X connect 12 0 5 0;
#X connect 13 0 14 0;
#X connect 14 0 5 0;
#X connect 15 0 43 0;
#X connect 16 0 17 0;
#X connect 17 0 0 0;
#X connect 30 0 4 0;
#X connect 39 0 8 0;
#X connect 43 0 44 0;
#X connect 44 0 17 0;
#X connect 47 0 48 0;
#X connect 48 0 50 0;
#X connect 49 0 124 0;
#X connect 49 1 103 0;
#X connect 49 2 101 0;
#X connect 54 0 48 0;
#X connect 55 0 48 0;
#X connect 56 0 101 0;
#X connect 56 0 103 0;
#X connect 56 0 124 0;
#X connect 56 0 99 0;
#X connect 57 0 100 0;
#X connect 58 0 54 0;
#X connect 58 0 56 0;
#X connect 65 0 49 0;
#X connect 67 0 68 0;
#X connect 68 0 69 0;
#X connect 69 0 91 0;
#X connect 74 0 80 0;
#X connect 75 0 92 0;
#X connect 80 0 75 0;
#X connect 91 0 17 0;
#X connect 92 0 17 0;
#X connect 93 0 15 0;
#X connect 94 0 9 0;
#X connect 95 0 11 0;
#X connect 96 0 13 0;
#X connect 97 0 67 0;
#X connect 98 0 74 0;
#X connect 100 0 102 0;
#X connect 101 0 55 0;
#X connect 102 0 55 0;
#X connect 102 0 47 0;
#X connect 103 0 55 0;
#X connect 105 0 108 0;
#X connect 106 0 108 0;
#X connect 107 0 108 0;
#X connect 109 0 108 0;
#X connect 111 0 108 0;
#X connect 114 0 108 0;
#X connect 115 0 108 0;
#X connect 122 0 108 0;
#X connect 123 0 108 0;
#X connect 124 0 55 0;
#X connect 125 0 126 0;
#X connect 126 0 130 0;
#X connect 130 0 4 0;
#X connect 131 0 132 0;
#X connect 132 0 136 0;
#X connect 136 0 3 0;
#X connect 137 0 138 0;
#X connect 138 0 142 0;
#X connect 142 0 41 0;
#X restore 144 67 pd pitchfork2;
#X text 162 43 SUBPATCH;
#X msg 633 1453 vis 0;
#X obj 206 1408 tgl 15 0 empty empty empty 17 7 0 10 -4034 -1 -1 0
1;
#X obj 633 1408 tgl 15 0 empty empty empty 17 7 0 10 -258113 -1 -1
0 1;
#X text 226 1406 <-- OPEN;
#X msg 206 1439 vis 1;
#X text 652 1407 <-- CLOSE;
#X obj 206 1321 osc/unpackOSC;
#X text 443 1296 <-- Receive OSC message;
#X text 294 1321 <-- convert OSC message to Pure Data;
#X obj 633 1320 osc/unpackOSC;
#X text 870 1296 <-- Receive OSC message;
#X text 719 1321 <-- convert OSC message to Pure Data;
#X obj 206 1471 s pd-pitchfork2;
#X obj 206 1369 osc/routeOSC /open_pitchfork;
#X obj 206 1298 mrpeach/net/udpreceive 224.0.0.0 44444;
#X obj 633 1297 mrpeach/net/udpreceive 224.0.0.0 44445;
#X obj 633 1354 osc/routeOSC /close_pitchfork;
#X msg 1287 606 send /input/\$1/192.168.0.10/0/audio/44100/16bits/2/224.0.0.0/44444/OPEN_SUBPATCH_PITCHFORK2/44445/CLOSE_SUBPATCH_PITCHFORK2/55035/ON_CLI/55036/OFF_CLI/40000/volume/40051/OnOff/40052/Frequency/40053/MIDI/40054/VolumeByMIDI/UDP/OSC/MIDI/Pitchfork
, f 80;
#X obj 829 520 receive fromGUI;
#X obj 829 546 list trim;
#X text 928 519 <-- Receive messages from MobMuPlat;
#X text 891 544 <-- Divide the commands within the list;
#X text 1009 570 <-- Route information to this address;
#X obj 829 572 route /on_mobmuplat_pitchfork;
#X obj 1494 143 receive fromGUI;
#X obj 1494 169 list trim;
#X text 1593 142 <-- Receive messages from MobMuPlat;
#X text 1556 167 <-- Divide the commands within the list;
#X text 1684 196 <-- Route information to this address;
#X obj 1494 195 route /freq_mobmuplat_pitchfork;
#X obj 828 628 receive fromGUI;
#X obj 828 654 list trim;
#X text 927 627 <-- Receive messages from MobMuPlat;
#X text 890 652 <-- Divide the commands within the list;
#X text 1033 678 <-- Route information to this address;
#X obj 828 680 route /volume_mobmuplat_pitchfork;
#X connect 1 0 22 0;
#X connect 2 0 3 0;
#X connect 2 0 7 0;
#X connect 4 0 22 0;
#X connect 5 0 2 0;
#X connect 6 0 5 0;
#X connect 7 0 20 0;
#X connect 8 0 35 0;
#X connect 9 0 11 0;
#X connect 10 0 9 0;
#X connect 11 0 46 0;
#X connect 12 0 13 0;
#X connect 13 0 5 0;
#X connect 14 0 12 0;
#X connect 15 0 16 0;
#X connect 16 0 17 0;
#X connect 17 0 5 0;
#X connect 18 0 19 0;
#X connect 19 0 48 0;
#X connect 20 0 22 0;
#X connect 21 0 22 0;
#X connect 22 0 0 0;
#X connect 35 0 4 0;
#X connect 44 0 8 0;
#X connect 48 0 49 0;
#X connect 49 0 22 0;
#X connect 52 0 53 0;
#X connect 53 0 55 0;
#X connect 54 0 71 0;
#X connect 54 1 123 0;
#X connect 54 2 68 0;
#X connect 59 0 53 0;
#X connect 60 0 53 0;
#X connect 61 0 68 0;
#X connect 61 0 123 0;
#X connect 61 0 71 0;
#X connect 61 0 72 0;
#X connect 62 0 73 0;
#X connect 63 0 59 0;
#X connect 63 0 61 0;
#X connect 68 0 60 0;
#X connect 71 0 60 0;
#X connect 73 0 75 0;
#X connect 74 0 54 0;
#X connect 75 0 60 0;
#X connect 75 0 52 0;
#X connect 77 0 78 0;
#X connect 78 0 79 0;
#X connect 79 0 21 0;
#X connect 84 0 90 0;
#X connect 85 0 93 0;
#X connect 90 0 85 0;
#X connect 91 0 77 0;
#X connect 92 0 84 0;
#X connect 93 0 22 0;
#X connect 106 0 118 0;
#X connect 107 0 110 0;
#X connect 108 0 106 0;
#X connect 110 0 118 0;
#X connect 112 0 119 0;
#X connect 115 0 122 0;
#X connect 119 0 107 0;
#X connect 120 0 112 0;
#X connect 121 0 115 0;
#X connect 122 0 108 0;
#X connect 123 0 60 0;
#X connect 124 0 125 0;
#X connect 125 0 129 0;
#X connect 129 0 46 0;
#X connect 130 0 131 0;
#X connect 131 0 135 0;
#X connect 135 0 3 0;
#X connect 136 0 137 0;
#X connect 137 0 141 0;
#X connect 141 0 4 0;
