#N canvas 0 182 1920 987 12;
#X msg 1200 669 disconnect;
#X obj 1168 743 mrpeach/udpsend;
#X obj 1166 837 t b b b;
#X obj 1168 784 tgl 25 0 empty empty empty 17 7 0 10 -228856 -1 -1
0 1;
#X text 1199 787 <-- connection status;
#X text 1281 706 <-- pack messages on OSC format;
#X text 1282 742 <-- send messages via network;
#X msg 1171 143 connect 224.0.0.1 60000;
#X obj 1170 705 mrpeach/packOSC;
#X obj 1171 91 random 101;
#X obj 1200 548 bng 18 250 50 0 empty empty empty 17 7 0 10 -258113
-1 -1;
#X obj 1171 54 bng 25 250 50 0 empty empty empty 17 7 0 10 -4034 -1
-1;
#X text 1698 255 <-- INPUT message;
#X text 1606 401 <-- OUTPUT message;
#X text 1226 551 <-- disconnect;
#X text 1630 602 <-- GOODBYE message;
#X obj 50 194 osc/packOSC;
#X obj 28 224 mrpeach/net/udpsend;
#X floatatom 50 127 5 0 100 0 - - -;
#X floatatom 167 127 5 0 100 0 - - -;
#X floatatom 271 126 5 0 100 0 - - -;
#X msg 50 153 send /kick \$1;
#X msg 167 153 send /snare \$1;
#X msg 271 152 send /hats \$1;
#X text 208 50 <-- connect to multicast address;
#X text 246 88 <-- close connection;
#X text 310 124 <-- drum elements volume control;
#X msg 28 51 connect 224.0.0.251 40012;
#X text 164 225 <-- send OSC data packaged in UDP \, using the mrpeach
library;
#X text 133 195 <-- pack message on OSC format;
#X msg 1172 180 send /hello/\$1/192.168.0.10/DrumMachineElements;
#X text 1209 443 Standard OUTPUT message: /output/ID_number/IP_number/port_type_number/network_port_number/network_port_description/
;
#X text 1541 195 Standard HELLO message: /hello/id/ip/human_name;
#X msg 1178 391 send /output/\$1/192.168.0.10/0/100/controller/40012/Elements/OSC/DrumMachine
;
#X obj 1173 119 value id10;
#X obj 1200 572 value id10;
#X obj 1166 878 route /hello /input /output /goodbye;
#X msg 1200 597 /goodbye/\$1/192.168.0.10/DrumMachine_control_Elements/disconnected
;
#X text 1201 632 Standard GOODBYE message: /goodbye/ID_number/IP_number/human_name/status
;
#X obj 430 361 osc/unpackOSC;
#X obj 430 388 osc/routeOSC /connection;
#X obj 430 414 list;
#X text 28 315 receives OSC messages from the network \, at the multicast
address and on the specified port -->;
#X text 262 360 unpack OSC messages -->;
#X text 138 389 route the OSC message to this address -->;
#X text 207 413 put the message into a list -->;
#X obj 428 507 osc/unpackOSC;
#X obj 428 560 list;
#X text 26 461 receives OSC messages from the network \, at the multicast
address and on the specified port -->;
#X text 260 506 unpack OSC messages -->;
#X text 136 535 route the OSC message to this address -->;
#X text 205 559 put the message into a list -->;
#X msg 39 89 disconnect 224.0.0.251 40012;
#X obj 430 320 mrpeach/net/udpreceive 224.0.0.0 55017;
#X obj 428 465 mrpeach/net/udpreceive 224.0.0.0 55018;
#X floatatom 28 260 5 0 1 0 - - -;
#X text 70 260 <-- connection status;
#X text 1201 56 <-- connect and generate random ID number;
#X text 1248 91 <-- generates random ID number between 0 - 100;
#X text 1250 117 <-- store random ID number;
#X text 1341 142 <-- connect to OSC server;
#X text 1513 177 <-- presents the musical things to the network;
#X text 1274 571 <-- random ID number;
#X obj 428 534 osc/routeOSC /disconnection;
#X text 1190 302 Standard INPUT message: /input/ID_number/IP_number/port_type_number/musical_thing_type(audio)/sample_rate/bit_depth/audio_file_format/channel_number/IP_connection/port_number/port_description/network_protocol/music_protocol/human_name
;
#X msg 1173 242 send /input/\$1/192.168.0.10/0/controller/0/100/224.0.0.0/55017/ON_CLI/55018/OFF_CLI/UDP/OSC/DrumMachineElements
, f 74;
#X connect 0 0 1 0;
#X connect 1 0 3 0;
#X connect 2 0 33 0;
#X connect 2 1 65 0;
#X connect 2 2 30 0;
#X connect 7 0 1 0;
#X connect 8 0 1 0;
#X connect 9 0 30 0;
#X connect 9 0 65 0;
#X connect 9 0 33 0;
#X connect 9 0 34 0;
#X connect 10 0 35 0;
#X connect 11 0 7 0;
#X connect 11 0 9 0;
#X connect 16 0 17 0;
#X connect 17 0 55 0;
#X connect 18 0 21 0;
#X connect 19 0 22 0;
#X connect 20 0 23 0;
#X connect 21 0 16 0;
#X connect 22 0 16 0;
#X connect 23 0 16 0;
#X connect 27 0 17 0;
#X connect 30 0 8 0;
#X connect 33 0 8 0;
#X connect 35 0 37 0;
#X connect 36 0 2 0;
#X connect 37 0 8 0;
#X connect 37 0 0 0;
#X connect 39 0 40 0;
#X connect 40 0 41 0;
#X connect 41 0 27 0;
#X connect 46 0 63 0;
#X connect 52 0 17 0;
#X connect 53 0 39 0;
#X connect 54 0 46 0;
#X connect 63 0 47 0;
#X connect 65 0 8 0;
