#N canvas 0 64 1920 987 12;
#X obj 104 176 osc/packOSC;
#X obj 38 219 mrpeach/net/udpsend;
#X obj 104 103 tgl 15 0 empty empty empty 17 7 0 10 -4034 -1 -1 0 1
;
#X text 121 101 <-- ON;
#X text 217 24 <-- connect to multicast address;
#X text 233 58 <-- close connection;
#X text 253 145 <-- prepare to send message;
#X text 186 177 <-- pack message in a OSC format;
#X text 177 218 <-- send OSC packet via network \, using mrpeach library
;
#X floatatom 38 255 5 0 1 0 - - -;
#X text 79 256 <-- connection status;
#X obj 680 173 osc/packOSC;
#X obj 614 216 mrpeach/net/udpsend;
#X obj 680 100 tgl 15 0 empty empty empty 17 7 0 10 -258113 -1 -1 0
1;
#X text 701 99 <-- OFF;
#X text 797 15 <-- connect to multicast address;
#X text 818 48 <-- close connection;
#X text 828 145 <-- prepare to send message;
#X text 765 172 <-- pack message in a OSC format;
#X text 754 217 <-- send OSC packet via network \, using mrpeach library
;
#X floatatom 614 246 5 0 1 0 - - -;
#X text 655 248 <-- connection status;
#X text 1315 17 MANAGEMENT LAYER;
#X msg 1228 681 disconnect;
#X obj 1194 749 mrpeach/udpsend;
#X obj 1192 843 t b b b;
#X obj 1194 790 tgl 25 0 empty empty empty 17 7 0 10 -228856 -1 -1
0 1;
#X text 1225 793 <-- connection status;
#X text 1295 712 <-- pack messages on OSC format;
#X text 1293 748 <-- send messages via network;
#X msg 1197 149 connect 224.0.0.1 60000;
#X obj 1196 711 mrpeach/packOSC;
#X obj 1197 97 random 101;
#X obj 1231 549 bng 18 250 50 0 empty empty empty 17 7 0 10 -258113
-1 -1;
#X obj 1197 60 bng 25 250 50 0 empty empty empty 17 7 0 10 -4034 -1
-1;
#X text 1743 248 <-- INPUT message;
#X text 1634 423 <-- OUTPUT message;
#X text 1257 552 <-- disconnect;
#X text 1660 605 <-- GOODBYE message;
#X text 1220 462 Standard OUTPUT message: /output/ID_number/IP_number/port_type_number/network_port_number/network_port_description/
;
#X text 1632 197 Standard HELLO message: /hello/id/ip/human_name;
#X text 1233 635 Standard GOODBYE message: /goodbye/ID_number/IP_number/human_name/status
;
#X text 1312 572 <-- random ID number;
#X text 1227 62 <-- Connect and generates a random ID number;
#X text 1277 94 <-- generates a random ID number between 0 - 100;
#X text 1280 123 <-- store random ID number;
#X text 1368 149 <-- connect to OSC server;
#X text 1608 181 <-- presents the musical thing on the network;
#X text 1217 314 Standard INPUT message: /input/ID_number/IP_number/port_type_number/musical_thing_type(audio)/sample_rate/bit_depth/audio_file_format/channel_number/IP_connection/port_number/port_description/network_protocol/music_protocol/human_name
;
#X msg 36 23 connect 224.0.0.0 41530;
#X msg 614 15 connect 224.0.0.0 41531;
#X msg 613 48 disconnect 224.0.0.0 41531;
#X msg 36 58 disconnect 224.0.0.0 41530;
#X msg 104 147 send /audioplayer \$1;
#X msg 680 144 send /audioplayer \$1;
#X obj 1199 125 value id36;
#X obj 1231 573 value id36;
#X msg 1198 186 send /hello/\$1/192.168.0.10/AudioPlayer_subpatch_control
;
#X msg 1231 598 /goodbye/\$1/192.168.0.10/AudioPlayer_subpatch_control/disconnected
;
#X msg 1199 410 send /output/\$1/192.168.0.10/1/controller/41530/ON/41531/OFF/OSC/AudioPlayer_subpatch_control
;
#X obj 38 453 osc/unpackOSC;
#X obj 38 478 osc/routeOSC /connection;
#X obj 37 506 list;
#X obj 34 603 osc/unpackOSC;
#X obj 34 658 list;
#X obj 34 630 osc/routeOSC /disconnection;
#X obj 613 614 osc/unpackOSC;
#X obj 613 672 list;
#X obj 613 640 osc/routeOSC /disconnection;
#X obj 614 469 osc/unpackOSC;
#X obj 614 499 osc/routeOSC /connection;
#X obj 614 533 list;
#X text 71 661 <-- put the message into a list (allows connection using
CLI);
#X text 231 627 <-- route the OSC message to this address;
#X text 131 602 <-- unpack OSC messages;
#X text 648 673 <-- put the message into a list (allows connection
using CLI);
#X text 812 639 <-- route the OSC message to this address;
#X text 713 613 <-- unpack OSC messages;
#X text 138 451 <-- unpack OSC messages;
#X text 217 481 <-- route the OSC message to this address;
#X text 73 508 <-- put the message into a list (allows connection using
CLI);
#X text 315 414 <-- receive OSC messages to network;
#X text 308 561 <-- receive OSC messages to network;
#X text 891 429 <-- receive OSC messages to network;
#X text 893 570 <-- receive OSC messages to network;
#X text 715 467 <-- unpack OSC messages;
#X text 790 498 <-- route the OSC message to this address;
#X text 653 529 <-- put the message into a list (allows connection
using CLI);
#X obj 37 412 mrpeach/net/udpreceive 224.0.0.0 55132;
#X obj 614 428 mrpeach/net/udpreceive 224.0.0.0 55133;
#X obj 34 561 mrpeach/net/udpreceive 224.0.0.0 55134;
#X obj 613 571 mrpeach/net/udpreceive 224.0.0.0 55135;
#X msg 1202 233 send /input/\$1/192.168.0.10/0/controller/0/1/224.0.0.0/55031/ON_CLI/55032/ON1_CLI/55033/OFF_CLI/55034/OFF1_CLIUDP/55132/CONNECT_ON_AUDIOPLAYER/55133/CONNECT_OFF_AUDIOPLAYER/55134/DISCONNECT_ON_AUDIOPLAYER/55135/DISCONNECT_OFFF_AUDIOPLAYER/OSC/AudioPlayer_subpatch_control_OnOff
, f 76;
#X obj 1190 927 bng 22 250 50 0 empty empty empty 17 7 0 10 -159808
-1 -1;
#X text 1265 989 <-- same random number;
#X text 1216 927 <-- mode;
#X msg 1190 1027 send /mode/\$1/192.168.0.10/Microphone/Performance_Mode
;
#X text 1236 1063 Standar MODE message: /mode/ID_number/IP_number/human_name/status
;
#X obj 1190 990 value id36;
#X obj 1192 884 route /hello /input /output /mode /goodbye;
#X connect 0 0 1 0;
#X connect 1 0 9 0;
#X connect 2 0 53 0;
#X connect 11 0 12 0;
#X connect 12 0 20 0;
#X connect 13 0 54 0;
#X connect 23 0 24 0;
#X connect 24 0 26 0;
#X connect 25 0 59 0;
#X connect 25 1 92 0;
#X connect 25 2 57 0;
#X connect 30 0 24 0;
#X connect 31 0 24 0;
#X connect 32 0 57 0;
#X connect 32 0 92 0;
#X connect 32 0 59 0;
#X connect 32 0 55 0;
#X connect 33 0 56 0;
#X connect 34 0 30 0;
#X connect 34 0 32 0;
#X connect 49 0 1 0;
#X connect 50 0 12 0;
#X connect 51 0 12 0;
#X connect 52 0 1 0;
#X connect 53 0 0 0;
#X connect 54 0 11 0;
#X connect 56 0 58 0;
#X connect 57 0 31 0;
#X connect 58 0 31 0;
#X connect 58 0 23 0;
#X connect 59 0 31 0;
#X connect 60 0 61 0;
#X connect 61 0 62 0;
#X connect 62 0 49 0;
#X connect 63 0 65 0;
#X connect 64 0 52 0;
#X connect 65 0 64 0;
#X connect 66 0 68 0;
#X connect 67 0 51 0;
#X connect 68 0 67 0;
#X connect 69 0 70 0;
#X connect 70 0 71 0;
#X connect 71 0 50 0;
#X connect 88 0 60 0;
#X connect 89 0 69 0;
#X connect 90 0 63 0;
#X connect 91 0 66 0;
#X connect 92 0 31 0;
#X connect 93 0 98 0;
#X connect 96 0 31 0;
#X connect 98 0 96 0;
#X connect 99 0 25 0;
#X connect 99 0 96 0;
