#N canvas 0 182 1920 987 12;
#X msg 821 632 disconnect;
#X obj 775 723 mrpeach/udpsend;
#X obj 773 817 t b b b;
#X obj 775 764 tgl 25 0 empty empty empty 17 7 0 10 -228856 -1 -1 0
1;
#X text 806 767 <-- connection status;
#X text 888 686 <-- pack messages on OSC format;
#X text 893 721 <-- send messages via network;
#X msg 778 123 connect 224.0.0.1 60000;
#X obj 777 685 mrpeach/packOSC;
#X obj 778 71 random 101;
#X obj 821 511 bng 18 250 50 0 empty empty empty 17 7 0 10 -258113
-1 -1;
#X obj 778 34 bng 25 250 50 0 empty empty empty 17 7 0 10 -4034 -1
-1;
#X text 808 36 <-- Conecta e gera número de ID aleatóŕio;
#X text 855 71 <-- gera número aleatório entre 0 e 100;
#X text 847 98 <-- armazena número aleatório;
#X text 951 119 <-- conecta no servidor OSC \, exibindo a coisa musical
para a rede;
#X text 1348 222 <-- INPUT message;
#X text 1213 368 <-- OUTPUT message;
#X text 847 514 <-- disconnect;
#X text 889 535 <-- número aleatório;
#X text 1252 568 <-- GOODBYE message;
#X text 1193 159 <-- apresenta a coisa musical na rede;
#X obj 103 461 osc/packOSC;
#X obj 37 504 mrpeach/net/udpsend;
#X msg 46 345 disconnect;
#X msg 103 432 send /audioplayer \$1;
#X obj 104 378 tgl 15 0 empty empty empty 17 7 0 10 -4034 -1 -1 0 1
;
#X obj 90 153 osc/packOSC;
#X obj 23 200 mrpeach/net/udpsend;
#X msg 35 64 disconnect;
#X msg 90 122 send /audioplayer \$1;
#X obj 90 96 tgl 15 0 empty empty empty 17 7 0 10 -258113 -1 -1 0 1
;
#X text 125 346 <-- Close connection;
#X text 122 377 <-- PLAY audio file;
#X text 250 432 <-- sends the command in OSC format;
#X text 188 460 <-- convert Pure Data message to OSC;
#X text 218 310 <-- Connect to the multicast address \, on the indicated
port;
#X text 179 503 <-- send OSC data packaged in UDP \, using the mr peach
library;
#X text 203 39 <-- Connect to the multicast address \, on the indicated
port;
#X text 116 64 <-- Close connection;
#X text 108 94 <-- PAUSE audio player;
#X text 235 123 <-- sends the command in OSC format;
#X text 175 155 <-- convert Pure Data message to OSC;
#X text 168 202 <-- send OSC data packaged in UDP \, using the mr peach
library;
#X msg 37 308 connect 224.0.0.251 40002;
#X msg 23 40 connect 224.0.0.251 40003;
#X msg 779 160 send /hello/\$1/192.168.0.10/AudioPlayerControlPlayStop
;
#X text 786 404 Standard OUTPUT message: /output/ID_number/IP_number/port_type_number/network_port_number/network_port_description/
;
#X text 793 261 Standard INPUT message: /input/ID_number/IP_number/port_type_number/musical_thing_type(audio)/sample_rate/bit_depth/audio_file_format/channel_number/port_number/port_description/network_protocol/music_protocol/human_name
;
#X text 1219 174 Standard HELLO message: /hello/id/ip/human_name;
#X msg 784 354 send /output/\$1/192.168.0.10/0/1/controller/40002/Play/40003/Stop/PlayStop/OSC/AudioPlayer
;
#X msg 781 212 send /input/\$1/192.168.0.10/0/controller/0/1/UDP/OSC/AudioPlayerControlPlayStop
- Inicia ou pausa a execução de uma trilha de áudio, f 80;
#X obj 780 99 value id6;
#X obj 821 535 value id6;
#X obj 773 858 route /hello /input /output /goodbye;
#X msg 821 560 /goodbye/\$1/192.168.0.10/AudioPlayer_control_PlayStop/disconnected
;
#X text 823 593 Standard GOODBYE message: /goodbye/ID_number/IP_number/human_name/status
;
#X connect 0 0 1 0;
#X connect 1 0 3 0;
#X connect 2 0 50 0;
#X connect 2 1 51 0;
#X connect 2 2 46 0;
#X connect 7 0 1 0;
#X connect 8 0 1 0;
#X connect 9 0 46 0;
#X connect 9 0 51 0;
#X connect 9 0 50 0;
#X connect 9 0 52 0;
#X connect 10 0 53 0;
#X connect 11 0 7 0;
#X connect 11 0 9 0;
#X connect 22 0 23 0;
#X connect 24 0 23 0;
#X connect 25 0 22 0;
#X connect 26 0 25 0;
#X connect 27 0 28 0;
#X connect 29 0 28 0;
#X connect 30 0 27 0;
#X connect 31 0 30 0;
#X connect 44 0 23 0;
#X connect 45 0 28 0;
#X connect 46 0 8 0;
#X connect 50 0 8 0;
#X connect 51 0 8 0;
#X connect 53 0 55 0;
#X connect 54 0 2 0;
#X connect 55 0 8 0;
#X connect 55 0 0 0;
