#N canvas 0 182 1920 987 12;
#X msg 56 93 disconnect;
#X obj 64 126 bng 15 250 50 0 empty empty empty 17 7 0 10 -260097 -1
-1;
#X obj 64 183 osc/packOSC;
#X obj 47 211 mrpeach/net/udpsend;
#X text 228 72 <-- Connect to the multicast address \, on the indicated
port;
#X text 132 93 <-- Close connection;
#X text 150 181 <-- convert Pure Data message to OSC;
#X text 193 211 <-- send OSC data packaged in UDP \, using the mr peach
library;
#X text 82 124 <-- restart audio track;
#X msg 64 149 send /restart \$1;
#X msg 47 73 connect 224.0.0.251 40006;
#X msg 741 630 disconnect;
#X obj 707 710 mrpeach/udpsend;
#X obj 705 804 t b b b;
#X obj 707 751 tgl 25 0 empty empty empty 17 7 0 10 -228856 -1 -1 0
1;
#X text 738 754 <-- connection status;
#X text 808 673 <-- pack messages on OSC format;
#X text 806 709 <-- send messages via network;
#X msg 710 110 connect 224.0.0.1 60000;
#X obj 709 672 mrpeach/packOSC;
#X obj 710 58 random 101;
#X obj 741 509 bng 18 250 50 0 empty empty empty 17 7 0 10 -258113
-1 -1;
#X msg 741 558 /hello/\$1/192.168.0.10/disconnected;
#X obj 710 21 bng 25 250 50 0 empty empty empty 17 7 0 10 -4034 -1
-1;
#X obj 712 86 value id;
#X obj 741 533 value id;
#X text 740 23 <-- Conecta e gera número de ID aleatóŕio;
#X text 787 58 <-- gera número aleatório entre 0 e 100;
#X text 774 85 <-- armazena número aleatório;
#X text 880 109 <-- conecta no servidor OSC \, exibindo a coisa musical
para a rede;
#X text 1281 206 <-- INPUT message;
#X text 1144 357 <-- OUTPUT message;
#X text 767 512 <-- disconnect;
#X text 803 531 <-- número aleatório;
#X text 999 558 <-- GOODBYE message;
#X text 748 583 Standard GOODBYE message: /hello/ID_number/IP_number/status
;
#X text 1125 146 <-- apresenta a coisa musical na rede;
#X msg 711 147 send /hello/\$1/192.168.0.10/AudioPlayerControlRestartTrack
;
#X text 728 406 Standard OUTPUT message: /output/ID_number/IP_number/port_type_number/network_port_number/network_port_description/
;
#X text 720 242 Standard INPUT message: /input/ID_number/IP_number/port_type_number/musical_thing_type(audio)/sample_rate/bit_depth/audio_file_format/channel_number/port_number/port_description/network_protocol/music_protocol/human_name
;
#X text 1153 160 Standard HELLO message: /hello/id/ip/human_name;
#X obj 705 845 route /hello /input /output;
#X msg 713 191 send /input/\$1/192.168.0.10/0/controller/1/UDP/OSC/AudioPlayerControlRestartTrack
- Reinicia a trilha de áudio, f 80;
#X msg 716 340 send /output/\$1/192.168.0.10/1/controller/40006/RestartTrack/OSC/AudioPlayer
;
#X connect 0 0 3 0;
#X connect 1 0 9 0;
#X connect 2 0 3 0;
#X connect 9 0 2 0;
#X connect 10 0 3 0;
#X connect 11 0 12 0;
#X connect 12 0 14 0;
#X connect 13 0 43 0;
#X connect 13 1 42 0;
#X connect 13 2 37 0;
#X connect 18 0 12 0;
#X connect 19 0 12 0;
#X connect 20 0 37 0;
#X connect 20 0 42 0;
#X connect 20 0 24 0;
#X connect 20 0 43 0;
#X connect 21 0 25 0;
#X connect 22 0 19 0;
#X connect 22 0 11 0;
#X connect 23 0 18 0;
#X connect 23 0 20 0;
#X connect 25 0 22 0;
#X connect 37 0 19 0;
#X connect 41 0 13 0;
#X connect 42 0 19 0;
#X connect 43 0 19 0;
