#N canvas 0 182 1920 987 10;
#X obj 120 208 osc/packOSC;
#X obj 52 247 mrpeach/net/udpsend;
#X msg 63 93 disconnect;
#X msg 120 180 send /recorder \$1;
#X obj 120 135 tgl 15 0 empty empty empty 17 7 0 10 -4034 -1 -1 0 1
;
#X obj 585 207 osc/packOSC;
#X obj 517 250 mrpeach/net/udpsend;
#X msg 528 92 disconnect;
#X msg 585 179 send /recorder \$1;
#X obj 585 134 tgl 15 0 empty empty empty 17 7 0 10 -258113 -1 -1 0
1;
#X text 606 131 <-- interrompe gravação;
#X text 234 55 <-- connect to multicast address;
#X text 140 132 <-- START recording;
#X text 233 179 <-- send message;
#X text 195 209 <-- pack message in OSC format;
#X text 172 248 <-- send OSC message via Network;
#X text 697 53 <-- connect to multicast address;
#X text 127 93 <-- close connection;
#X text 592 93 <-- close connection;
#X text 694 179 <-- send message;
#X text 660 208 <-- pack message in OSC format;
#X text 637 251 <-- send OSC message via Network;
#X msg 52 56 connect 224.0.0.251 40060;
#X msg 517 55 connect 224.0.0.251 40061;
#X text 1149 24 MANAGEMENT LAYER;
#X msg 1075 617 disconnect;
#X obj 1028 756 mrpeach/udpsend;
#X obj 1026 850 t b b b;
#X obj 1028 797 tgl 25 0 empty empty empty 17 7 0 10 -228856 -1 -1
0 1;
#X text 1059 800 <-- connection status;
#X text 1129 719 <-- pack messages on OSC format;
#X text 1127 755 <-- send messages via network;
#X msg 1031 156 connect 224.0.0.1 60000;
#X obj 1030 718 mrpeach/packOSC;
#X obj 1026 891 route /hello;
#X obj 1031 104 random 101;
#X obj 1075 496 bng 18 250 50 0 empty empty empty 17 7 0 10 -258113
-1 -1;
#X msg 1075 545 /hello/\$1/192.168.0.10/disconnected;
#X obj 1031 67 bng 25 250 50 0 empty empty empty 17 7 0 10 -4034 -1
-1;
#X obj 1033 132 value id;
#X obj 1075 520 value id;
#X text 1061 69 <-- Conecta e gera número de ID aleatóŕio;
#X text 1098 102 <-- gera número aleatório entre 0 e 100;
#X text 1091 132 <-- armazena número aleatório;
#X text 1179 154 <-- conecta no servidor OSC \, exibindo a coisa musical
para a rede;
#X text 1298 193 <-- apresenta a coisa musical na rede;
#X text 1522 225 <-- INPUT message;
#X text 1401 346 <-- OUTPUT message;
#X text 1101 499 <-- disconnect;
#X text 1129 520 <-- número aleatório;
#X text 1291 544 <-- GOODBYE message;
#X text 1082 570 Standard GOODBYE message: /hello/ID_number/IP_number/status
;
#X text 1043 255 Standar INPUT message: hello/ID_number/IP_Number/port_type/port_type_number/musical_thing_type/min_range/max_range/network_port/network_protocol/music_protocol/human_name/description
;
#X text 1047 384 Standard OUTPUT message: /hello/ID_number/IP_number/port_type(output)/port_type_number/network_port_number/musical_things_description/
;
#X msg 1032 193 send /hello/\$1/192.168.0.10/RecorderControl;
#X msg 1033 218 send /hello/\$1/192.168.0.10/input/0/controller/0/1/UDP/OSC/RecorderControl
- Liga ou desliga o gravador de forma remota, f 80;
#X msg 1035 334 send /hello/\$1/192.168.0.10/output/1/controller/40060/ON/40061/OFF/OSCmessage/Recorder
;
#X connect 0 0 1 0;
#X connect 2 0 1 0;
#X connect 3 0 0 0;
#X connect 4 0 3 0;
#X connect 5 0 6 0;
#X connect 7 0 6 0;
#X connect 8 0 5 0;
#X connect 9 0 8 0;
#X connect 22 0 1 0;
#X connect 23 0 6 0;
#X connect 25 0 26 0;
#X connect 26 0 28 0;
#X connect 27 0 56 0;
#X connect 27 1 55 0;
#X connect 27 2 54 0;
#X connect 32 0 26 0;
#X connect 33 0 26 0;
#X connect 34 0 27 0;
#X connect 35 0 54 0;
#X connect 35 0 55 0;
#X connect 35 0 56 0;
#X connect 35 0 39 0;
#X connect 36 0 40 0;
#X connect 37 0 33 0;
#X connect 37 0 25 0;
#X connect 38 0 32 0;
#X connect 38 0 35 0;
#X connect 40 0 37 0;
#X connect 54 0 33 0;
#X connect 55 0 33 0;
#X connect 56 0 33 0;
