#N canvas 0 182 1920 987 10;
#N canvas 0 50 450 250 (subpatch) 0;
#X array \$0-drumpattern 16 float 3;
#A 0 2 1 2 2 1 0 2 1 10 10 4 0 1 2 2 2;
#X coords 0 6 16 0 200 140 1 0 0;
#X restore 1357 30 graph;
#X obj 1357 222 array set \$0-drumpattern;
#X msg 1357 189 0 2 3 4 5 6 0 1 2 3 4 5 6 0 1 2;
#N canvas 434 230 450 468 counter 0;
#X obj 62 44 inlet;
#X obj 121 43 inlet;
#X obj 62 85 tgl 15 0 empty empty empty 17 7 0 10 -204786 -1 -1 0 1
;
#X floatatom 121 84 5 0 0 0 - - -;
#X text 158 86 BPM;
#X obj 62 118 t f b;
#X msg 121 118 tempo \$1 permin;
#X obj 62 154 metro 0.25 120 permin;
#X text 145 193 reset;
#X obj 62 224 f;
#X obj 113 223 + 1;
#X obj 62 277 % 16;
#X obj 62 320 outlet;
#X msg 117 192 0;
#X connect 0 0 2 0;
#X connect 1 0 3 0;
#X connect 2 0 5 0;
#X connect 3 0 6 0;
#X connect 5 0 7 0;
#X connect 5 1 13 0;
#X connect 6 0 7 0;
#X connect 7 0 9 0;
#X connect 9 0 10 0;
#X connect 9 0 11 0;
#X connect 10 0 9 1;
#X connect 11 0 12 0;
#X connect 13 0 9 1;
#X restore 319 173 pd counter;
#X obj 136 158 tgl 15 0 empty empty empty 17 7 0 10 -232576 -1 -1 0
1;
#X floatatom 644 156 5 0 0 0 - - -;
#X obj 242 225 hradio 15 1 0 16 empty empty empty 0 -8 0 10 -4032 -1
-1 13;
#X obj 242 300 array get \$0-drumpattern;
#X msg 312 256 1;
#X floatatom 242 340 5 0 0 0 - - -;
#X obj 242 381 + 0.5;
#X obj 242 419 int;
#X floatatom 242 451 5 0 0 0 - - -;
#X obj 242 501 select 0 1 2 3 4 5 6;
#N canvas 345 257 550 366 kick 0;
#X obj 50 38 inlet;
#X obj 132 39 inlet;
#X obj 50 79 bng 15 250 50 0 empty empty empty 17 7 0 10 -262144 -1
-1;
#X obj 117 115 f;
#X msg 50 153 150 \, 50 70 0;
#X obj 50 186 vline~;
#X msg 116 187 \$1 1 0 \, 0 100 1;
#X obj 50 220 osc~;
#X obj 116 220 vline~;
#X obj 50 254 *~;
#X obj 51 288 outlet~;
#X connect 0 0 2 0;
#X connect 1 0 3 1;
#X connect 2 0 3 0;
#X connect 2 0 4 0;
#X connect 3 0 6 0;
#X connect 4 0 5 0;
#X connect 5 0 7 0;
#X connect 6 0 8 0;
#X connect 7 0 9 0;
#X connect 8 0 9 1;
#X connect 9 0 10 0;
#X restore 242 575 pd kick;
#N canvas 627 370 692 446 snare 0;
#X obj 356 49 inlet;
#X obj 295 50 inlet;
#X obj 295 95 f;
#X msg 295 136 \$1 1 0 \, 0 150 1;
#X obj 295 176 vline~;
#X obj 296 218 *~;
#X obj 123 294 *~;
#X obj 124 336 outlet~;
#X obj 96 64 noise~;
#X obj 97 102 lop~ 3000;
#X obj 96 140 hip~ 1000;
#X obj 169 174 osc~ 180;
#X obj 168 202 *~ 0.5;
#X connect 0 0 2 1;
#X connect 1 0 2 0;
#X connect 2 0 3 0;
#X connect 3 0 4 0;
#X connect 4 0 5 0;
#X connect 4 0 5 1;
#X connect 5 0 6 1;
#X connect 6 0 7 0;
#X connect 8 0 9 0;
#X connect 9 0 10 0;
#X connect 10 0 6 0;
#X connect 11 0 12 0;
#X connect 12 0 6 0;
#X restore 303 576 pd snare;
#N canvas 639 329 714 502 hats 0;
#X obj 260 62 inlet;
#X obj 356 63 inlet;
#X obj 260 101 bng 15 250 50 0 empty empty empty 17 7 0 10 -262144
-1 -1;
#X obj 260 140 f;
#X obj 383 195 t f b;
#X obj 440 230 random 10;
#X obj 440 267 / 20;
#X obj 441 301 + 0.7;
#X obj 383 371 *;
#X msg 256 205 \$1 \, 0 40 1;
#X obj 256 248 vline~;
#X obj 137 303 *~;
#X obj 67 248 hip~ 10000;
#X obj 67 204 hip~ 20000;
#X obj 66 159 noise~;
#X obj 112 382 outlet~;
#X connect 0 0 2 0;
#X connect 1 0 3 1;
#X connect 2 0 3 0;
#X connect 3 0 4 0;
#X connect 4 0 8 0;
#X connect 4 1 5 0;
#X connect 5 0 6 0;
#X connect 6 0 7 0;
#X connect 7 0 8 1;
#X connect 8 0 9 0;
#X connect 9 0 10 0;
#X connect 10 0 11 1;
#X connect 11 0 15 0;
#X connect 12 0 11 0;
#X connect 13 0 12 0;
#X connect 14 0 13 0;
#X restore 374 578 pd hats;
#X floatatom 282 476 5 0 0 0 - - -;
#X floatatom 342 474 5 0 0 0 - - -;
#X floatatom 413 477 5 0 0 0 - - -;
#X msg 1359 249 4 0 2 10 5 10 2 0 2 10 4 0 5 10 6 10;
#X text 1584 249 kick groove;
#X msg 1361 279 4 10 2 10 5 10 2 2 2 10 4 10 5 0 2 2;
#X text 1585 278 Lay back;
#X msg 1363 307 4 2 4 2 5 2 4 5 2 5 4 5 5 4 2 5;
#X text 1554 307 funkky;
#X msg 1365 336 0 2 2 10 3 10 2 2 0 2 2 10 3 10 2 10;
#X text 1594 336 House;
#X msg 1367 364 0 1 2 2 1 0 2 1 10 10 4 0 1 2 2 2 0 10 2 10;
#X text 1637 364 UK Garage;
#X msg 1363 391 4 2 2 2 5 2 2 2 4 2 2 2 5 2 4 2;
#X text 1561 394 Rock;
#X obj 1364 428 array set \$0-drumpattern;
#X obj 278 652 +~;
#X text 307 652 mixer;
#X msg 391 766 disconnect;
#X floatatom 277 895 5 0 0 0 - - -;
#X obj 136 80 osc/unpackOSC;
#X obj 136 118 osc/routeOSC /drum;
#X text 16 157 ON/OFF via OSC -->;
#X msg 390 721 connect 239.255.255.250 3000;
#X obj 277 829 mrpeach/net/udpsend~ 2;
#X obj 644 81 osc/unpackOSC;
#X obj 644 119 osc/routeOSC /drum;
#X obj 136 48 mrpeach/net/udpreceive 40010;
#X obj 644 49 mrpeach/net/udpreceive 40011;
#X obj 726 403 osc/unpackOSC;
#X obj 726 366 mrpeach/net/udpreceive 40012;
#X obj 601 448 osc/routeOSC /kick;
#X obj 726 454 osc/routeOSC /snare;
#X obj 847 454 osc/routeOSC /hats;
#X text 317 47 <-- receive OSC control over network;
#X text 225 80 <-- convert OSC to Pure Data;
#X text 679 157 <-- BPM;
#X text 250 118 <-- receives OSC data in the variable 'drum';
#X text 759 119 <-- receives OSC data in the variable 'drum';
#X text 728 80 <-- convert OSC to Pure Data;
#X text 817 49 <-- receive OSC control over network;
#X text 485 223 <-- BPM pattern;
#X text 391 299 <-- sends the drum pattern to the hratio;
#X text 265 420 <-- convert the drum pattern value to type int;
#X text 269 451 <-- conversion result;
#X text 450 476 <-- kick \, snare and hi-hats volume;
#X text 958 453 <-- kick \, snare and hi-hats volume via OSC;
#X text 6 500 defines behavior for the elements -->;
#X text 563 721 <-- connect to multicast address;
#X text 458 765 <-- close connection;
#X text 414 829 <-- send audio to network;
#X text 310 895 <-- connection status;
#X text 1569 70 Drum pattern (ctrl + click to change);
#X text 1562 100 0 = kick \, 1 = snare \, 2 = hihat \, 3 = kick & snare
\, 4 = kick & hihat \, 5 = snare & hihat \, 6 = kick \, snare & hihat
;
#X text 1554 188 <-- send the message values to the drum pattern (can
be edited);
#X obj 1154 106 osc/unpackOSC;
#X obj 1154 74 mrpeach/net/udpreceive 40013;
#X obj 1154 144 osc/routeOSC /drum;
#X obj 1154 173 list;
#X text 1423 485 MANAGEMENT LAYER;
#X text 935 173 control drum pattern via network -->;
#X msg 1333 1133 disconnect;
#X obj 1302 1217 mrpeach/udpsend;
#X obj 1300 1311 t b b b;
#X obj 1302 1258 tgl 25 0 empty empty empty 17 7 0 10 -228856 -1 -1
0 1;
#X text 1333 1261 <-- connection status;
#X text 1403 1180 <-- pack messages on OSC format;
#X text 1401 1216 <-- send messages via network;
#X msg 1305 617 connect 224.0.0.1 60000;
#X obj 1304 1179 mrpeach/packOSC;
#X obj 1305 565 random 101;
#X obj 1333 1012 bng 18 250 50 0 empty empty empty 17 7 0 10 -258113
-1 -1;
#X msg 1333 1061 /hello/\$1/192.168.0.10/disconnected;
#X obj 1305 528 bng 25 250 50 0 empty empty empty 17 7 0 10 -4034 -1
-1;
#X obj 1307 593 value id;
#X obj 1333 1036 value id;
#X text 1335 530 <-- Conecta e gera número de ID aleatóŕio;
#X text 1372 563 <-- gera número aleatório entre 0 e 100;
#X text 1365 593 <-- armazena número aleatório;
#X text 1453 615 <-- conecta no servidor OSC \, exibindo a coisa musical
para a rede;
#X text 1550 650 <-- apresenta a coisa musical na rede;
#X text 1795 713 <-- INPUT message;
#X text 1675 845 <-- OUTPUT message;
#X text 1359 1015 <-- disconnect;
#X text 1387 1036 <-- número aleatório;
#X text 1549 1060 <-- GOODBYE message;
#X text 1352 1081 Standard GOODBYE message: /hello/ID_number/IP_number/status
;
#X msg 1306 654 send /hello/\$1/192.168.0.10/DrumMachine;
#X text 1312 883 Standard OUTPUT message: /output/ID_number/IP_number/port_type_number/network_port_number/network_port_description/
;
#X text 1315 746 Standard INPUT message: /input/ID_number/IP_number/port_type_number/musical_thing_type(audio)/sample_rate/bit_depth/audio_file_format/channel_number/port_number/port_description/network_protocol/music_protocol/human_name
;
#X text 1571 660 Standard HELLO message: /hello/id/ip/human_name;
#X obj 1300 1352 route /hello /input /output;
#X msg 1308 700 send /input/\$1/192.168.0.10/0/audio/44100/16bits/2/40010/OnOff/40011/BPM/40012/KickSnareHiHats/40013/DrumPattern/UDP/OSC/DrumMachine
, f 80;
#X msg 1307 836 send /output/\$1/192.168.0.10/1/audio/44100/16bits/2/3000/Loudspeaker
;
#X connect 2 0 1 0;
#X connect 3 0 6 0;
#X connect 4 0 3 0;
#X connect 5 0 3 1;
#X connect 6 0 7 0;
#X connect 7 0 9 0;
#X connect 8 0 7 1;
#X connect 9 0 10 0;
#X connect 10 0 11 0;
#X connect 11 0 12 0;
#X connect 12 0 13 0;
#X connect 13 0 14 0;
#X connect 13 1 15 0;
#X connect 13 2 15 0;
#X connect 13 2 16 0;
#X connect 13 3 14 0;
#X connect 13 4 14 0;
#X connect 13 4 16 0;
#X connect 13 5 15 0;
#X connect 13 5 16 0;
#X connect 13 6 14 0;
#X connect 13 6 15 0;
#X connect 13 6 16 0;
#X connect 14 0 33 0;
#X connect 15 0 33 0;
#X connect 16 0 33 0;
#X connect 17 0 14 1;
#X connect 18 0 15 1;
#X connect 19 0 16 1;
#X connect 20 0 32 0;
#X connect 22 0 32 0;
#X connect 24 0 32 0;
#X connect 26 0 32 0;
#X connect 28 0 32 0;
#X connect 30 0 32 0;
#X connect 33 0 41 0;
#X connect 35 0 41 0;
#X connect 37 0 38 0;
#X connect 38 0 4 0;
#X connect 40 0 41 0;
#X connect 41 0 36 0;
#X connect 42 0 43 0;
#X connect 43 0 5 0;
#X connect 44 0 37 0;
#X connect 45 0 42 0;
#X connect 46 0 48 0;
#X connect 46 0 49 0;
#X connect 46 0 50 0;
#X connect 47 0 46 0;
#X connect 48 0 17 0;
#X connect 49 0 18 0;
#X connect 50 0 19 0;
#X connect 72 0 74 0;
#X connect 73 0 72 0;
#X connect 74 0 75 0;
#X connect 75 0 32 0;
#X connect 78 0 79 0;
#X connect 79 0 81 0;
#X connect 80 0 110 0;
#X connect 80 1 109 0;
#X connect 80 2 104 0;
#X connect 85 0 79 0;
#X connect 86 0 79 0;
#X connect 87 0 104 0;
#X connect 87 0 109 0;
#X connect 87 0 110 0;
#X connect 87 0 91 0;
#X connect 88 0 92 0;
#X connect 89 0 86 0;
#X connect 89 0 78 0;
#X connect 90 0 85 0;
#X connect 90 0 87 0;
#X connect 92 0 89 0;
#X connect 104 0 86 0;
#X connect 108 0 80 0;
#X connect 109 0 86 0;
#X connect 110 0 86 0;
