#N canvas 0 182 1920 987 10;
#X obj 877 894 *~;
#X obj 935 894 *~;
#X obj 1230 763 vsl 15 128 0 127 0 0 empty empty empty 0 -9 0 10 -4034
-1 -1 0 1;
#N canvas 0 50 450 250 (subpatch) 0;
#X array channelL 1.31893e+06 float 0;
#X coords 0 1 1.31893e+06 -1 200 140 1;
#X restore 1601 194 graph;
#N canvas 0 50 450 250 (subpatch) 0;
#X array channelR 1.31893e+06 float 0;
#X coords 0 1 1.31893e+06 -1 200 140 1;
#X restore 1601 371 graph;
#X obj 878 121 openpanel;
#X obj 878 90 bng 15 250 50 0 empty empty empty 17 7 0 10 -4034 -1
-1;
#X msg 878 161 read -resize \$1 channelL channelR;
#X obj 878 201 soundfiler;
#X floatatom 911 234 12 0 0 0 - - -;
#X obj 878 294 expr 44100 / $f1;
#X obj 911 269 s sampleSize;
#X floatatom 901 338 12 0 0 0 - - -;
#X obj 878 421 phasor~;
#X obj 879 525 *~;
#X obj 945 496 r sampleSize;
#X obj 878 737 tabread4~ channelL;
#X obj 909 784 tabread4~ channelR;
#X obj 953 617 snapshot~;
#X obj 953 581 metro 50;
#X obj 953 549 tgl 15 0 empty empty empty 17 7 0 10 -4034 -1 -1 0 1
;
#X floatatom 953 646 12 0 0 0 - - -;
#X obj 953 674 /;
#X obj 1005 675 r sampleSize;
#X floatatom 953 712 5 0 0 0 - - -;
#X obj 1546 629 hsl 195 15 0 1 0 0 empty empty empty -2 -8 0 10 -159808
-1 -1 0 1;
#X obj 1073 399 hsl 128 15 -1 1 0 0 empty empty empty -2 -8 0 10 -204800
-1 -1 0 1;
#X floatatom 1070 423 5 0 0 0 - - -;
#X msg 1193 539 0;
#X msg 1193 568 0.5;
#X msg 771 393 0;
#X text 733 393 PAUSE;
#X msg 765 457 1;
#X obj 764 336 t b b;
#X obj 604 321 bng 15 250 50 0 empty empty empty 17 7 0 10 -258113
-1 -1;
#X msg 1070 373 0.0846098;
#X msg 1447 868 disconnect;
#X floatatom 1430 965 5 0 0 0 - - -;
#X obj 1530 41 osc/unpackOSC;
#X obj 1530 118 tgl 15 0 empty empty empty 17 7 0 10 -4034 -1 -1 0
1;
#X obj 1530 13 mrpeach/net/udpreceive 40002;
#X obj 1530 89 osc/routeOSC /audioplayer;
#X obj 705 653 osc/unpackOSC;
#X obj 705 696 osc/routeOSC /audioplayer;
#X obj 604 714 tgl 15 0 empty empty empty 17 7 0 10 -258113 -1 -1 0
1;
#X obj 705 620 mrpeach/net/udpreceive 40003;
#X obj 1230 711 osc/unpackOSC;
#X obj 1230 688 mrpeach/net/udpreceive 40000;
#X obj 1230 736 osc/routeOSC /volume;
#X msg 1430 828 connect 239.255.255.250 3000;
#X obj 1430 912 mrpeach/net/udpsend~ 2;
#X text 939 120 <-- open folder to select the audio file;
#X text 1082 162 <-- resizes the array to hold all audio samples;
#X text 944 200 <-- open audio file;
#X text 980 295 <-- sample rate;
#X text 978 335 <-- reads sample per second on the phasor (varies from
audio to audio);
#X text 1132 372 <-- PLAY / Speed control;
#X text 1205 396 <-- Speed vslider;
#X text 1216 539 <-- RESTART;
#X text 1219 568 <-- play the sample from the middle;
#X text 901 524 <-- receives phasor output;
#X text 968 548 <-- Turn on track timer;
#X text 1014 616 <-- position of the audio sample in track timer;
#X text 991 736 <-- play on the left channel;
#X text 1025 783 <-- play on the right channel;
#X text 1404 687 <-- allows volume control via network;
#X text 1604 827 <-- send message to the network's multicast address
;
#X text 1522 869 <-- disconnect;
#X text 1567 912 <-- sends audio data over the network;
#X text 1465 965 <-- connection status;
#X text 1746 629 <-- Track timer;
#X text 1804 432 <-- Right Channel;
#X text 1802 253 <-- Left Channel;
#X text 1547 117 <-- receives data from the Audio Player control via
network;
#X text 598 290 STOP \, then returns to begin;
#X text 602 756 STOP via network;
#X text 725 489 Increases speed;
#X text 1344 89 Send information to toggle -->;
#X text 1398 43 convert OSC to PD -->;
#X text 1344 14 Receive network connection -->;
#X text 873 920 sends the sound data to the network. Key piece in the
code shown here;
#X text 1252 831 <-- volume slider (0 - 127);
#X obj 878 15 mrpeach/net/udpreceive 40004;
#X obj 878 39 osc/unpackOSC;
#X obj 878 61 osc/routeOSC /audioplayer_openfile;
#X text 896 88 <-- Trigger openpanel via network;
#X text 1052 15 <-- receive control from network;
#X obj 1543 573 osc/unpackOSC;
#X obj 1543 598 osc/routeOSC /track_timer;
#X obj 1543 550 mrpeach/net/udpreceive 40005;
#X obj 1193 470 osc/unpackOSC;
#X obj 1193 447 mrpeach/net/udpreceive 40006;
#X obj 1193 495 osc/routeOSC /restart;
#X obj 1193 516 bng 15 250 50 0 empty empty empty 17 7 0 10 -260097
-1 -1;
#X text 1213 517 <-- Restart button;
#X text 1367 445 <-- receive message from network;
#X text 1718 549 <-- receive message from network;
#X text 69 16 MANAGEMENT LAYER;
#X msg 52 652 disconnect;
#X obj 15 734 mrpeach/udpsend;
#X obj 13 828 t b b b;
#X obj 15 775 tgl 25 0 empty empty empty 17 7 0 10 -228856 -1 -1 0
1;
#X text 46 778 <-- connection status;
#X text 116 697 <-- pack messages on OSC format;
#X text 114 733 <-- send messages via network;
#X msg 18 134 connect 224.0.0.1 60000;
#X obj 17 696 mrpeach/packOSC;
#X obj 18 82 random 101;
#X msg 19 171 send /hello/\$1/192.168.0.10/AudioPlayer;
#X obj 52 531 bng 18 250 50 0 empty empty empty 17 7 0 10 -258113 -1
-1;
#X msg 52 580 /hello/\$1/192.168.0.10/disconnected;
#X obj 18 45 bng 25 250 50 0 empty empty empty 17 7 0 10 -4034 -1 -1
;
#X obj 20 110 value id;
#X obj 52 555 value id;
#X text 48 47 <-- Conecta e gera número de ID aleatóŕio;
#X text 85 80 <-- gera número aleatório entre 0 e 100;
#X text 78 110 <-- armazena número aleatório;
#X text 166 132 <-- conecta no servidor OSC \, exibindo a coisa musical
para a rede;
#X text 264 163 <-- apresenta a coisa musical na rede;
#X text 511 214 <-- INPUT message;
#X text 390 361 <-- OUTPUT message;
#X text 78 534 <-- disconnect;
#X text 106 555 <-- número aleatório;
#X text 268 579 <-- GOODBYE message;
#X text 71 600 Standard GOODBYE message: /hello/ID_number/IP_number/status
;
#X text 35 397 Standard OUTPUT message: /output/ID_number/IP_number/port_type_number/network_port_number/network_port_description/
;
#X text 28 253 Standard INPUT message: /input/ID_number/IP_number/port_type_number/musical_thing_type(audio)/sample_rate/bit_depth/audio_file_format/channel_number/port_number/port_description/network_protocol/music_protocol/human_name
;
#X text 287 177 Standard HELLO message: /hello/id/ip/human_name;
#X msg 20 207 send /input/\$1/192.168.0.10/0/audio/44100/16bits/wav/2/4000/VOLUME/40002/PLAY/40003/START/40004/OpenPanel/40005/TrackTimer/40006/RESTART/UDP/OSC/AudioPlayer
, f 80;
#X msg 20 353 send /output/\$1/192.168.0.10/1/audio/44100/16bits/wav/2/3000/Loudspeaker
;
#X obj 13 875 route /hello /input /output;
#X connect 0 0 50 0;
#X connect 1 0 50 0;
#X connect 2 0 1 1;
#X connect 2 0 0 1;
#X connect 5 0 7 0;
#X connect 6 0 5 0;
#X connect 7 0 8 0;
#X connect 8 0 9 0;
#X connect 8 0 10 0;
#X connect 9 0 11 0;
#X connect 10 0 12 0;
#X connect 10 0 13 0;
#X connect 12 0 35 0;
#X connect 13 0 14 0;
#X connect 14 0 16 0;
#X connect 14 0 17 0;
#X connect 14 0 18 0;
#X connect 15 0 14 1;
#X connect 16 0 0 0;
#X connect 17 0 1 0;
#X connect 18 0 21 0;
#X connect 19 0 18 0;
#X connect 20 0 19 0;
#X connect 21 0 22 0;
#X connect 22 0 24 0;
#X connect 23 0 22 1;
#X connect 24 0 25 0;
#X connect 26 0 27 0;
#X connect 27 0 13 0;
#X connect 28 0 13 1;
#X connect 29 0 13 1;
#X connect 30 0 13 0;
#X connect 32 0 13 0;
#X connect 33 0 28 0;
#X connect 33 1 30 0;
#X connect 34 0 33 0;
#X connect 35 0 26 0;
#X connect 36 0 50 0;
#X connect 38 0 41 0;
#X connect 39 0 35 0;
#X connect 40 0 38 0;
#X connect 41 0 39 0;
#X connect 42 0 43 0;
#X connect 43 0 44 0;
#X connect 44 0 34 0;
#X connect 45 0 42 0;
#X connect 46 0 48 0;
#X connect 47 0 46 0;
#X connect 48 0 2 0;
#X connect 49 0 50 0;
#X connect 50 0 37 0;
#X connect 82 0 83 0;
#X connect 83 0 84 0;
#X connect 84 0 6 0;
#X connect 87 0 88 0;
#X connect 88 0 25 0;
#X connect 89 0 87 0;
#X connect 90 0 92 0;
#X connect 91 0 90 0;
#X connect 92 0 93 0;
#X connect 93 0 28 0;
#X connect 98 0 99 0;
#X connect 99 0 101 0;
#X connect 100 0 129 0;
#X connect 100 1 128 0;
#X connect 100 2 108 0;
#X connect 105 0 99 0;
#X connect 106 0 99 0;
#X connect 107 0 108 0;
#X connect 107 0 128 0;
#X connect 107 0 129 0;
#X connect 107 0 112 0;
#X connect 108 0 106 0;
#X connect 109 0 113 0;
#X connect 110 0 106 0;
#X connect 110 0 98 0;
#X connect 111 0 105 0;
#X connect 111 0 107 0;
#X connect 113 0 110 0;
#X connect 128 0 106 0;
#X connect 129 0 106 0;
#X connect 130 0 100 0;
