#N canvas 0 182 1920 987 12;
#X text 427 49 CONTROLADOR MIDI;
#X obj 281 105 notein;
#X floatatom 291 137 5 0 0 0 - - -;
#X floatatom 314 162 5 0 0 0 - - -;
#X floatatom 367 184 5 0 0 0 - - -;
#X obj 518 154 mtof;
#X text 555 152 <-- MIDI to frequency;
#X floatatom 518 189 5 0 0 0 - - -;
#X obj 246 364 mrpeach/net/udpsend;
#X msg 259 244 disconnect;
#X msg 274 277 send /midi_pitch \$1;
#X obj 274 306 osc/packOSC;
#X obj 562 224 ctlin;
#X floatatom 562 259 5 0 127 0 - - -;
#X floatatom 599 260 5 0 0 0 - - -;
#X floatatom 639 261 5 0 0 0 - - -;
#X obj 562 305 / 127;
#X floatatom 562 357 5 0 1 0 - - -;
#X text 346 163 <-- velocity;
#X obj 502 571 mrpeach/net/udpsend;
#X msg 510 480 disconnect;
#X obj 688 401 hsl 128 15 0 127 0 0 empty empty empty -2 -8 0 10 -4034
-1 -1 0 1;
#X obj 595 544 osc/packOSC;
#X msg 595 521 send /midi_vol \$1;
#X obj 811 56 key;
#X floatatom 807 85 5 0 0 0 - - -;
#X obj 860 55 keyname;
#X symbolatom 860 87 10 0 0 0 - - -;
#X text 328 104 <-- capture the note played by the MIDI controller
;
#X text 329 135 <-- pitch number;
#X text 405 184 <-- channel;
#X text 10 219 connect to multicast address -->;
#X text 110 245 close connection -->;
#X text 709 85 MIDI note -->;
#X text 936 91 <-- computer key;
#X text 558 186 <-- MIDI note frequency;
#X text 149 279 send message -->;
#X text 69 306 convert Pure Data to OSC -->;
#X text 41 364 send message via network -->;
#X text 606 222 <-- controls from the MIDI controller;
#X text 606 302 <-- division to match the range of the MIDI controller
with an oscillator;
#X text 679 259 <-- pitch number \, velocity and channel;
#X text 604 357 <-- only displays conversion value;
#X text 820 399 <-- changes volume via MIDI controller;
#X text 682 452 <-- connect to multicast address;
#X text 346 481 close connection -->;
#X text 722 521 <-- send message;
#X text 680 543 <-- convert Pure Data to OSC;
#X text 294 571 send message via network -->;
#X msg 502 451 connect 224.0.0.251 40054;
#X msg 246 221 connect 224.0.0.251 40053;
#X text 1334 19 MANAGEMENT LAYER;
#X msg 1291 668 disconnect;
#X obj 1213 751 mrpeach/udpsend;
#X obj 1211 845 t b b b;
#X obj 1213 792 tgl 25 0 empty empty empty 17 7 0 10 -228856 -1 -1
0 1;
#X text 1244 795 <-- connection status;
#X text 1330 712 <-- pack messages on OSC format;
#X text 1326 751 <-- send messages via network;
#X msg 1216 151 connect 224.0.0.1 60000;
#X obj 1215 713 mrpeach/packOSC;
#X obj 1216 99 random 101;
#X obj 1291 547 bng 18 250 50 0 empty empty empty 17 7 0 10 -258113
-1 -1;
#X obj 1216 62 bng 25 250 50 0 empty empty empty 17 7 0 10 -4034 -1
-1;
#X text 1246 64 <-- Conecta e gera número de ID aleatóŕio;
#X text 1298 100 <-- gera número aleatório entre 0 e 100;
#X text 1294 128 <-- armazena número aleatório;
#X text 1392 149 <-- conecta no servidor OSC \, exibindo a coisa musical
para a rede;
#X text 1567 198 <-- apresenta a coisa musical na rede;
#X text 1765 251 <-- INPUT message;
#X text 1657 402 <-- OUTPUT message;
#X text 1317 550 <-- disconnect;
#X text 1366 571 <-- número aleatório;
#X text 1712 596 <-- GOODBYE message;
#X msg 1218 202 send /hello/\$1/192.168.0.10/PitchforkControl_MIDI
;
#X text 1227 439 Standard OUTPUT message: /output/ID_number/IP_number/port_type_number/network_port_number/network_port_description/
;
#X text 1229 287 Standard INPUT message: /input/ID_number/IP_number/port_type_number/musical_thing_type(audio)/sample_rate/bit_depth/audio_file_format/channel_number/port_number/port_description/network_protocol/music_protocol/human_name
;
#X text 1583 213 Standard HELLO message: /hello/id/ip/human_name;
#X msg 1225 384 send /output/\$1/192.168.0.10/1/controller/40054/MIDImessage/Pitchfork
;
#X obj 1218 127 value id19;
#X obj 1291 571 value id19;
#X obj 1211 886 route /hello /input /output /goodbye;
#X msg 1291 596 /goodbye/\$1/192.168.0.10/PitchforkControl_MIDI/disconnected
;
#X text 1298 621 Standard GOODBYE message: /goodbye/ID_number/IP_number/status
;
#X msg 1219 240 send /input/\$1/192.168.0.10/0/controller/0/127/UDP/OSC/MIDI/PitchforckControlMIDI
, f 77;
#X connect 1 0 2 0;
#X connect 1 1 3 0;
#X connect 1 2 4 0;
#X connect 2 0 5 0;
#X connect 5 0 7 0;
#X connect 7 0 10 0;
#X connect 9 0 8 0;
#X connect 10 0 11 0;
#X connect 11 0 8 0;
#X connect 12 0 13 0;
#X connect 12 1 14 0;
#X connect 12 2 15 0;
#X connect 13 0 16 0;
#X connect 16 0 17 0;
#X connect 17 0 21 0;
#X connect 20 0 19 0;
#X connect 21 0 23 0;
#X connect 22 0 19 0;
#X connect 23 0 22 0;
#X connect 24 0 25 0;
#X connect 25 0 7 0;
#X connect 26 1 27 0;
#X connect 49 0 19 0;
#X connect 50 0 8 0;
#X connect 52 0 53 0;
#X connect 53 0 55 0;
#X connect 54 0 78 0;
#X connect 54 1 84 0;
#X connect 54 2 74 0;
#X connect 59 0 53 0;
#X connect 60 0 53 0;
#X connect 61 0 74 0;
#X connect 61 0 84 0;
#X connect 61 0 78 0;
#X connect 61 0 79 0;
#X connect 62 0 80 0;
#X connect 63 0 59 0;
#X connect 63 0 61 0;
#X connect 74 0 60 0;
#X connect 78 0 60 0;
#X connect 80 0 82 0;
#X connect 81 0 54 0;
#X connect 82 0 60 0;
#X connect 82 0 52 0;
#X connect 84 0 60 0;
