#N canvas 0 182 1920 987 12;
#X obj 427 24 import Gem;
#X msg 259 382 create \, 1;
#X msg 276 412 destroy;
#X obj 259 528 gemwin;
#X msg 273 443 dimen 500 500;
#X text 502 24 <-- import external Gem \, to allow video;
#X text 333 382 <-- create video object;
#X text 331 412 <-- close video object;
#X text 369 443 <-- screen dimensions;
#X text 398 560 <-- send video data to network;
#X text 307 525 <-- video object creator;
#X obj 259 345 tgl 15 0 empty empty empty 17 7 0 10 -4034 -1 -1 1 1
;
#X obj 259 267 osc/unpackOSC;
#X obj 588 343 tgl 15 0 empty empty empty 17 7 0 10 -258113 -1 -1 1
1;
#X obj 588 265 osc/unpackOSC;
#X text 605 340 <-- STOP video recording via OSC;
#X text 276 342 <-- START video recording OSC;
#X text 862 234 <-- receive OSC message from network;
#X text 687 265 <-- convert OSC message to Pure data;
#X text -1 236 receive OSC message from network -->;
#X text 0 266 convert OSC message to Pure data -->;
#X obj 588 303 osc/routeOSC /video_control_off;
#X obj 259 305 osc/routeOSC /video_control_on;
#X text 1241 3 MANAGEMENT LAYER;
#X msg 1195 653 disconnect;
#X obj 1168 728 mrpeach/udpsend;
#X obj 1166 822 t b b b;
#X obj 1168 769 tgl 25 0 empty empty empty 17 7 0 10 -228856 -1 -1
0 1;
#X text 1199 772 <-- connection status;
#X text 1284 688 <-- pack messages on OSC format;
#X text 1279 728 <-- send messages via network;
#X msg 1171 128 connect 224.0.0.1 60000;
#X obj 1170 690 mrpeach/packOSC;
#X obj 1171 76 random 101;
#X obj 1195 532 bng 18 250 50 0 empty empty empty 17 7 0 10 -258113
-1 -1;
#X obj 1171 39 bng 25 250 50 0 empty empty empty 17 7 0 10 -4034 -1
-1;
#X text 1740 268 <-- INPUT message;
#X text 1526 431 <-- OUTPUT message;
#X text 1221 535 <-- disconnect;
#X text 1550 580 <-- GOODBYE message;
#X msg 1172 165 send /hello/\$1/192.168.0.10/VideoSender;
#X text 1176 461 Standard OUTPUT message: /output/ID_number/IP_number/port_type_number/network_port_number/network_port_description/
;
#X text 1186 320 Standard INPUT message: /input/ID_number/IP_number/port_type_number/musical_thing_type(audio)/sample_rate/bit_depth/audio_file_format/channel_number/port_number/port_description/network_protocol/music_protocol/human_name
;
#X text 1471 186 Standard HELLO message: /hello/id/ip/human_name;
#X msg 1174 432 send /output/\$1/192.168.0.10/1/video/VideoReceive
;
#X obj 1173 104 value id25;
#X obj 1194 556 value id25;
#X obj 1166 863 route /hello /input /output /goodbye;
#X text 1202 606 Standard GOODBYE message: /goodbye/ID_number/IP_number/human_name/status
;
#X msg 1195 581 /goodbye/\$1/192.168.0.10/VideoSender/disconnected
;
#X text 1201 41 <-- connect and generates random ID number;
#X text 1245 74 <-- random ID number;
#X text 1251 103 <-- store random ID number;
#X text 1340 127 <-- connect to OSC server;
#X text 1456 164 <-- present musical thing to the network;
#X text 1271 556 <-- random ID number;
#X obj 259 561 mrpeach/net/udpsend;
#X obj 259 235 mrpeach/net/udpreceive 224.0.0.0 40100;
#X obj 588 233 mrpeach/net/udpreceive 224.0.0.0 40101;
#X msg 108 793 connect 224.0.0.10 3500;
#X msg 494 797 disconnect 224.0.0.10 3500;
#X floatatom 259 597 5 0 0 0 - - -;
#X text 300 597 <-- connection status;
#X obj 108 761 tgl 15 0 empty empty empty 17 7 0 10 -4034 -1 -1 1 1
;
#X obj 108 683 osc/unpackOSC;
#X obj 108 721 osc/routeOSC /video_control_on;
#X obj 108 651 mrpeach/net/udpreceive 224.0.0.0 40150;
#X obj 494 761 tgl 15 0 empty empty empty 17 7 0 10 -258113 -1 -1 1
1;
#X obj 494 683 osc/unpackOSC;
#X obj 494 721 osc/routeOSC /video_control_off;
#X obj 494 647 mrpeach/net/udpreceive 224.0.0.0 40151;
#X text 129 756 <-- Connect;
#X text 516 756 <-- Disconnect;
#X text 438 68 - SUBPATCH;
#X obj 442 968 osc/unpackOSC;
#X obj 442 995 osc/routeOSC /connection;
#X obj 442 1021 list;
#X text 44 925 receives OSC messages from the network \, at the multicast
address and on the specified port -->;
#X text 267 965 unpack OSC messages -->;
#X text 147 994 route the OSC message to this address -->;
#X text 219 1019 put the message into a list -->;
#X obj 440 1114 osc/unpackOSC;
#X obj 440 1167 list;
#X text 41 1073 receives OSC messages from the network \, at the multicast
address and on the specified port -->;
#X text 272 1114 unpack OSC messages -->;
#X text 148 1141 route the OSC message to this address -->;
#X text 213 1165 put the message into a list -->;
#X obj 440 1141 osc/routeOSC /disconnection;
#X obj 442 927 mrpeach/net/udpreceive 224.0.0.0 43023;
#X obj 440 1072 mrpeach/net/udpreceive 224.0.0.0 43025;
#X msg 1461 1145 vis 0;
#X obj 991 1087 tgl 15 0 empty empty empty 17 7 0 10 -4034 -1 -1 1
1;
#X obj 1461 1071 tgl 15 0 empty empty empty 17 7 0 10 -258113 -1 -1
1 1;
#X text 1011 1085 <-- OPEN;
#X msg 991 1118 vis 1;
#X text 1480 1070 <-- CLOSE;
#X obj 991 1000 osc/unpackOSC;
#X text 1266 974 <-- Receive OSC message;
#X text 1087 997 <-- convert OSC message to Pure Data;
#X obj 1461 999 osc/unpackOSC;
#X text 1736 972 <-- Receive OSC message;
#X text 1559 1000 <-- convert OSC message to Pure Data;
#X obj 991 1165 s pd-Video_Sender2;
#N canvas 1920 64 1366 704 Video_Sender2 0;
#X obj 444 22 import Gem;
#X msg 259 382 create \, 1;
#X msg 276 412 destroy;
#X obj 259 528 gemwin;
#X msg 273 443 dimen 500 500;
#X text 519 22 <-- import external Gem \, to allow video;
#X text 333 382 <-- create video object;
#X text 331 412 <-- close video object;
#X text 369 443 <-- screen dimensions;
#X text 398 560 <-- send video data to network;
#X text 307 525 <-- video object creator;
#X obj 259 345 tgl 15 0 empty empty empty 17 7 0 10 -4034 -1 -1 0 1
;
#X obj 259 267 osc/unpackOSC;
#X obj 591 338 tgl 15 0 empty empty empty 17 7 0 10 -258113 -1 -1 0
1;
#X obj 591 260 osc/unpackOSC;
#X text 608 335 <-- STOP video recording via OSC;
#X text 276 342 <-- START video recording OSC;
#X text 865 229 <-- receive OSC message from network;
#X text 690 260 <-- convert OSC message to Pure data;
#X text -1 236 receive OSC message from network -->;
#X text 0 266 convert OSC message to Pure data -->;
#X obj 591 298 osc/routeOSC /video_control_off;
#X obj 259 305 osc/routeOSC /video_control_on;
#X text 1241 3 MANAGEMENT LAYER;
#X msg 1195 653 disconnect;
#X obj 1168 728 mrpeach/udpsend;
#X obj 1166 822 t b b b;
#X obj 1168 769 tgl 25 0 empty empty empty 17 7 0 10 -228856 -1 -1
0 1;
#X text 1199 772 <-- connection status;
#X text 1284 688 <-- pack messages on OSC format;
#X text 1279 728 <-- send messages via network;
#X msg 1171 128 connect 224.0.0.1 60000;
#X obj 1170 690 mrpeach/packOSC;
#X obj 1171 76 random 101;
#X obj 1195 532 bng 18 250 50 0 empty empty empty 17 7 0 10 -258113
-1 -1;
#X obj 1171 39 bng 25 250 50 0 empty empty empty 17 7 0 10 -4034 -1
-1;
#X text 1744 267 <-- INPUT message;
#X text 1532 431 <-- OUTPUT message;
#X text 1221 535 <-- disconnect;
#X text 1550 580 <-- GOODBYE message;
#X text 1176 461 Standard OUTPUT message: /output/ID_number/IP_number/port_type_number/network_port_number/network_port_description/
;
#X text 1188 310 Standard INPUT message: /input/ID_number/IP_number/port_type_number/musical_thing_type(audio)/sample_rate/bit_depth/audio_file_format/channel_number/port_number/port_description/network_protocol/music_protocol/human_name
;
#X text 1487 180 Standard HELLO message: /hello/id/ip/human_name;
#X msg 1174 432 send /output/\$1/192.168.0.10/1/video/VideoReceive
;
#X obj 1166 863 route /hello /input /output /goodbye;
#X text 1202 606 Standard GOODBYE message: /goodbye/ID_number/IP_number/human_name/status
;
#X text 1201 41 <-- connect and generates random ID number;
#X text 1245 74 <-- random ID number;
#X text 1251 103 <-- store random ID number;
#X text 1340 127 <-- connect to OSC server;
#X text 1460 163 <-- present musical thing to the network;
#X text 1271 556 <-- random ID number;
#X obj 259 561 mrpeach/net/udpsend;
#X msg 108 796 connect 224.0.0.10 3500;
#X msg 469 803 disconnect 224.0.0.10 3500;
#X floatatom 259 597 5 0 0 0 - - -;
#X text 300 597 <-- connection status;
#X obj 108 764 tgl 15 0 empty empty empty 17 7 0 10 -4034 -1 -1 0 1
;
#X obj 108 686 osc/unpackOSC;
#X obj 108 724 osc/routeOSC /video_control_on;
#X obj 469 767 tgl 15 0 empty empty empty 17 7 0 10 -258113 -1 -1 0
1;
#X obj 469 689 osc/unpackOSC;
#X obj 469 727 osc/routeOSC /video_control_off;
#X text 129 759 <-- Connect;
#X text 488 764 <-- Disconnect;
#X obj 1173 104 value id42;
#X obj 1194 556 value id42;
#X obj 259 227 mrpeach/net/udpreceive 224.0.0.0 40120;
#X obj 591 228 mrpeach/net/udpreceive 224.0.0.0 40121;
#X msg 1172 165 send /hello/\$1/192.168.0.10/VideoSender2;
#X msg 1174 252 send /input/\$1/192.168.0.10/0/video/500x500/RGB/MPEG4/40120/START/40121/STOP/40170/ON/40171/OFF/UDP/OSC/VideoSender2
, f 80;
#X msg 1195 581 /goodbye/\$1/192.168.0.10/VideoSender2/disconnected
;
#X obj 469 656 mrpeach/net/udpreceive 224.0.0.0 40181;
#X obj 108 653 mrpeach/net/udpreceive 224.0.0.0 40180;
#X connect 1 0 3 0;
#X connect 2 0 3 0;
#X connect 3 0 52 0;
#X connect 4 0 3 0;
#X connect 11 0 1 0;
#X connect 12 0 22 0;
#X connect 13 0 2 0;
#X connect 14 0 21 0;
#X connect 21 0 13 0;
#X connect 22 0 11 0;
#X connect 24 0 25 0;
#X connect 25 0 27 0;
#X connect 26 0 43 0;
#X connect 26 1 70 0;
#X connect 26 2 69 0;
#X connect 31 0 25 0;
#X connect 32 0 25 0;
#X connect 33 0 69 0;
#X connect 33 0 70 0;
#X connect 33 0 43 0;
#X connect 33 0 65 0;
#X connect 34 0 66 0;
#X connect 35 0 31 0;
#X connect 35 0 33 0;
#X connect 43 0 32 0;
#X connect 44 0 26 0;
#X connect 52 0 55 0;
#X connect 53 0 52 0;
#X connect 54 0 52 0;
#X connect 57 0 53 0;
#X connect 58 0 59 0;
#X connect 59 0 57 0;
#X connect 60 0 54 0;
#X connect 61 0 62 0;
#X connect 62 0 60 0;
#X connect 66 0 71 0;
#X connect 67 0 12 0;
#X connect 68 0 14 0;
#X connect 69 0 32 0;
#X connect 70 0 32 0;
#X connect 71 0 32 0;
#X connect 71 0 24 0;
#X connect 72 0 61 0;
#X connect 73 0 58 0;
#X restore 425 102 pd Video_Sender2;
#X obj 991 1048 osc/routeOSC /video_control_on;
#X obj 1461 1033 osc/routeOSC /video_control_off;
#X obj 991 977 mrpeach/net/udpreceive 224.0.0.0 48888;
#X obj 1461 976 mrpeach/net/udpreceive 224.0.0.0 48889;
#X msg 1174 252 send /input/\$1/192.168.0.10/0/video/500x500/RGB/MPEG4/40100/START/40101/STOP/40150/ON/40151/43023/CONNECT_CLI/43025/DISCONNECT_CLI/48888/OPEN_SUBPATCH/48889/CLOSE_SUBPATCH/OFF/UDP/OSC/VideoSender
, f 80;
#X connect 1 0 3 0;
#X connect 2 0 3 0;
#X connect 3 0 56 0;
#X connect 4 0 3 0;
#X connect 11 0 1 0;
#X connect 12 0 22 0;
#X connect 13 0 2 0;
#X connect 14 0 21 0;
#X connect 21 0 13 0;
#X connect 22 0 11 0;
#X connect 24 0 25 0;
#X connect 25 0 27 0;
#X connect 26 0 44 0;
#X connect 26 1 108 0;
#X connect 26 2 40 0;
#X connect 31 0 25 0;
#X connect 32 0 25 0;
#X connect 33 0 40 0;
#X connect 33 0 108 0;
#X connect 33 0 44 0;
#X connect 33 0 45 0;
#X connect 34 0 46 0;
#X connect 35 0 31 0;
#X connect 35 0 33 0;
#X connect 40 0 32 0;
#X connect 44 0 32 0;
#X connect 46 0 49 0;
#X connect 47 0 26 0;
#X connect 49 0 32 0;
#X connect 49 0 24 0;
#X connect 56 0 61 0;
#X connect 57 0 12 0;
#X connect 58 0 14 0;
#X connect 59 0 56 0;
#X connect 60 0 56 0;
#X connect 63 0 59 0;
#X connect 64 0 65 0;
#X connect 65 0 63 0;
#X connect 66 0 64 0;
#X connect 67 0 60 0;
#X connect 68 0 69 0;
#X connect 69 0 67 0;
#X connect 70 0 68 0;
#X connect 74 0 75 0;
#X connect 75 0 76 0;
#X connect 76 0 59 0;
#X connect 81 0 87 0;
#X connect 82 0 60 0;
#X connect 87 0 82 0;
#X connect 88 0 74 0;
#X connect 89 0 81 0;
#X connect 90 0 102 0;
#X connect 91 0 94 0;
#X connect 92 0 90 0;
#X connect 94 0 102 0;
#X connect 96 0 104 0;
#X connect 99 0 105 0;
#X connect 104 0 91 0;
#X connect 105 0 92 0;
#X connect 106 0 96 0;
#X connect 107 0 99 0;
#X connect 108 0 32 0;
