#N canvas 0 182 1920 987 12;
#X obj 94 207 osc/packOSC;
#X obj 28 250 mrpeach/net/udpsend;
#X obj 94 123 tgl 15 0 empty empty empty 17 7 0 10 -4034 -1 -1 0 1
;
#X text 209 54 <-- connect to multicast address;
#X text 243 91 <-- close connection;
#X text 276 177 <-- prepare OSC message;
#X text 181 208 <-- convert Pure Data message to OSC;
#X text 173 251 <-- send OSC data packaged in UDP \, using the mrpeach
library;
#X obj 86 519 osc/packOSC;
#X obj 20 562 mrpeach/net/udpsend;
#X obj 86 435 tgl 15 0 empty empty empty 17 7 0 10 -258113 -1 -1 0
1;
#X text 202 364 <-- connect to multicast address;
#X text 236 404 <-- close connection;
#X text 275 490 <-- prepare OSC message;
#X text 173 520 <-- convert Pure Data message to OSC;
#X text 165 563 <-- send OSC data packaged in UDP \, using the mrpeach
library;
#X msg 94 178 send /video_control_on \$1;
#X msg 86 490 send /video_control_off \$1;
#X msg 20 365 connect 224.0.0.251 40101;
#X text 1362 23 MANAGEMENT LAYER;
#X msg 1275 882 disconnect;
#X obj 1254 951 mrpeach/udpsend;
#X obj 1252 1045 t b b b;
#X obj 1254 992 tgl 25 0 empty empty empty 17 7 0 10 -228856 -1 -1
0 1;
#X text 1285 995 <-- connection status;
#X text 1369 911 <-- pack messages on OSC format;
#X text 1369 952 <-- send messages via network;
#X msg 1244 155 connect 224.0.0.1 60000;
#X obj 1256 913 mrpeach/packOSC;
#X obj 1244 103 random 101;
#X obj 1275 761 bng 18 250 50 0 empty empty empty 17 7 0 10 -258113
-1 -1;
#X obj 1244 66 bng 25 250 50 0 empty empty empty 17 7 0 10 -4034 -1
-1;
#X text 1711 273 <-- INPUT message;
#X text 1692 634 <-- OUTPUT message;
#X text 1301 764 <-- disconnect;
#X text 1632 810 <-- GOODBYE message;
#X msg 1245 192 send /hello/\$1/192.168.0.10/VideoControl;
#X text 1268 686 Standard OUTPUT message: /output/ID_number/IP_number/port_type_number/network_port_number/network_port_description/
;
#X text 1566 210 Standard HELLO message: /hello/id/ip/human_name;
#X obj 1247 131 value id23;
#X obj 1275 785 value id23;
#X obj 1252 1086 route /hello /input /output /goodbye;
#X msg 1275 810 /goodbye/\$1/192.168.0.10/VideoControl/disconnected
;
#X text 1282 835 Standard GOODBYE message: /goodbye/ID_number/IP_number/human_name/status
;
#X floatatom 28 292 5 0 1 0 - - -;
#X text 70 292 <-- connection status;
#X floatatom 20 596 5 0 1 0 - - -;
#X text 69 597 <-- connection status;
#X obj 416 1414 osc/unpackOSC;
#X obj 416 1441 osc/routeOSC /connection;
#X obj 416 1467 list;
#X text 18 1371 receives OSC messages from the network \, at the multicast
address and on the specified port -->;
#X text 241 1411 unpack OSC messages -->;
#X text 121 1440 route the OSC message to this address -->;
#X text 193 1465 put the message into a list -->;
#X obj 414 1560 osc/unpackOSC;
#X obj 414 1613 list;
#X text 15 1519 receives OSC messages from the network \, at the multicast
address and on the specified port -->;
#X text 246 1560 unpack OSC messages -->;
#X text 122 1587 route the OSC message to this address -->;
#X text 187 1611 put the message into a list -->;
#X obj 414 1587 osc/routeOSC /disconnection;
#X msg 29 403 disconnect 224.0.0.251 40101;
#X obj 416 1373 mrpeach/net/udpreceive 224.0.0.0 55047;
#X obj 414 1518 mrpeach/net/udpreceive 224.0.0.0 55048;
#X text 1274 68 <-- Connect and generates random ID number;
#X text 1317 101 <-- generates random ID number;
#X text 1322 130 <-- store random ID number;
#X text 1414 154 <-- connect to OSC server;
#X text 1536 192 <-- presents musical thing in the network;
#X text 1349 783 <-- random ID number;
#X text 1274 474 Standard INPUT message: /input/ID_number/IP_number/port_type_number/musical_thing_type(audio)/sample_rate/bit_depth/audio_file_format/channel_number/IP_connection/port_number/port_description/network_protocol/music_protocol/human_name
;
#X msg 28 54 connect 224.0.0.0 40100;
#X msg 28 87 disconnect 224.0.0.0 40100;
#X obj 760 199 osc/packOSC;
#X obj 694 242 mrpeach/net/udpsend;
#X obj 760 115 tgl 15 0 empty empty empty 17 7 0 10 -4034 -1 -1 0 1
;
#X msg 760 170 send /video_control_on \$1;
#X floatatom 694 284 5 0 1 0 - - -;
#X text 109 120 <-- START video recording;
#X text 101 432 <-- STOP video recording;
#X text 781 112 <-- connect;
#X text 732 283 <-- connection status;
#X msg 694 46 connect 224.0.0.0 40150;
#X msg 694 79 disconnect 224.0.0.0 40150;
#X obj 759 488 osc/packOSC;
#X obj 693 531 mrpeach/net/udpsend;
#X obj 759 404 tgl 15 0 empty empty empty 17 7 0 10 -258113 -1 -1 0
1;
#X msg 759 459 send /video_control_off \$1;
#X floatatom 693 565 5 0 1 0 - - -;
#X text 742 566 <-- connection status;
#X text 784 402 <-- disconnect;
#X msg 693 334 connect 224.0.0.251 40151;
#X msg 702 372 disconnect 224.0.0.251 40151;
#X obj 409 1698 osc/unpackOSC;
#X obj 409 1725 osc/routeOSC /connection;
#X obj 409 1751 list;
#X text 11 1655 receives OSC messages from the network \, at the multicast
address and on the specified port -->;
#X text 234 1695 unpack OSC messages -->;
#X text 114 1724 route the OSC message to this address -->;
#X text 186 1749 put the message into a list -->;
#X obj 407 1844 osc/unpackOSC;
#X obj 407 1897 list;
#X text 8 1802 receives OSC messages from the network \, at the multicast
address and on the specified port -->;
#X text 239 1845 unpack OSC messages -->;
#X text 115 1871 route the OSC message to this address -->;
#X text 180 1895 put the message into a list -->;
#X obj 407 1871 osc/routeOSC /disconnection;
#X obj 409 1657 mrpeach/net/udpreceive 224.0.0.0 43021;
#X obj 407 1802 mrpeach/net/udpreceive 224.0.0.0 43022;
#X obj 104 800 osc/packOSC;
#X obj 38 843 mrpeach/net/udpsend;
#X obj 104 727 tgl 15 0 empty empty empty 17 7 0 10 -4034 -1 -1 0 1
;
#X text 219 648 <-- connect to multicast address;
#X text 252 683 <-- close connection;
#X text 290 771 <-- prepare to send message;
#X text 187 801 <-- pack message in a OSC format;
#X text 186 843 <-- send OSC packet via network \, using mrpeach library
;
#X floatatom 38 879 5 0 1 0 - - -;
#X text 79 880 <-- connection status;
#X obj 748 810 osc/packOSC;
#X obj 682 853 mrpeach/net/udpsend;
#X obj 748 737 tgl 15 0 empty empty empty 17 7 0 10 -258113 -1 -1 0
1;
#X text 865 652 <-- connect to multicast address;
#X text 887 683 <-- close connection;
#X text 939 781 <-- prepare to send message;
#X text 837 812 <-- pack message in a OSC format;
#X text 822 853 <-- send OSC packet via network \, using mrpeach library
;
#X floatatom 682 883 5 0 1 0 - - -;
#X text 722 887 <-- connection status;
#X obj 36 1042 osc/unpackOSC;
#X obj 36 1069 osc/routeOSC /connection;
#X obj 40 1096 list;
#X obj 34 1188 osc/unpackOSC;
#X obj 34 1241 list;
#X obj 34 1215 osc/routeOSC /disconnection;
#X obj 681 1052 osc/unpackOSC;
#X obj 681 1079 osc/routeOSC /connection;
#X obj 680 1112 list;
#X obj 679 1198 osc/unpackOSC;
#X obj 679 1251 list;
#X obj 679 1225 osc/routeOSC /disconnection;
#X msg 38 647 connect 224.0.0.0 48888;
#X msg 52 683 disconnect 224.0.0.0 48888;
#X msg 682 652 connect 224.0.0.0 48889;
#X msg 691 685 disconnect 224.0.0.0 48889;
#X msg 104 771 send /video_control_on \$1;
#X msg 748 781 send /video_control_off \$1;
#X obj 681 1011 mrpeach/net/udpreceive 224.0.0.0 37789;
#X obj 37 1001 mrpeach/net/udpreceive 224.0.0.0 37788;
#X obj 34 1145 mrpeach/net/udpreceive 224.0.0.0 37790;
#X obj 679 1156 mrpeach/net/udpreceive 224.0.0.0 37791;
#X text 121 726 <-- OPEN - SUBPATCH [Video_Sender2];
#X text 769 736 <-- CLOSE - SUBPATCH [Video_Sender2];
#X obj 1206 1412 osc/unpackOSC;
#X obj 1206 1439 osc/routeOSC /connection;
#X obj 1206 1465 list;
#X text 808 1369 receives OSC messages from the network \, at the multicast
address and on the specified port -->;
#X text 1031 1409 unpack OSC messages -->;
#X text 911 1438 route the OSC message to this address -->;
#X text 983 1463 put the message into a list -->;
#X obj 1204 1558 osc/unpackOSC;
#X obj 1204 1611 list;
#X text 805 1517 receives OSC messages from the network \, at the multicast
address and on the specified port -->;
#X text 1036 1558 unpack OSC messages -->;
#X text 912 1585 route the OSC message to this address -->;
#X text 977 1609 put the message into a list -->;
#X obj 1204 1585 osc/routeOSC /disconnection;
#X obj 1199 1696 osc/unpackOSC;
#X obj 1199 1723 osc/routeOSC /connection;
#X obj 1199 1749 list;
#X text 801 1653 receives OSC messages from the network \, at the multicast
address and on the specified port -->;
#X text 1024 1693 unpack OSC messages -->;
#X text 904 1722 route the OSC message to this address -->;
#X text 976 1747 put the message into a list -->;
#X obj 1197 1842 osc/unpackOSC;
#X obj 1197 1895 list;
#X text 798 1801 receives OSC messages from the network \, at the multicast
address and on the specified port -->;
#X text 1029 1842 unpack OSC messages -->;
#X text 905 1869 route the OSC message to this address -->;
#X text 970 1893 put the message into a list -->;
#X obj 1197 1869 osc/routeOSC /disconnection;
#X obj 1206 1371 mrpeach/net/udpreceive 224.0.0.0 25527;
#X obj 1199 1655 mrpeach/net/udpreceive 224.0.0.0 25528;
#X obj 1204 1516 mrpeach/net/udpreceive 224.0.0.0 25529;
#X obj 1197 1800 mrpeach/net/udpreceive 224.0.0.0 25530;
#X obj 94 2161 osc/packOSC;
#X obj 28 2204 mrpeach/net/udpsend;
#X obj 94 2088 tgl 15 0 empty empty empty 17 7 0 10 -4034 -1 -1 0 1
;
#X text 209 2009 <-- connect to multicast address;
#X text 242 2044 <-- close connection;
#X text 256 2130 <-- prepare to send message;
#X text 178 2161 <-- pack message in a OSC format;
#X text 165 2203 <-- send OSC packet via network \, using mrpeach library
;
#X floatatom 28 2240 5 0 1 0 - - -;
#X text 69 2241 <-- connection status;
#X obj 701 2158 osc/packOSC;
#X obj 635 2201 mrpeach/net/udpsend;
#X obj 701 2085 tgl 15 0 empty empty empty 17 7 0 10 -258113 -1 -1
0 1;
#X text 818 2000 <-- connect to multicast address;
#X text 841 2034 <-- close connection;
#X text 863 2128 <-- prepare to send message;
#X text 787 2158 <-- pack message in a OSC format;
#X text 757 2202 <-- send OSC packet via network \, using mrpeach library
;
#X floatatom 635 2231 5 0 1 0 - - -;
#X text 675 2235 <-- connection status;
#X obj 26 2403 osc/unpackOSC;
#X obj 26 2430 osc/routeOSC /connection;
#X obj 26 2456 list;
#X obj 24 2549 osc/unpackOSC;
#X obj 24 2602 list;
#X obj 24 2576 osc/routeOSC /disconnection;
#X obj 634 2400 osc/unpackOSC;
#X obj 634 2427 osc/routeOSC /connection;
#X obj 634 2453 list;
#X obj 632 2546 osc/unpackOSC;
#X obj 631 2608 list;
#X obj 632 2573 osc/routeOSC /disconnection;
#X msg 28 2008 connect 224.0.0.0 3600;
#X msg 42 2044 disconnect 224.0.0.0 3600;
#X msg 635 2000 connect 224.0.0.0 3601;
#X msg 644 2033 disconnect 224.0.0.0 3601;
#X text 111 2086 <-- OPEN - SUBPATCH [Video_Receive2];
#X text 722 2084 <-- CLOSE - SUBPATCH [Video_Receive2];
#X msg 94 2132 send /video_receive \$1;
#X msg 701 2129 send /video_receive \$1;
#X obj 26 2362 mrpeach/net/udpreceive 224.0.0.0 3666;
#X obj 24 2507 mrpeach/net/udpreceive 224.0.0.0 3667;
#X obj 634 2359 mrpeach/net/udpreceive 224.0.0.0 3668;
#X obj 632 2504 mrpeach/net/udpreceive 224.0.0.0 3669;
#X msg 1261 607 send /output/\$1/192.168.0.10/1/controller/3600/OPEN_SUBPATCH_VIDEO_RECEIVE2/3601/CLOSE_SUBPATCH_VIDEO_RECEIVE2/40100/START/40101/STOP/40150/ON/40151/OFF/48888/OPEN_SUBPATCH/48889/CLOSE_SUBPATCH/OSCmessage/Video_sender
;
#X msg 1246 259 send /input/\$1/192.168.0.10/0/controller/0/1/224.0.0.0/3666/CONNECT_OPEN_SUBPATCH_VIDEO_RECEIVE2/3667/DISCONNECT_OPEN_SUBPATCH_VIDEO_RECEIVE2/3668/CONNECT_CLOSE_VIDEO_RECEIVE2/3669/DISCONNECT_CLOSE_VIDEO_RECEIVE2/43021/DISCONNECT_START_CLI/43022/DISCONNECT_STOP_CLI/3666/CONNECT_OPEN_SUBPATCH_VIDEO_RECEIVE2/3667/DISCONNECT_OPEN_SUBPATCH_VIDEO_RECEIVE2/3668/CONNECT_CLOSE_SUBPATCH_VIDEO_RECEIVE2/3669/DISCONNECT_CLOSE_SUBPATCH_VIDEO_RECEIVE2/25527/CONNECT_ON_CLI/25528/CONNECT_OFF_CLI/25529/DISCONNECT_ON_CLI/25530/DISCONNECT_OFF_CLI/37788/CONNECT_OPEN_SUBPATCH/37789/CONNECT_CLOSE_SUBPATCH/37790/DISCONNECT_OPEN_SUBPATCH/37791/DISCONNECT_CLOSE_SUBPATCH/55047/CONNECT_START_CLI/55048/CONNECT_STOP_CLI/UDP/OSC/VideoControl
, f 65;
#X text 136 1041 <-- unpack OSC messages;
#X text 221 1072 <-- route the OSC message to this address;
#X text 77 1099 <-- put the message into a list (allows connection
using CLI);
#X text 313 999 <-- receive OSC messages to network;
#X text 782 1053 <-- unpack OSC messages;
#X text 861 1084 <-- route the OSC message to this address;
#X text 717 1111 <-- put the message into a list (allows connection
using CLI);
#X text 959 1014 <-- receive OSC messages to network;
#X text 125 2400 <-- unpack OSC messages;
#X text 207 2430 <-- route the OSC message to this address;
#X text 63 2457 <-- put the message into a list (allows connection
using CLI);
#X text 297 2364 <-- receive OSC messages to network;
#X text 735 2399 <-- unpack OSC messages;
#X text 814 2424 <-- route the OSC message to this address;
#X text 670 2451 <-- put the message into a list (allows connection
using CLI);
#X text 904 2358 <-- receive OSC messages to network;
#X text 127 2548 <-- unpack OSC messages;
#X text 220 2575 <-- route the OSC message to this address;
#X text 66 2602 <-- put the message into a list (allows connection
using CLI);
#X text 291 2507 <-- receive OSC messages to network;
#X text 731 2545 <-- unpack OSC messages;
#X text 830 2574 <-- route the OSC message to this address;
#X text 670 2608 <-- put the message into a list (allows connection
using CLI);
#X text 900 2504 <-- receive OSC messages to network;
#X connect 0 0 1 0;
#X connect 1 0 44 0;
#X connect 2 0 16 0;
#X connect 8 0 9 0;
#X connect 9 0 46 0;
#X connect 10 0 17 0;
#X connect 16 0 0 0;
#X connect 17 0 8 0;
#X connect 18 0 9 0;
#X connect 20 0 21 0;
#X connect 21 0 23 0;
#X connect 22 0 230 0;
#X connect 22 1 231 0;
#X connect 22 2 36 0;
#X connect 27 0 21 0;
#X connect 28 0 21 0;
#X connect 29 0 36 0;
#X connect 29 0 231 0;
#X connect 29 0 230 0;
#X connect 29 0 39 0;
#X connect 30 0 40 0;
#X connect 31 0 27 0;
#X connect 31 0 29 0;
#X connect 36 0 28 0;
#X connect 40 0 42 0;
#X connect 41 0 22 0;
#X connect 42 0 28 0;
#X connect 42 0 20 0;
#X connect 48 0 49 0;
#X connect 49 0 50 0;
#X connect 50 0 72 0;
#X connect 55 0 61 0;
#X connect 56 0 18 0;
#X connect 61 0 56 0;
#X connect 62 0 9 0;
#X connect 63 0 48 0;
#X connect 64 0 55 0;
#X connect 72 0 1 0;
#X connect 73 0 1 0;
#X connect 74 0 75 0;
#X connect 75 0 78 0;
#X connect 76 0 77 0;
#X connect 77 0 74 0;
#X connect 83 0 75 0;
#X connect 84 0 75 0;
#X connect 85 0 86 0;
#X connect 86 0 89 0;
#X connect 87 0 88 0;
#X connect 88 0 85 0;
#X connect 92 0 86 0;
#X connect 93 0 86 0;
#X connect 94 0 95 0;
#X connect 95 0 96 0;
#X connect 96 0 73 0;
#X connect 101 0 107 0;
#X connect 102 0 62 0;
#X connect 107 0 102 0;
#X connect 108 0 94 0;
#X connect 109 0 101 0;
#X connect 110 0 111 0;
#X connect 111 0 118 0;
#X connect 112 0 146 0;
#X connect 120 0 121 0;
#X connect 121 0 128 0;
#X connect 122 0 147 0;
#X connect 130 0 131 0;
#X connect 131 0 132 0;
#X connect 132 0 142 0;
#X connect 133 0 135 0;
#X connect 134 0 143 0;
#X connect 135 0 134 0;
#X connect 136 0 137 0;
#X connect 137 0 138 0;
#X connect 138 0 144 0;
#X connect 139 0 141 0;
#X connect 140 0 145 0;
#X connect 141 0 140 0;
#X connect 142 0 111 0;
#X connect 143 0 111 0;
#X connect 144 0 121 0;
#X connect 145 0 121 0;
#X connect 146 0 110 0;
#X connect 147 0 120 0;
#X connect 148 0 136 0;
#X connect 149 0 130 0;
#X connect 150 0 133 0;
#X connect 151 0 139 0;
#X connect 154 0 155 0;
#X connect 155 0 156 0;
#X connect 156 0 83 0;
#X connect 161 0 167 0;
#X connect 162 0 84 0;
#X connect 167 0 162 0;
#X connect 168 0 169 0;
#X connect 169 0 170 0;
#X connect 170 0 92 0;
#X connect 175 0 181 0;
#X connect 176 0 93 0;
#X connect 181 0 176 0;
#X connect 182 0 154 0;
#X connect 183 0 168 0;
#X connect 184 0 161 0;
#X connect 185 0 175 0;
#X connect 186 0 187 0;
#X connect 187 0 194 0;
#X connect 188 0 224 0;
#X connect 196 0 197 0;
#X connect 197 0 204 0;
#X connect 198 0 225 0;
#X connect 206 0 207 0;
#X connect 207 0 208 0;
#X connect 208 0 218 0;
#X connect 209 0 211 0;
#X connect 210 0 219 0;
#X connect 211 0 210 0;
#X connect 212 0 213 0;
#X connect 213 0 214 0;
#X connect 214 0 220 0;
#X connect 215 0 217 0;
#X connect 216 0 221 0;
#X connect 217 0 216 0;
#X connect 218 0 187 0;
#X connect 219 0 187 0;
#X connect 220 0 197 0;
#X connect 221 0 197 0;
#X connect 224 0 186 0;
#X connect 225 0 196 0;
#X connect 226 0 206 0;
#X connect 227 0 209 0;
#X connect 228 0 212 0;
#X connect 229 0 215 0;
#X connect 230 0 28 0;
#X connect 231 0 28 0;
