#N canvas 0 182 1920 987 12;
#X text 1202 8 MANAGEMENT LAYER;
#X msg 1127 658 disconnect;
#X obj 1081 740 mrpeach/udpsend;
#X obj 1079 834 t b b b;
#X obj 1081 781 tgl 25 0 empty empty empty 17 7 0 10 -228856 -1 -1
0 1;
#X text 1112 784 <-- connection status;
#X text 1197 700 <-- pack messages on OSC format;
#X text 1193 739 <-- send messages via network;
#X msg 1084 140 connect 224.0.0.1 60000;
#X obj 1083 702 mrpeach/packOSC;
#X obj 1084 88 random 101;
#X obj 1127 537 bng 18 250 50 0 empty empty empty 17 7 0 10 -258113
-1 -1;
#X obj 1084 51 bng 25 250 50 0 empty empty empty 17 7 0 10 -4034 -1
-1;
#X text 1648 251 <-- INPUT message;
#X text 1528 404 <-- OUTPUT message;
#X text 1153 540 <-- disconnect;
#X text 1557 592 <-- GOODBYE message;
#X obj 251 137 bng 15 250 50 0 empty empty empty 17 7 0 10 -4034 -1
-1;
#X msg 251 171 send /audioplayer_openfile \$1;
#X obj 251 205 osc/packOSC;
#X obj 205 261 mrpeach/net/udpsend;
#X text 386 79 <-- Connect to the multicast address \, on the indicated
port;
#X text 424 107 <-- Close connection;
#X text 268 134 <-- open audio file folder;
#X text 460 170 <-- sends the command in OSC format;
#X text 334 203 <-- convert Pure Data message to OSC;
#X text 346 260 <-- send OSC data packaged in UDP \, using the mr peach
library;
#X msg 205 80 connect 224.0.0.251 40004;
#X msg 1085 177 send /hello/\$1/192.168.0.10/AudioPlayerControlOpenFile
;
#X text 1100 444 Standard OUTPUT message: /output/ID_number/IP_number/port_type_number/network_port_number/network_port_description/
;
#X text 1501 193 Standard HELLO message: /hello/id/ip/human_name;
#X msg 1090 391 send /output/\$1/192.168.0.10/1/controller/40004/Open/OSC/AudioPlayer
;
#X obj 1086 116 value id5;
#X obj 1127 561 value id5;
#X obj 1079 875 route /hello /input /output /goodbye;
#X msg 1127 586 /goodbye/\$1/192.168.0.10/AudioPlayer_control_OpenFiledisconnected
;
#X text 1129 620 Standard GOODBYE message: /goodbye/ID_number/IP_number/human_name/status
;
#X obj 575 391 osc/unpackOSC;
#X obj 575 418 osc/routeOSC /connection;
#X obj 575 444 list;
#X obj 572 526 osc/unpackOSC;
#X obj 572 579 list;
#X obj 572 553 osc/routeOSC /disconnection;
#X text 173 345 receives OSC messages from the network \, at the multicast
address and on the specified port -->;
#X text 407 390 unpack OSC messages -->;
#X text 283 419 route the OSC message to this address -->;
#X text 352 443 put the message into a list -->;
#X obj 575 350 mrpeach/net/udpreceive 224.0.0.0 55003;
#X text 172 495 receives OSC messages from the network \, on the multicast
address and on the specified port -->;
#X text 398 527 unpacks OSC messages -->;
#X text 277 552 route the OSC message to this address -->;
#X text 346 577 put the message into a list -->;
#X msg 217 108 disconnect 224.0.0.251 40004;
#X floatatom 203 292 5 0 1 0 - - -;
#X text 47 291 connection status -->;
#X obj 572 498 mrpeach/net/udpreceive 224.0.0.0 55004;
#X text 1114 53 <-- Connect and generate a random ID number;
#X text 1161 88 <-- generates random number between 0 and 100;
#X text 1156 116 <-- store random ID number;
#X text 1256 138 <-- connects to the OSC server \, displaying the musical
thing to the network;
#X text 1476 176 <-- presents the musical thing on the nework;
#X text 1196 561 <-- store random ID number;
#X text 1105 290 Standard INPUT message: /input/ID_number/IP_number/port_type_number/musical_thing_type(audio)/sample_rate/bit_depth/audio_file_format/channel_number/IP_connection/port_number/port_description/network_protocol/music_protocol/human_name
;
#X msg 1085 239 send /input/\$1/192.168.0.10/0/controller/0/1/224.0.0.0/55003/ON_CLI/55004/OFF_CLI/UDP/OSC/AudioPlayerControlOpenFILE
, f 79;
#X connect 1 0 2 0;
#X connect 2 0 4 0;
#X connect 3 0 31 0;
#X connect 3 1 63 0;
#X connect 3 2 28 0;
#X connect 8 0 2 0;
#X connect 9 0 2 0;
#X connect 10 0 28 0;
#X connect 10 0 63 0;
#X connect 10 0 31 0;
#X connect 10 0 32 0;
#X connect 11 0 33 0;
#X connect 12 0 8 0;
#X connect 12 0 10 0;
#X connect 17 0 18 0;
#X connect 18 0 19 0;
#X connect 19 0 20 0;
#X connect 20 0 53 0;
#X connect 27 0 20 0;
#X connect 28 0 9 0;
#X connect 31 0 9 0;
#X connect 33 0 35 0;
#X connect 34 0 3 0;
#X connect 35 0 9 0;
#X connect 35 0 1 0;
#X connect 37 0 38 0;
#X connect 38 0 39 0;
#X connect 39 0 27 0;
#X connect 40 0 42 0;
#X connect 41 0 52 0;
#X connect 42 0 41 0;
#X connect 47 0 37 0;
#X connect 52 0 20 0;
#X connect 55 0 40 0;
#X connect 63 0 9 0;
