#N canvas 0 182 1920 987 10;
#X obj 38 114 dac~;
#X obj 37 45 mrpeach/net/udpreceive~ 3000 2;
#X text 69 114 <-- Audio output;
#X text 224 45 <-- Receive audio from network \; port number \; channel
number;
#X text 603 21 MANAGEMENT LAYER;
#X msg 529 598 disconnect;
#X obj 482 663 mrpeach/udpsend;
#X obj 478 759 t b b b;
#X obj 482 704 tgl 25 0 empty empty empty 17 7 0 10 -228856 -1 -1 0
1;
#X text 513 707 <-- connection status;
#X text 583 626 <-- pack messages on OSC format;
#X text 581 662 <-- send messages via network;
#X msg 485 153 connect 224.0.0.1 60000;
#X obj 484 625 mrpeach/packOSC;
#X obj 485 101 random 101;
#X obj 529 493 bng 18 250 50 0 empty empty empty 17 7 0 10 -258113
-1 -1;
#X obj 485 64 bng 25 250 50 0 empty empty empty 17 7 0 10 -4034 -1
-1;
#X text 515 66 <-- Conecta e gera número de ID aleatóŕio;
#X text 552 99 <-- gera número aleatório entre 0 e 100;
#X text 552 128 <-- armazena número aleatório;
#X text 633 151 <-- conecta no servidor OSC \, exibindo a coisa musical
para a rede;
#X text 737 190 <-- apresenta a coisa musical na rede;
#X text 976 247 <-- INPUT message;
#X text 857 384 <-- OUTPUT message;
#X text 555 496 <-- disconnect;
#X text 594 517 <-- número aleatório;
#X text 833 541 <-- GOODBYE message;
#X msg 486 190 send /hello/\$1/192.168.0.10/Loudspeaker;
#X text 493 419 Standard OUTPUT message: /output/ID_number/IP_number/port_type_number/network_port_number/network_port_description/
;
#X text 493 285 Standard INPUT message: /input/ID_number/IP_number/port_type_number/musical_thing_type(audio)/sample_rate/bit_depth/audio_file_format/channel_number/port_number/port_description/network_protocol/music_protocol/human_name
;
#X text 763 203 Standard HELLO message: /hello/id/ip/human_name;
#X msg 487 229 send /input/\$1/192.168.0.10/0/audio/44100/16bits/wav/2/40002/AudioPlayerSound/40010/DrumMachineSound/40020/GuitarXBassSound/40030/MicrophoneSound/40051/PitchforkSound/UDP/OSC/DrumMachine
, f 80;
#X msg 487 372 send /output/\$1/192.168.0.10/1/audio/44100/16bits/wav/2/3000/Loudspeaker
;
#X obj 487 129 value id14;
#X obj 529 517 value id14;
#X obj 478 788 route /hello /input /output /goodbye;
#X msg 529 542 /goodbye/\$1/192.168.0.10/Loudspeaker/disconnected;
#X text 548 562 Standard GOODBYE message: /goodbye/ID_number/IP_number/human_name/status
;
#X connect 1 0 0 0;
#X connect 1 0 0 1;
#X connect 5 0 6 0;
#X connect 6 0 8 0;
#X connect 7 0 32 0;
#X connect 7 1 31 0;
#X connect 7 2 27 0;
#X connect 12 0 6 0;
#X connect 13 0 6 0;
#X connect 14 0 27 0;
#X connect 14 0 31 0;
#X connect 14 0 32 0;
#X connect 14 0 33 0;
#X connect 15 0 34 0;
#X connect 16 0 12 0;
#X connect 16 0 14 0;
#X connect 27 0 13 0;
#X connect 31 0 13 0;
#X connect 32 0 13 0;
#X connect 34 0 36 0;
#X connect 35 0 7 0;
#X connect 36 0 13 0;
#X connect 36 0 5 0;
