#N canvas 0 182 1920 987 12;
#X msg 1218 591 disconnect;
#X obj 1172 682 mrpeach/udpsend;
#X obj 1170 776 t b b b;
#X obj 1172 723 tgl 25 0 empty empty empty 17 7 0 10 -228856 -1 -1
0 1;
#X text 1203 726 <-- connection status;
#X text 1285 645 <-- pack messages on OSC format;
#X text 1290 680 <-- send messages via network;
#X msg 1176 114 connect 224.0.0.1 60000;
#X obj 1174 644 mrpeach/packOSC;
#X obj 1176 62 random 101;
#X obj 1218 470 bng 18 250 50 0 empty empty empty 17 7 0 10 -258113
-1 -1;
#X obj 1176 25 bng 25 250 50 0 empty empty empty 17 7 0 10 -4034 -1
-1;
#X text 1750 216 <-- INPUT message;
#X text 1611 359 <-- OUTPUT message;
#X text 1244 473 <-- disconnect;
#X text 1649 526 <-- GOODBYE message;
#X obj 86 454 osc/packOSC;
#X obj 20 497 mrpeach/net/udpsend;
#X msg 86 425 send /audioplayer \$1;
#X obj 87 371 tgl 15 0 empty empty empty 17 7 0 10 -4034 -1 -1 0 1
;
#X obj 90 153 osc/packOSC;
#X obj 23 200 mrpeach/net/udpsend;
#X msg 90 122 send /audioplayer \$1;
#X obj 90 96 tgl 15 0 empty empty empty 17 7 0 10 -258113 -1 -1 0 1
;
#X text 234 338 <-- Close connection;
#X text 105 370 <-- PLAY audio file;
#X text 233 425 <-- sends the command in OSC format;
#X text 171 453 <-- convert Pure Data message to OSC;
#X text 204 300 <-- Connect to the multicast address \, on the indicated
port;
#X text 162 496 <-- send OSC data packaged in UDP \, using the mr peach
library;
#X text 203 39 <-- Connect to the multicast address \, on the indicated
port;
#X text 239 64 <-- Close connection;
#X text 108 94 <-- PAUSE audio player;
#X text 235 123 <-- sends the command in OSC format;
#X text 175 155 <-- convert Pure Data message to OSC;
#X text 168 202 <-- send OSC data packaged in UDP \, using the mr peach
library;
#X msg 1177 151 send /hello/\$1/192.168.0.10/AudioPlayerControlPlayStop
;
#X text 1209 397 Standard OUTPUT message: /output/ID_number/IP_number/port_type_number/network_port_number/network_port_description/
;
#X text 1568 167 Standard HELLO message: /hello/id/ip/human_name;
#X msg 1182 345 send /output/\$1/192.168.0.10/0/1/controller/40002/Play/40003/Stop/PlayStop/OSC/AudioPlayer
;
#X obj 1178 90 value id6;
#X obj 1218 494 value id6;
#X obj 1170 817 route /hello /input /output /goodbye;
#X msg 1218 519 /goodbye/\$1/192.168.0.10/AudioPlayer_control_PlayStop/disconnected
;
#X text 1228 552 Standard GOODBYE message: /goodbye/ID_number/IP_number/human_name/status
;
#X obj 416 630 osc/unpackOSC;
#X obj 416 657 osc/routeOSC /connection;
#X obj 416 683 list;
#X obj 419 921 osc/unpackOSC;
#X obj 419 974 list;
#X obj 419 948 osc/routeOSC /disconnection;
#X text 14 584 receives OSC messages from the network \, at the multicast
address and on the specified port -->;
#X text 248 629 unpack OSC messages -->;
#X text 124 658 route the OSC message to this address -->;
#X text 193 682 put the message into a list -->;
#X text 19 890 receives OSC messages from the network \, on the multicast
address and on the specified port -->;
#X text 245 922 unpacks OSC messages -->;
#X text 124 947 route the OSC message to this address -->;
#X text 193 972 put the message into a list -->;
#X obj 416 589 mrpeach/net/udpreceive 224.0.0.0 55005;
#X obj 419 784 osc/unpackOSC;
#X obj 419 811 osc/routeOSC /connection;
#X obj 419 837 list;
#X obj 415 1043 osc/unpackOSC;
#X obj 415 1096 list;
#X obj 415 1070 osc/routeOSC /disconnection;
#X text 17 738 receives OSC messages from the network \, at the multicast
address and on the specified port -->;
#X text 251 783 unpack OSC messages -->;
#X text 127 812 route the OSC message to this address -->;
#X text 196 836 put the message into a list -->;
#X text 15 1012 receives OSC messages from the network \, on the multicast
address and on the specified port -->;
#X text 241 1044 unpacks OSC messages -->;
#X text 120 1069 route the OSC message to this address -->;
#X text 189 1094 put the message into a list -->;
#X obj 419 743 mrpeach/net/udpreceive 224.0.0.0 55006;
#X obj 419 893 mrpeach/net/udpreceive 224.0.0.0 55007;
#X obj 415 1015 mrpeach/net/udpreceive 224.0.0.0 55008;
#X text 1206 27 <-- Connect and generates random ID number;
#X text 1252 62 <-- generates random number between 0 and 100;
#X text 1245 89 <-- store random ID number;
#X text 1346 113 <-- connect to OSC server;
#X text 1568 148 <-- presents the musical thing on the network;
#X text 1286 494 <-- random ID number;
#X floatatom 23 237 5 0 0 0 - - -;
#X text 63 239 <-- connection status;
#X floatatom 20 537 5 0 1 0 - - -;
#X text 62 538 <-- connection status;
#X text 1200 254 Standard INPUT message: /input/ID_number/IP_number/port_type_number/musical_thing_type(audio)/sample_rate/bit_depth/audio_file_format/channel_number/IP_connection/port_number/port_description/network_protocol/music_protocol/human_name
;
#X msg 1180 203 send /input/\$1/192.168.0.10/0/controller/0/1/224.0.0.0/55005/ON_PAUSE_CLI/55006/ON_PLAY_CLI/55007/OFF_PAUSE_CLI/55008/OFF_PLAY_CLI/UDP/OSC/AudioPlayerControlPlayStop
, f 80;
#X msg 23 40 connect 224.0.0.0 40003;
#X msg 35 64 disconnect 224.0.0.0 40003;
#X msg 20 300 connect 224.0.0.0 40002;
#X msg 29 338 disconnect 224.0.0.0 40002;
#X connect 0 0 1 0;
#X connect 1 0 3 0;
#X connect 2 0 39 0;
#X connect 2 1 88 0;
#X connect 2 2 36 0;
#X connect 7 0 1 0;
#X connect 8 0 1 0;
#X connect 9 0 36 0;
#X connect 9 0 39 0;
#X connect 9 0 40 0;
#X connect 9 0 88 0;
#X connect 10 0 41 0;
#X connect 11 0 7 0;
#X connect 11 0 9 0;
#X connect 16 0 17 0;
#X connect 17 0 85 0;
#X connect 18 0 16 0;
#X connect 19 0 18 0;
#X connect 20 0 21 0;
#X connect 21 0 83 0;
#X connect 22 0 20 0;
#X connect 23 0 22 0;
#X connect 36 0 8 0;
#X connect 39 0 8 0;
#X connect 41 0 43 0;
#X connect 42 0 2 0;
#X connect 43 0 8 0;
#X connect 43 0 0 0;
#X connect 45 0 46 0;
#X connect 46 0 47 0;
#X connect 47 0 89 0;
#X connect 48 0 50 0;
#X connect 49 0 90 0;
#X connect 50 0 49 0;
#X connect 59 0 45 0;
#X connect 60 0 61 0;
#X connect 61 0 62 0;
#X connect 62 0 91 0;
#X connect 63 0 65 0;
#X connect 64 0 92 0;
#X connect 65 0 64 0;
#X connect 74 0 60 0;
#X connect 75 0 48 0;
#X connect 76 0 63 0;
#X connect 88 0 8 0;
#X connect 89 0 21 0;
#X connect 90 0 21 0;
#X connect 91 0 17 0;
#X connect 92 0 17 0;
