#N canvas 0 182 1920 987 12;
#X msg 745 631 disconnect;
#X obj 713 705 mrpeach/udpsend;
#X obj 711 799 t b b b;
#X obj 713 746 tgl 25 0 empty empty empty 17 7 0 10 -228856 -1 -1 0
1;
#X text 744 749 <-- connection status;
#X text 826 668 <-- pack messages on OSC format;
#X text 827 704 <-- send messages via network;
#X msg 716 105 connect 224.0.0.1 60000;
#X obj 715 667 mrpeach/packOSC;
#X obj 716 53 random 101;
#X obj 745 510 bng 18 250 50 0 empty empty empty 17 7 0 10 -258113
-1 -1;
#X obj 716 16 bng 25 250 50 0 empty empty empty 17 7 0 10 -4034 -1
-1;
#X text 746 18 <-- Conecta e gera número de ID aleatóŕio;
#X text 793 53 <-- gera número aleatório entre 0 e 100;
#X text 792 81 <-- armazena número aleatório;
#X text 886 104 <-- conecta no servidor OSC \, exibindo a coisa musical
para a rede;
#X text 1288 211 <-- INPUT message;
#X text 1150 370 <-- OUTPUT message;
#X text 771 513 <-- disconnect;
#X text 819 533 <-- número aleatório;
#X text 1175 564 <-- GOODBYE message;
#X text 1058 139 <-- apresenta a coisa musical na rede;
#X obj 50 218 osc/packOSC;
#X obj 28 248 mrpeach/net/udpsend;
#X msg 39 89 disconnect;
#X floatatom 50 151 5 0 100 0 - - -;
#X floatatom 167 151 5 0 100 0 - - -;
#X floatatom 271 150 5 0 100 0 - - -;
#X msg 50 177 send /kick \$1;
#X msg 167 177 send /snare \$1;
#X msg 271 176 send /hats \$1;
#X text 208 50 <-- connect to multicast address;
#X text 115 88 <-- close connection;
#X text 310 148 <-- drum elements volume control;
#X msg 28 51 connect 224.0.0.251 40012;
#X text 164 249 <-- send OSC data packaged in UDP \, using the mrpeach
library;
#X text 133 219 <-- pack message on OSC format;
#X msg 717 142 send /hello/\$1/192.168.0.10/DrumMachineElements;
#X text 727 405 Standard OUTPUT message: /output/ID_number/IP_number/port_type_number/network_port_number/network_port_description/
;
#X text 726 240 Standard INPUT message: /input/ID_number/IP_number/port_type_number/musical_thing_type(audio)/sample_rate/bit_depth/audio_file_format/channel_number/port_number/port_description/network_protocol/music_protocol/human_name
;
#X text 1086 157 Standard HELLO message: /hello/id/ip/human_name;
#X msg 718 204 send /input/\$1/192.168.0.10/0/controller/0/100/UDP/OSC/DrumMachineElements
- Controla o volume dos componentes da bateria, f 80;
#X msg 723 353 send /output/\$1/192.168.0.10/0/100/controller/40012/Elements/OSC/DrumMachine
;
#X obj 718 81 value id10;
#X obj 745 534 value id10;
#X obj 711 840 route /hello /input /output /goodbye;
#X msg 745 559 /goodbye/\$1/192.168.0.10/DrumMachine_control_Elements/disconnected
;
#X text 746 594 Standard GOODBYE message: /goodbye/ID_number/IP_number/human_name/status
;
#X connect 0 0 1 0;
#X connect 1 0 3 0;
#X connect 2 0 42 0;
#X connect 2 1 41 0;
#X connect 2 2 37 0;
#X connect 7 0 1 0;
#X connect 8 0 1 0;
#X connect 9 0 37 0;
#X connect 9 0 41 0;
#X connect 9 0 42 0;
#X connect 9 0 43 0;
#X connect 10 0 44 0;
#X connect 11 0 7 0;
#X connect 11 0 9 0;
#X connect 22 0 23 0;
#X connect 24 0 23 0;
#X connect 25 0 28 0;
#X connect 26 0 29 0;
#X connect 27 0 30 0;
#X connect 28 0 22 0;
#X connect 29 0 22 0;
#X connect 30 0 22 0;
#X connect 34 0 23 0;
#X connect 37 0 8 0;
#X connect 41 0 8 0;
#X connect 42 0 8 0;
#X connect 44 0 46 0;
#X connect 45 0 2 0;
#X connect 46 0 8 0;
#X connect 46 0 0 0;
