#N canvas 0 182 1920 987 12;
#X obj 101 203 osc/packOSC;
#X obj 33 246 mrpeach/net/udpsend;
#X msg 101 174 send /drum \$1;
#X floatatom 101 142 5 0 500 0 - - -;
#X text 220 47 <-- connect to multicast address;
#X text 253 87 <-- close connection;
#X text 137 142 <-- BPM;
#X text 188 174 <-- prepare OSC message;
#X text 172 204 <-- convert Pure Data message to OSC;
#X text 159 250 <-- send OSC data packaged in UDP \, using the mrpeach
library;
#X msg 33 50 connect 224.0.0.251 40011;
#X msg 1247 656 disconnect;
#X obj 1207 732 mrpeach/udpsend;
#X obj 1205 826 t b b b;
#X obj 1207 773 tgl 25 0 empty empty empty 17 7 0 10 -228856 -1 -1
0 1;
#X text 1238 776 <-- connection status;
#X text 1320 695 <-- pack messages on OSC format;
#X text 1321 731 <-- send messages via network;
#X msg 1210 132 connect 224.0.0.1 60000;
#X obj 1209 694 mrpeach/packOSC;
#X obj 1210 80 random 101;
#X obj 1247 535 bng 18 250 50 0 empty empty empty 17 7 0 10 -258113
-1 -1;
#X obj 1210 43 bng 25 250 50 0 empty empty empty 17 7 0 10 -4034 -1
-1;
#X text 1713 234 <-- INPUT message;
#X text 1644 396 <-- OUTPUT message;
#X text 1273 538 <-- disconnect;
#X text 1676 588 <-- GOODBYE message;
#X msg 1211 169 send /hello/\$1/192.168.0.10/DrumMachineBPM;
#X text 1243 437 Standard OUTPUT message: /output/ID_number/IP_number/port_type_number/network_port_number/network_port_description/
;
#X text 1540 185 Standard HELLO message: /hello/id/ip/human_name;
#X msg 1216 383 send /output/\$1/192.168.0.10/output/0/500/controller/40011/BPM/OSC/DrumMachine
;
#X obj 1212 108 value id9;
#X obj 1247 559 value id9;
#X obj 1206 867 route /hello /input /output /goodbye;
#X msg 1247 584 /goodbye/\$1/192.168.0.10/DrumMachine_control_BPM/disconnected
;
#X text 1254 617 Standard GOODBYE message: /goodbye/ID_number/IP_number/human_name/status
;
#X obj 413 385 osc/unpackOSC;
#X obj 413 412 osc/routeOSC /connection;
#X obj 413 438 list;
#X text 11 339 receives OSC messages from the network \, at the multicast
address and on the specified port -->;
#X text 245 384 unpack OSC messages -->;
#X text 121 413 route the OSC message to this address -->;
#X text 190 437 put the message into a list -->;
#X obj 411 531 osc/unpackOSC;
#X obj 411 584 list;
#X text 9 485 receives OSC messages from the network \, at the multicast
address and on the specified port -->;
#X text 243 530 unpack OSC messages -->;
#X text 119 559 route the OSC message to this address -->;
#X text 188 583 put the message into a list -->;
#X obj 413 344 mrpeach/net/udpreceive 224.0.0.0 55015;
#X obj 411 489 mrpeach/net/udpreceive 224.0.0.0 55016;
#X msg 44 87 disconnect 224.0.0.251 40011;
#X text 1240 45 <-- connect and generate a random ID number;
#X text 1287 80 <-- generate a random ID number between 0 - 100;
#X text 1279 107 <-- store random ID number;
#X text 1381 131 <-- connect to OSC server;
#X text 1513 168 <-- presents the musical thing to the network;
#X text 1315 558 <-- random ID number;
#X floatatom 33 284 5 0 1 0 - - -;
#X text 75 283 <-- connection status;
#X obj 411 558 osc/routeOSC /disconnection;
#X msg 1213 217 send /input/\$1/192.168.0.10/0/controller/0/500/224.0.0.0/55015/ON_CLI/55016/OFF_CLI/UDP/OSC/DrumMachineBPM
, f 70;
#X text 1230 269 Standard INPUT message: /input/ID_number/IP_number/port_type_number/musical_thing_type(audio)/sample_rate/bit_depth/audio_file_format/channel_number/IP_connection/port_number/port_description/network_protocol/music_protocol/human_name
;
#X connect 0 0 1 0;
#X connect 1 0 58 0;
#X connect 2 0 0 0;
#X connect 3 0 2 0;
#X connect 10 0 1 0;
#X connect 11 0 12 0;
#X connect 12 0 14 0;
#X connect 13 0 30 0;
#X connect 13 1 61 0;
#X connect 13 2 27 0;
#X connect 18 0 12 0;
#X connect 19 0 12 0;
#X connect 20 0 27 0;
#X connect 20 0 61 0;
#X connect 20 0 30 0;
#X connect 20 0 31 0;
#X connect 21 0 32 0;
#X connect 22 0 18 0;
#X connect 22 0 20 0;
#X connect 27 0 19 0;
#X connect 30 0 19 0;
#X connect 32 0 34 0;
#X connect 33 0 13 0;
#X connect 34 0 19 0;
#X connect 34 0 11 0;
#X connect 36 0 37 0;
#X connect 37 0 38 0;
#X connect 38 0 10 0;
#X connect 43 0 60 0;
#X connect 44 0 51 0;
#X connect 49 0 36 0;
#X connect 50 0 43 0;
#X connect 51 0 1 0;
#X connect 60 0 44 0;
#X connect 61 0 19 0;
