#N canvas 0 182 1920 987 12;
#X obj 606 303 dac~;
#X obj 541 474 writesf~ 2;
#X msg 541 621 stop;
#X obj 371 233 osc/unpackOSC;
#X obj 371 267 osc/routeOSC /recorder;
#X obj 371 299 tgl 15 0 empty empty empty 17 7 0 10 -4034 -1 -1 0 1
;
#X obj 286 518 osc/unpackOSC;
#X obj 286 552 osc/routeOSC /recorder;
#X obj 286 606 tgl 15 0 empty empty empty 17 7 0 10 -258113 -1 -1 0
1;
#X msg 371 334 open file_name.wav \, start;
#X obj 605 234 mrpeach/net/udpreceive~ 3010 2;
#X text 224 321 define file name \; start recording -->;
#X text 574 621 <-- STOP recording;
#X text 82 518 convert OSC to Pure Data -->;
#X text 135 474 receive OSC data -->;
#X text 225 195 receive OSC data -->;
#X text 168 234 convert OSC to Pure Data -->;
#X text 626 476 <-- record audio in the same directory as the patch
;
#X text 637 303 <-- Audio output;
#X text 824 233 <-- receive audio data;
#X obj 371 195 mrpeach/net/udpreceive 40060;
#X obj 286 475 mrpeach/net/udpreceive 40061;
#X text 1288 44 MANAGEMENT LAYER;
#X msg 1242 700 disconnect;
#X obj 1210 770 mrpeach/udpsend;
#X obj 1208 864 t b b b;
#X obj 1210 811 tgl 25 0 empty empty empty 17 7 0 10 -228856 -1 -1
0 1;
#X text 1241 814 <-- connection status;
#X text 1311 733 <-- pack messages on OSC format;
#X text 1309 769 <-- send messages via network;
#X msg 1213 170 connect 224.0.0.1 60000;
#X obj 1212 732 mrpeach/packOSC;
#X obj 1213 118 random 101;
#X obj 1242 579 bng 18 250 50 0 empty empty empty 17 7 0 10 -258113
-1 -1;
#X obj 1213 81 bng 25 250 50 0 empty empty empty 17 7 0 10 -4034 -1
-1;
#X text 1643 428 <-- OUTPUT message;
#X text 1268 582 <-- disconnect;
#X text 1318 602 <-- número aleatório;
#X text 1574 627 <-- GOODBYE message;
#X msg 1216 206 send /hello/\$1/192.168.0.10/Recorder;
#X text 1266 469 Standard OUTPUT message: /output/ID_number/IP_number/port_type_number/network_port_number/network_port_description/
;
#X text 1231 317 Standard INPUT message: /input/ID_number/IP_number/port_type_number/musical_thing_type(audio)/sample_rate/bit_depth/audio_file_format/channel_number/port_number/port_description/network_protocol/music_protocol/human_name
;
#X text 1521 219 Standard HELLO message: /hello/id/ip/human_name;
#X msg 1216 415 send /output/\$1/192.168.0.10/1/audio/44100/16bits/2/3010/Loudspeaker
;
#X obj 1215 146 value id21;
#X obj 1242 603 value id21;
#X obj 1208 905 route /hello /input /output /goodbye;
#X msg 1242 628 /goodbye/\$1/192.168.0.10/Recorder/disconnected;
#X text 1249 653 Standard GOODBYE message: /goodbye/ID_number/IP_number/human_name/status
;
#X text 1243 83 <-- Connect and generates a random ID number;
#X text 1288 117 <-- generates a random ID number;
#X text 1292 144 <-- store random ID number;
#X text 1383 167 <-- connect to OSC server;
#X text 1492 205 <-- presents the musical thing to the network;
#X text 482 44 - SUBPATCH;
#N canvas 0 182 1920 987 recorder2 0;
#X obj 576 327 dac~;
#X obj 516 497 writesf~ 2;
#X msg 516 644 stop;
#X obj 346 256 osc/unpackOSC;
#X obj 346 290 osc/routeOSC /recorder;
#X obj 346 322 tgl 15 0 empty empty empty 17 7 0 10 -4034 -1 -1 0 1
;
#X obj 205 541 osc/unpackOSC;
#X obj 205 575 osc/routeOSC /recorder;
#X obj 205 629 tgl 15 0 empty empty empty 17 7 0 10 -258113 -1 -1 0
1;
#X msg 346 357 open file_name.wav \, start;
#X text 199 344 define file name \; start recording -->;
#X text 549 644 <-- STOP recording;
#X text 47 500 receive OSC data -->;
#X text 200 218 receive OSC data -->;
#X text 143 257 convert OSC to Pure Data -->;
#X text 601 499 <-- record audio in the same directory as the patch
;
#X text 607 327 <-- Audio output;
#X text 794 257 <-- receive audio data;
#X text 1234 27 MANAGEMENT LAYER;
#X msg 1145 689 disconnect;
#X obj 1113 759 mrpeach/udpsend;
#X obj 1111 853 t b b b;
#X obj 1113 800 tgl 25 0 empty empty empty 17 7 0 10 -228856 -1 -1
0 1;
#X text 1144 803 <-- connection status;
#X text 1214 722 <-- pack messages on OSC format;
#X text 1212 758 <-- send messages via network;
#X msg 1116 159 connect 224.0.0.1 60000;
#X obj 1115 721 mrpeach/packOSC;
#X obj 1116 107 random 101;
#X obj 1145 568 bng 18 250 50 0 empty empty empty 17 7 0 10 -258113
-1 -1;
#X obj 1116 70 bng 25 250 50 0 empty empty empty 17 7 0 10 -4034 -1
-1;
#X text 1686 263 <-- INPUT message;
#X text 1546 417 <-- OUTPUT message;
#X text 1171 571 <-- disconnect;
#X text 1221 591 <-- número aleatório;
#X text 1481 616 <-- GOODBYE message;
#X text 1169 458 Standard OUTPUT message: /output/ID_number/IP_number/port_type_number/network_port_number/network_port_description/
;
#X text 1134 306 Standard INPUT message: /input/ID_number/IP_number/port_type_number/musical_thing_type(audio)/sample_rate/bit_depth/audio_file_format/channel_number/port_number/port_description/network_protocol/music_protocol/human_name
;
#X text 1424 208 Standard HELLO message: /hello/id/ip/human_name;
#X msg 1119 404 send /output/\$1/192.168.0.10/1/audio/44100/16bits/2/3010/Loudspeaker
;
#X obj 1145 592 value id21;
#X obj 1111 894 route /hello /input /output /goodbye;
#X text 1152 642 Standard GOODBYE message: /goodbye/ID_number/IP_number/human_name/status
;
#X text 1146 72 <-- Connect and generates a random ID number;
#X text 1191 106 <-- generates a random ID number;
#X text 1195 133 <-- store random ID number;
#X text 1286 156 <-- connect to OSC server;
#X text 1395 194 <-- presents the musical thing to the network;
#X obj 446 1361 osc/unpackOSC;
#X obj 446 1414 list;
#X text 47 1320 receives OSC messages from the network \, at the multicast
address and on the specified port -->;
#X text 278 1361 unpack OSC messages -->;
#X text 154 1388 route the OSC message to this address -->;
#X text 219 1412 put the message into a list -->;
#X obj 446 1388 osc/routeOSC /disconnection;
#X obj 446 1319 mrpeach/net/udpreceive 224.0.0.0 55056;
#X text 305 540 <-- convert OSC to Pure Data;
#X obj 575 258 mrpeach/net/udpreceive~ 3050 2;
#X obj 346 218 mrpeach/net/udpreceive 224.0.0.0 44460;
#X obj 205 500 mrpeach/net/udpreceive 224.0.0.0 44461;
#X obj 1118 135 value id41;
#X msg 1119 195 send /hello/\$1/192.168.0.10/Recorder2;
#X msg 1145 617 /goodbye/\$1/192.168.0.10/Recorder2/disconnected;
#X msg 1120 251 send /input/\$1/192.168.0.10/0/audio/44100/16bits/2/40060/START/40061/STOP/44460/START_SUBPATCH_RECORDER/44461/STOP_SUBPATCH_RECORDER2/UDP/OSC/Recorder2
, f 80;
#X connect 2 0 1 0;
#X connect 3 0 4 0;
#X connect 4 0 5 0;
#X connect 5 0 9 0;
#X connect 6 0 7 0;
#X connect 7 0 8 0;
#X connect 8 0 2 0;
#X connect 9 0 1 0;
#X connect 19 0 20 0;
#X connect 20 0 22 0;
#X connect 21 0 39 0;
#X connect 21 1 63 0;
#X connect 21 2 61 0;
#X connect 26 0 20 0;
#X connect 27 0 20 0;
#X connect 28 0 61 0;
#X connect 28 0 63 0;
#X connect 28 0 39 0;
#X connect 28 0 60 0;
#X connect 29 0 40 0;
#X connect 30 0 26 0;
#X connect 30 0 28 0;
#X connect 39 0 27 0;
#X connect 40 0 62 0;
#X connect 41 0 21 0;
#X connect 48 0 54 0;
#X connect 54 0 49 0;
#X connect 55 0 48 0;
#X connect 57 0 0 0;
#X connect 57 0 0 1;
#X connect 57 0 1 0;
#X connect 58 0 3 0;
#X connect 59 0 6 0;
#X connect 61 0 27 0;
#X connect 62 0 27 0;
#X connect 62 0 19 0;
#X connect 63 0 27 0;
#X restore 484 85 pd recorder2;
#X msg 657 912 vis 0;
#X obj 182 869 tgl 15 0 empty empty empty 17 7 0 10 -4034 -1 -1 0 1
;
#X obj 657 861 tgl 15 0 empty empty empty 17 7 0 10 -258113 -1 -1 0
1;
#X text 202 867 <-- OPEN;
#X msg 182 900 vis 1;
#X text 676 860 <-- CLOSE;
#X obj 182 782 osc/unpackOSC;
#X text 458 756 <-- Receive OSC message;
#X text 282 782 <-- convert OSC message to Pure Data;
#X obj 657 778 osc/unpackOSC;
#X text 929 752 <-- Receive OSC message;
#X text 759 777 <-- convert OSC message to Pure Data;
#X obj 182 830 osc/routeOSC /open_recorder;
#X obj 182 758 mrpeach/net/udpreceive 224.0.0.0 33333;
#X obj 657 812 osc/routeOSC /close_recorder;
#X obj 657 754 mrpeach/net/udpreceive 224.0.0.0 33334;
#X obj 182 932 s pd-recorder2;
#X text 1792 271 <-- INPUT message;
#X text 505 710 - SUBPATCH CONTROL;
#X msg 1217 262 send /input/\$1/192.168.0.10/0/audio/33333/OPEN_SUBPATCH_RECORDER2/33334/CLOSE_SUBPATCH_RECORDER2/44100/16bits/2/40060/START/40061/STOP/UDP/OSC/Recorder
, f 80;
#X connect 2 0 1 0;
#X connect 3 0 4 0;
#X connect 4 0 5 0;
#X connect 5 0 9 0;
#X connect 6 0 7 0;
#X connect 7 0 8 0;
#X connect 8 0 2 0;
#X connect 9 0 1 0;
#X connect 10 0 0 0;
#X connect 10 0 0 1;
#X connect 10 0 1 0;
#X connect 20 0 3 0;
#X connect 21 0 6 0;
#X connect 23 0 24 0;
#X connect 24 0 26 0;
#X connect 25 0 43 0;
#X connect 25 1 75 0;
#X connect 25 2 39 0;
#X connect 30 0 24 0;
#X connect 31 0 24 0;
#X connect 32 0 39 0;
#X connect 32 0 75 0;
#X connect 32 0 43 0;
#X connect 32 0 44 0;
#X connect 33 0 45 0;
#X connect 34 0 30 0;
#X connect 34 0 32 0;
#X connect 39 0 31 0;
#X connect 43 0 31 0;
#X connect 45 0 47 0;
#X connect 46 0 25 0;
#X connect 47 0 31 0;
#X connect 47 0 23 0;
#X connect 56 0 72 0;
#X connect 57 0 60 0;
#X connect 58 0 56 0;
#X connect 60 0 72 0;
#X connect 62 0 68 0;
#X connect 65 0 70 0;
#X connect 68 0 57 0;
#X connect 69 0 62 0;
#X connect 70 0 58 0;
#X connect 71 0 65 0;
#X connect 75 0 31 0;
