#N canvas 0 182 1920 987 12;
#X obj 121 225 osc/packOSC;
#X obj 55 268 mrpeach/net/udpsend;
#X msg 64 109 disconnect;
#X obj 121 138 tgl 15 0 empty empty empty 17 7 0 10 -4034 -1 -1 0 1
;
#X text 237 39 ON/OFF;
#X msg 121 196 send /on_off_pitch \$1;
#X text 234 73 <-- connect to multicast address;
#X text 128 108 <-- close connection;
#X text 137 136 <-- ON/OFF pitchfor via OSC message;
#X text 196 225 <-- convert Pure Data to OSC;
#X text 251 195 <-- send message;
#X text 175 269 <-- send message via network;
#X msg 53 72 connect 224.0.0.251 40051;
#X text 704 8 MANAGEMENT LAYER;
#X msg 618 664 disconnect;
#X obj 583 740 mrpeach/udpsend;
#X obj 581 834 t b b b;
#X obj 583 781 tgl 25 0 empty empty empty 17 7 0 10 -228856 -1 -1 0
1;
#X text 614 784 <-- connection status;
#X text 701 701 <-- pack messages on OSC format;
#X text 693 738 <-- send messages via network;
#X msg 586 140 connect 224.0.0.1 60000;
#X obj 585 702 mrpeach/packOSC;
#X obj 586 88 random 101;
#X obj 618 543 bng 18 250 50 0 empty empty empty 17 7 0 10 -258113
-1 -1;
#X obj 586 51 bng 25 250 50 0 empty empty empty 17 7 0 10 -4034 -1
-1;
#X text 616 53 <-- Conecta e gera número de ID aleatóŕio;
#X text 660 86 <-- gera número aleatório entre 0 e 100;
#X text 664 114 <-- armazena número aleatório;
#X text 756 138 <-- conecta no servidor OSC \, exibindo a coisa musical
para a rede;
#X text 946 173 <-- apresenta a coisa musical na rede;
#X text 1024 397 <-- OUTPUT message;
#X text 644 546 <-- disconnect;
#X text 694 568 <-- número aleatório;
#X text 1047 591 <-- GOODBYE message;
#X msg 587 177 send /hello/\$1/192.168.0.10/PitchforkControl_OnOff
;
#X text 592 441 Standard OUTPUT message: /output/ID_number/IP_number/port_type_number/network_port_number/network_port_description/
;
#X text 601 256 Standard INPUT message: /input/ID_number/IP_number/port_type_number/musical_thing_type(audio)/sample_rate/bit_depth/audio_file_format/channel_number/port_number/port_description/network_protocol/music_protocol/human_name
;
#X text 971 191 Standard HELLO message: /hello/id/ip/human_name;
#X msg 594 383 send /output/\$1/192.168.0.10/1/controller/40051/OSCmessage/Pitchfork
;
#X obj 588 116 value id20;
#X obj 618 567 value id20;
#X obj 581 875 route /hello /input /output /goodbye;
#X text 625 617 Standard GOODBYE message: /goodbye/ID_number/IP_number/human_name/status
;
#X msg 619 592 /goodbye/\$1/192.168.0.10/PitchforkControl_OnOff/disconnected
;
#X msg 590 233 send /input/\$1/192.168.0.10/0/controller/0/1/UDP/OSC/PitchforckControlOnOff
, f 75;
#X text 1121 233 <-- INPUT message;
#X connect 0 0 1 0;
#X connect 2 0 1 0;
#X connect 3 0 5 0;
#X connect 5 0 0 0;
#X connect 12 0 1 0;
#X connect 14 0 15 0;
#X connect 15 0 17 0;
#X connect 16 0 39 0;
#X connect 16 1 45 0;
#X connect 16 2 35 0;
#X connect 21 0 15 0;
#X connect 22 0 15 0;
#X connect 23 0 35 0;
#X connect 23 0 45 0;
#X connect 23 0 39 0;
#X connect 23 0 40 0;
#X connect 24 0 41 0;
#X connect 25 0 21 0;
#X connect 25 0 23 0;
#X connect 35 0 22 0;
#X connect 39 0 22 0;
#X connect 41 0 44 0;
#X connect 42 0 16 0;
#X connect 44 0 22 0;
#X connect 44 0 14 0;
#X connect 45 0 22 0;
