#N canvas 0 182 1920 987 10;
#X floatatom 594 625 0 0 0 0 - - -;
#X obj 785 538 adc~;
#X obj 785 476 hsl 128 15 0 127 0 0 empty empty empty -2 -8 0 10 -4034
-1 -1 0 1;
#X obj 782 363 osc/unpackOSC;
#X obj 782 340 mrpeach/net/udpreceive 40000;
#X obj 782 411 osc/routeOSC /volume;
#X obj 594 39 osc/unpackOSC;
#X obj 594 273 tgl 15 0 empty empty empty 17 7 0 10 -4034 -1 -1 0 1
;
#X obj 594 87 osc/routeOSC /mic;
#X obj 45 49 osc/unpackOSC;
#X obj 45 83 osc/routeOSC /mic;
#X obj 45 397 tgl 15 0 empty empty empty 17 7 0 10 -258113 -1 -1 0
1;
#X obj 594 600 mrpeach/net/udpsend~ 2;
#X msg 594 342 connect 239.255.255.250 3000;
#X text 815 539 <-- Audio input;
#X text 737 597 <-- send audio via Network in a UDP socket \, using
mrpeach library;
#X text 618 626 <-- connection status;
#X text 468 411 close connection -->;
#X text 413 342 connect multicast address -->;
#X text 615 271 <-- ON;
#X text 768 17 <-- Receive OSC message;
#X text 225 26 <-- Receive OSC message;
#X text 131 50 <-- convert OSC message to Pure Data;
#X text 677 38 <-- convert OSC message to Pure Data;
#X text 955 339 <-- Receive OSC message for volume control;
#X text 922 476 <-- Volume vslider (0 - 127);
#X text 907 410 <-- Receive data from 'volume' variable;
#X text -3 397 OFF -->;
#X obj 594 16 mrpeach/net/udpreceive 40030;
#X obj 45 26 mrpeach/net/udpreceive 40031;
#X text 1398 14 MANAGEMENT LAYER;
#X msg 1324 607 disconnect;
#X obj 1277 746 mrpeach/udpsend;
#X obj 1275 840 t b b b;
#X obj 1277 787 tgl 25 0 empty empty empty 17 7 0 10 -228856 -1 -1
0 1;
#X text 1308 790 <-- connection status;
#X text 1378 709 <-- pack messages on OSC format;
#X text 1376 745 <-- send messages via network;
#X msg 1280 146 connect 224.0.0.1 60000;
#X obj 1279 708 mrpeach/packOSC;
#X obj 1280 94 random 101;
#X obj 1324 486 bng 18 250 50 0 empty empty empty 17 7 0 10 -258113
-1 -1;
#X obj 1280 57 bng 25 250 50 0 empty empty empty 17 7 0 10 -4034 -1
-1;
#X text 1808 248 <-- INPUT message;
#X text 1652 373 <-- OUTPUT message;
#X text 1350 489 <-- disconnect;
#X text 1687 536 <-- GOODBYE message;
#X text 1298 412 Standard OUTPUT message: /output/ID_number/IP_number/port_type_number/network_port_number/network_port_description/
;
#X text 1310 59 <-- Connect and generate random ID number;
#X text 1347 92 <-- generates random number between 0 and 100;
#X text 1348 116 <-- store random number;
#X text 1428 144 <-- connects to OSC server \, displaying the musical
thing to the network;
#X text 1526 179 <-- presents the musical thing on the network Standard
HELLO message: /hello/id/ip/human_name;
#X text 1385 507 <-- same random number;
#X msg 1281 183 send /hello/\$1/192.168.0.10/Microphone;
#X msg 1282 365 send /output/\$1/192.168.0.10/1/audio/44100/16bits/2/3000/Loudspeaker
;
#X obj 1292 117 value id1;
#X obj 1324 510 value id1;
#X msg 1324 535 /goodbye/\$1/192.168.0.10/microphone/Microphone/disconnected
;
#X obj 1275 881 route /hello /input /output /goodbye;
#X text 1331 560 Standard GOODBYE message: /goodbye/ID_number/IP_number/human_name/status
;
#X msg 594 412 disconnect 239.255.250 3000;
#X obj 596 186 osc/unpackOSC;
#X obj 596 213 osc/routeOSC /connection;
#X obj 596 239 list;
#X text 234 141 receives OSC messages from the network \, at the multicast
address and on the specified port -->;
#X text 447 183 unpack OSC messages -->;
#X text 341 213 route the OSC message to this address -->;
#X text 400 239 put the message into a list -->;
#X obj 594 738 osc/unpackOSC;
#X obj 594 791 list;
#X text 249 697 receives OSC messages from the network \, at the multicast
address and on the specified port -->;
#X text 444 738 unpack OSC messages -->;
#X text 337 765 route the OSC message to this address -->;
#X text 396 791 put the message into a list -->;
#X obj 594 765 osc/routeOSC /disconnection;
#X obj 596 145 mrpeach/net/udpreceive 224.0.0.0 55029;
#X obj 594 696 mrpeach/net/udpreceive 224.0.0.0 55030;
#X text 1295 278 Standard INPUT message: /input/ID_number/IP_number/port_type_number/musical_thing_type(audio)/sample_rate/bit_depth/audio_file_format/channel_number/IP_connection/port_number/port_description/network_protocol/music_protocol/human_name
;
#X msg 1284 233 send /input/\$1/192.168.0.10/0/audio/44100/16bits/2/224.0.0.0/55029/ON_CLI/55030/OFF_CLI/40000/Volume/40030/ON/40031/OFF/UDP/OSC/Microphone
, f 86;
#X connect 1 0 12 0;
#X connect 2 0 12 0;
#X connect 3 0 5 0;
#X connect 4 0 3 0;
#X connect 5 0 2 0;
#X connect 6 0 8 0;
#X connect 7 0 13 0;
#X connect 8 0 7 0;
#X connect 9 0 10 0;
#X connect 10 0 11 0;
#X connect 11 0 61 0;
#X connect 12 0 0 0;
#X connect 13 0 12 0;
#X connect 28 0 6 0;
#X connect 29 0 9 0;
#X connect 31 0 32 0;
#X connect 32 0 34 0;
#X connect 33 0 55 0;
#X connect 33 1 79 0;
#X connect 33 2 54 0;
#X connect 38 0 32 0;
#X connect 39 0 32 0;
#X connect 40 0 79 0;
#X connect 40 0 55 0;
#X connect 40 0 54 0;
#X connect 40 0 56 0;
#X connect 41 0 57 0;
#X connect 42 0 38 0;
#X connect 42 0 40 0;
#X connect 54 0 39 0;
#X connect 55 0 39 0;
#X connect 57 0 58 0;
#X connect 58 0 39 0;
#X connect 58 0 31 0;
#X connect 59 0 33 0;
#X connect 61 0 12 0;
#X connect 62 0 63 0;
#X connect 63 0 64 0;
#X connect 69 0 75 0;
#X connect 70 0 61 0;
#X connect 75 0 70 0;
#X connect 76 0 62 0;
#X connect 77 0 69 0;
#X connect 79 0 39 0;
