#N canvas 0 182 1920 987 12;
#X text 427 49 CONTROLADOR MIDI;
#X obj 291 106 notein;
#X floatatom 291 137 5 0 0 0 - - -;
#X floatatom 310 162 5 0 0 0 - - -;
#X floatatom 330 189 5 0 0 0 - - -;
#X obj 518 156 mtof;
#X text 555 152 <-- MIDI to frequency;
#X floatatom 518 189 5 0 0 0 - - -;
#X obj 246 364 mrpeach/net/udpsend;
#X msg 274 277 send /midi_pitch \$1;
#X obj 274 306 osc/packOSC;
#X obj 562 224 ctlin;
#X floatatom 562 259 5 0 127 0 - - -;
#X floatatom 604 259 5 0 0 0 - - -;
#X floatatom 644 260 5 0 0 0 - - -;
#X obj 562 305 / 127;
#X floatatom 562 357 5 0 1 0 - - -;
#X text 349 160 <-- velocity;
#X obj 502 571 mrpeach/net/udpsend;
#X obj 565 395 hsl 128 15 0 127 0 0 empty empty empty -2 -8 0 10 -4034
-1 -1 0 1;
#X obj 562 544 osc/packOSC;
#X msg 562 519 send /midi_vol \$1;
#X obj 807 59 key;
#X floatatom 807 85 5 0 0 0 - - -;
#X obj 860 55 keyname;
#X symbolatom 860 87 10 0 0 0 - - -;
#X text 338 105 <-- capture the note played by the MIDI controller
;
#X text 329 135 <-- pitch number;
#X text 368 189 <-- channel;
#X text 10 219 connect to multicast address -->;
#X text 110 245 close connection -->;
#X text 709 85 MIDI note -->;
#X text 936 91 <-- computer key;
#X text 558 186 <-- MIDI note frequency;
#X text 149 279 send message -->;
#X text 69 306 convert Pure Data to OSC -->;
#X text 41 364 send message via network -->;
#X text 606 222 <-- controls from the MIDI controller;
#X text 606 302 <-- division to match the range of the MIDI controller
with an oscillator;
#X text 684 258 <-- pitch number \, velocity and channel;
#X text 604 357 <-- only displays conversion value;
#X text 698 393 <-- changes volume via MIDI controller;
#X text 682 452 <-- connect to multicast address;
#X text 346 481 close connection -->;
#X text 689 519 <-- send message;
#X text 647 543 <-- convert Pure Data to OSC;
#X text 294 571 send message via network -->;
#X msg 502 451 connect 224.0.0.251 40054;
#X msg 246 221 connect 224.0.0.251 40053;
#X text 1334 19 MANAGEMENT LAYER;
#X msg 1283 768 disconnect;
#X obj 1205 851 mrpeach/udpsend;
#X obj 1203 945 t b b b;
#X obj 1205 892 tgl 25 0 empty empty empty 17 7 0 10 -228856 -1 -1
0 1;
#X text 1236 895 <-- connection status;
#X text 1322 812 <-- pack messages on OSC format;
#X text 1318 851 <-- send messages via network;
#X msg 1216 151 connect 224.0.0.1 60000;
#X obj 1207 813 mrpeach/packOSC;
#X obj 1216 99 random 101;
#X obj 1283 647 bng 18 250 50 0 empty empty empty 17 7 0 10 -258113
-1 -1;
#X obj 1216 62 bng 25 250 50 0 empty empty empty 17 7 0 10 -4034 -1
-1;
#X text 1765 251 <-- INPUT message;
#X text 1647 498 <-- OUTPUT message;
#X text 1309 650 <-- disconnect;
#X text 1704 696 <-- GOODBYE message;
#X msg 1218 202 send /hello/\$1/192.168.0.10/PitchforkControl_MIDI
;
#X text 1255 539 Standard OUTPUT message: /output/ID_number/IP_number/port_type_number/network_port_number/network_port_description/
;
#X text 1583 213 Standard HELLO message: /hello/id/ip/human_name;
#X obj 1218 127 value id19;
#X obj 1283 671 value id19;
#X obj 1203 986 route /hello /input /output /goodbye;
#X msg 1283 696 /goodbye/\$1/192.168.0.10/PitchforkControl_MIDI/disconnected
;
#X text 1290 721 Standard GOODBYE message: /goodbye/ID_number/IP_number/status
;
#X obj 626 703 osc/unpackOSC;
#X obj 626 730 osc/routeOSC /connection;
#X obj 626 756 list;
#X text 228 660 receives OSC messages from the network \, at the multicast
address and on the specified port -->;
#X text 451 700 unpack OSC messages -->;
#X text 331 729 route the OSC message to this address -->;
#X text 403 754 put the message into a list -->;
#X obj 624 849 osc/unpackOSC;
#X obj 624 902 list;
#X text 225 808 receives OSC messages from the network \, at the multicast
address and on the specified port -->;
#X text 456 849 unpack OSC messages -->;
#X text 332 876 route the OSC message to this address -->;
#X text 397 900 put the message into a list -->;
#X obj 624 876 osc/routeOSC /disconnection;
#X floatatom 502 607 5 0 1 0 - - -;
#X text 547 607 <-- connection status;
#X msg 502 477 disconnect 224.0.0.0.251 40054;
#X text 1358 671 <-- random ID number;
#X text 1246 63 <-- Connect and generates random ID number;
#X text 1298 100 <-- generate random ID number;
#X text 1294 128 <-- store random ID number;
#X text 1391 149 <-- connect to OSC server;
#X text 1567 198 <-- presents the musical things in thenetwork;
#X text 1235 315 Standard INPUT message: /input/ID_number/IP_number/port_type_number/musical_thing_type(audio)/sample_rate/bit_depth/audio_file_format/channel_number/IP_connection/port_number/port_description/network_protocol/music_protocol/human_name
;
#X obj 626 662 mrpeach/net/udpreceive 224.0.0.0 55939;
#X obj 624 807 mrpeach/net/udpreceive 224.0.0.0 55940;
#X obj 609 1024 osc/unpackOSC;
#X obj 609 1051 osc/routeOSC /connection;
#X obj 609 1077 list;
#X text 211 981 receives OSC messages from the network \, at the multicast
address and on the specified port -->;
#X text 434 1021 unpack OSC messages -->;
#X text 314 1050 route the OSC message to this address -->;
#X text 386 1075 put the message into a list -->;
#X obj 607 1170 osc/unpackOSC;
#X obj 607 1223 list;
#X text 208 1129 receives OSC messages from the network \, at the multicast
address and on the specified port -->;
#X text 439 1170 unpack OSC messages -->;
#X text 315 1197 route the OSC message to this address -->;
#X text 380 1221 put the message into a list -->;
#X obj 607 1197 osc/routeOSC /disconnection;
#X obj 609 982 mrpeach/net/udpreceive 224.0.0.0 55039;
#X obj 607 1128 mrpeach/net/udpreceive 224.0.0.0 55040;
#X msg 259 244 disconnect 224.0.0.251 40053;
#X msg 1219 240 send /input/\$1/192.168.0.10/0/controller/0/127/224.0.0.0/55039/ON_CLI/55040/OFF_CLI/55939/ON_MIDI_VOLUME/55940/OFF_MIDI_VOLUME/UDP/OSC/MIDI/PitchforckControlMIDI
, f 77;
#X msg 1217 484 send /output/\$1/192.168.0.10/1/controller/40053/MIDI_pitch/40054/MIDI_Volume/Pitchfork
;
#X connect 1 0 2 0;
#X connect 1 1 3 0;
#X connect 1 2 4 0;
#X connect 2 0 5 0;
#X connect 5 0 7 0;
#X connect 7 0 9 0;
#X connect 9 0 10 0;
#X connect 10 0 8 0;
#X connect 11 0 12 0;
#X connect 11 1 13 0;
#X connect 11 2 14 0;
#X connect 12 0 15 0;
#X connect 15 0 16 0;
#X connect 16 0 19 0;
#X connect 18 0 88 0;
#X connect 19 0 21 0;
#X connect 20 0 18 0;
#X connect 21 0 20 0;
#X connect 22 0 23 0;
#X connect 23 0 7 0;
#X connect 24 1 25 0;
#X connect 47 0 18 0;
#X connect 48 0 8 0;
#X connect 50 0 51 0;
#X connect 51 0 53 0;
#X connect 52 0 118 0;
#X connect 52 1 117 0;
#X connect 52 2 66 0;
#X connect 57 0 51 0;
#X connect 58 0 51 0;
#X connect 59 0 66 0;
#X connect 59 0 117 0;
#X connect 59 0 118 0;
#X connect 59 0 69 0;
#X connect 60 0 70 0;
#X connect 61 0 57 0;
#X connect 61 0 59 0;
#X connect 66 0 58 0;
#X connect 70 0 72 0;
#X connect 71 0 52 0;
#X connect 72 0 58 0;
#X connect 72 0 50 0;
#X connect 74 0 75 0;
#X connect 75 0 76 0;
#X connect 76 0 47 0;
#X connect 81 0 87 0;
#X connect 82 0 90 0;
#X connect 87 0 82 0;
#X connect 90 0 18 0;
#X connect 98 0 74 0;
#X connect 99 0 81 0;
#X connect 100 0 101 0;
#X connect 101 0 102 0;
#X connect 102 0 48 0;
#X connect 107 0 113 0;
#X connect 108 0 116 0;
#X connect 113 0 108 0;
#X connect 114 0 100 0;
#X connect 115 0 107 0;
#X connect 116 0 8 0;
#X connect 117 0 58 0;
#X connect 118 0 58 0;
