#N canvas 0 182 1920 987 12;
#X obj 101 203 osc/packOSC;
#X obj 33 246 mrpeach/net/udpsend;
#X msg 44 87 disconnect;
#X msg 101 174 send /drum \$1;
#X floatatom 101 142 5 0 500 0 - - -;
#X text 220 47 <-- connect to multicast address;
#X text 111 85 <-- close connection;
#X text 137 142 <-- BPM;
#X text 188 174 <-- prepare OSC message;
#X text 172 204 <-- convert Pure Data message to OSC;
#X text 159 250 <-- send OSC data packaged in UDP \, using the mrpeach
library;
#X msg 33 50 connect 224.0.0.251 40011;
#X msg 719 638 disconnect;
#X obj 679 714 mrpeach/udpsend;
#X obj 677 808 t b b b;
#X obj 679 755 tgl 25 0 empty empty empty 17 7 0 10 -228856 -1 -1 1
1;
#X text 710 758 <-- connection status;
#X text 792 677 <-- pack messages on OSC format;
#X text 793 713 <-- send messages via network;
#X msg 682 114 connect 224.0.0.1 60000;
#X obj 681 676 mrpeach/packOSC;
#X obj 682 62 random 101;
#X obj 719 517 bng 18 250 50 0 empty empty empty 17 7 0 10 -258113
-1 -1;
#X obj 682 25 bng 25 250 50 0 empty empty empty 17 7 0 10 -4034 -1
-1;
#X text 712 27 <-- Conecta e gera número de ID aleatóŕio;
#X text 759 62 <-- gera número aleatório entre 0 e 100;
#X text 751 89 <-- armazena número aleatório;
#X text 852 113 <-- conecta no servidor OSC \, exibindo a coisa musical
para a rede;
#X text 1181 198 <-- INPUT message;
#X text 1116 378 <-- OUTPUT message;
#X text 745 520 <-- disconnect;
#X text 787 540 <-- número aleatório;
#X text 1148 570 <-- GOODBYE message;
#X text 985 150 <-- apresenta a coisa musical na rede;
#X msg 683 151 send /hello/\$1/192.168.0.10/DrumMachineBPM;
#X text 689 416 Standard OUTPUT message: /output/ID_number/IP_number/port_type_number/network_port_number/network_port_description/
;
#X text 689 233 Standard INPUT message: /input/ID_number/IP_number/port_type_number/musical_thing_type(audio)/sample_rate/bit_depth/audio_file_format/channel_number/port_number/port_description/network_protocol/music_protocol/human_name
;
#X text 1013 165 Standard HELLO message: /hello/id/ip/human_name;
#X msg 688 365 send /output/\$1/192.168.0.10/output/0/500/controller/40011/BPM/OSC/DrumMachine
;
#X obj 684 90 value id9;
#X obj 719 541 value id9;
#X obj 678 849 route /hello /input /output /goodbye;
#X msg 719 566 /goodbye/\$1/192.168.0.10/DrumMachine_control_BPM/disconnected
;
#X text 726 599 Standard GOODBYE message: /goodbye/ID_number/IP_number/human_name/status
;
#X msg 685 199 send /input/\$1/192.168.0.10/0/controller/0/500/UDP/OSC/DrumMachineBPM
, f 70;
#X connect 0 0 1 0;
#X connect 2 0 1 0;
#X connect 3 0 0 0;
#X connect 4 0 3 0;
#X connect 11 0 1 0;
#X connect 12 0 13 0;
#X connect 13 0 15 0;
#X connect 14 0 38 0;
#X connect 14 1 44 0;
#X connect 14 2 34 0;
#X connect 19 0 13 0;
#X connect 20 0 13 0;
#X connect 21 0 34 0;
#X connect 21 0 44 0;
#X connect 21 0 38 0;
#X connect 21 0 39 0;
#X connect 22 0 40 0;
#X connect 23 0 19 0;
#X connect 23 0 21 0;
#X connect 34 0 20 0;
#X connect 38 0 20 0;
#X connect 40 0 42 0;
#X connect 41 0 14 0;
#X connect 42 0 20 0;
#X connect 42 0 12 0;
#X connect 44 0 20 0;
