#N canvas 0 182 1920 987 10;
#X obj 138 210 osc/packOSC;
#X obj 72 253 mrpeach/net/udpsend;
#X msg 138 181 send /mic \$1;
#X obj 138 137 tgl 15 0 empty empty empty 17 7 0 10 -4034 -1 -1 0 1
;
#X obj 711 207 osc/packOSC;
#X obj 645 250 mrpeach/net/udpsend;
#X msg 711 178 send /mic \$1;
#X obj 711 134 tgl 15 0 empty empty empty 17 7 0 10 -258113 -1 -1 0
1;
#X text 155 135 <-- ON;
#X text 732 133 <-- OFF;
#X text 251 58 <-- connect to multicast address;
#X text 278 93 <-- close connection;
#X text 216 180 <-- prepare to send message;
#X text 213 210 <-- pack message in a OSC format;
#X text 194 255 <-- send OSC packet via network \, using mrpeach library
;
#X text 828 49 <-- connect to multicast address;
#X text 831 83 <-- close connection;
#X text 787 178 <-- prepare to send message;
#X text 783 209 <-- pack message in a OSC format;
#X text 767 251 <-- send OSC packet via network \, using mrpeach library
;
#X msg 70 57 connect 239.255.255.250 40030;
#X msg 645 49 connect 239.255.255.250 40031;
#X text 1280 18 MANAGEMENT LAYER;
#X msg 1196 671 disconnect;
#X obj 1159 750 mrpeach/udpsend;
#X obj 1157 844 t b b b;
#X obj 1159 791 tgl 25 0 empty empty empty 17 7 0 10 -228856 -1 -1
0 1;
#X text 1190 794 <-- connection status;
#X text 1260 713 <-- pack messages on OSC format;
#X text 1258 749 <-- send messages via network;
#X msg 1162 150 connect 224.0.0.1 60000;
#X obj 1161 712 mrpeach/packOSC;
#X obj 1162 98 random 101;
#X obj 1196 550 bng 18 250 50 0 empty empty empty 17 7 0 10 -258113
-1 -1;
#X obj 1162 61 bng 25 250 50 0 empty empty empty 17 7 0 10 -4034 -1
-1;
#X text 1633 248 <-- INPUT message;
#X text 1535 377 <-- OUTPUT message;
#X text 1222 553 <-- disconnect;
#X text 1534 599 <-- GOODBYE message;
#X msg 1163 187 send /hello/\$1/192.168.0.10/MicrophoneControl;
#X text 1197 416 Standard OUTPUT message: /output/ID_number/IP_number/port_type_number/network_port_number/network_port_description/
;
#X text 1465 203 Standard HELLO message: /hello/id/ip/human_name;
#X msg 1167 366 send /output/\$1/192.168.0.10/1/controller/40030/ON/40031/OFF/OSC/Microphone
;
#X obj 1164 126 value id15;
#X obj 1196 574 value id15;
#X obj 1157 885 route /hello /input /output /goodbye;
#X msg 1196 599 /goodbye/\$1/192.168.0.10/MicrophoneControl/disconnected
;
#X text 1203 624 Standard GOODBYE message: /goodbye/ID_number/IP_number/human_name/status
;
#X obj 377 508 osc/unpackOSC;
#X obj 377 535 osc/routeOSC /connection;
#X obj 377 561 list;
#X text 15 463 receives OSC messages from the network \, at the multicast
address and on the specified port -->;
#X text 228 505 unpack OSC messages -->;
#X text 122 535 route the OSC message to this address -->;
#X text 181 561 put the message into a list -->;
#X obj 375 654 osc/unpackOSC;
#X obj 375 707 list;
#X text 30 613 receives OSC messages from the network \, at the multicast
address and on the specified port -->;
#X text 225 654 unpack OSC messages -->;
#X text 118 681 route the OSC message to this address -->;
#X text 177 707 put the message into a list -->;
#X obj 375 681 osc/routeOSC /disconnection;
#X floatatom 72 289 5 0 1 0 - - -;
#X text 113 290 <-- connection status;
#X floatatom 645 280 5 0 1 0 - - -;
#X text 685 284 <-- connection status;
#X msg 81 93 disconnect 239.255.255.250 40030;
#X obj 377 467 mrpeach/net/udpreceive 224.0.0.0 55031;
#X obj 375 612 mrpeach/net/udpreceive 224.0.0.0 55033;
#X obj 360 822 osc/unpackOSC;
#X obj 360 849 osc/routeOSC /connection;
#X obj 360 875 list;
#X text -2 777 receives OSC messages from the network \, at the multicast
address and on the specified port -->;
#X text 211 819 unpack OSC messages -->;
#X text 105 849 route the OSC message to this address -->;
#X text 164 875 put the message into a list -->;
#X obj 358 968 osc/unpackOSC;
#X obj 358 1021 list;
#X text 13 927 receives OSC messages from the network \, at the multicast
address and on the specified port -->;
#X text 208 968 unpack OSC messages -->;
#X text 101 995 route the OSC message to this address -->;
#X text 160 1021 put the message into a list -->;
#X obj 358 995 osc/routeOSC /disconnection;
#X obj 360 781 mrpeach/net/udpreceive 224.0.0.0 55032;
#X obj 358 926 mrpeach/net/udpreceive 224.0.0.0 55034;
#X msg 654 82 disconnect 239.255.250 40031;
#X text 1261 573 <-- random ID number;
#X text 1192 63 <-- Connect and generates a random ID number;
#X text 1229 96 <-- generates a random ID number between 0 - 100;
#X text 1231 124 <-- store random ID number;
#X text 1310 148 <-- connect to OSC server;
#X text 1440 188 <-- presents the musical thing on the network;
#X text 1180 282 Standard INPUT message: /input/ID_number/IP_number/port_type_number/musical_thing_type(audio)/sample_rate/bit_depth/audio_file_format/channel_number/IP_connection/port_number/port_description/network_protocol/music_protocol/human_name
;
#X msg 1166 234 send /input/\$1/192.168.0.10/0/controller/0/1/224.0.0./55031/ON_CLI/55032/ON1_CLI/55033/OFF_CLI/55034/OFF1_CLIUDP/OSC/MicrophoneControlOnOff
, f 76;
#X connect 0 0 1 0;
#X connect 1 0 62 0;
#X connect 2 0 0 0;
#X connect 3 0 2 0;
#X connect 4 0 5 0;
#X connect 5 0 64 0;
#X connect 6 0 4 0;
#X connect 7 0 6 0;
#X connect 20 0 1 0;
#X connect 21 0 5 0;
#X connect 23 0 24 0;
#X connect 24 0 26 0;
#X connect 25 0 42 0;
#X connect 25 1 93 0;
#X connect 25 2 39 0;
#X connect 30 0 24 0;
#X connect 31 0 24 0;
#X connect 32 0 39 0;
#X connect 32 0 93 0;
#X connect 32 0 42 0;
#X connect 32 0 43 0;
#X connect 33 0 44 0;
#X connect 34 0 30 0;
#X connect 34 0 32 0;
#X connect 39 0 31 0;
#X connect 42 0 31 0;
#X connect 44 0 46 0;
#X connect 45 0 25 0;
#X connect 46 0 31 0;
#X connect 46 0 23 0;
#X connect 48 0 49 0;
#X connect 49 0 50 0;
#X connect 50 0 20 0;
#X connect 55 0 61 0;
#X connect 61 0 56 0;
#X connect 61 0 66 0;
#X connect 66 0 1 0;
#X connect 67 0 48 0;
#X connect 68 0 55 0;
#X connect 69 0 70 0;
#X connect 70 0 71 0;
#X connect 71 0 21 0;
#X connect 76 0 82 0;
#X connect 77 0 85 0;
#X connect 82 0 77 0;
#X connect 83 0 69 0;
#X connect 84 0 76 0;
#X connect 85 0 5 0;
#X connect 93 0 31 0;
