#N canvas 0 64 1920 987 10;
#X obj 38 114 dac~;
#X obj 37 45 mrpeach/net/udpreceive~ 3000 2;
#X text 69 114 <-- Audio output;
#X text 224 45 <-- Receive audio from network \; port number \; channel
number;
#X text 1251 39 MANAGEMENT LAYER;
#X msg 1177 616 disconnect;
#X obj 1130 681 mrpeach/udpsend;
#X obj 1126 777 t b b b;
#X obj 1130 722 tgl 25 0 empty empty empty 17 7 0 10 -228856 -1 -1
0 1;
#X text 1161 725 <-- connection status;
#X text 1231 644 <-- pack messages on OSC format;
#X text 1229 680 <-- send messages via network;
#X msg 1133 171 connect 224.0.0.1 60000;
#X obj 1132 643 mrpeach/packOSC;
#X obj 1133 119 random 101;
#X obj 1177 511 bng 18 250 50 0 empty empty empty 17 7 0 10 -258113
-1 -1;
#X obj 1133 82 bng 25 250 50 0 empty empty empty 17 7 0 10 -4034 -1
-1;
#X text 1621 271 <-- INPUT message;
#X text 1505 402 <-- OUTPUT message;
#X text 1203 514 <-- disconnect;
#X text 1481 559 <-- GOODBYE message;
#X msg 1134 208 send /hello/\$1/192.168.0.10/Loudspeaker;
#X text 1141 437 Standard OUTPUT message: /output/ID_number/IP_number/port_type_number/network_port_number/network_port_description/
;
#X text 1157 317 Standard INPUT message: /input/ID_number/IP_number/port_type_number/musical_thing_type(audio)/sample_rate/bit_depth/audio_file_format/channel_number/port_number/port_description/network_protocol/music_protocol/human_name
;
#X text 1407 223 Standard HELLO message: /hello/id/ip/human_name;
#X msg 1135 390 send /output/\$1/192.168.0.10/1/audio/44100/16bits/wav/2/3000/Loudspeaker
;
#X obj 1135 147 value id14;
#X obj 1177 535 value id14;
#X msg 1177 560 /goodbye/\$1/192.168.0.10/Loudspeaker/disconnected
;
#X text 1196 580 Standard GOODBYE message: /goodbye/ID_number/IP_number/human_name/status
;
#X text 1200 117 <-- generates random ID number;
#X text 1163 84 <-- Connect and generate random ID number;
#X text 1200 146 <-- store random ID number;
#X text 1282 169 <-- connect to OSC server;
#X text 1385 209 <-- presents musical thing to the network;
#X text 1242 535 <-- random ID number;
#N canvas 0 64 1920 987 Loudspeaker2 0;
#X obj 38 114 dac~;
#X text 69 114 <-- Audio output;
#X text 224 45 <-- Receive audio from network \; port number \; channel
number;
#X text 1251 39 MANAGEMENT LAYER;
#X msg 1177 616 disconnect;
#X obj 1130 681 mrpeach/udpsend;
#X obj 1126 777 t b b b;
#X obj 1130 722 tgl 25 0 empty empty empty 17 7 0 10 -228856 -1 -1
0 1;
#X text 1161 725 <-- connection status;
#X text 1231 644 <-- pack messages on OSC format;
#X text 1229 680 <-- send messages via network;
#X msg 1133 171 connect 224.0.0.1 60000;
#X obj 1132 643 mrpeach/packOSC;
#X obj 1133 119 random 101;
#X obj 1177 511 bng 18 250 50 0 empty empty empty 17 7 0 10 -258113
-1 -1;
#X obj 1133 82 bng 25 250 50 0 empty empty empty 17 7 0 10 -4034 -1
-1;
#X text 1629 264 <-- INPUT message;
#X text 1505 402 <-- OUTPUT message;
#X text 1203 514 <-- disconnect;
#X text 1482 559 <-- GOODBYE message;
#X text 1141 437 Standard OUTPUT message: /output/ID_number/IP_number/port_type_number/network_port_number/network_port_description/
;
#X text 1178 305 Standard INPUT message: /input/ID_number/IP_number/port_type_number/musical_thing_type(audio)/sample_rate/bit_depth/audio_file_format/channel_number/port_number/port_description/network_protocol/music_protocol/human_name
;
#X text 1407 217 Standard HELLO message: /hello/id/ip/human_name;
#X obj 1126 806 route /hello /input /output /goodbye;
#X text 1196 580 Standard GOODBYE message: /goodbye/ID_number/IP_number/human_name/status
;
#X text 1200 117 <-- generates random ID number;
#X text 1163 84 <-- Connect and generate random ID number;
#X text 1200 146 <-- store random ID number;
#X text 1282 169 <-- connect to OSC server;
#X text 1385 203 <-- presents musical thing to the network;
#X text 1242 535 <-- random ID number;
#X obj 439 1024 list;
#X text 212 1022 put the message into a list -->;
#X msg 1135 247 send /input/\$1/192.168.0.10/0/audio/44100/16bits/wav/2/40002/AudioPlayerSound/40010/DrumMachineSound/40020/GuitarXBassSound/40030/MicrophoneSound/40051/PitchforkSound/UDP/OSC/DrumMachine
, f 80;
#X obj 1135 147 value id38;
#X obj 1177 535 value id38;
#X msg 1134 208 send /hello/\$1/192.168.0.10/Loudspeaker2;
#X msg 1135 390 send /output/\$1/192.168.0.10/1/audio/44100/16bits/wav/2/3000/Loudspeaker2
;
#X msg 1177 560 /goodbye/\$1/192.168.0.10/Loudspeaker2/disconnected
;
#X obj 37 45 mrpeach/net/udpreceive~ 3021 2;
#X obj 1128 837 bng 22 250 50 0 empty empty empty 17 7 0 10 -159808
-1 -1;
#X text 1196 899 <-- same random number;
#X text 1154 837 <-- mode;
#X msg 1128 937 send /mode/\$1/192.168.0.10/Microphone/Performance_Mode
;
#X text 1174 973 Standard MODE message: /mode/ID_number/IP_number/human_name/status
;
#X obj 1128 900 value id38;
#X connect 4 0 5 0;
#X connect 5 0 7 0;
#X connect 6 0 37 0;
#X connect 6 0 43 0;
#X connect 6 1 33 0;
#X connect 6 2 36 0;
#X connect 11 0 5 0;
#X connect 12 0 5 0;
#X connect 13 0 36 0;
#X connect 13 0 33 0;
#X connect 13 0 37 0;
#X connect 13 0 34 0;
#X connect 14 0 35 0;
#X connect 15 0 11 0;
#X connect 15 0 13 0;
#X connect 23 0 6 0;
#X connect 33 0 12 0;
#X connect 35 0 38 0;
#X connect 36 0 12 0;
#X connect 37 0 12 0;
#X connect 38 0 12 0;
#X connect 38 0 4 0;
#X connect 39 0 0 0;
#X connect 39 0 0 1;
#X connect 40 0 45 0;
#X connect 43 0 12 0;
#X connect 45 0 43 0;
#X restore 353 245 pd Loudspeaker2;
#X text 371 220 SUBPATCH;
#X msg 454 480 vis 0;
#X obj 29 435 tgl 15 0 empty empty empty 17 7 0 10 -4034 -1 -1 0 1
;
#X obj 454 444 tgl 15 0 empty empty empty 17 7 0 10 -258113 -1 -1 0
1;
#X text 49 433 <-- OPEN;
#X msg 29 466 vis 1;
#X text 473 443 <-- CLOSE;
#X obj 29 348 osc/unpackOSC;
#X text 265 323 <-- Receive OSC message;
#X text 117 348 <-- convert OSC message to Pure Data;
#X obj 454 351 osc/unpackOSC;
#X text 689 327 <-- Receive OSC message;
#X text 542 353 <-- convert OSC message to Pure Data;
#X obj 29 498 s pd-Loudspeaker2;
#X obj 29 325 mrpeach/net/udpreceive 224.0.0.0 33530;
#X obj 454 326 mrpeach/net/udpreceive 224.0.0.0 33531;
#X obj 29 396 osc/routeOSC /loudspeaker;
#X obj 454 397 osc/routeOSC /loudspeaker;
#X msg 1135 247 send /input/\$1/192.168.0.10/0/audio/44100/16bits/wav/2/33530/OPEN_SUBPATCH_LOUDSPEAKER2/33531/CLOSE_SUBPATCH_LOUDSPEAKER2/40002/AudioPlayerSound/40010/DrumMachineSound/40020/GuitarXBassSound/40030/MicrophoneSound/40051/PitchforkSound/UDP/OSC/DrumMachine
, f 80;
#X obj 1126 847 bng 22 250 50 0 empty empty empty 17 7 0 10 -159808
-1 -1;
#X text 1192 909 <-- same random number;
#X text 1152 847 <-- mode;
#X msg 1126 947 send /mode/\$1/192.168.0.10/Microphone/Performance_Mode
;
#X text 1180 965 Standard MODE message: /mode/ID_number/IP_number/human_name/status
;
#X obj 1126 910 value id14;
#X obj 1126 806 route /hello /input /output /mode /goodbye;
#X connect 1 0 0 0;
#X connect 1 0 0 1;
#X connect 5 0 6 0;
#X connect 6 0 8 0;
#X connect 7 0 25 0;
#X connect 7 0 59 0;
#X connect 7 1 55 0;
#X connect 7 2 21 0;
#X connect 12 0 6 0;
#X connect 13 0 6 0;
#X connect 14 0 21 0;
#X connect 14 0 55 0;
#X connect 14 0 25 0;
#X connect 14 0 26 0;
#X connect 15 0 27 0;
#X connect 16 0 12 0;
#X connect 16 0 14 0;
#X connect 21 0 13 0;
#X connect 25 0 13 0;
#X connect 27 0 28 0;
#X connect 28 0 13 0;
#X connect 28 0 5 0;
#X connect 38 0 50 0;
#X connect 39 0 42 0;
#X connect 40 0 38 0;
#X connect 42 0 50 0;
#X connect 44 0 53 0;
#X connect 47 0 54 0;
#X connect 51 0 44 0;
#X connect 52 0 47 0;
#X connect 53 0 39 0;
#X connect 54 0 40 0;
#X connect 55 0 13 0;
#X connect 56 0 61 0;
#X connect 59 0 13 0;
#X connect 61 0 59 0;
#X connect 62 0 7 0;
