#N canvas 1920 56 1366 711 10;
#X obj 625 106 adc~;
#X msg 287 40 connect 192.168.0.10 3000;
#X msg 287 86 disconnect;
#X obj 287 212 ggee/streamout~;
#X floatatom 287 251 5 0 0 0 - - -, f 5;
#X obj 625 154 *~ 30;
#X text 443 39 envia áudio pela rede;
#X text 660 101 entrada de áudio (guitarra/baixo deve estar ligada
no computador);
#X text 661 155 aumenta volume da entrada de áudio;
#X text 388 213 envia áudio pela rede;
#X text 324 252 indica estado da conexão;
#X text 357 87 desconecta a ligação;
#X connect 0 0 5 0;
#X connect 1 0 3 0;
#X connect 2 0 3 0;
#X connect 3 0 4 0;
#X connect 5 0 3 0;
