#N canvas 2047 126 1128 426 10;
#X obj 138 210 osc/packOSC;
#X obj 72 253 mrpeach/net/udpsend;
#X msg 81 94 disconnect;
#X msg 138 181 send /mic \$1;
#X obj 138 137 tgl 15 0 empty empty empty 17 7 0 10 -4034 -1 -1 0 1
;
#X obj 711 207 osc/packOSC;
#X obj 645 250 mrpeach/net/udpsend;
#X msg 654 82 disconnect;
#X msg 711 178 send /mic \$1;
#X obj 711 134 tgl 15 0 empty empty empty 17 7 0 10 -258113 -1 -1 0
1;
#X text 155 135 <-- ON;
#X text 732 133 <-- OFF;
#X text 251 58 <-- connect to multicast address;
#X text 147 94 <-- close connection;
#X text 216 180 <-- prepare to send message;
#X text 213 210 <-- pack message in a OSC format;
#X text 194 255 <-- send OSC packet via network \, using mrpeach library
;
#X text 828 49 <-- connect to multicast address;
#X text 722 81 <-- close connection;
#X text 787 178 <-- prepare to send message;
#X text 783 209 <-- pack message in a OSC format;
#X text 767 251 <-- send OSC packet via network \, using mrpeach library
;
#X msg 70 57 connect 239.255.255.250 40030;
#X msg 645 49 connect 239.255.255.250 40031;
#X connect 0 0 1 0;
#X connect 2 0 1 0;
#X connect 3 0 0 0;
#X connect 4 0 3 0;
#X connect 5 0 6 0;
#X connect 7 0 6 0;
#X connect 8 0 5 0;
#X connect 9 0 8 0;
#X connect 22 0 1 0;
#X connect 23 0 6 0;
