#N canvas 2148 187 1067 449 10;
#X obj 120 209 osc/packOSC;
#X obj 54 252 mrpeach/net/udpsend;
#X msg 63 93 disconnect;
#X text 221 57 <-- conecta IP e porta;
#X text 130 92 <-- encerra conexão;
#X text 195 209 <-- converte uma mensagem PD para uma mensagem em OSC
;
#X text 244 181 <-- prepara a mensagem OSC;
#X text 181 250 <-- chama a biblioteca mrpeach \, que cria uma infraestrutura
de rede para transporte de mensagem OSC na mesma. Ela é enviada sob
o protocolo UDP \, de forma unidirecional;
#X msg 52 56 connect 192.168.0.10 40002;
#X msg 120 180 send /audioplayer \$1;
#X obj 121 126 tgl 15 0 empty empty empty 17 7 0 10 -262144 -1 -1 0
1;
#X obj 742 200 osc/packOSC;
#X obj 676 243 mrpeach/net/udpsend;
#X msg 685 84 disconnect;
#X msg 742 171 send /audioplayer \$1;
#X obj 743 117 tgl 15 0 empty empty empty 17 7 0 10 -262144 -1 -1 0
1;
#X text 695 250;
#X text 709 209;
#X text 758 181;
#X text 653 125;
#X text 644 92;
#X text 735 57;
#X msg 674 47 connect 192.168.0.10 40003;
#X text 758 115 <-- pausa o audio player;
#X text 139 125 <-- comando de PLAY. Não é capaz de abrir pasta com
arquivos.;
#X connect 0 0 1 0;
#X connect 2 0 1 0;
#X connect 8 0 1 0;
#X connect 9 0 0 0;
#X connect 10 0 9 0;
#X connect 11 0 12 0;
#X connect 13 0 12 0;
#X connect 14 0 11 0;
#X connect 15 0 14 0;
#X connect 22 0 12 0;
