#N canvas 0 64 1920 987 10;
#X msg 594 412 disconnect;
#X floatatom 594 625 0 0 0 0 - - -;
#X obj 785 538 adc~;
#X obj 785 476 hsl 128 15 0 127 0 0 empty empty empty -2 -8 0 10 -4034
-1 -1 0 1;
#X obj 782 384 osc/unpackOSC;
#X obj 782 361 mrpeach/net/udpreceive 40000;
#X obj 782 432 osc/routeOSC /volume;
#X obj 594 124 osc/unpackOSC;
#X obj 594 273 tgl 15 0 empty empty empty 17 7 0 10 -4034 -1 -1 0 1
;
#X obj 594 172 osc/routeOSC /mic;
#X obj 172 124 osc/unpackOSC;
#X obj 172 172 osc/routeOSC /mic;
#X obj 172 397 tgl 15 0 empty empty empty 17 7 0 10 -258113 -1 -1 0
1;
#X obj 594 600 mrpeach/net/udpsend~ 2;
#X msg 594 342 connect 239.255.255.250 3000;
#X text 815 539 <-- Audio input;
#X text 737 597 <-- send audio via Network in a UDP socket \, using
mrpeach library;
#X text 618 626 <-- connection status;
#X text 468 411 close connection -->;
#X text 413 342 connect multicast address -->;
#X text 615 271 <-- ON;
#X text 768 102 <-- Receive OSC message;
#X text 347 99 <-- Receive OSC message;
#X text 256 125 <-- convert OSC message to Pure Data;
#X text 677 123 <-- convert OSC message to Pure Data;
#X text 955 360 <-- Receive OSC message for volume control;
#X text 922 476 <-- Volume vslider (0 - 127);
#X text 907 431 <-- Receive data from 'volume' variable;
#X text 123 396 OFF -->;
#X obj 594 101 mrpeach/net/udpreceive 40030;
#X obj 172 101 mrpeach/net/udpreceive 40031;
#X connect 0 0 13 0;
#X connect 2 0 13 0;
#X connect 3 0 13 0;
#X connect 4 0 6 0;
#X connect 5 0 4 0;
#X connect 6 0 3 0;
#X connect 7 0 9 0;
#X connect 8 0 14 0;
#X connect 9 0 8 0;
#X connect 10 0 11 0;
#X connect 11 0 12 0;
#X connect 12 0 0 0;
#X connect 13 0 1 0;
#X connect 14 0 13 0;
#X connect 29 0 7 0;
#X connect 30 0 10 0;
