#N canvas 1920 74 1366 704 10;
#X obj 747 464 osc/packOSC;
#X obj 681 507 mrpeach/net/udpsend;
#X msg 690 348 disconnect;
#X msg 747 435 send /audioplayer \$1;
#X obj 748 381 tgl 15 0 empty empty empty 17 7 0 10 -4034 -1 -1 0 1
;
#X obj 734 156 osc/packOSC;
#X obj 667 203 mrpeach/net/udpsend;
#X msg 679 67 disconnect;
#X msg 734 125 send /audioplayer \$1;
#X obj 734 99 tgl 15 0 empty empty empty 17 7 0 10 -258113 -1 -1 0
1;
#X msg 667 43 connect 192.168.0.10 40003;
#X msg 679 311 connect 239.255.255.250 40002;
#X msg 91 79 disconnect;
#X obj 125 108 bng 15 250 50 0 empty empty empty 17 7 0 10 -4034 -1
-1;
#X msg 125 142 send /audioplayer_openfile \$1;
#X obj 125 176 osc/packOSC;
#X obj 79 232 mrpeach/net/udpsend;
#X msg 79 51 connect 239.255.255.250 40004;
#X text 757 347 <-- Close connection;
#X text 766 380 <-- PLAY audio file;
#X text 871 435 <-- sends the command in OSC format;
#X text 818 462 <-- convert Pure Data message to OSC;
#X text 859 312 <-- Connect to the multicast address \, on the indicated
port;
#X text 800 504 <-- send OSC data packaged in UDP \, using the mr peach
library;
#X text 260 50 <-- Connect to the multicast address \, on the indicated
port;
#X text 157 81 <-- Close connection;
#X text 142 105 <-- open audio file folder;
#X text 303 141 <-- sends the command in OSC format;
#X text 198 174 <-- convert Pure Data message to OSC;
#X text 200 230 <-- send OSC data packaged in UDP \, using the mr peach
library;
#X text 832 43 <-- Connect to the multicast address \, on the indicated
port;
#X text 746 66 <-- Close connection;
#X text 752 97 <-- PAUSE audio player;
#X text 859 124 <-- sends the command in OSC format;
#X text 807 155 <-- convert Pure Data message to OSC;
#X text 789 203 <-- send OSC data packaged in UDP \, using the mr peach
library;
#X msg 79 338 disconnect;
#X obj 113 435 osc/packOSC;
#X obj 67 491 mrpeach/net/udpsend;
#X text 248 309 <-- Connect to the multicast address \, on the indicated
port;
#X text 145 340 <-- Close connection;
#X text 186 433 <-- convert Pure Data message to OSC;
#X text 188 489 <-- send OSC data packaged in UDP \, using the mr peach
library;
#X obj 116 370 hsl 195 15 0 1 0 0 empty empty empty -2 -8 0 10 -159808
-1 -1 9400 1;
#X text 314 369 <-- control track time;
#X msg 113 401 send /track_timer \$1;
#X msg 75 551 disconnect;
#X obj 83 584 bng 15 250 50 0 empty empty empty 17 7 0 10 -260097 -1
-1;
#X obj 83 641 osc/packOSC;
#X obj 66 669 mrpeach/net/udpsend;
#X text 247 530 <-- Connect to the multicast address \, on the indicated
port;
#X text 143 551 <-- Close connection;
#X text 156 639 <-- convert Pure Data message to OSC;
#X text 187 667 <-- send OSC data packaged in UDP \, using the mr peach
library;
#X text 101 582 <-- restart audio track;
#X msg 83 607 send /restart \$1;
#X msg 67 310 connect 239.255.255.250 40005;
#X msg 66 531 connect 239.255.255.250 40006;
#X connect 0 0 1 0;
#X connect 2 0 1 0;
#X connect 3 0 0 0;
#X connect 4 0 3 0;
#X connect 5 0 6 0;
#X connect 7 0 6 0;
#X connect 8 0 5 0;
#X connect 9 0 8 0;
#X connect 10 0 6 0;
#X connect 11 0 1 0;
#X connect 12 0 16 0;
#X connect 13 0 14 0;
#X connect 14 0 15 0;
#X connect 15 0 16 0;
#X connect 17 0 16 0;
#X connect 36 0 38 0;
#X connect 37 0 38 0;
#X connect 43 0 45 0;
#X connect 45 0 37 0;
#X connect 46 0 49 0;
#X connect 47 0 55 0;
#X connect 48 0 49 0;
#X connect 55 0 48 0;
#X connect 56 0 38 0;
#X connect 57 0 49 0;
