#N canvas 428 286 1315 634 10;
#X obj 382 74 bng 15 250 50 0 empty empty empty 17 7 0 10 -262144 -1
-1;
#X obj 382 129 openpanel;
#X msg 382 178 open \$1;
#X obj 382 315 readsf~;
#X text 182 176 dispara o áudio -->;
#X msg 468 238 stop;
#X text 498 237 <-- interrompe a execução do áudio;
#X msg 773 184 disconnect;
#X obj 743 468 ggee/streamout~;
#X floatatom 743 564 5 0 0 0 - - -, f 5;
#X floatatom 783 275 5 0 0 0 - - -, f 5;
#X msg 743 87 connect 192.168.0.10 3000;
#X text 109 130 função que permite o direorio ser aberto -->;
#X text 97 74 abre a pasta com o arquivo a ser executado -->;
#X text 492 85 envia áudio para o endereço indicado -->;
#X text 842 182 < -- interrompe conexão;
#X text 844 468 <-- envia áudio pela rede;
#X text 434 177 <-- armazena arquivo de áudio;
#X text 75 313 Lê arquivo presente no disco rígido da máquina -->
;
#X msg 310 176 start;
#X connect 0 0 1 0;
#X connect 1 0 2 0;
#X connect 2 0 3 0;
#X connect 3 0 8 0;
#X connect 5 0 3 0;
#X connect 7 0 8 0;
#X connect 8 0 9 0;
#X connect 10 0 8 0;
#X connect 11 0 8 0;
#X connect 19 0 3 0;
