#N canvas 589 331 1171 424 10;
#X obj 138 210 osc/packOSC;
#X obj 72 253 mrpeach/net/udpsend;
#X msg 81 94 disconnect;
#X obj 138 137 tgl 15 0 empty empty empty 17 7 0 10 -4034 -1 -1 0 1
;
#X obj 709 202 osc/packOSC;
#X obj 643 245 mrpeach/net/udpsend;
#X msg 651 68 disconnect;
#X obj 709 129 tgl 15 0 empty empty empty 17 7 0 10 -258113 -1 -1 0
1;
#X text 155 135 <-- ON;
#X text 730 128 <-- OFF;
#X msg 138 181 send /sound \$1;
#X msg 709 173 send /sound \$1;
#X msg 643 44 connect 239.255.255.250 40021;
#X msg 70 57 connect 239.255.255.250 40020;
#X text 249 58 <-- connect to multicast address;
#X text 148 93 <-- close connection;
#X text 236 180 <-- prepare OSC message;
#X text 213 210 <-- convert Pure Data to OSC;
#X text 199 250 <-- send data via network \, in UDP packet \, using
mrpeach library;
#X text 832 45 <-- connect to multicast addres;
#X text 719 68 <-- close connection;
#X text 804 173 <-- prepare OSC message;
#X text 783 202 <-- convert Pure Data to OSC;
#X text 765 245 <-- send data via network \, in UDP packet \, using
mrpeach library;
#X connect 0 0 1 0;
#X connect 2 0 1 0;
#X connect 3 0 10 0;
#X connect 4 0 5 0;
#X connect 6 0 5 0;
#X connect 7 0 11 0;
#X connect 10 0 0 0;
#X connect 11 0 4 0;
#X connect 12 0 5 0;
#X connect 13 0 1 0;
