#N canvas 293 200 956 646 10;
#X msg 132 108 disconnect;
#X floatatom 132 235 0 0 0 0 - - -;
#X floatatom 149 159 0 0 0 0 - - -;
#X obj 132 210 ggee/streamout~;
#X obj 249 134 osc~ 440;
#X obj 283 88 mtof;
#X msg 280 24 60;
#X floatatom 350 139 5 0 0 0 - - -, f 5;
#X text 329 23 <- Dó central;
#X obj 211 168 *~;
#X obj 283 168 tgl 15 0 empty empty Liga_/_Desliga 17 7 0 10 -262144
-1 -1 0 1;
#X msg 100 67 connect 192.168.0.10 3000;
#X connect 0 0 3 0;
#X connect 2 0 3 0;
#X connect 3 0 1 0;
#X connect 4 0 9 0;
#X connect 5 0 4 0;
#X connect 5 0 7 0;
#X connect 6 0 5 0;
#X connect 9 0 3 0;
#X connect 10 0 9 1;
#X connect 11 0 3 0;
