#N canvas 143 224 1542 642 12;
#X obj 643 33 import Gem;
#X msg 464 223 create \, 1;
#X msg 481 253 destroy;
#X obj 464 369 gemwin;
#X msg 840 267 disconnect;
#X obj 794 389 netsend;
#X msg 478 284 dimen 500 500;
#X text 718 33 <-- import external Gem \, to allow video;
#X text 538 223 <-- create video object;
#X text 536 253 <-- close video object;
#X text 574 284 <-- screen dimensions;
#X msg 794 239 connect 239.255.255.250 3500;
#X text 994 238 <-- connect to multicast address;
#X text 917 267 <-- close connection;
#X text 847 389 <-- send video data to network;
#X text 512 366 <-- video object creator;
#X obj 464 186 tgl 15 0 empty empty empty 17 7 0 10 -4034 -1 -1 1 1
;
#X obj 464 108 osc/unpackOSC;
#X obj 464 76 mrpeach/net/udpreceive 40100;
#X obj 796 179 tgl 15 0 empty empty empty 17 7 0 10 -258113 -1 -1 0
1;
#X obj 796 101 osc/unpackOSC;
#X text 813 176 <-- STOP video recording via OSC;
#X text 481 183 <-- START video recording OSC;
#X text 998 69 <-- receive OSC message from network;
#X text 895 101 <-- convert OSC message to Pure data;
#X text 204 77 receive OSC message from network -->;
#X text 205 107 convert OSC message to Pure data -->;
#X obj 796 139 osc/routeOSC /video_control_off;
#X obj 464 146 osc/routeOSC /video_control_on;
#X obj 796 69 mrpeach/net/udpreceive 40101;
#X connect 1 0 3 0;
#X connect 2 0 3 0;
#X connect 3 0 5 0;
#X connect 4 0 5 0;
#X connect 6 0 3 0;
#X connect 11 0 5 0;
#X connect 16 0 1 0;
#X connect 17 0 28 0;
#X connect 18 0 17 0;
#X connect 19 0 2 0;
#X connect 20 0 27 0;
#X connect 27 0 19 0;
#X connect 28 0 16 0;
#X connect 29 0 20 0;
