#N canvas 0 57 1920 985 10;
#N canvas 0 50 450 250 (subpatch) 0;
#X array \$0-drumpattern 16 float 3;
#A 0 4.32857 4.92857 3.17143 0.428571 5.61429 0.642857 1.24286 3.51429
5.48572 3.98572 3.81429 4.02857 4.28572 4.45714 2.14286 3.42857;
#X coords 0 6 16 0 200 140 1 0 0;
#X restore 1003 143 graph;
#X text 1215 183 padrão de batidas (ctrl + click para alterar);
#X text 1216 209 0 = kick \, 1 = snare \, 2 = hihat \, 3 = kick e snare
\, 4 = kick e hihat. 5 = snare e hihat \, 6 = kick \, snare e hihat
;
#X obj 1019 341 array set \$0-drumpattern;
#X msg 1019 308 0 2 3 4 5 6 0 1 2 3 4 5 6 0 1 2;
#X text 1211 308 envia os valores da mensagem para a drum pattern (editável)
;
#N canvas 434 229 450 468 counter 1;
#X obj 62 44 inlet;
#X obj 121 43 inlet;
#X obj 62 85 tgl 15 0 empty empty empty 17 7 0 10 -204786 -1 -1 0 1
;
#X floatatom 121 84 5 0 0 0 - - -, f 5;
#X text 158 86 BPM;
#X obj 62 118 t f b;
#X msg 121 118 tempo \$1 permin;
#X obj 62 154 metro 0.25 120 permin;
#X text 145 193 reset;
#X obj 62 224 f;
#X obj 113 223 + 1;
#X obj 62 277 % 16;
#X obj 62 320 outlet;
#X msg 117 192 0;
#X connect 0 0 2 0;
#X connect 1 0 3 0;
#X connect 2 0 5 0;
#X connect 3 0 6 0;
#X connect 5 0 7 0;
#X connect 5 1 13 0;
#X connect 6 0 7 0;
#X connect 7 0 9 0;
#X connect 9 0 10 0;
#X connect 9 0 11 0;
#X connect 10 0 9 1;
#X connect 11 0 12 0;
#X connect 13 0 9 1;
#X restore 319 173 pd counter;
#X obj 319 136 tgl 15 0 empty empty empty 17 7 0 10 -262144 -1 -1 0
1;
#X floatatom 376 137 5 0 0 0 - - -, f 5;
#X text 411 138 BPM;
#X obj 319 213 hradio 15 1 0 16 empty empty empty 0 -8 0 10 -203904
-1 -1 4;
#X obj 319 288 array get \$0-drumpattern;
#X text 468 287 envia o drum pattern para o hradio;
#X msg 389 244 1;
#X floatatom 319 328 5 0 0 0 - - -, f 5;
#X obj 319 369 + 0.5;
#X obj 319 407 int;
#X floatatom 319 439 5 0 0 0 - - -, f 5;
#X text 342 408 usado para converter o valor do drum pattern para tipo
int;
#X text 351 440 resultado da conversão;
#X obj 319 489 select 0 1 2 3 4 5 6;
#X text 444 489 define comportamento para os elementos;
#N canvas 345 256 550 366 kick 1;
#X obj 50 38 inlet;
#X obj 132 39 inlet;
#X obj 50 79 bng 15 250 50 0 empty empty empty 17 7 0 10 -262144 -1
-1;
#X obj 117 115 f;
#X msg 50 153 150 \, 50 70 0;
#X obj 50 186 vline~;
#X msg 116 187 \$1 1 0 \, 0 100 1;
#X obj 50 220 osc~;
#X obj 116 220 vline~;
#X obj 50 254 *~;
#X obj 51 288 outlet~;
#X connect 0 0 2 0;
#X connect 1 0 3 1;
#X connect 2 0 3 0;
#X connect 2 0 4 0;
#X connect 3 0 6 0;
#X connect 4 0 5 0;
#X connect 5 0 7 0;
#X connect 6 0 8 0;
#X connect 7 0 9 0;
#X connect 8 0 9 1;
#X connect 9 0 10 0;
#X restore 319 563 pd kick;
#N canvas 627 369 692 446 snare 1;
#X obj 356 49 inlet;
#X obj 295 50 inlet;
#X obj 295 95 f;
#X msg 295 136 \$1 1 0 \, 0 150 1;
#X obj 295 176 vline~;
#X obj 296 218 *~;
#X obj 123 294 *~;
#X obj 124 336 outlet~;
#X obj 96 64 noise~;
#X obj 97 102 lop~ 3000;
#X obj 96 140 hip~ 1000;
#X obj 169 174 osc~ 180;
#X obj 168 202 *~ 0.5;
#X connect 0 0 2 1;
#X connect 1 0 2 0;
#X connect 2 0 3 0;
#X connect 3 0 4 0;
#X connect 4 0 5 0;
#X connect 4 0 5 1;
#X connect 5 0 6 1;
#X connect 6 0 7 0;
#X connect 8 0 9 0;
#X connect 9 0 10 0;
#X connect 10 0 6 0;
#X connect 11 0 12 0;
#X connect 12 0 6 0;
#X restore 380 564 pd snare;
#N canvas 639 328 714 502 hats 1;
#X obj 260 62 inlet;
#X obj 356 63 inlet;
#X obj 260 101 bng 15 250 50 0 empty empty empty 17 7 0 10 -262144
-1 -1;
#X obj 260 140 f;
#X obj 383 195 t f b;
#X obj 440 230 random 10;
#X obj 440 267 / 20;
#X obj 441 301 + 0.7;
#X obj 383 371 *;
#X msg 256 205 \$1 \, 0 40 1;
#X obj 256 248 vline~;
#X obj 137 303 *~;
#X obj 67 248 hip~ 10000;
#X obj 67 204 hip~ 20000;
#X obj 66 159 noise~;
#X obj 112 382 outlet~;
#X connect 0 0 2 0;
#X connect 1 0 3 1;
#X connect 2 0 3 0;
#X connect 3 0 4 0;
#X connect 4 0 8 0;
#X connect 4 1 5 0;
#X connect 5 0 6 0;
#X connect 6 0 7 0;
#X connect 7 0 8 1;
#X connect 8 0 9 0;
#X connect 9 0 10 0;
#X connect 10 0 11 1;
#X connect 11 0 15 0;
#X connect 12 0 11 0;
#X connect 13 0 12 0;
#X connect 14 0 13 0;
#X restore 451 566 pd hats;
#X floatatom 359 464 5 0 0 0 - - -, f 5;
#X floatatom 419 462 5 0 0 0 - - -, f 5;
#X floatatom 490 465 5 0 0 0 - - -, f 5;
#X text 527 464 volume;
#X msg 1107 426 4 0 2 10 5 10 2 0 2 10 4 0 5 10 6 10;
#X text 1332 426 kick groove;
#X msg 1081 454 4 10 2 10 5 10 2 2 2 10 4 10 5 0 2 2;
#X text 1305 453 Lay back;
#X msg 1063 483 4 2 4 2 5 2 4 5 2 5 4 5 5 4 2 5;
#X text 1254 483 funkky;
#X msg 1051 518 0 2 2 10 3 10 2 2 0 2 2 10 3 10 2 10;
#X text 1280 518 House;
#X msg 1035 546 0 1 2 2 1 0 2 1 10 10 4 0 1 2 2 2 0 10 2 10;
#X text 1305 546 UK Garage;
#X msg 1028 578 4 2 2 2 5 2 2 2 4 2 2 2 5 2 4 2;
#X text 1221 579 Rock;
#X obj 1023 637 array set \$0-drumpattern;
#X obj 355 640 +~;
#X text 384 640 mixer;
#X msg 467 709 connect 192.168.0.10 3000;
#X obj 354 817 ggee/streamout~;
#X msg 468 754 disconnect;
#X floatatom 354 883 5 0 0 0 - - -, f 5;
#X text 387 883 indica estado da conexão;
#X text 451 817 envia áudio pela rede;
#X text 535 754 disconecta da porta;
#X text 624 709 inicia conexão via rede \, pela porta 3000;
#X connect 4 0 3 0;
#X connect 6 0 10 0;
#X connect 7 0 6 0;
#X connect 8 0 6 1;
#X connect 10 0 11 0;
#X connect 11 0 14 0;
#X connect 13 0 11 1;
#X connect 14 0 15 0;
#X connect 15 0 16 0;
#X connect 16 0 17 0;
#X connect 17 0 20 0;
#X connect 20 0 22 0;
#X connect 20 1 23 0;
#X connect 20 2 23 0;
#X connect 20 2 24 0;
#X connect 20 3 22 0;
#X connect 20 4 22 0;
#X connect 20 4 24 0;
#X connect 20 5 23 0;
#X connect 20 5 24 0;
#X connect 20 6 22 0;
#X connect 20 6 23 0;
#X connect 20 6 24 0;
#X connect 22 0 42 0;
#X connect 23 0 42 0;
#X connect 24 0 42 0;
#X connect 25 0 22 1;
#X connect 26 0 23 1;
#X connect 27 0 24 1;
#X connect 29 0 41 0;
#X connect 31 0 41 0;
#X connect 33 0 41 0;
#X connect 35 0 41 0;
#X connect 37 0 41 0;
#X connect 39 0 41 0;
#X connect 42 0 45 0;
#X connect 44 0 45 0;
#X connect 45 0 47 0;
#X connect 46 0 45 0;
