#N canvas 1107 342 450 300 10;
#X msg 93 123 disconnect;
#X floatatom 93 250 0 0 0 0 - - -;
#X floatatom 110 174 0 0 0 0 - - -;
#X obj 93 225 ggee/streamout~;
#X obj 261 79 ggee/streamin~ 3000;
#X obj 301 119 hsl 128 15 0 1 0 0 empty empty empty -2 -8 0 10 -262144
-1 -1 0 1;
#X obj 262 165 *~;
#X msg 93 101 connect 192.168.0.10 3000;
#X connect 0 0 3 0;
#X connect 2 0 3 0;
#X connect 3 0 1 0;
#X connect 4 0 6 0;
#X connect 5 0 6 1;
#X connect 6 0 3 0;
#X connect 7 0 3 0;
