#N canvas 749 394 449 300 10;
#X msg 132 108 disconnect;
#X floatatom 132 235 0 0 0 0 - - -;
#X floatatom 149 159 0 0 0 0 - - -;
#X msg 132 86 connect meu_ip 3000;
#X obj 132 210 ggee/streamout~;
#X obj 249 134 osc~ 440;
#X obj 283 88 mtof;
#X msg 280 24 60;
#X floatatom 350 139 5 0 0 0 - - -, f 5;
#X text 329 23 <- Dó central;
#X connect 0 0 4 0;
#X connect 2 0 4 0;
#X connect 3 0 4 0;
#X connect 4 0 1 0;
#X connect 5 0 4 0;
#X connect 6 0 5 0;
#X connect 6 0 8 0;
#X connect 7 0 6 0;
