#N canvas 2272 246 450 300 10;
#X msg 132 108 disconnect;
#X floatatom 132 235 0 0 0 0 - - -;
#X floatatom 149 159 0 0 0 0 - - -;
#X obj 249 134 adc~;
#X obj 132 210 ggee/streamout~;
#X msg 132 86 connect localhost 3000;
#X connect 0 0 4 0;
#X connect 2 0 4 0;
#X connect 3 0 4 0;
#X connect 4 0 1 0;
#X connect 5 0 4 0;
