#N canvas 0 64 1920 987 12;
#X text 264 30 <-- connect to multicast address;
#X text 285 64 <-- close connection;
#X obj 53 255 mrpeach/net/udpsend;
#X text 193 256 <-- send OSC data packaged in UDP \, using the mrpeach
library;
#X obj 53 543 osc/unpackOSC;
#X obj 53 570 osc/routeOSC /connection;
#X obj 53 596 list;
#X obj 51 689 osc/unpackOSC;
#X obj 51 742 list;
#X obj 51 716 osc/routeOSC /disconnection;
#X floatatom 53 287 5 0 1 0 - - -;
#X text 91 288 <-- connection status;
#X msg 53 32 connect 255.255.255.255 12000;
#X msg 53 64 disconnect 255.255.255.255 12000;
#X obj 65 219 osc/packOSC;
#X floatatom 65 158 5 0 1000 0 - - -;
#X obj 68 104 hsl 128 15 0 255 0 0 empty empty empty -2 -8 0 10 -228856
-1 -1 0 1;
#X obj 65 131 int;
#X msg 65 190 send /corfundo \$1;
#X obj 239 219 osc/packOSC;
#X floatatom 239 158 5 0 1000 0 - - -;
#X obj 242 104 hsl 128 15 0 255 0 0 empty empty empty -2 -8 0 10 -191407
-1 -1 0 1;
#X obj 239 131 int;
#X msg 239 190 send /corlinhas \$1;
#X obj 441 212 osc/packOSC;
#X floatatom 441 151 5 0 1000 0 - - -;
#X obj 444 98 hsl 128 15 0 255 0 0 empty empty empty -2 -8 0 10 -128992
-1 -1 0 1;
#X obj 441 124 int;
#X msg 441 183 send /preenchimento \$1;
#X obj 649 215 osc/packOSC;
#X floatatom 649 154 5 0 1000 0 - - -;
#X obj 652 100 hsl 128 15 0 255 0 0 empty empty empty -2 -8 0 10 -99865
-1 -1 0 1;
#X obj 649 127 int;
#X msg 649 185 send /corelipse \$1;
#X msg 1269 645 disconnect;
#X obj 1229 721 mrpeach/udpsend;
#X obj 1227 815 t b b b;
#X obj 1229 762 tgl 25 0 empty empty empty 17 7 0 10 -228856 -1 -1
0 1;
#X text 1260 765 <-- connection status;
#X text 1342 684 <-- pack messages on OSC format;
#X text 1343 720 <-- send messages via network;
#X msg 1232 121 connect 224.0.0.1 60000;
#X obj 1231 683 mrpeach/packOSC;
#X obj 1232 69 random 101;
#X obj 1269 524 bng 18 250 50 0 empty empty empty 17 7 0 10 -258113
-1 -1;
#X obj 1232 32 bng 25 250 50 0 empty empty empty 17 7 0 10 -4034 -1
-1;
#X text 1732 219 <-- INPUT message;
#X text 1670 386 <-- OUTPUT message;
#X text 1295 527 <-- disconnect;
#X text 1676 573 <-- GOODBYE message;
#X text 1265 426 Standard OUTPUT message: /output/ID_number/IP_number/port_type_number/network_port_number/network_port_description/
;
#X text 1598 173 Standard HELLO message: /hello/id/ip/human_name;
#X text 1276 606 Standard GOODBYE message: /goodbye/ID_number/IP_number/human_name/status
;
#X text 1262 34 <-- connect and generate a random ID number;
#X text 1309 69 <-- generate a random ID number between 0 - 100;
#X text 1309 95 <-- store random ID number;
#X text 1403 120 <-- connect to OSC server;
#X text 1571 156 <-- presents the musical thing to the network;
#X text 1347 546 <-- random ID number;
#X text 1254 262 Standard INPUT message: /input/ID_number/IP_number/port_type_number/musical_thing_type(audio)/sample_rate/bit_depth/audio_file_format/channel_number/IP_connection/port_number/port_description/network_protocol/music_protocol/human_name
;
#X msg 1233 158 send /hello/\$1/192.168.0.10/Sempiternal_Graphic;
#X msg 1238 372 send /output/\$1/192.168.0.10/1/controller/0/500/225.255.255.255/12000/Color_control/UDP/OSC/Sempiternal_Graphic
;
#X msg 1269 573 /goodbye/\$1/192.168.0.10/Sempiternal_Graphic/disconnected
;
#X obj 53 502 mrpeach/net/udpreceive 224.0.0.0 13632;
#X obj 51 647 mrpeach/net/udpreceive 224.0.0.0 13633;
#X msg 1235 206 send /input/\$1/192.168.0.10/0/controller/1/224.0.0.0/13632/ON/13633/OFF/UDP/OSC/Sempiternal_Graphic
, f 70;
#X obj 1234 97 value id70;
#X obj 1269 548 value id70;
#X obj 1240 898 bng 22 250 50 0 empty empty empty 17 7 0 10 -159808
-1 -1;
#X text 1317 960 <-- same random number;
#X text 1266 898 <-- mode;
#X msg 1240 998 send /mode/\$1/192.168.0.10/Microphone/Performance_Mode
;
#X text 1286 1034 Standard MODE message: /mode/ID_number/IP_number/human_name/status
;
#X obj 1240 961 value id70;
#X obj 1228 856 route /hello /input /output /mode /goodbye;
#X connect 2 0 10 0;
#X connect 4 0 5 0;
#X connect 5 0 6 0;
#X connect 6 0 12 0;
#X connect 7 0 9 0;
#X connect 8 0 13 0;
#X connect 9 0 8 0;
#X connect 12 0 2 0;
#X connect 13 0 2 0;
#X connect 14 0 2 0;
#X connect 15 0 18 0;
#X connect 16 0 17 0;
#X connect 17 0 15 0;
#X connect 18 0 14 0;
#X connect 19 0 2 0;
#X connect 20 0 23 0;
#X connect 21 0 22 0;
#X connect 22 0 20 0;
#X connect 23 0 19 0;
#X connect 24 0 2 0;
#X connect 25 0 28 0;
#X connect 26 0 27 0;
#X connect 27 0 25 0;
#X connect 28 0 24 0;
#X connect 29 0 2 0;
#X connect 30 0 33 0;
#X connect 31 0 32 0;
#X connect 32 0 30 0;
#X connect 33 0 29 0;
#X connect 34 0 35 0;
#X connect 35 0 37 0;
#X connect 36 0 61 0;
#X connect 36 0 71 0;
#X connect 36 1 65 0;
#X connect 36 2 60 0;
#X connect 41 0 35 0;
#X connect 42 0 35 0;
#X connect 43 0 60 0;
#X connect 43 0 65 0;
#X connect 43 0 61 0;
#X connect 43 0 66 0;
#X connect 44 0 67 0;
#X connect 45 0 41 0;
#X connect 45 0 43 0;
#X connect 60 0 42 0;
#X connect 61 0 42 0;
#X connect 62 0 42 0;
#X connect 62 0 34 0;
#X connect 63 0 4 0;
#X connect 64 0 7 0;
#X connect 65 0 42 0;
#X connect 67 0 62 0;
#X connect 68 0 73 0;
#X connect 71 0 42 0;
#X connect 73 0 71 0;
#X connect 74 0 36 0;
