#N canvas 0 64 1920 987 10;
#N canvas 0 50 450 250 (subpatch) 0;
#X array \$0-drumpattern 16 float 3;
#A 0 0 0 8 2 8 8 8 8 8 8 8 8 8 8 8 8;
#X coords 0 6 16 0 200 140 1 0 0;
#X restore 1357 30 graph;
#X obj 1357 222 array set \$0-drumpattern;
#X msg 1357 189 0 2 3 4 5 6 0 1 2 3 4 5 6 0 1 2;
#N canvas 434 230 450 468 counter 0;
#X obj 62 44 inlet;
#X obj 121 43 inlet;
#X obj 62 85 tgl 15 0 empty empty empty 17 7 0 10 -204786 -1 -1 1 1
;
#X floatatom 121 84 5 0 0 0 - - -;
#X text 158 86 BPM;
#X obj 62 118 t f b;
#X msg 121 118 tempo \$1 permin;
#X obj 62 154 metro 0.25 120 permin;
#X text 145 193 reset;
#X obj 62 224 f;
#X obj 113 223 + 1;
#X obj 62 277 % 16;
#X obj 62 320 outlet;
#X msg 117 192 0;
#X connect 0 0 2 0;
#X connect 1 0 3 0;
#X connect 2 0 5 0;
#X connect 3 0 6 0;
#X connect 5 0 7 0;
#X connect 5 1 13 0;
#X connect 6 0 7 0;
#X connect 7 0 9 0;
#X connect 9 0 10 0;
#X connect 9 0 11 0;
#X connect 10 0 9 1;
#X connect 11 0 12 0;
#X connect 13 0 9 1;
#X restore 319 173 pd counter;
#X obj 136 158 tgl 15 0 empty empty empty 17 7 0 10 -232576 -1 -1 1
1;
#X floatatom 644 156 5 0 500 0 - - -;
#X obj 242 225 hradio 15 1 0 16 empty empty empty 0 -8 0 10 -4032 -1
-1 11;
#X obj 242 300 array get \$0-drumpattern;
#X msg 312 256 1;
#X floatatom 242 340 5 0 0 0 - - -;
#X obj 242 381 + 0.5;
#X obj 242 419 int;
#X floatatom 242 451 5 0 0 0 - - -;
#X obj 242 501 select 0 1 2 3 4 5 6;
#N canvas 345 257 550 366 kick 0;
#X obj 50 38 inlet;
#X obj 132 39 inlet;
#X obj 50 79 bng 15 250 50 0 empty empty empty 17 7 0 10 -262144 -1
-1;
#X obj 117 115 f;
#X msg 50 153 150 \, 50 70 0;
#X obj 50 186 vline~;
#X msg 116 187 \$1 1 0 \, 0 100 1;
#X obj 50 220 osc~;
#X obj 116 220 vline~;
#X obj 50 254 *~;
#X obj 51 288 outlet~;
#X connect 0 0 2 0;
#X connect 1 0 3 1;
#X connect 2 0 3 0;
#X connect 2 0 4 0;
#X connect 3 0 6 0;
#X connect 4 0 5 0;
#X connect 5 0 7 0;
#X connect 6 0 8 0;
#X connect 7 0 9 0;
#X connect 8 0 9 1;
#X connect 9 0 10 0;
#X restore 242 575 pd kick;
#N canvas 627 370 692 446 snare 0;
#X obj 356 49 inlet;
#X obj 295 50 inlet;
#X obj 295 95 f;
#X msg 295 136 \$1 1 0 \, 0 150 1;
#X obj 295 176 vline~;
#X obj 296 218 *~;
#X obj 123 294 *~;
#X obj 124 336 outlet~;
#X obj 96 64 noise~;
#X obj 97 102 lop~ 3000;
#X obj 96 140 hip~ 1000;
#X obj 169 174 osc~ 180;
#X obj 168 202 *~ 0.5;
#X connect 0 0 2 1;
#X connect 1 0 2 0;
#X connect 2 0 3 0;
#X connect 3 0 4 0;
#X connect 4 0 5 0;
#X connect 4 0 5 1;
#X connect 5 0 6 1;
#X connect 6 0 7 0;
#X connect 8 0 9 0;
#X connect 9 0 10 0;
#X connect 10 0 6 0;
#X connect 11 0 12 0;
#X connect 12 0 6 0;
#X restore 303 576 pd snare;
#N canvas 639 329 714 502 hats 0;
#X obj 260 62 inlet;
#X obj 356 63 inlet;
#X obj 260 101 bng 15 250 50 0 empty empty empty 17 7 0 10 -262144
-1 -1;
#X obj 260 140 f;
#X obj 383 195 t f b;
#X obj 440 230 random 10;
#X obj 440 267 / 20;
#X obj 441 301 + 0.7;
#X obj 383 371 *;
#X msg 256 205 \$1 \, 0 40 1;
#X obj 256 248 vline~;
#X obj 137 303 *~;
#X obj 67 248 hip~ 10000;
#X obj 67 204 hip~ 20000;
#X obj 66 159 noise~;
#X obj 112 382 outlet~;
#X connect 0 0 2 0;
#X connect 1 0 3 1;
#X connect 2 0 3 0;
#X connect 3 0 4 0;
#X connect 4 0 8 0;
#X connect 4 1 5 0;
#X connect 5 0 6 0;
#X connect 6 0 7 0;
#X connect 7 0 8 1;
#X connect 8 0 9 0;
#X connect 9 0 10 0;
#X connect 10 0 11 1;
#X connect 11 0 15 0;
#X connect 12 0 11 0;
#X connect 13 0 12 0;
#X connect 14 0 13 0;
#X restore 374 578 pd hats;
#X floatatom 282 476 5 0 100 0 - - -;
#X floatatom 342 474 5 0 100 0 - - -;
#X floatatom 413 477 5 0 100 0 - - -;
#X msg 1359 249 4 0 2 10 5 10 2 0 2 10 4 0 5 10 6 10;
#X text 1584 249 kick groove;
#X msg 1361 279 4 10 2 10 5 10 2 2 2 10 4 10 5 0 2 2;
#X text 1585 278 Lay back;
#X msg 1363 307 4 2 4 2 5 2 4 5 2 5 4 5 5 4 2 5;
#X text 1554 307 funkky;
#X msg 1365 336 0 2 2 10 3 10 2 2 0 2 2 10 3 10 2 10;
#X text 1594 336 House;
#X msg 1367 364 0 1 2 2 1 0 2 1 10 10 4 0 1 2 2 2 0 10 2 10;
#X text 1637 364 UK Garage;
#X msg 1363 391 4 2 2 2 5 2 2 2 4 2 2 2 5 2 4 2;
#X text 1561 394 Rock;
#X obj 1365 441 array set \$0-drumpattern;
#X obj 278 652 +~;
#X text 307 652 mixer;
#X text 16 157 ON/OFF via OSC -->;
#X text 679 157 <-- BPM;
#X text 485 223 <-- BPM pattern;
#X text 391 299 <-- sends the drum pattern to the hratio;
#X text 450 476 <-- kick \, snare and hi-hats volume;
#X text 6 500 defines behavior for the elements -->;
#X text 1569 70 Drum pattern (ctrl + click to change);
#X text 1562 100 0 = kick \, 1 = snare \, 2 = hihat \, 3 = kick & snare
\, 4 = kick & hihat \, 5 = snare & hihat \, 6 = kick \, snare & hihat
;
#X text 1554 188 <-- send the message values to the drum pattern (can
be edited);
#X obj 136 63 receive fromGUI;
#X obj 136 89 list trim;
#X text 235 62 <-- Receive messages from MobMuPlat;
#X text 198 87 <-- Divide the commands within the list;
#X text 285 115 <-- Route information to this address;
#X obj 136 115 route /on_mobmuplat_drum;
#X obj 644 71 receive fromGUI;
#X obj 644 97 list trim;
#X text 743 70 <-- Receive messages from MobMuPlat;
#X text 706 95 <-- Divide the commands within the list;
#X text 806 123 <-- Route information to this address;
#X obj 644 123 route /bpm_mobmuplat_drum;
#X obj 727 266 receive fromGUI;
#X obj 727 292 list trim;
#X text 826 265 <-- Receive messages from MobMuPlat;
#X text 789 290 <-- Divide the commands within the list;
#X text 1026 322 <-- Route information to this address;
#X obj 727 318 route /kick_mobmuplat_drum /snare_mobmuplat_drum /hats_mobmuplat_drum
;
#X text 104 451 conversion result -->;
#X text 267 418 <-- convert the drum pattern value to type int;
#X obj 277 691 dac~;
#X text 1696 422 sunflower;
#X msg 1375 416 0 0 8 2 8 8 8 8 8 8 8 8 8 8 8 8;
#X connect 2 0 1 0;
#X connect 3 0 6 0;
#X connect 4 0 3 0;
#X connect 5 0 3 1;
#X connect 6 0 7 0;
#X connect 7 0 9 0;
#X connect 8 0 7 1;
#X connect 9 0 10 0;
#X connect 10 0 11 0;
#X connect 11 0 12 0;
#X connect 12 0 13 0;
#X connect 13 0 14 0;
#X connect 13 1 15 0;
#X connect 13 2 15 0;
#X connect 13 2 16 0;
#X connect 13 3 14 0;
#X connect 13 4 14 0;
#X connect 13 4 16 0;
#X connect 13 5 15 0;
#X connect 13 5 16 0;
#X connect 13 6 14 0;
#X connect 13 6 15 0;
#X connect 13 6 16 0;
#X connect 14 0 33 0;
#X connect 15 0 33 0;
#X connect 16 0 33 0;
#X connect 17 0 14 1;
#X connect 18 0 15 1;
#X connect 19 0 16 1;
#X connect 20 0 32 0;
#X connect 22 0 32 0;
#X connect 24 0 32 0;
#X connect 26 0 32 0;
#X connect 28 0 32 0;
#X connect 30 0 32 0;
#X connect 33 0 64 0;
#X connect 44 0 45 0;
#X connect 45 0 49 0;
#X connect 49 0 4 0;
#X connect 50 0 51 0;
#X connect 51 0 55 0;
#X connect 55 0 5 0;
#X connect 56 0 57 0;
#X connect 57 0 61 0;
#X connect 61 0 17 0;
#X connect 61 1 18 0;
#X connect 61 2 19 0;
#X connect 66 0 32 0;
