#N canvas 0 64 1920 987 12;
#X obj 158 199 adc~ 1;
#X obj 159 410 *~;
#X obj 217 395 hsl 128 15 0 100 0 0 empty empty empty -2 -8 0 10 -4034
-1 -1 5588 1;
#X obj 158 469 dac~;
#X text 352 393 <-- Gain;
#X obj 177 175 tgl 15 0 empty empty empty 17 7 0 10 -4034 -1 -1 0 1
;
#X text 193 173 <-- ON/OFF;
#X text 210 199 <-- Audio Input;
#X text 193 467 <-- Audio Output;
#X obj 214 299 receive fromGUI;
#X obj 214 325 list trim;
#X obj 214 352 route /volume_mobmuplat_mic;
#X text 285 325 <-- Divide the commands within the list;
#X text 408 351 <-- Route information to this address;
#X text 327 297 <-- Receive messages from MobMuPlat;
#X obj 177 60 receive fromGUI;
#X obj 177 82 list trim;
#X text 288 57 <-- Receive messages from MobMuPlat;
#X text 249 81 <-- Divide the commands within the list;
#X text 352 102 <-- Route information to this address;
#X obj 177 103 route /on_mobmuplat_mic;
#X floatatom 177 133 5 0 0 0 - - -;
#X obj 355 147 select 0 1;
#N canvas 0 64 1920 987 mic_aux_2 0;
#X obj 150 197 adc~ 1;
#X obj 149 407 *~;
#X obj 205 392 hsl 128 15 0 100 0 0 empty empty empty -2 -8 0 10 -4034
-1 -1 127 1;
#X obj 149 444 dac~;
#X text 340 390 <-- Gain;
#X obj 167 172 tgl 15 0 empty empty empty 17 7 0 10 -4034 -1 -1 0 1
;
#X text 185 171 <-- ON/OFF;
#X text 200 198 <-- Audio Input;
#X text 184 442 <-- Audio Output;
#X obj 202 296 receive fromGUI;
#X obj 202 322 list trim;
#X text 273 322 <-- Divide the commands within the list;
#X text 413 348 <-- Route information to this address;
#X text 315 294 <-- Receive messages from MobMuPlat;
#X obj 167 30 receive fromGUI;
#X obj 167 52 list trim;
#X text 278 27 <-- Receive messages from MobMuPlat;
#X text 239 51 <-- Divide the commands within the list;
#X text 348 72 <-- Route information to this address;
#X floatatom 167 103 5 0 0 0 - - -;
#X obj 167 127 select 0 1;
#X obj 167 73 route /on_mobmuplat_mic_2;
#X obj 202 349 route /volume_mobmuplat_mic_2;
#X connect 0 0 1 0;
#X connect 1 0 3 0;
#X connect 2 0 1 1;
#X connect 5 0 1 1;
#X connect 9 0 10 0;
#X connect 10 0 22 0;
#X connect 14 0 15 0;
#X connect 15 0 21 0;
#X connect 19 0 20 0;
#X connect 20 0 5 0;
#X connect 20 1 5 0;
#X connect 21 0 19 0;
#X connect 22 0 2 0;
#X restore 145 552 pd mic_aux_2;
#N canvas 0 64 1920 987 mic_aux_3 0;
#X obj 150 197 adc~ 1;
#X obj 149 407 *~;
#X obj 205 392 hsl 128 15 0 100 0 0 empty empty empty -2 -8 0 10 -4034
-1 -1 0 1;
#X obj 149 444 dac~;
#X text 340 390 <-- Gain;
#X obj 167 172 tgl 15 0 empty empty empty 17 7 0 10 -4034 -1 -1 0 1
;
#X text 185 171 <-- ON/OFF;
#X text 200 198 <-- Audio Input;
#X text 184 442 <-- Audio Output;
#X obj 202 296 receive fromGUI;
#X obj 202 322 list trim;
#X text 273 322 <-- Divide the commands within the list;
#X text 413 348 <-- Route information to this address;
#X text 315 294 <-- Receive messages from MobMuPlat;
#X obj 167 30 receive fromGUI;
#X obj 167 52 list trim;
#X text 278 27 <-- Receive messages from MobMuPlat;
#X text 239 51 <-- Divide the commands within the list;
#X text 348 72 <-- Route information to this address;
#X floatatom 167 103 5 0 0 0 - - -;
#X obj 167 127 select 0 1;
#X obj 167 73 route /on_mobmuplat_mic_3;
#X obj 202 349 route /volume_mobmuplat_mic_3;
#X connect 0 0 1 0;
#X connect 1 0 3 0;
#X connect 2 0 1 1;
#X connect 5 0 1 1;
#X connect 9 0 10 0;
#X connect 10 0 22 0;
#X connect 14 0 15 0;
#X connect 15 0 21 0;
#X connect 19 0 20 0;
#X connect 20 0 5 0;
#X connect 20 1 5 0;
#X connect 21 0 19 0;
#X connect 22 0 2 0;
#X restore 145 585 pd mic_aux_3;
#X connect 0 0 1 0;
#X connect 1 0 3 0;
#X connect 2 0 1 1;
#X connect 5 0 1 1;
#X connect 9 0 10 0;
#X connect 10 0 11 0;
#X connect 11 0 2 0;
#X connect 15 0 16 0;
#X connect 16 0 20 0;
#X connect 20 0 21 0;
#X connect 21 0 22 0;
#X connect 22 0 5 0;
#X connect 22 1 5 0;
