#N canvas 1920 376 1366 704 10;
#X obj 469 445 mtof;
#X floatatom 469 479 5 0 1000 0 - - -;
#X obj 472 395 hsl 128 15 0 100 0 0 empty empty empty -2 -8 0 10 -4032
-1 -1 1651 1;
#X msg 469 356 69;
#X obj 469 502 osc~ 440;
#X text 384 354 MIDI note-->;
#X text 500 446 <-- MIDI to frequency;
#X text 507 480 <-- Hz value;
#X text 522 503 <-- frequency;
#X text 604 393 <-- change frequency (MIDI note);
#X text 492 355 <- A = 440 (C = 63);
#N canvas 1920 376 1366 704 pitchfork2 0;
#X obj 469 445 mtof;
#X floatatom 469 479 5 0 1000 0 - - -;
#X obj 472 395 hsl 128 15 0 100 0 0 empty empty empty -2 -8 0 10 -4032
-1 -1 6350 1;
#X msg 469 356 69;
#X obj 469 502 osc~ 440;
#X text 384 354 MIDI note-->;
#X text 500 446 <-- MIDI to frequency;
#X text 507 480 <-- Hz value;
#X text 522 503 <-- frequency;
#X text 604 393 <-- change frequency (MIDI note);
#X text 492 355 <- A = 440 (C = 63);
#X obj 470 247 receive fromGUI;
#X obj 470 273 list trim;
#X text 569 246 <-- Receive messages from MobMuPlat;
#X text 532 271 <-- Divide the commands within the list;
#X text 676 298 <-- Route information to this address;
#X obj 469 572 *~;
#X obj 789 557 hsl 128 15 0 100 0 0 empty empty empty -2 -8 0 10 -4034
-1 -1 1143 1;
#X obj 469 623 dac~;
#X text 924 555 <-- Gain;
#X obj 485 205 tgl 15 0 empty empty empty 17 7 0 10 -4034 -1 -1 0 1
;
#X text 505 203 <-- ON/OFF;
#X text 504 621 <-- Audio Output;
#X obj 786 461 receive fromGUI;
#X obj 786 487 list trim;
#X text 857 487 <-- Divide the commands within the list;
#X text 1002 516 <-- Route information to this address;
#X text 899 459 <-- Receive messages from MobMuPlat;
#X obj 485 53 receive fromGUI;
#X obj 485 75 list trim;
#X text 596 50 <-- Receive messages from MobMuPlat;
#X text 557 74 <-- Divide the commands within the list;
#X text 678 96 <-- Route information to this address;
#X floatatom 485 126 5 0 0 0 - - -;
#X obj 485 148 select 0 1;
#X obj 485 96 route /on_mobmuplat_pitchfork_2;
#X obj 470 299 route /freq_mobmuplat_pitchfork_2;
#X obj 786 514 route /volume_mobmuplat_pitchfork_2;
#X connect 0 0 1 0;
#X connect 0 0 4 0;
#X connect 2 0 0 0;
#X connect 3 0 2 0;
#X connect 4 0 16 0;
#X connect 11 0 12 0;
#X connect 12 0 36 0;
#X connect 16 0 18 0;
#X connect 17 0 16 1;
#X connect 20 0 16 1;
#X connect 23 0 24 0;
#X connect 24 0 37 0;
#X connect 28 0 29 0;
#X connect 29 0 35 0;
#X connect 33 0 34 0;
#X connect 34 0 20 0;
#X connect 34 1 20 0;
#X connect 35 0 33 0;
#X connect 36 0 2 0;
#X connect 37 0 17 0;
#X restore 144 67 pd pitchfork2;
#X text 162 43 SUBPATCH;
#X obj 470 247 receive fromGUI;
#X obj 470 273 list trim;
#X text 569 246 <-- Receive messages from MobMuPlat;
#X text 532 271 <-- Divide the commands within the list;
#X text 663 299 <-- Route information to this address;
#X obj 469 572 *~;
#X obj 789 557 hsl 128 15 0 100 0 0 empty empty empty -2 -8 0 10 -4034
-1 -1 1651 1;
#X obj 469 623 dac~;
#X text 924 555 <-- Gain;
#X obj 485 205 tgl 15 0 empty empty empty 17 7 0 10 -4034 -1 -1 0 1
;
#X text 505 203 <-- ON/OFF;
#X text 504 621 <-- Audio Output;
#X obj 786 461 receive fromGUI;
#X obj 786 487 list trim;
#X text 857 487 <-- Divide the commands within the list;
#X text 993 514 <-- Route information to this address;
#X text 899 459 <-- Receive messages from MobMuPlat;
#X obj 485 53 receive fromGUI;
#X obj 485 75 list trim;
#X text 596 50 <-- Receive messages from MobMuPlat;
#X text 557 74 <-- Divide the commands within the list;
#X text 667 95 <-- Route information to this address;
#X floatatom 485 126 5 0 0 0 - - -;
#X obj 485 148 select 0 1;
#X obj 485 96 route /on_mobmuplat_pitchfork;
#X obj 470 299 route /freq_mobmuplat_pitchfork;
#X obj 786 514 route /volume_mobmuplat_pitchfork;
#X connect 0 0 1 0;
#X connect 0 0 4 0;
#X connect 2 0 0 0;
#X connect 3 0 2 0;
#X connect 4 0 18 0;
#X connect 13 0 14 0;
#X connect 14 0 38 0;
#X connect 18 0 20 0;
#X connect 19 0 18 1;
#X connect 22 0 18 1;
#X connect 25 0 26 0;
#X connect 26 0 39 0;
#X connect 30 0 31 0;
#X connect 31 0 37 0;
#X connect 35 0 36 0;
#X connect 36 0 22 0;
#X connect 36 1 22 0;
#X connect 37 0 35 0;
#X connect 38 0 2 0;
#X connect 39 0 19 0;
