#N canvas 0 64 1920 987 10;
#X obj 463 893 *~;
#X obj 521 893 *~;
#X obj 928 762 vsl 15 128 0 127 0 0 empty empty empty 0 -9 0 10 -4034
-1 -1 0 1;
#N canvas 0 50 450 250 (subpatch) 0;
#X array channelL 1.31893e+06 float 0;
#X coords 0 1 1.31893e+06 -1 200 140 1;
#X restore 1269 193 graph;
#N canvas 0 50 450 250 (subpatch) 0;
#X array channelR 1.31893e+06 float 0;
#X coords 0 1 1.31893e+06 -1 200 140 1;
#X restore 1269 370 graph;
#X obj 464 120 openpanel;
#X obj 464 89 bng 15 250 50 0 empty empty empty 17 7 0 10 -4034 -1
-1;
#X msg 464 160 read -resize \$1 channelL channelR;
#X obj 464 200 soundfiler;
#X floatatom 497 233 12 0 0 0 - - -;
#X obj 464 293 expr 44100 / $f1;
#X obj 497 268 s sampleSize;
#X floatatom 487 337 12 0 0 0 - - -;
#X obj 464 420 phasor~;
#X obj 465 524 *~;
#X obj 531 495 r sampleSize;
#X obj 464 736 tabread4~ channelL;
#X obj 495 783 tabread4~ channelR;
#X obj 539 616 snapshot~;
#X obj 539 580 metro 50;
#X obj 539 548 tgl 15 0 empty empty empty 17 7 0 10 -4034 -1 -1 1 1
;
#X floatatom 539 645 12 0 0 0 - - -;
#X obj 539 673 /;
#X obj 591 674 r sampleSize;
#X floatatom 539 711 5 0 0 0 - - -;
#X obj 1281 634 hsl 195 15 0 1 0 0 empty empty empty -2 -8 0 10 -159808
-1 -1 0 1;
#X obj 659 398 hsl 128 15 -1 1 0 0 empty empty empty -2 -8 0 10 -204800
-1 -1 6887 1;
#X floatatom 656 422 5 0 0 0 - - -;
#X msg 854 531 0;
#X msg 854 560 0.5;
#X msg 265 378 0;
#X text 227 378 PAUSE;
#X msg 259 442 1;
#X obj 258 321 t b b;
#X obj 98 306 bng 15 250 50 0 empty empty empty 17 7 0 10 -258113 -1
-1;
#X msg 656 372 0.0846098;
#X msg 1258 867 disconnect;
#X floatatom 1241 964 5 0 0 0 - - -;
#X obj 1341 40 osc/unpackOSC;
#X obj 1341 117 tgl 15 0 empty empty empty 17 7 0 10 -4034 -1 -1 1
1;
#X obj 1341 12 mrpeach/net/udpreceive 40002;
#X obj 1341 88 osc/routeOSC /audioplayer;
#X obj 199 638 osc/unpackOSC;
#X obj 199 686 osc/routeOSC /audioplayer;
#X obj 98 704 tgl 15 0 empty empty empty 17 7 0 10 -258113 -1 -1 0
1;
#X obj 199 610 mrpeach/net/udpreceive 40003;
#X obj 928 710 osc/unpackOSC;
#X obj 928 687 mrpeach/net/udpreceive 40000;
#X obj 928 735 osc/routeOSC /volume;
#X msg 1241 827 connect 239.255.255.250 3000;
#X obj 1241 911 mrpeach/net/udpsend~ 2;
#X text 525 119 <-- open folder to select the audio file;
#X text 668 161 <-- resizes the array to hold all audio samples;
#X text 530 199 <-- open audio file;
#X text 566 294 <-- sample rate;
#X text 564 334 <-- reads sample per second on the phasor (varies from
audio to audio);
#X text 718 371 <-- PLAY / Speed control;
#X text 791 395 <-- Speed vslider;
#X text 877 531 <-- RESTART;
#X text 880 560 <-- play the sample from the middle;
#X text 487 523 <-- receives phasor output;
#X text 554 547 <-- Turn on track timer;
#X text 600 615 <-- position of the audio sample in track timer;
#X text 577 735 <-- play on the left channel;
#X text 611 782 <-- play on the right channel;
#X text 1102 686 <-- allows volume control via network;
#X text 1415 826 <-- send message to the network's multicast address
;
#X text 1333 868 <-- disconnect;
#X text 1378 911 <-- sends audio data over the network;
#X text 1276 964 <-- connection status;
#X text 1481 634 <-- Track timer;
#X text 1472 431 <-- Right Channel;
#X text 1470 252 <-- Left Channel;
#X text 1358 116 <-- receives data from the Audio Player control via
network;
#X text 92 275 STOP \, then returns to begin;
#X text 59 729 STOP via network;
#X text 219 474 Increases speed;
#X text 1155 88 Send information to toggle -->;
#X text 1209 42 convert OSC to PD -->;
#X text 1155 13 Receive network connection -->;
#X text 459 919 sends the sound data to the network. Key piece in the
code shown here;
#X text 950 830 <-- volume slider (0 - 127);
#X obj 464 14 mrpeach/net/udpreceive 40004;
#X obj 464 38 osc/unpackOSC;
#X obj 464 60 osc/routeOSC /audioplayer_openfile;
#X text 482 87 <-- Trigger openpanel via network;
#X text 638 14 <-- receive control from network;
#X obj 1278 578 osc/unpackOSC;
#X obj 1278 603 osc/routeOSC /track_timer;
#X obj 1278 555 mrpeach/net/udpreceive 40005;
#X obj 854 462 osc/unpackOSC;
#X obj 854 439 mrpeach/net/udpreceive 40006;
#X obj 854 487 osc/routeOSC /restart;
#X obj 854 508 bng 15 250 50 0 empty empty empty 17 7 0 10 -260097
-1 -1;
#X text 874 509 <-- Restart button;
#X text 1028 437 <-- receive message from network;
#X text 1453 554 <-- receive message from network;
#X connect 0 0 50 0;
#X connect 1 0 50 0;
#X connect 2 0 1 1;
#X connect 2 0 0 1;
#X connect 5 0 7 0;
#X connect 6 0 5 0;
#X connect 7 0 8 0;
#X connect 8 0 9 0;
#X connect 8 0 10 0;
#X connect 9 0 11 0;
#X connect 10 0 12 0;
#X connect 10 0 13 0;
#X connect 12 0 35 0;
#X connect 13 0 14 0;
#X connect 14 0 16 0;
#X connect 14 0 17 0;
#X connect 14 0 18 0;
#X connect 15 0 14 1;
#X connect 16 0 0 0;
#X connect 17 0 1 0;
#X connect 18 0 21 0;
#X connect 19 0 18 0;
#X connect 20 0 19 0;
#X connect 21 0 22 0;
#X connect 22 0 24 0;
#X connect 23 0 22 1;
#X connect 24 0 25 0;
#X connect 26 0 27 0;
#X connect 27 0 13 0;
#X connect 28 0 13 1;
#X connect 29 0 13 1;
#X connect 30 0 13 0;
#X connect 32 0 13 0;
#X connect 33 0 28 0;
#X connect 33 1 30 0;
#X connect 34 0 33 0;
#X connect 35 0 26 0;
#X connect 36 0 50 0;
#X connect 38 0 41 0;
#X connect 39 0 35 0;
#X connect 40 0 38 0;
#X connect 41 0 39 0;
#X connect 42 0 43 0;
#X connect 43 0 44 0;
#X connect 44 0 34 0;
#X connect 45 0 42 0;
#X connect 46 0 48 0;
#X connect 47 0 46 0;
#X connect 48 0 2 0;
#X connect 49 0 50 0;
#X connect 50 0 37 0;
#X connect 82 0 83 0;
#X connect 83 0 84 0;
#X connect 84 0 6 0;
#X connect 87 0 88 0;
#X connect 88 0 25 0;
#X connect 89 0 87 0;
#X connect 90 0 92 0;
#X connect 91 0 90 0;
#X connect 92 0 93 0;
#X connect 93 0 28 0;
