#N canvas 0 57 1920 985 10;
#X obj 464 851 *~;
#X obj 522 851 *~;
#X obj 956 720 vsl 15 128 0 127 0 0 empty empty empty 0 -9 0 10 -204786
-1 -1 1100 1;
#X text 988 748 slider de volume;
#N canvas 0 50 450 250 (subpatch) 0;
#X array channelL 521216 float 0;
#X coords 0 1 521215 -1 200 140 1;
#X restore 1269 193 graph;
#N canvas 0 50 450 250 (subpatch) 0;
#X array channelR 521216 float 0;
#X coords 0 1 521215 -1 200 140 1;
#X restore 1273 419 graph;
#X text 1470 252 saída de áudio do lado esquerdo;
#X text 1476 480 saída de áudio do lado direito;
#X obj 464 120 openpanel;
#X text 530 121 comando que abre diretório para selecionar arquivo
de áudio;
#X obj 464 81 bng 15 250 50 0 empty empty empty 17 7 0 10 -262144 -1
-1;
#X text 484 79 dispara o openpanel;
#X msg 464 160 read -resize \$1 channelL channelR;
#X obj 464 200 soundfiler;
#X floatatom 497 233 12 0 0 0 - - -, f 12;
#X obj 464 293 expr 44100 / $f1;
#X text 569 294 divide o aúdio em várias amostras menores(sample
rate);
#X obj 497 268 s sampleSize;
#X floatatom 487 337 12 0 0 0 - - -, f 12;
#X obj 464 420 phasor~;
#X obj 465 524 *~;
#X obj 531 495 r sampleSize;
#X obj 464 736 tabread4~ channelL;
#X obj 495 783 tabread4~ channelR;
#X text 570 324 leitura de amostras por segundo no phasor (varia de
áudio para áudio);
#X text 489 524 recebe a saída do phasor (lê todas as amostras de
áudio);
#X obj 539 616 snapshot~;
#X text 600 615 indica a posição da amostra de áudio no tempo;
#X obj 539 580 metro 50;
#X obj 539 548 tgl 15 0 empty empty empty 17 7 0 10 -262144 -1 -1 0
1;
#X text 554 547 liga o metro;
#X floatatom 539 645 12 0 0 0 - - -, f 12;
#X obj 539 673 /;
#X obj 591 674 r sampleSize;
#X floatatom 539 711 5 0 0 0 - - -, f 5;
#X obj 1281 594 hsl 195 15 0 1 0 0 empty empty empty -2 -8 0 10 -232576
-1 -1 0 1;
#X obj 658 379 hsl 128 15 -1 1 0 0 empty empty empty -2 -8 0 10 -204800
-1 -1 6887 1;
#X floatatom 655 403 5 0 0 0 - - -, f 5;
#X msg 656 431 0;
#X msg 656 460 0.5;
#X text 682 460 toca a amostra a partir do meio;
#X msg 265 378 0;
#X text 227 378 PAUSE;
#X msg 259 442 1;
#X text 219 474 Aumenta velocidade;
#X obj 258 321 t b b;
#X obj 258 283 bng 15 250 50 0 empty empty empty 17 7 0 10 -262144
-1 -1;
#X text 717 352 controla velocidade / PLAY (resultado variável da
expressão);
#X text 596 580 tem que estar ligado para o hslider se movimentar;
#X text 685 431 RESTART na amostra de áudio;
#X text 1483 592 barra que mostra a posição da amostra de áudio
(track timer);
#X text 142 237 primeiro pausa \, depois manda para a fase inicial
;
#X text 674 153 redimensiona o array para que comporte todas as amostras
de áudio;
#X text 530 199 abre o arquivo de áudio;
#X text 612 781 dá o comando para tocar;
#X text 578 735 dá o comando para tocar;
#X text 578 735 dá o comando para tocar;
#X msg 655 353 0.0846098;
#X msg 1235 786 connect 192.168.0.10 3000;
#X msg 1252 826 disconnect;
#X obj 1235 870 ggee/streamout~;
#X floatatom 1235 923 5 0 0 0 - - -, f 5;
#X text 1394 785 envia mensagem para o endereço em questão;
#X text 1339 872 comando que envia dados para a rede;
#X text 1267 924 indica estado da conexão;
#X text 668 879 envia os dados sonoros para a rede. peça-chave no
código aqui exibido;
#X obj 1341 40 osc/unpackOSC;
#X obj 1341 117 tgl 15 0 empty empty empty 17 7 0 10 -262144 -1 -1
0 1;
#X obj 1341 12 mrpeach/net/udpreceive 40002;
#X obj 1341 88 osc/routeOSC /audioplayer;
#X text 1364 115 <-- recebe ordem do controlador via rede;
#X text 1171 11 abre porta para conexão OSC;
#X text 1218 40 converte OSC --> PD;
#X text 1165 86 envia informação para toggle;
#X obj 199 638 osc/unpackOSC;
#X obj 199 686 osc/routeOSC /audioplayer;
#X text 23 684 comment;
#X text 76 638 comment;
#X text 29 609 comment;
#X obj 98 747 tgl 15 0 empty empty empty 17 7 0 10 -262144 -1 -1 0
1;
#X obj 199 610 mrpeach/net/udpreceive 40003;
#X text 120 746 <-- recebe comando de pause via rede;
#X obj 1105 671 osc/unpackOSC;
#X obj 1105 648 mrpeach/net/udpreceive 40000;
#X obj 1105 719 osc/routeOSC /volume;
#X text 1281 647 <-- permite controle do volume via-rede;
#X connect 0 0 60 0;
#X connect 1 0 60 0;
#X connect 2 0 1 1;
#X connect 2 0 0 1;
#X connect 8 0 12 0;
#X connect 10 0 8 0;
#X connect 12 0 13 0;
#X connect 13 0 14 0;
#X connect 13 0 15 0;
#X connect 14 0 17 0;
#X connect 15 0 18 0;
#X connect 15 0 19 0;
#X connect 18 0 57 0;
#X connect 19 0 20 0;
#X connect 20 0 22 0;
#X connect 20 0 23 0;
#X connect 20 0 26 0;
#X connect 21 0 20 1;
#X connect 22 0 0 0;
#X connect 23 0 1 0;
#X connect 26 0 31 0;
#X connect 28 0 26 0;
#X connect 29 0 28 0;
#X connect 31 0 32 0;
#X connect 32 0 34 0;
#X connect 33 0 32 1;
#X connect 34 0 35 0;
#X connect 36 0 37 0;
#X connect 37 0 19 0;
#X connect 38 0 19 1;
#X connect 39 0 19 1;
#X connect 41 0 19 0;
#X connect 43 0 19 0;
#X connect 45 0 38 0;
#X connect 45 1 41 0;
#X connect 46 0 45 0;
#X connect 57 0 36 0;
#X connect 58 0 60 0;
#X connect 59 0 60 0;
#X connect 60 0 61 0;
#X connect 66 0 69 0;
#X connect 67 0 57 0;
#X connect 68 0 66 0;
#X connect 69 0 67 0;
#X connect 74 0 75 0;
#X connect 75 0 79 0;
#X connect 79 0 46 0;
#X connect 80 0 74 0;
#X connect 82 0 84 0;
#X connect 83 0 82 0;
#X connect 84 0 2 0;
