#N canvas 0 64 1920 987 10;
#X msg 128 83 disconnect;
#X floatatom 254 194 0 0 0 0 - - -;
#X floatatom 271 118 0 0 0 0 - - -;
#X obj 254 169 ggee/streamout~;
#X obj 982 187 mtof;
#X floatatom 1041 238 5 0 0 0 - - -;
#X obj 333 127 *~;
#X obj 834 456 tgl 15 0 empty empty Liga_/_Desliga 17 7 0 10 -4034
-1 -258113 1 1;
#X msg 254 26 connect 192.168.0.10 3000;
#X text 21 25 conecta a este IP \, com esta porta -->;
#X text 4 83 encerra conexão -->;
#X text 76 194 indica estado da conexão -->;
#X text 86 167 envia dados para a rede -->;
#X text 999 275 <-- frequência tocada;
#X obj 257 480 hsl 128 15 0 1 0 0 empty empty empty -2 -8 0 10 -4034
-1 -1 0 1;
#X text 394 477 <--volume;
#X obj 1038 150 hsl 128 15 0 127 0 0 empty empty empty -2 -8 0 10 -4032
-1 -1 0 1;
#X text 1172 149 <-- altera nota (frequência);
#X msg 1081 106 69;
#X obj 946 274 osc~ 440;
#X text 996 104 nota MIDI -->;
#X text 1104 105 <- Lá 440 (dó central é 63);
#X text 1080 239 <-- valor em Hz;
#X obj 254 369 osc/unpackOSC;
#X text 428 348 <-- porta de rede OSC;
#X text 420 410 <-- envia controle OSC pela rede (permite controlar
o slider de volume a partir de um botão físico ou algo similar;
#X obj 254 346 mrpeach/net/udpreceive 40050;
#X obj 830 348 osc/unpackOSC;
#X text 1009 314 <-- recebe dados OSC \, via protocolo UDP pela porta
indica;
#X text 919 348 <-- converte para mensagem PD;
#X obj 830 316 mrpeach/net/udpreceive 40051;
#X obj 254 417 osc/routeOSC /volume_pitch;
#X obj 830 386 osc/routeOSC /on_off_pitch;
#X obj 754 36 osc/unpackOSC;
#X text 928 15 <-- porta de rede OSC;
#X obj 754 84 osc/routeOSC /freq_pitch;
#X obj 754 13 mrpeach/net/udpreceive 40052;
#X text 990 384 <-- recebe dados OSC na variável on_off_pitch;
#X text 1018 184 <-- midi to frequency;
#X obj 1498 13 mrpeach/net/udpreceive 40053;
#X obj 1498 44 osc/unpackOSC;
#X obj 1498 74 osc/routeOSC /midi_pitch;
#X obj 81 565 mrpeach/net/udpreceive 40054;
#X obj 81 597 osc/unpackOSC;
#X obj 81 633 osc/routeOSC /midi_vol;
#X connect 0 0 3 0;
#X connect 2 0 3 0;
#X connect 3 0 1 0;
#X connect 4 0 5 0;
#X connect 4 0 19 0;
#X connect 6 0 3 0;
#X connect 7 0 6 1;
#X connect 8 0 3 0;
#X connect 14 0 3 0;
#X connect 16 0 4 0;
#X connect 18 0 16 0;
#X connect 19 0 6 0;
#X connect 23 0 31 0;
#X connect 26 0 23 0;
#X connect 27 0 32 0;
#X connect 30 0 27 0;
#X connect 31 0 14 0;
#X connect 32 0 7 0;
#X connect 33 0 35 0;
#X connect 35 0 16 0;
#X connect 36 0 33 0;
#X connect 39 0 40 0;
#X connect 40 0 41 0;
#X connect 41 0 16 0;
#X connect 42 0 43 0;
#X connect 43 0 44 0;
#X connect 44 0 14 0;
