#N canvas 0 64 1920 987 10;
#X obj 1164 394 adc~;
#X msg 527 355 disconnect;
#X floatatom 527 520 5 0 0 0 - - -;
#X obj 1163 462 *~ 30;
#X obj 527 96 osc/unpackOSC;
#X obj 527 245 tgl 15 0 empty empty empty 17 7 0 10 -4034 -1 -1 0 1
;
#X obj 527 73 mrpeach/net/udpreceive 40020;
#X obj 249 95 osc/unpackOSC;
#X obj 249 340 tgl 15 0 empty empty empty 17 7 0 10 -258113 -1 -1 0
1;
#X obj 249 72 mrpeach/net/udpreceive 40021;
#X obj 1162 335 hsl 128 15 0 127 0 0 empty empty empty -2 -8 0 10 -4034
-1 -1 0 1;
#X obj 1159 243 osc/unpackOSC;
#X obj 1159 220 mrpeach/net/udpreceive 40000;
#X obj 1159 291 osc/routeOSC /volume;
#X obj 448 1 cnv 15 100 60 empty empty empty 20 12 0 14 -233017 -66577
0;
#X msg 527 309 connect 239.255.255.250 3000;
#X obj 527 481 mrpeach/net/udpsend~ 2;
#X text 702 309 <-- connect to multicast;
#X text 593 355 <-- close connection;
#X text 560 520 <-- connection status;
#X text 701 75 <-- Receive OSC messages;
#X text 97 70 Receive OSC messages -->;
#X text 1296 333 <-- volume vslider (0 - 127);
#X text 1201 389 <-- Audio input (guitar/bass should be connected on
the computer);
#X text 1203 461 <-- increases audio input volume;
#X text 1286 290 <-- control volume slider via OSC;
#X text 367 478 send audio to network -->;
#X text 1332 221 <-- Receive OSC messages;
#X text 646 143 <-- control ON button via OSC;
#X text 545 245 <-- ON;
#X text 195 340 OFF -->;
#X obj 249 143 osc/routeOSC /sound;
#X obj 527 144 osc/routeOSC /sound;
#X text 611 95 <-- OSC via Pure Data;
#X text 114 96 OSC via Pure Data -->;
#X obj 1373 678 osc/unpackOSC;
#X msg 311 749 disconnect;
#X obj 212 834 mrpeach/udpsend;
#X obj 1373 655 mrpeach/udpreceive 224.0.0.1 60000;
#X msg 212 634 connect 224.0.0.1 60000;
#X obj 1373 620 route /hello;
#X obj 806 839 t b b b;
#X obj 1373 741 print;
#X obj 1373 774 route /publish/thing;
#X obj 1373 797 print;
#X obj 212 863 tgl 15 0 empty empty empty 17 7 0 10 -262144 -1 -1 0
1;
#X obj 1373 824 route /publish/input;
#X obj 1373 848 print;
#X obj 1373 717 route /publish/output;
#X obj 278 791 packOSC;
#X obj 1373 899 print;
#X obj 322 724 print;
#X obj 1373 877 route /goodbye;
#X text 1056 679 <-- identification;
#X text 259 595 MANAGEMENT LAYER;
#X text 364 637 <-- connect to management screen;
#X text 1175 719 <-- input data;
#X text 494 667 <- publish identification \, input and output data
;
#X text 549 700 <-- disconnect;
#X text 235 863 <-- connection status;
#X text 1136 781 <-- output data;
#X text 331 790 <-- pack messages on OSC format;
#X text 314 837 <-- send messages via network;
#X text 1469 878 <-- receives Goodbye message;
#X text 1505 825 <-- receive input data;
#X text 1504 774 <-- receive identification;
#X text 1512 716 <-- receive output data;
#X text 1584 656 <-- receive connection from the host;
#X text 862 840 <-- put messages in right-to-left order;
#X text 1453 620 <-- receive all messages;
#X msg 813 679 send /publish/thing GuitarXBass ID#003;
#X msg 303 701 send /goodbye GuitarXBass says Goodbye!;
#X msg 810 707 send /publish/input INPUT: ID#003 -port: 40000 (volume)
40020 (ON) 40021 (OFF) -sample rate: 44100 Hz -bit depth: 16 bits -protocol:
UDP & OSC;
#X msg 807 768 send /publish/output OUTPUT: ID#003 -audio(port 3000)
-sample rate: 44100 Hz -bit depth: 16 bits -audio file format: wav
;
#X msg 279 668 send /hello GuitarXBass says Hello!;
#X connect 0 0 3 0;
#X connect 1 0 16 0;
#X connect 3 0 16 0;
#X connect 4 0 32 0;
#X connect 5 0 15 0;
#X connect 6 0 4 0;
#X connect 7 0 31 0;
#X connect 8 0 1 0;
#X connect 9 0 7 0;
#X connect 10 0 16 0;
#X connect 11 0 13 0;
#X connect 12 0 11 0;
#X connect 13 0 10 0;
#X connect 15 0 16 0;
#X connect 16 0 2 0;
#X connect 31 0 8 0;
#X connect 32 0 5 0;
#X connect 35 0 40 0;
#X connect 35 0 43 0;
#X connect 35 0 46 0;
#X connect 35 0 48 0;
#X connect 35 0 52 0;
#X connect 36 0 37 0;
#X connect 37 0 45 0;
#X connect 38 0 35 0;
#X connect 39 0 37 0;
#X connect 39 0 74 0;
#X connect 40 0 41 0;
#X connect 41 0 73 0;
#X connect 41 1 72 0;
#X connect 41 2 70 0;
#X connect 43 0 44 0;
#X connect 46 0 47 0;
#X connect 48 0 42 0;
#X connect 49 0 37 0;
#X connect 52 0 50 0;
#X connect 70 0 49 0;
#X connect 71 0 49 0;
#X connect 71 0 36 0;
#X connect 72 0 49 0;
#X connect 73 0 49 0;
#X connect 74 0 49 0;
#X connect 74 0 70 0;
#X connect 74 0 72 0;
#X connect 74 0 73 0;
