#N canvas 571 137 1124 581 10;
#X obj 120 209 osc/packOSC;
#X obj 54 252 mrpeach/net/udpsend;
#X msg 63 93 disconnect;
#X obj 120 122 tgl 15 0 empty empty empty 17 7 0 10 -232576 -1 -1 0
1;
#X msg 120 180 send /drum \$1;
#X obj 665 194 osc/packOSC;
#X obj 597 237 mrpeach/net/udpsend;
#X msg 608 78 disconnect;
#X msg 665 165 send /drum \$1;
#X floatatom 665 133 5 0 0 0 - - -;
#X obj 82 507 osc/packOSC;
#X obj 60 537 mrpeach/net/udpsend;
#X msg 71 378 disconnect;
#X floatatom 82 440 5 0 0 0 - - -;
#X floatatom 199 440 5 0 0 0 - - -;
#X floatatom 303 439 5 0 0 0 - - -;
#X msg 82 466 send /kick \$1;
#X msg 199 466 send /snare \$1;
#X msg 303 465 send /hats \$1;
#X msg 52 56 connect 239.255.255.250 40010;
#X text 233 57 <-- connect to multicast address;
#X text 130 92 <-- close connection;
#X text 136 120 <-- ON/OFF drum machine;
#X text 218 179 <-- prepare OSC message;
#X text 192 209 <-- convert Pure Data message to OSC;
#X text 778 40 <-- connect to multicast address;
#X msg 597 41 connect 239.255.255.250 40011;
#X text 675 76 <-- close connection;
#X text 701 133 <-- BPM;
#X text 752 165 <-- prepare OSC message;
#X text 736 195 <-- convert Pure Data message to OSC;
#X text 723 241 <-- send OSC data packaged in UDP \, using the mrpeach
library;
#X text 180 252 <-- send OSC data packaged in UDP \, using the mrpeach
library;
#X msg 60 341 connect 239.255.255.250 40012;
#X text 247 341 <-- connect to multicast address;
#X text 138 377 <-- close connection;
#X text 349 439 <-- drum elements volume control;
#X connect 0 0 1 0;
#X connect 2 0 1 0;
#X connect 3 0 4 0;
#X connect 4 0 0 0;
#X connect 5 0 6 0;
#X connect 7 0 6 0;
#X connect 8 0 5 0;
#X connect 9 0 8 0;
#X connect 10 0 11 0;
#X connect 12 0 11 0;
#X connect 13 0 16 0;
#X connect 14 0 17 0;
#X connect 15 0 18 0;
#X connect 16 0 10 0;
#X connect 17 0 10 0;
#X connect 18 0 10 0;
#X connect 19 0 1 0;
#X connect 26 0 6 0;
#X connect 33 0 11 0;
