#N canvas 0 64 1920 987 12;
#X obj 541 166 dac~;
#X obj 481 336 writesf~ 2;
#X msg 481 483 stop;
#X obj 311 95 osc/unpackOSC;
#X obj 311 129 osc/routeOSC /recorder;
#X obj 311 161 tgl 15 0 empty empty empty 17 7 0 10 -4034 -1 -1 0 1
;
#X obj 226 380 osc/unpackOSC;
#X obj 226 414 osc/routeOSC /recorder;
#X obj 226 468 tgl 15 0 empty empty empty 17 7 0 10 -258113 -1 -1 0
1;
#X msg 311 196 open file_name.wav \, start;
#X obj 540 97 mrpeach/net/udpreceive~ 3010 2;
#X text 164 183 define file name \; start recording -->;
#X text 514 483 <-- STOP recording;
#X text 22 380 convert OSC to Pure Data -->;
#X text 75 336 receive OSC data -->;
#X text 165 57 receive OSC data -->;
#X text 108 96 convert OSC to Pure Data -->;
#X text 566 338 <-- record audio in the same directory as the patch
;
#X text 572 166 <-- Audio output;
#X text 759 96 <-- receive audio data;
#X obj 311 57 mrpeach/net/udpreceive 40060;
#X obj 226 337 mrpeach/net/udpreceive 40061;
#X obj 1171 658 osc/unpackOSC;
#X msg 1215 162 disconnect;
#X obj 1116 247 mrpeach/udpsend;
#X obj 1171 635 mrpeach/udpreceive 224.0.0.1 60000;
#X msg 1116 47 connect 224.0.0.1 60000;
#X obj 1171 551 route /hello;
#X obj 1173 514 t b b b;
#X obj 1171 729 print;
#X obj 1171 771 route /publish/thing;
#X obj 1171 794 print;
#X obj 1116 276 tgl 15 0 empty empty empty 17 7 0 10 -262144 -1 -1
0 1;
#X obj 1171 832 route /publish/input;
#X obj 1171 856 print;
#X obj 1171 705 route /publish/output;
#X obj 1182 204 packOSC;
#X obj 1171 925 print;
#X obj 1226 137 print;
#X obj 1171 903 route /goodbye;
#X text 1433 374 <-- identification;
#X text 1163 8 MANAGEMENT LAYER;
#X text 1284 49 <-- connect to management screen;
#X text 1607 420 <-- input data;
#X text 1415 81 <- publish identification \, input and output data
;
#X text 1465 113 <-- disconnect;
#X text 1139 276 <-- connection status;
#X text 1601 480 <-- output data;
#X text 1235 203 <-- pack messages on OSC format;
#X text 1218 250 <-- send messages via network;
#X text 1281 904 <-- receives Goodbye message;
#X text 1317 832 <-- receive input data;
#X text 1320 771 <-- receive identification;
#X text 1325 705 <-- receive output data;
#X text 1415 634 <-- receive connection from the host;
#X text 1229 515 <-- put messages in right-to-left order;
#X text 1259 550 <-- receive all messages;
#X msg 1207 114 send /goodbye Recorder says Goodbye!;
#X msg 1181 374 send /publish/thing Recorder ID#007;
#X msg 1178 474 send /publish/output OUTPUT: ID#007 -audio file(wav
format) -sample rate: 44100 Hz -bit depth: 16 bits;
#X msg 1178 403 send /publish/input INPUT: ID#007 -port: 40060 (START)
40061 (STOP) - audio 3010 (Loudspeaker) -sample rate: 44100 Hz -bit
depth: 16 bits -protcol: UDP & OSC -audio file(wav format);
#X msg 1183 81 send /hello Recorder says Hello!;
#X connect 2 0 1 0;
#X connect 3 0 4 0;
#X connect 4 0 5 0;
#X connect 5 0 9 0;
#X connect 6 0 7 0;
#X connect 7 0 8 0;
#X connect 8 0 2 0;
#X connect 9 0 1 0;
#X connect 10 0 0 0;
#X connect 10 0 0 1;
#X connect 10 0 1 0;
#X connect 20 0 3 0;
#X connect 21 0 6 0;
#X connect 22 0 27 0;
#X connect 22 0 30 0;
#X connect 22 0 33 0;
#X connect 22 0 35 0;
#X connect 22 0 39 0;
#X connect 23 0 24 0;
#X connect 24 0 32 0;
#X connect 25 0 22 0;
#X connect 26 0 24 0;
#X connect 26 0 61 0;
#X connect 27 0 28 0;
#X connect 28 0 59 0;
#X connect 28 1 60 0;
#X connect 28 2 58 0;
#X connect 30 0 31 0;
#X connect 33 0 34 0;
#X connect 35 0 29 0;
#X connect 36 0 24 0;
#X connect 39 0 37 0;
#X connect 57 0 36 0;
#X connect 57 0 23 0;
#X connect 58 0 36 0;
#X connect 59 0 36 0;
#X connect 60 0 36 0;
#X connect 61 0 36 0;
#X connect 61 0 58 0;
#X connect 61 0 60 0;
#X connect 61 0 59 0;
