#N canvas 0 64 1920 987 10;
#X msg 594 412 disconnect;
#X floatatom 594 625 0 0 0 0 - - -;
#X obj 785 538 adc~;
#X obj 785 476 hsl 128 15 0 127 0 0 empty empty empty -2 -8 0 10 -4034
-1 -1 0 1;
#X obj 782 384 osc/unpackOSC;
#X obj 782 361 mrpeach/net/udpreceive 40000;
#X obj 782 432 osc/routeOSC /volume;
#X obj 594 124 osc/unpackOSC;
#X obj 594 273 tgl 15 0 empty empty empty 17 7 0 10 -4034 -1 -1 0 1
;
#X obj 594 172 osc/routeOSC /mic;
#X obj 172 124 osc/unpackOSC;
#X obj 172 172 osc/routeOSC /mic;
#X obj 172 397 tgl 15 0 empty empty empty 17 7 0 10 -258113 -1 -1 0
1;
#X obj 594 600 mrpeach/net/udpsend~ 2;
#X msg 594 342 connect 239.255.255.250 3000;
#X text 815 539 <-- Audio input;
#X text 737 597 <-- send audio via Network in a UDP socket \, using
mrpeach library;
#X text 618 626 <-- connection status;
#X text 468 411 close connection -->;
#X text 413 342 connect multicast address -->;
#X text 615 271 <-- ON;
#X text 768 102 <-- Receive OSC message;
#X text 347 99 <-- Receive OSC message;
#X text 256 125 <-- convert OSC message to Pure Data;
#X text 677 123 <-- convert OSC message to Pure Data;
#X text 955 360 <-- Receive OSC message for volume control;
#X text 922 476 <-- Volume vslider (0 - 127);
#X text 907 431 <-- Receive data from 'volume' variable;
#X text 123 396 OFF -->;
#X obj 594 101 mrpeach/net/udpreceive 40030;
#X obj 172 101 mrpeach/net/udpreceive 40031;
#X obj 1333 668 osc/unpackOSC;
#X msg 1377 172 disconnect;
#X obj 1278 257 mrpeach/udpsend;
#X obj 1333 645 mrpeach/udpreceive 224.0.0.1 60000;
#X msg 1278 57 connect 224.0.0.1 60000;
#X msg 1345 91 send /hello;
#X obj 1333 561 route /hello;
#X obj 1335 530 t b b b;
#X obj 1333 739 print;
#X obj 1333 781 route /publish/thing;
#X obj 1333 804 print;
#X obj 1278 286 tgl 15 0 empty empty empty 17 7 0 10 -262144 -1 -1
0 1;
#X obj 1333 842 route /publish/input;
#X obj 1333 866 print;
#X obj 1333 715 route /publish/output;
#X obj 1344 214 packOSC;
#X obj 1333 935 print;
#X obj 1388 147 print;
#X obj 1333 913 route /goodbye;
#X text 1572 384 <-- identification;
#X text 1325 18 MANAGEMENT LAYER;
#X text 1430 60 <-- connect to management screen;
#X text 1681 421 <-- input data;
#X text 1428 83 <- publish identification \, input and output data
;
#X text 1598 124 <-- disconnect;
#X text 1301 286 <-- connection status;
#X text 1670 488 <-- output data;
#X text 1397 213 <-- pack messages on OSC format;
#X text 1380 260 <-- send messages via network;
#X text 1429 914 <-- receives Goodbye message;
#X text 1465 843 <-- receive input data;
#X text 1464 781 <-- receive identification;
#X text 1472 714 <-- receive output data;
#X text 1544 646 <-- receive connection from the host;
#X text 1384 531 <-- put messages in right-to-left order;
#X text 1413 561 <-- receive all messages;
#X msg 1343 384 send /publish/thing Microphone ID#005;
#X msg 1340 413 send /publish/input INPUT: ID#005 -port: 40000 (volume)
40030 (ON) 40031 (OFF) -protocol: UDP & OSC;
#X msg 1369 124 send /goodbye Microphone says Goodbye!;
#X msg 1337 473 send /publish/output OUTPUT: ID#005 -audio(port 3000)
-sample rate: 44100 Hz -bit depth: 16 bits -audio file format: wav
;
#X connect 0 0 13 0;
#X connect 2 0 13 0;
#X connect 3 0 13 0;
#X connect 4 0 6 0;
#X connect 5 0 4 0;
#X connect 6 0 3 0;
#X connect 7 0 9 0;
#X connect 8 0 14 0;
#X connect 9 0 8 0;
#X connect 10 0 11 0;
#X connect 11 0 12 0;
#X connect 12 0 0 0;
#X connect 13 0 1 0;
#X connect 14 0 13 0;
#X connect 29 0 7 0;
#X connect 30 0 10 0;
#X connect 31 0 37 0;
#X connect 31 0 40 0;
#X connect 31 0 43 0;
#X connect 31 0 45 0;
#X connect 31 0 49 0;
#X connect 32 0 33 0;
#X connect 33 0 42 0;
#X connect 34 0 31 0;
#X connect 35 0 33 0;
#X connect 35 0 36 0;
#X connect 36 0 46 0;
#X connect 36 0 67 0;
#X connect 36 0 68 0;
#X connect 36 0 70 0;
#X connect 37 0 38 0;
#X connect 38 0 70 0;
#X connect 38 1 68 0;
#X connect 38 2 67 0;
#X connect 40 0 41 0;
#X connect 43 0 44 0;
#X connect 45 0 39 0;
#X connect 46 0 33 0;
#X connect 49 0 47 0;
#X connect 67 0 46 0;
#X connect 68 0 46 0;
#X connect 69 0 46 0;
#X connect 69 0 32 0;
#X connect 70 0 46 0;
