#N canvas 0 64 1920 987 10;
#X obj 38 114 dac~;
#X obj 37 45 mrpeach/net/udpreceive~ 3000 2;
#X text 69 114 <-- Audio output;
#X text 224 45 <-- Receive audio from network \; port number \; channel
number;
#X obj 985 391 osc/unpackOSC;
#X msg 581 175 disconnect;
#X obj 482 260 mrpeach/udpsend;
#X obj 985 368 mrpeach/udpreceive 224.0.0.1 60000;
#X msg 482 60 connect 224.0.0.1 60000;
#X msg 549 94 send /hello;
#X obj 474 527 route /hello;
#X obj 476 492 t b b b;
#X obj 985 462 print;
#X obj 985 504 route /publish/thing;
#X obj 985 527 print;
#X obj 482 289 tgl 15 0 empty empty empty 17 7 0 10 -262144 -1 -1 0
1;
#X obj 985 565 route /publish/input;
#X obj 985 589 print;
#X obj 985 438 route /publish/output;
#X obj 548 217 packOSC;
#X obj 985 658 print;
#X obj 592 150 print;
#X obj 985 636 route /goodbye;
#X text 727 350 <-- identification;
#X text 529 21 MANAGEMENT LAYER;
#X text 634 63 <-- connect to management screen;
#X text 838 395 <-- input data;
#X text 632 86 <- publish identification \, input and output data;
#X text 814 126 <-- disconnect;
#X text 505 289 <-- connection status;
#X text 809 453 <-- output data;
#X text 601 216 <-- pack messages on OSC format;
#X text 584 263 <-- send messages via network;
#X text 1081 637 <-- receives Goodbye message;
#X text 1117 566 <-- receive input data;
#X text 1116 504 <-- receive identification;
#X text 1124 437 <-- receive output data;
#X text 1196 369 <-- receive connection from the host;
#X text 525 494 <-- put messages in right-to-left order;
#X text 554 527 <-- receive all messages;
#X msg 484 350 send /publish/thing Loudspeaker ID#004;
#X msg 573 127 send /goodbye Loudspeaker says Goodbye!;
#X msg 478 439 send /publish/output OUTPUT: ID#004 -audio(port 3000)
-sample rate: 44100 Hz -bit depth: 16 bits -audio file format: wav
;
#X msg 481 379 send /publish/input INPUT: ID#004 -port: 40002 (Audio
Player) 40010 (Drum Machine) 40020 (GuitarXBass) 40030 (Microphone)
40051 (Pitchfork) -sample rate: 44100 Hz -bit depth: 16 bits -audio
file format: wav;
#X connect 1 0 0 0;
#X connect 1 0 0 1;
#X connect 4 0 10 0;
#X connect 4 0 13 0;
#X connect 4 0 16 0;
#X connect 4 0 18 0;
#X connect 4 0 22 0;
#X connect 5 0 6 0;
#X connect 6 0 15 0;
#X connect 7 0 4 0;
#X connect 8 0 6 0;
#X connect 8 0 9 0;
#X connect 9 0 19 0;
#X connect 9 0 40 0;
#X connect 9 0 43 0;
#X connect 9 0 42 0;
#X connect 10 0 11 0;
#X connect 11 0 42 0;
#X connect 11 1 43 0;
#X connect 11 2 40 0;
#X connect 13 0 14 0;
#X connect 16 0 17 0;
#X connect 18 0 12 0;
#X connect 19 0 6 0;
#X connect 22 0 20 0;
#X connect 40 0 19 0;
#X connect 41 0 19 0;
#X connect 41 0 5 0;
#X connect 42 0 19 0;
#X connect 43 0 19 0;
