#N canvas 0 64 1920 987 10;
#X msg 128 83 disconnect;
#X floatatom 254 194 0 0 0 0 - - -;
#X floatatom 271 118 0 0 0 0 - - -;
#X obj 982 187 mtof;
#X floatatom 1041 238 5 0 0 0 - - -;
#X obj 258 480 hsl 128 15 0 127 0 0 empty empty empty -2 -8 0 10 -4034
-1 -1 0 1;
#X obj 1038 150 hsl 128 15 0 127 0 0 empty empty empty -2 -8 0 10 -4032
-1 -1 0 1;
#X msg 1081 106 69;
#X obj 946 274 osc~ 440;
#X obj 254 369 osc/unpackOSC;
#X obj 830 348 osc/unpackOSC;
#X obj 830 316 mrpeach/net/udpreceive 40051;
#X obj 830 386 osc/routeOSC /on_off_pitch;
#X obj 754 36 osc/unpackOSC;
#X obj 754 84 osc/routeOSC /freq_pitch;
#X obj 754 13 mrpeach/net/udpreceive 40052;
#X obj 1498 13 mrpeach/net/udpreceive 40053;
#X obj 1498 44 osc/unpackOSC;
#X obj 1498 74 osc/routeOSC /midi_pitch;
#X obj 81 565 mrpeach/net/udpreceive 40054;
#X obj 81 597 osc/unpackOSC;
#X obj 333 127 *~ 5;
#X msg 254 26 connect 239.255.255.250 3000;
#X obj 254 169 mrpeach/net/udpsend~ 2;
#X text 996 104 MIDI note-->;
#X text 1104 105 <- A 440 (C = 63);
#X text 928 15 <-- Receive OSC message;
#X text 838 36 <-- unpack OSC message;
#X text 1018 184 <-- MIDI to frequency;
#X text 1080 239 <-- Hz value;
#X text 999 275 <-- frequency;
#X text 1009 314 <-- Receive OSC message;
#X text 919 348 <-- unpack OSC message;
#X text 990 384 comment;
#X text 222 632 <-- receive volume control via OSC;
#X text 259 565 <-- Receive OSC message;
#X text 169 594 <-- unpack OSC message;
#X text 394 477 <--volume slider (0 - 127);
#X text 428 344 <-- Receive OSC message;
#X obj 254 417 osc/routeOSC /volume;
#X text 380 414 <-- receive volume control via OSC;
#X text 338 370 <-- unpack OSC message;
#X text 119 194 connection status -->;
#X text 65 169 send audio data to network -->;
#X text 4 83 close connection -->;
#X text 56 26 connect to multicast address -->;
#X text 1170 149 <-- change frequency (MIDI note);
#X text 1675 13 <-- Receive OSC message;
#X obj 254 346 mrpeach/net/udpreceive 40000;
#X text 1581 42 <-- unpack OSC message;
#X obj 830 453 tgl 15 0 empty empty empty 17 7 0 10 -4034 -1 -1 0 1
;
#X text 850 451 <-- ON/OFF;
#X obj 81 633 osc/routeOSC /midi_vol;
#X obj 84 676 hsl 128 15 0 127 0 0 empty empty empty -2 -8 0 10 -204786
-1 -1 0 1;
#X text 222 677 <-- MIDI controller volume (0 - 127);
#X obj 1806 612 osc/unpackOSC;
#X msg 853 715 disconnect;
#X obj 754 800 mrpeach/udpsend;
#X obj 1806 589 mrpeach/udpreceive 224.0.0.1 60000;
#X msg 754 600 connect 224.0.0.1 60000;
#X msg 821 634 send /hello;
#X obj 1318 777 route /hello;
#X obj 1320 739 t b b b;
#X obj 1806 683 print;
#X obj 1806 725 route /publish/thing;
#X obj 1806 748 print;
#X obj 754 829 tgl 15 0 empty empty empty 17 7 0 10 -262144 -1 -1 0
1;
#X obj 1806 786 route /publish/input;
#X obj 1806 810 print;
#X obj 1806 659 route /publish/output;
#X obj 820 757 packOSC;
#X obj 1806 879 print;
#X obj 864 690 print;
#X obj 1806 857 route /goodbye;
#X text 1571 600 <-- identification;
#X text 801 561 MANAGEMENT LAYER;
#X text 899 598 <-- connect to management screen;
#X text 1673 642 <-- input data;
#X text 777 829 <-- connection status;
#X text 1684 702 <-- output data;
#X text 868 756 <-- pack messages on OSC format;
#X text 851 801 <-- send messages via network;
#X text 1902 858 <-- receives Goodbye message;
#X text 1938 787 <-- receive input data;
#X text 1937 725 <-- receive identification;
#X text 1945 658 <-- receive output data;
#X text 2017 590 <-- receive connection from the host;
#X text 1369 739 <-- put messages in right-to-left order;
#X text 1398 777 <-- receive all messages;
#X msg 845 667 send /goodbye Pitchfork says Goodbye!;
#X msg 1328 600 send /publish/thing Pitchfork ID#006;
#X msg 1325 629 send /publish/input INPUT: ID#006 -port: 40000 (volume)
40051 (ON/OFF) 40052 (Frequency) 40053 (MIDI Controller) 40054 (volume
via MIDI Controller) -sample rate: 44100 Hz -bit depth: 16 bits -audio
file format: wav;
#X msg 1322 689 send /publish/output OUTPUT: ID#006 -audio(port 3000)
-sample rate: 44100 Hz -bit depth: 16 bits -protocol: UDP & OSC & MIDI
(pack on OSC) -audio file format: wav;
#X text 758 665 disconnect -->;
#X text 521 634 publish identification \, input and output data -->
;
#X connect 0 0 23 0;
#X connect 2 0 23 0;
#X connect 3 0 4 0;
#X connect 3 0 8 0;
#X connect 5 0 23 0;
#X connect 6 0 3 0;
#X connect 7 0 6 0;
#X connect 8 0 21 0;
#X connect 9 0 39 0;
#X connect 10 0 12 0;
#X connect 11 0 10 0;
#X connect 12 0 50 0;
#X connect 13 0 14 0;
#X connect 14 0 6 0;
#X connect 15 0 13 0;
#X connect 16 0 17 0;
#X connect 17 0 18 0;
#X connect 18 0 6 0;
#X connect 19 0 20 0;
#X connect 20 0 52 0;
#X connect 21 0 23 0;
#X connect 22 0 23 0;
#X connect 23 0 1 0;
#X connect 39 0 5 0;
#X connect 48 0 9 0;
#X connect 52 0 53 0;
#X connect 53 0 23 0;
#X connect 55 0 61 0;
#X connect 55 0 64 0;
#X connect 55 0 67 0;
#X connect 55 0 69 0;
#X connect 55 0 73 0;
#X connect 56 0 57 0;
#X connect 57 0 66 0;
#X connect 58 0 55 0;
#X connect 59 0 57 0;
#X connect 59 0 60 0;
#X connect 60 0 70 0;
#X connect 60 0 90 0;
#X connect 60 0 91 0;
#X connect 60 0 92 0;
#X connect 61 0 62 0;
#X connect 62 0 92 0;
#X connect 62 1 91 0;
#X connect 62 2 90 0;
#X connect 64 0 65 0;
#X connect 67 0 68 0;
#X connect 69 0 63 0;
#X connect 70 0 57 0;
#X connect 73 0 71 0;
#X connect 89 0 70 0;
#X connect 89 0 56 0;
#X connect 90 0 70 0;
#X connect 91 0 70 0;
#X connect 92 0 70 0;
