#N canvas 0 64 1920 987 12;
#X obj 444 22 import Gem;
#X msg 265 212 create \, 1;
#X msg 282 242 destroy;
#X obj 265 358 gemwin;
#X obj 595 378 netsend;
#X msg 279 273 dimen 500 500;
#X text 519 22 <-- import external Gem \, to allow video;
#X text 339 212 <-- create video object;
#X text 337 242 <-- close video object;
#X text 375 273 <-- screen dimensions;
#X text 648 378 <-- send video data to network;
#X text 313 355 <-- video object creator;
#X obj 265 175 tgl 15 0 empty empty empty 17 7 0 10 -4034 -1 -1 0 1
;
#X obj 265 97 osc/unpackOSC;
#X obj 265 65 mrpeach/net/udpreceive 40100;
#X obj 597 168 tgl 15 0 empty empty empty 17 7 0 10 -258113 -1 -1 0
1;
#X obj 597 90 osc/unpackOSC;
#X text 614 165 <-- STOP video recording via OSC;
#X text 282 172 <-- START video recording OSC;
#X text 799 58 <-- receive OSC message from network;
#X text 696 90 <-- convert OSC message to Pure data;
#X text 5 66 receive OSC message from network -->;
#X text 6 96 convert OSC message to Pure data -->;
#X obj 597 128 osc/routeOSC /video_control_off;
#X obj 265 135 osc/routeOSC /video_control_on;
#X obj 597 58 mrpeach/net/udpreceive 40101;
#X obj 1249 653 osc/unpackOSC;
#X msg 1293 157 disconnect;
#X obj 1194 242 mrpeach/udpsend;
#X obj 1249 630 mrpeach/udpreceive 224.0.0.1 60000;
#X msg 1194 42 connect 224.0.0.1 60000;
#X obj 1249 546 route /hello;
#X obj 1250 507 t b b b;
#X obj 1249 724 print;
#X obj 1249 766 route /publish/thing;
#X obj 1249 789 print;
#X obj 1194 271 tgl 15 0 empty empty empty 17 7 0 10 -262144 -1 -1
0 1;
#X obj 1249 827 route /publish/input;
#X obj 1249 851 print;
#X obj 1249 700 route /publish/output;
#X obj 1260 199 packOSC;
#X obj 1249 920 print;
#X obj 1304 132 print;
#X obj 1249 898 route /goodbye;
#X text 1547 368 <-- identification;
#X text 1241 3 MANAGEMENT LAYER;
#X text 1360 42 <-- connect to management screen;
#X text 1664 435 <-- input data;
#X text 1518 76 <- publish identification \, input and output data
;
#X text 1572 108 <-- disconnect;
#X text 1211 270 <-- connection status;
#X text 1554 482 <-- output data;
#X text 1313 198 <-- pack messages on OSC format;
#X text 1296 245 <-- send messages via network;
#X text 1351 896 <-- receives Goodbye message;
#X text 1394 826 <-- receive input data;
#X text 1394 765 <-- receive identification;
#X text 1402 698 <-- receive output data;
#X text 1495 631 <-- receive connection from the host;
#X text 1307 508 <-- put messages in right-to-left order;
#X text 1340 544 <-- receive all messages;
#X msg 1259 369 send /publish/thing Video Player ID#009;
#X msg 1285 109 send /goodbye Video Player says Goodbye!;
#X msg 1252 482 send /publish/output OUTPUT: ID#009 -video;
#X msg 1253 428 send /publish/input INPUT: ID#009 -port: 40100 (ON)
40101 (OFF) protocol: UDP & OSC;
#X msg 1261 76 send /hello Video Player says Hello!;
#X connect 1 0 3 0;
#X connect 2 0 3 0;
#X connect 3 0 4 0;
#X connect 5 0 3 0;
#X connect 12 0 1 0;
#X connect 13 0 24 0;
#X connect 14 0 13 0;
#X connect 15 0 2 0;
#X connect 16 0 23 0;
#X connect 23 0 15 0;
#X connect 24 0 12 0;
#X connect 25 0 16 0;
#X connect 26 0 31 0;
#X connect 26 0 34 0;
#X connect 26 0 37 0;
#X connect 26 0 39 0;
#X connect 26 0 43 0;
#X connect 27 0 28 0;
#X connect 28 0 36 0;
#X connect 29 0 26 0;
#X connect 30 0 28 0;
#X connect 30 0 65 0;
#X connect 31 0 32 0;
#X connect 32 0 63 0;
#X connect 32 1 64 0;
#X connect 32 2 61 0;
#X connect 34 0 35 0;
#X connect 37 0 38 0;
#X connect 39 0 33 0;
#X connect 40 0 28 0;
#X connect 43 0 41 0;
#X connect 61 0 40 0;
#X connect 62 0 40 0;
#X connect 62 0 27 0;
#X connect 63 0 40 0;
#X connect 64 0 40 0;
#X connect 65 0 40 0;
#X connect 65 0 61 0;
#X connect 65 0 64 0;
#X connect 65 0 63 0;
