#N canvas 1922 135 1307 307 10;
#X obj 120 208 osc/packOSC;
#X obj 52 247 mrpeach/net/udpsend;
#X msg 63 93 disconnect;
#X msg 120 180 send /recorder \$1;
#X obj 120 135 tgl 15 0 empty empty empty 17 7 0 10 -4034 -1 -1 1 1
;
#X obj 966 202 osc/packOSC;
#X obj 898 245 mrpeach/net/udpsend;
#X msg 909 87 disconnect;
#X msg 966 174 send /recorder \$1;
#X obj 966 129 tgl 15 0 empty empty empty 17 7 0 10 -258113 -1 -1 1
1;
#X text 987 126 <-- interrompe gravação;
#X text 234 55 <-- connect to multicast address;
#X text 140 132 <-- START recording;
#X text 233 179 <-- send message;
#X text 195 209 <-- pack message in OSC format;
#X text 172 248 <-- send OSC message via Network;
#X text 1078 48 <-- connect to multicast address;
#X text 127 93 <-- close connection;
#X text 973 88 <-- close connection;
#X text 1075 174 <-- send message;
#X text 1041 203 <-- pack message in OSC format;
#X text 1018 246 <-- send OSC message via Network;
#X msg 52 56 connect 224.0.0.251 40060;
#X msg 898 50 connect 224.0.0.251 40061;
#X connect 0 0 1 0;
#X connect 2 0 1 0;
#X connect 3 0 0 0;
#X connect 4 0 3 0;
#X connect 5 0 6 0;
#X connect 7 0 6 0;
#X connect 8 0 5 0;
#X connect 9 0 8 0;
#X connect 22 0 1 0;
#X connect 23 0 6 0;
