#N canvas 1920 74 1366 704 10;
#X obj 120 209 osc/packOSC;
#X obj 54 252 mrpeach/net/udpsend;
#X msg 63 93 disconnect;
#X obj 120 122 tgl 15 0 empty empty empty 17 7 0 10 -232576 -1 -1 0
1;
#X msg 120 180 send /drum \$1;
#X obj 798 195 osc/packOSC;
#X obj 730 238 mrpeach/net/udpsend;
#X msg 741 79 disconnect;
#X msg 798 166 send /drum \$1;
#X floatatom 798 134 5 0 0 0 - - -;
#X obj 82 507 osc/packOSC;
#X obj 60 537 mrpeach/net/udpsend;
#X msg 71 378 disconnect;
#X floatatom 82 440 5 0 0 0 - - -;
#X floatatom 199 440 5 0 0 0 - - -;
#X floatatom 303 439 5 0 0 0 - - -;
#X msg 82 466 send /kick \$1;
#X msg 199 466 send /snare \$1;
#X msg 303 465 send /hats \$1;
#X text 211 56 <-- connect to multicast address;
#X text 130 92 <-- close connection;
#X text 136 120 <-- ON/OFF drum machine;
#X text 218 179 <-- prepare OSC message;
#X text 192 209 <-- convert Pure Data message to OSC;
#X text 888 42 <-- connect to multicast address;
#X text 808 77 <-- close connection;
#X text 834 134 <-- BPM;
#X text 885 166 <-- prepare OSC message;
#X text 869 196 <-- convert Pure Data message to OSC;
#X text 856 242 <-- send OSC data packaged in UDP \, using the mrpeach
library;
#X text 180 252 <-- send OSC data packaged in UDP \, using the mrpeach
library;
#X text 216 340 <-- connect to multicast address;
#X text 138 377 <-- close connection;
#X text 349 439 <-- drum elements volume control;
#X msg 733 384 connect 224.0.0.251 40013;
#X msg 749 408 disconnect;
#X msg 54 56 connect 224.0.0.251 40010;
#X msg 60 340 connect 224.0.0.251 40012;
#X msg 730 42 connect 224.0.0.251 40011;
#X obj 790 515 packOSC;
#X msg 790 490 send /drum \$1;
#X msg 790 442 2 2 2 2 0 5 4 2 2;
#X obj 790 468 list;
#X text 887 384 <-- connect to multicast address;
#X text 813 410 <-- close connection;
#X text 899 442 <-- drum pattern (can be edit);
#X text 843 516 <-- pack message on OSC format;
#X text 876 492 <-- send message;
#X obj 733 552 mrpeach/net/udpsend;
#X text 179 538 <-- send OSC data packaged in UDP \, using the mrpeach
library;
#X text 154 508 <-- pack message on OSC format;
#X text 850 552 <-- send OSC data packaged in UDP \, using the mrpeach
library;
#X text 819 468 <-- put drum pattern into a list;
#X connect 0 0 1 0;
#X connect 2 0 1 0;
#X connect 3 0 4 0;
#X connect 4 0 0 0;
#X connect 5 0 6 0;
#X connect 7 0 6 0;
#X connect 8 0 5 0;
#X connect 9 0 8 0;
#X connect 10 0 11 0;
#X connect 12 0 11 0;
#X connect 13 0 16 0;
#X connect 14 0 17 0;
#X connect 15 0 18 0;
#X connect 16 0 10 0;
#X connect 17 0 10 0;
#X connect 18 0 10 0;
#X connect 34 0 48 0;
#X connect 35 0 48 0;
#X connect 36 0 1 0;
#X connect 37 0 11 0;
#X connect 38 0 6 0;
#X connect 39 0 48 0;
#X connect 40 0 39 0;
#X connect 41 0 42 0;
#X connect 42 0 40 0;
