#N canvas 0 64 1920 987 12;
#X obj 866 204 dac~;
#X obj 806 374 writesf~ 2;
#X msg 806 521 stop;
#X obj 636 133 osc/unpackOSC;
#X obj 636 167 osc/routeOSC /recorder;
#X obj 636 199 tgl 15 0 empty empty empty 17 7 0 10 -4034 -1 -1 0 1
;
#X obj 551 418 osc/unpackOSC;
#X obj 551 452 osc/routeOSC /recorder;
#X obj 551 506 tgl 15 0 empty empty empty 17 7 0 10 -258113 -1 -1 0
1;
#X msg 636 234 open file_name.wav \, start;
#X obj 865 135 mrpeach/net/udpreceive~ 3010 2;
#X text 489 221 define file name \; start recording -->;
#X text 839 521 <-- STOP recording;
#X text 347 418 convert OSC to Pure Data -->;
#X text 400 374 receive OSC data -->;
#X text 490 95 receive OSC data -->;
#X text 433 134 convert OSC to Pure Data -->;
#X text 891 376 <-- record audio in the same directory as the patch
;
#X text 897 204 <-- Audio output;
#X text 1084 134 <-- receive audio data;
#X obj 636 95 mrpeach/net/udpreceive 40060;
#X obj 551 375 mrpeach/net/udpreceive 40061;
#X connect 2 0 1 0;
#X connect 3 0 4 0;
#X connect 4 0 5 0;
#X connect 5 0 9 0;
#X connect 6 0 7 0;
#X connect 7 0 8 0;
#X connect 8 0 2 0;
#X connect 9 0 1 0;
#X connect 10 0 0 0;
#X connect 10 0 0 1;
#X connect 10 0 1 0;
#X connect 20 0 3 0;
#X connect 21 0 6 0;
