#N canvas 1920 64 1366 704 10;
#X text 104 20 VOLUME;
#X obj 697 209 osc/packOSC;
#X obj 631 252 mrpeach/net/udpsend;
#X msg 640 93 disconnect;
#X text 798 57 <-- conecta IP e porta;
#X text 707 92 <-- encerra conexão;
#X text 772 209 <-- converte uma mensagem PD para uma mensagem em OSC
;
#X text 827 179 <-- prepara a mensagem OSC;
#X obj 697 122 tgl 15 0 empty empty empty 17 7 0 10 -4034 -1 -1 1 1
;
#X text 713 120 <-- botão que liga/desliga bateria via rede \, por
meio do OSC;
#X text 813 23 ON/OFF;
#X msg 697 180 send /on_off_pitch \$1;
#X msg 629 56 connect 192.168.0.10 40051;
#X text 208 383 FREQUENCE;
#X obj 109 110 hsl 128 15 0 1 0 0 empty empty empty 0 -9 0 10 -4034
-1 -1 0 1;
#X obj 106 196 osc/packOSC;
#X obj 40 239 mrpeach/net/udpsend;
#X msg 49 80 disconnect;
#X text 207 44 <-- conecta IP e porta;
#X text 116 79 <-- encerra conexão;
#X text 244 108 <-- vslider de volume;
#X text 181 196 <-- converte uma mensagem PD para uma mensagem em OSC
;
#X text 243 166 <-- prepara a mensagem OSC;
#X text 167 237 <-- chama a biblioteca mrpeach \, que cria uma infraestrutura
de rede para transporte de mensagem OSC na mesma. Ela é enviada sob
o protocolo UDP \, de forma unidirecional;
#X floatatom 127 138 5 0 0 0 - - -;
#X msg 38 43 connect 192.168.0.10 40050;
#X msg 106 167 send /volume_pitch \$1;
#X obj 122 482 hsl 128 15 0 127 0 0 empty empty empty -2 -8 0 10 -4032
-1 -1 0 1;
#X obj 119 568 osc/packOSC;
#X obj 53 611 mrpeach/net/udpsend;
#X msg 62 452 disconnect;
#X text 215 413 <-- conecta IP e porta;
#X text 129 451 <-- encerra conexão;
#X text 194 568 <-- converte uma mensagem PD para uma mensagem em OSC
;
#X text 237 538 <-- prepara a mensagem OSC;
#X msg 51 415 connect 192.168.0.10 40052;
#X msg 119 539 send /freq_pitch \$1;
#X text 257 480 <-- vslider de frequência;
#X obj 143 510 mtof;
#X floatatom 209 509 5 0 0 0 - - -;
#X text 247 511 <-- valor em Hertz;
#X text 808 311 CONTROLADOR MIDI;
#X obj 681 338 notein;
#X floatatom 691 370 5 0 0 0 - - -;
#X floatatom 714 395 5 0 0 0 - - -;
#X floatatom 767 417 5 0 0 0 - - -;
#X obj 918 387 mtof;
#X text 948 387 <-- MIDI to frequency;
#X floatatom 918 422 5 0 0 0 - - -;
#X text 950 422 <-- frequência da nota MIDI;
#X text 726 339 <-- captura a nota tocada pelo controlador MIDI;
#X msg 646 454 connect 192.168.0.10 40053;
#X obj 646 597 mrpeach/net/udpsend;
#X msg 659 477 disconnect;
#X msg 674 510 send /midi_pitch \$1;
#X obj 674 539 osc/packOSC;
#X obj 962 457 ctlin;
#X text 1002 455 <-- controles oriundo do MIDI controller;
#X floatatom 962 492 5 0 127 0 - - -;
#X floatatom 999 493 5 0 0 0 - - -;
#X floatatom 1039 494 5 0 0 0 - - -;
#X obj 962 521 / 127;
#X floatatom 962 549 5 0 1 0 - - -;
#X text 1004 549 <-- apenas exibe valor da conversão. Não manipular
;
#X text 1013 515 <-- divisão para equiparar o alcande (range) do controlador
MIDI com oscilador;
#X text 723 369 <-- nota tocada (pitch number);
#X text 746 396 <-- velocity;
#X text 799 418 <-- canal;
#X msg 863 588 connect 192.168.0.10 40054;
#X obj 863 673 mrpeach/net/udpsend;
#X msg 871 609 disconnect;
#X obj 1086 590 hsl 128 15 0 1 0 0 empty empty empty -2 -8 0 10 -204786
-1 -1 1600 1;
#X obj 956 646 osc/packOSC;
#X msg 956 623 send /midi_vol \$1;
#X text 160 137 <-- exibe o volume \, que vai de 0 a 1;
#X obj 1087 291 key;
#X floatatom 1083 320 5 0 0 0 - - -;
#X obj 1168 292 keyname;
#X symbolatom 1168 324 10 0 0 0 - - -;
#X connect 1 0 2 0;
#X connect 3 0 2 0;
#X connect 8 0 11 0;
#X connect 11 0 1 0;
#X connect 12 0 2 0;
#X connect 14 0 26 0;
#X connect 14 0 24 0;
#X connect 15 0 16 0;
#X connect 17 0 16 0;
#X connect 25 0 16 0;
#X connect 26 0 15 0;
#X connect 27 0 36 0;
#X connect 27 0 38 0;
#X connect 28 0 29 0;
#X connect 30 0 29 0;
#X connect 35 0 29 0;
#X connect 36 0 28 0;
#X connect 38 0 39 0;
#X connect 42 0 43 0;
#X connect 42 1 44 0;
#X connect 42 2 45 0;
#X connect 43 0 46 0;
#X connect 46 0 48 0;
#X connect 48 0 54 0;
#X connect 51 0 52 0;
#X connect 53 0 52 0;
#X connect 54 0 55 0;
#X connect 55 0 52 0;
#X connect 56 0 58 0;
#X connect 56 1 59 0;
#X connect 56 2 60 0;
#X connect 58 0 61 0;
#X connect 61 0 62 0;
#X connect 62 0 71 0;
#X connect 68 0 69 0;
#X connect 70 0 69 0;
#X connect 71 0 73 0;
#X connect 72 0 69 0;
#X connect 73 0 72 0;
#X connect 75 0 76 0;
#X connect 76 0 48 0;
#X connect 77 1 78 0;
