#N canvas 1920 56 1366 711 10;
#X obj 865 375 adc~;
#X msg 527 309 connect 192.168.0.10 3000;
#X msg 527 355 disconnect;
#X obj 527 481 ggee/streamout~;
#X floatatom 527 520 5 0 0 0 - - -, f 5;
#X obj 865 423 *~ 30;
#X text 683 308 envia áudio pela rede;
#X text 900 370 entrada de áudio (guitarra/baixo deve estar ligada
no computador);
#X text 901 424 aumenta volume da entrada de áudio;
#X text 628 482 envia áudio pela rede;
#X text 564 521 indica estado da conexão;
#X text 597 356 desconecta a ligação;
#X obj 527 96 osc/unpackOSC;
#X text 701 75 <-- porta de rede OSC;
#X text 658 138 <-- envia controle OSC pela rede (permite controlar
o slider de volume a partir de um botão físico ou algo similar;
#X obj 527 245 tgl 15 0 empty empty empty 17 7 0 10 -262144 -1 -1 1
1;
#X obj 527 144 osc/routeOSC /mic;
#X text 548 243 <-- liga guitarra/baixo pela rede;
#X obj 527 73 mrpeach/net/udpreceive 40020;
#X obj 178 95 osc/unpackOSC;
#X obj 178 143 osc/routeOSC /mic;
#X obj 178 340 tgl 15 0 empty empty empty 17 7 0 10 -262144 -1 -1 0
1;
#X obj 178 72 mrpeach/net/udpreceive 40021;
#X text 100 389 desliga guitarra/baixo pela rede -->;
#X obj 863 316 hsl 128 15 0 127 0 0 empty empty empty -2 -8 0 10 -262144
-1 -1 0 1;
#X obj 860 224 osc/unpackOSC;
#X obj 860 201 mrpeach/net/udpreceive 40000;
#X obj 860 272 osc/routeOSC /volume;
#X text 1034 203 <-- porta de rede OSC;
#X text 991 266 <-- envia controle OSC pela rede (permite controlar
o slider de volume a partir de um botão físico ou algo similar;
#X text 997 314 <-- vslider de volume (varia de 0 a 127);
#X obj 448 1 cnv 15 100 60 empty empty empty 20 12 0 14 -233017 -66577
0;
#X connect 0 0 5 0;
#X connect 1 0 3 0;
#X connect 2 0 3 0;
#X connect 3 0 4 0;
#X connect 5 0 3 0;
#X connect 12 0 16 0;
#X connect 15 0 1 0;
#X connect 16 0 15 0;
#X connect 18 0 12 0;
#X connect 19 0 20 0;
#X connect 20 0 21 0;
#X connect 21 0 2 0;
#X connect 22 0 19 0;
#X connect 24 0 3 0;
#X connect 25 0 27 0;
#X connect 26 0 25 0;
#X connect 27 0 24 0;
