#N canvas 0 56 1920 985 10;
#X obj 120 208 osc/packOSC;
#X obj 52 247 mrpeach/net/udpsend;
#X msg 63 93 disconnect;
#X msg 52 56 connect 192.168.0.10 40000;
#X text 221 57 <-- conecta IP e porta;
#X text 130 92 <-- encerra conexão;
#X text 195 209 <-- converte uma mensagem PD para uma mensagem em OSC
;
#X text 218 179 <-- prepara a mensagem OSC;
#X text 181 250 <-- chama a biblioteca mrpeach \, que cria uma infraestrutura
de rede para transporte de mensagem OSC na mesma. Ela é enviada sob
o protocolo UDP \, de forma unidirecional;
#X msg 120 180 send /recorder \$1;
#X obj 120 135 tgl 15 0 empty empty empty 17 7 0 10 -262144 -1 -1 0
1;
#X obj 966 202 osc/packOSC;
#X obj 898 245 mrpeach/net/udpsend;
#X msg 909 87 disconnect;
#X text 1067 51 <-- conecta IP e porta;
#X text 976 86 <-- encerra conexão;
#X text 1041 203 <-- converte uma mensagem PD para uma mensagem em
OSC;
#X text 1064 173 <-- prepara a mensagem OSC;
#X text 1027 244 <-- chama a biblioteca mrpeach \, que cria uma infraestrutura
de rede para transporte de mensagem OSC na mesma. Ela é enviada sob
o protocolo UDP \, de forma unidirecional;
#X msg 966 174 send /recorder \$1;
#X obj 966 129 tgl 15 0 empty empty empty 17 7 0 10 -262144 -1 -1 0
1;
#X msg 898 50 connect 192.168.0.10 40001;
#X text 83 466 Recorder está no patch Loudspeaker;
#X text 141 132 <-- Inicia gravação;
#X text 987 126 <-- interrompe gravação;
#X connect 0 0 1 0;
#X connect 2 0 1 0;
#X connect 3 0 1 0;
#X connect 9 0 0 0;
#X connect 10 0 9 0;
#X connect 11 0 12 0;
#X connect 13 0 12 0;
#X connect 19 0 11 0;
#X connect 20 0 19 0;
#X connect 21 0 12 0;
