#N canvas 1920 74 1366 704 10;
#X obj 121 225 osc/packOSC;
#X obj 55 268 mrpeach/net/udpsend;
#X msg 64 109 disconnect;
#X obj 121 138 tgl 15 0 empty empty empty 17 7 0 10 -4034 -1 -1 0 1
;
#X text 237 39 ON/OFF;
#X msg 121 196 send /on_off_pitch \$1;
#X obj 109 656 hsl 128 15 0 127 0 0 empty empty empty -2 -8 0 10 -4032
-1 -1 0 1;
#X obj 106 742 osc/packOSC;
#X obj 40 785 mrpeach/net/udpsend;
#X msg 49 626 disconnect;
#X msg 106 713 send /freq_pitch \$1;
#X obj 130 684 mtof;
#X floatatom 196 683 5 0 0 0 - - -;
#X text 958 30 CONTROLADOR MIDI;
#X obj 812 86 notein;
#X floatatom 822 118 5 0 0 0 - - -;
#X floatatom 845 143 5 0 0 0 - - -;
#X floatatom 898 165 5 0 0 0 - - -;
#X obj 1049 135 mtof;
#X text 1079 135 <-- MIDI to frequency;
#X floatatom 1049 170 5 0 0 0 - - -;
#X obj 777 345 mrpeach/net/udpsend;
#X msg 790 225 disconnect;
#X msg 805 258 send /midi_pitch \$1;
#X obj 805 287 osc/packOSC;
#X obj 1093 205 ctlin;
#X floatatom 1093 240 5 0 127 0 - - -;
#X floatatom 1130 241 5 0 0 0 - - -;
#X floatatom 1170 242 5 0 0 0 - - -;
#X obj 1093 286 / 127;
#X floatatom 1093 338 5 0 1 0 - - -;
#X text 877 144 <-- velocity;
#X obj 1033 552 mrpeach/net/udpsend;
#X msg 1041 461 disconnect;
#X obj 1219 382 hsl 128 15 0 127 0 0 empty empty empty -2 -8 0 10 -4034
-1 -1 0 1;
#X obj 1126 525 osc/packOSC;
#X msg 1126 502 send /midi_vol \$1;
#X obj 1342 37 key;
#X floatatom 1338 66 5 0 0 0 - - -;
#X obj 1391 36 keyname;
#X symbolatom 1391 68 10 0 0 0 - - -;
#X text 234 73 <-- connect to multicast address;
#X text 128 108 <-- close connection;
#X text 137 136 <-- ON/OFF pitchfor via OSC message;
#X text 196 225 <-- convert Pure Data to OSC;
#X text 251 195 <-- send message;
#X text 175 269 <-- send message via network;
#X text 856 85 <-- capture the note played by the MIDI controller;
#X text 854 117 <-- pitch number;
#X text 930 166 <-- channel;
#X text 571 202 connect to multicast address -->;
#X text 663 226 close connection -->;
#X text 1250 66 MIDI note -->;
#X text 1454 68 <-- computer key;
#X text 1084 169 <-- MIDI note frequency;
#X text 703 257 send message -->;
#X text 630 289 convert Pure Data to OSC -->;
#X text 598 346 send message via network -->;
#X text 1129 203 <-- controls from the MIDI controller;
#X text 1137 283 <-- division to match the range of the MIDI controller
with an oscillator;
#X text 1205 243 <-- pitch number \, velocity and channel;
#X text 1125 339 <-- only displays conversion value;
#X text 1351 380 <-- changes volume via MIDI controller;
#X text 1213 433 <-- connect to multicast address;
#X text 907 461 close connection -->;
#X text 1236 501 <-- send message;
#X text 1197 525 <-- convert Pure Data to OSC;
#X text 855 553 send message via network -->;
#X text 195 557 FREQUENCY;
#X text 216 590 <-- connect to multicast address;
#X text 116 625 <-- close connection;
#X text 244 654 <-- frequency vslider;
#X text 234 685 <-- Hertz value;
#X text 224 712 <-- send message;
#X text 181 742 <-- convert Pure Data to OSC;
#X text 159 786 <-- send message via network;
#X msg 53 72 connect 224.0.0.251 40051;
#X msg 38 589 connect 224.0.0.251 40052;
#X msg 1033 432 connect 224.0.0.251 40054;
#X msg 777 202 connect 224.0.0.251 40053;
#X connect 0 0 1 0;
#X connect 2 0 1 0;
#X connect 3 0 5 0;
#X connect 5 0 0 0;
#X connect 6 0 10 0;
#X connect 6 0 11 0;
#X connect 7 0 8 0;
#X connect 9 0 8 0;
#X connect 10 0 7 0;
#X connect 11 0 12 0;
#X connect 14 0 15 0;
#X connect 14 1 16 0;
#X connect 14 2 17 0;
#X connect 15 0 18 0;
#X connect 18 0 20 0;
#X connect 20 0 23 0;
#X connect 22 0 21 0;
#X connect 23 0 24 0;
#X connect 24 0 21 0;
#X connect 25 0 26 0;
#X connect 25 1 27 0;
#X connect 25 2 28 0;
#X connect 26 0 29 0;
#X connect 29 0 30 0;
#X connect 30 0 34 0;
#X connect 33 0 32 0;
#X connect 34 0 36 0;
#X connect 35 0 32 0;
#X connect 36 0 35 0;
#X connect 37 0 38 0;
#X connect 38 0 20 0;
#X connect 39 1 40 0;
#X connect 76 0 1 0;
#X connect 77 0 8 0;
#X connect 78 0 32 0;
#X connect 79 0 21 0;
