#N canvas 0 64 1920 987 10;
#X msg 276 218 disconnect;
#X floatatom 276 345 0 0 0 0 - - -;
#X obj 565 218 hsl 128 15 0 127 0 0 empty empty empty -2 -8 0 10 -4034
-1 -1 0 1;
#X obj 526 255 *~;
#X obj 562 132 osc/unpackOSC;
#X obj 562 103 mrpeach/net/udpreceive 40000;
#X obj 562 174 osc/routeOSC /volume;
#X obj 276 320 mrpeach/net/udpsend~ 2;
#X obj 526 44 mrpeach/net/udpreceive~ 3000 2;
#X text 699 216 <-- volume vslider (0 - 127);
#X text 550 256 <-- Audio output;
#X text 736 105 <-- receive OSC message;
#X text 713 42 <-- receive audio from network;
#X text 412 320 <-- send audio to network;
#X text 688 173 <-- control volume slider via OSC;
#X text 647 132 <-- convert OSC message to Pure data;
#X text 78 195 connect to multicast address -->;
#X text 148 219 close connection -->;
#X text 136 345 connection status -->;
#X msg 276 196 connect 224.0.0.251 3000;
#X obj 1143 666 osc/unpackOSC;
#X msg 1187 170 disconnect;
#X obj 1088 255 mrpeach/udpsend;
#X obj 1143 643 mrpeach/udpreceive 224.0.0.1 60000;
#X msg 1088 55 connect 224.0.0.1 60000;
#X msg 1155 89 send /hello;
#X obj 1143 559 route /hello;
#X obj 1145 521 t b b b;
#X obj 1143 737 print;
#X obj 1143 779 route /publish/thing;
#X obj 1143 802 print;
#X obj 1088 284 tgl 15 0 empty empty empty 17 7 0 10 -262144 -1 -1
0 1;
#X obj 1143 840 route /publish/input;
#X obj 1143 864 print;
#X obj 1143 713 route /publish/output;
#X obj 1154 212 packOSC;
#X obj 1143 933 print;
#X obj 1198 145 print;
#X obj 1143 911 route /goodbye;
#X text 1397 382 <-- identification;
#X text 1135 16 MANAGEMENT LAYER;
#X text 1240 58 <-- connect to management screen;
#X text 1517 429 <-- input data;
#X text 1238 81 <- publish identification \, input and output data
;
#X text 1433 121 <-- disconnect;
#X text 1111 284 <-- connection status;
#X text 1490 485 <-- output data;
#X text 1207 211 <-- pack messages on OSC format;
#X text 1190 258 <-- send messages via network;
#X text 1239 912 <-- receives Goodbye message;
#X text 1275 841 <-- receive input data;
#X text 1274 779 <-- receive identification;
#X text 1282 712 <-- receive output data;
#X text 1354 644 <-- receive connection from the host;
#X text 1201 522 <-- put messages in right-to-left order;
#X text 1223 559 <-- receive all messages;
#X msg 1179 122 send /goodbye Volume Slider says Goodbye!;
#X msg 1153 382 send /publish/thing Volume Slider ID#008;
#X msg 1150 411 send /publish/input INPUT: ID#008 -port: 3000 (audio)
-sample rate: 44100 Hz -bit depth: 16 bits;
#X msg 1147 486 send /publish/output OUTPUT: ID#008 -protocol: UDP
& OSC;
#X connect 0 0 7 0;
#X connect 2 0 3 1;
#X connect 3 0 7 0;
#X connect 4 0 6 0;
#X connect 5 0 4 0;
#X connect 6 0 2 0;
#X connect 7 0 1 0;
#X connect 8 0 3 0;
#X connect 19 0 7 0;
#X connect 20 0 26 0;
#X connect 20 0 29 0;
#X connect 20 0 32 0;
#X connect 20 0 34 0;
#X connect 20 0 38 0;
#X connect 21 0 22 0;
#X connect 22 0 31 0;
#X connect 23 0 20 0;
#X connect 24 0 22 0;
#X connect 24 0 25 0;
#X connect 25 0 35 0;
#X connect 25 0 57 0;
#X connect 25 0 58 0;
#X connect 25 0 59 0;
#X connect 26 0 27 0;
#X connect 27 0 59 0;
#X connect 27 1 58 0;
#X connect 27 2 57 0;
#X connect 29 0 30 0;
#X connect 32 0 33 0;
#X connect 34 0 28 0;
#X connect 35 0 22 0;
#X connect 38 0 36 0;
#X connect 56 0 35 0;
#X connect 56 0 21 0;
#X connect 57 0 35 0;
#X connect 58 0 35 0;
#X connect 59 0 35 0;
