#N canvas 238 197 1263 516 10;
#X msg 276 218 disconnect;
#X floatatom 276 345 0 0 0 0 - - -;
#X obj 565 218 hsl 128 15 0 127 0 0 empty empty empty -2 -8 0 10 -4034
-1 -1 0 1;
#X obj 526 255 *~;
#X obj 562 132 osc/unpackOSC;
#X obj 562 103 mrpeach/net/udpreceive 40000;
#X obj 562 174 osc/routeOSC /volume;
#X obj 276 320 mrpeach/net/udpsend~ 2;
#X obj 526 44 mrpeach/net/udpreceive~ 3000 2;
#X msg 276 196 connect 239.255.255.250 3000;
#X text 699 216 <-- volume vslider (0 - 127);
#X text 550 256 <-- Audio output;
#X text 736 105 <-- receive OSC message;
#X text 713 42 <-- receive audio from network;
#X text 412 320 <-- send audio to network;
#X text 688 173 <-- control volume slider via OSC;
#X text 647 132 <-- convert OSC message to Pure data;
#X text 78 195 connect to multicast address -->;
#X text 148 219 close connection -->;
#X text 136 345 connection status -->;
#X connect 0 0 7 0;
#X connect 2 0 3 1;
#X connect 3 0 7 0;
#X connect 4 0 6 0;
#X connect 5 0 4 0;
#X connect 6 0 2 0;
#X connect 7 0 1 0;
#X connect 8 0 3 0;
#X connect 9 0 7 0;
