#N canvas 2143 153 668 378 10;
#X obj 120 209 osc/packOSC;
#X obj 54 252 mrpeach/net/udpsend;
#X msg 63 93 disconnect;
#X msg 52 56 connect 192.168.0.10 40000;
#X text 221 57 <-- conecta IP e porta;
#X text 130 92 <-- encerra conexão;
#X text 195 209 <-- converte uma mensagem PD para uma mensagem em OSC
;
#X text 218 179 <-- prepara a mensagem OSC;
#X text 181 250 <-- chama a biblioteca mrpeach \, que cria uma infraestrutura
de rede para transporte de mensagem OSC na mesma. Ela é enviada sob
o protocolo UDP \, de forma unidirecional;
#X obj 120 122 tgl 15 0 empty empty empty 17 7 0 10 -262144 -1 -1 0
1;
#X msg 120 180 send /drum \$1;
#X text 136 120 <-- botão que liga/desliga bateria via rede \, por
meio do OSC;
#X connect 0 0 1 0;
#X connect 2 0 1 0;
#X connect 3 0 1 0;
#X connect 9 0 10 0;
#X connect 10 0 0 0;
