#N canvas 0 64 1920 987 10;
#X obj 1164 394 adc~;
#X msg 527 355 disconnect;
#X floatatom 527 520 5 0 0 0 - - -;
#X obj 1163 462 *~ 30;
#X obj 527 96 osc/unpackOSC;
#X obj 527 245 tgl 15 0 empty empty empty 17 7 0 10 -4034 -1 -1 0 1
;
#X obj 527 73 mrpeach/net/udpreceive 40020;
#X obj 249 95 osc/unpackOSC;
#X obj 249 340 tgl 15 0 empty empty empty 17 7 0 10 -258113 -1 -1 0
1;
#X obj 249 72 mrpeach/net/udpreceive 40021;
#X obj 1162 335 hsl 128 15 0 127 0 0 empty empty empty -2 -8 0 10 -4034
-1 -1 0 1;
#X obj 1159 243 osc/unpackOSC;
#X obj 1159 220 mrpeach/net/udpreceive 40000;
#X obj 1159 291 osc/routeOSC /volume;
#X obj 448 1 cnv 15 100 60 empty empty empty 20 12 0 14 -233017 -66577
0;
#X msg 527 309 connect 239.255.255.250 3000;
#X obj 527 481 mrpeach/net/udpsend~ 2;
#X text 702 309 <-- connect to multicast;
#X text 593 355 <-- close connection;
#X text 560 520 <-- connection status;
#X text 701 75 <-- Receive OSC messages;
#X text 97 70 Receive OSC messages -->;
#X text 1296 333 <-- volume vslider (0 - 127);
#X text 1201 389 <-- Audio input (guitar/bass should be connected on
the computer);
#X text 1203 461 <-- increases audio input volume;
#X text 1286 290 <-- control volume slider via OSC;
#X text 367 478 send audio to network -->;
#X text 1332 221 <-- Receive OSC messages;
#X text 646 143 <-- control ON button via OSC;
#X text 545 245 <-- ON;
#X text 195 340 OFF -->;
#X obj 249 143 osc/routeOSC /sound;
#X obj 527 144 osc/routeOSC /sound;
#X text 611 95 <-- OSC via Pure Data;
#X text 114 96 OSC via Pure Data -->;
#X connect 0 0 3 0;
#X connect 1 0 16 0;
#X connect 3 0 16 0;
#X connect 4 0 32 0;
#X connect 5 0 15 0;
#X connect 6 0 4 0;
#X connect 7 0 31 0;
#X connect 8 0 1 0;
#X connect 9 0 7 0;
#X connect 10 0 16 0;
#X connect 11 0 13 0;
#X connect 12 0 11 0;
#X connect 13 0 10 0;
#X connect 15 0 16 0;
#X connect 16 0 2 0;
#X connect 31 0 8 0;
#X connect 32 0 5 0;
