#N canvas 0 64 1920 987 12;
#X obj 318 266 osc/packOSC;
#X obj 251 313 mrpeach/net/udpsend;
#X floatatom 318 205 5 0 1000 0 - - -;
#X text 492 124 <-- close connection;
#X text 426 236 <-- prepare OSC message;
#X text 400 266 <-- convert Pure Data message to OSC;
#X text 393 312 <-- send OSC data packaged in UDP \, using the mrpeach
library;
#X floatatom 251 351 5 0 1 0 - - -;
#X text 293 350 <-- connection status;
#X msg 318 237 send /speed \$1;
#X obj 321 151 hsl 128 15 0 1000 0 0 empty empty empty -2 -8 0 10 -260097
-1 -1 0 1;
#X obj 318 178 int;
#X text 359 205 <-- Stars speed;
#X text 353 178 <-- Convert Vslider value to int;
#X text 462 85 <-- connect to this address;
#X msg 251 87 connect 255.255.255.255 12000;
#X msg 262 124 disconnect 255.255.255.255 12000;
#X msg 1248 642 disconnect;
#X obj 1208 718 mrpeach/udpsend;
#X obj 1206 812 t b b b;
#X obj 1208 759 tgl 25 0 empty empty empty 17 7 0 10 -228856 -1 -1
0 1;
#X text 1239 762 <-- connection status;
#X text 1321 681 <-- pack messages on OSC format;
#X text 1322 717 <-- send messages via network;
#X msg 1211 118 connect 224.0.0.1 60000;
#X obj 1210 680 mrpeach/packOSC;
#X obj 1211 66 random 101;
#X obj 1248 521 bng 18 250 50 0 empty empty empty 17 7 0 10 -258113
-1 -1;
#X obj 1211 29 bng 25 250 50 0 empty empty empty 17 7 0 10 -4034 -1
-1;
#X text 1714 220 <-- INPUT message;
#X text 1645 382 <-- OUTPUT message;
#X text 1274 524 <-- disconnect;
#X text 1612 569 <-- GOODBYE message;
#X text 1244 423 Standard OUTPUT message: /output/ID_number/IP_number/port_type_number/network_port_number/network_port_description/
;
#X text 1541 171 Standard HELLO message: /hello/id/ip/human_name;
#X obj 1213 94 value id9;
#X obj 1248 545 value id9;
#X obj 1207 853 route /hello /input /output /goodbye;
#X text 1255 603 Standard GOODBYE message: /goodbye/ID_number/IP_number/human_name/status
;
#X text 1241 31 <-- connect and generate a random ID number;
#X text 1288 66 <-- generate a random ID number between 0 - 100;
#X text 1280 93 <-- store random ID number;
#X text 1382 117 <-- connect to OSC server;
#X text 1514 154 <-- presents the musical thing to the network;
#X text 1316 544 <-- random ID number;
#X text 1233 259 Standard INPUT message: /input/ID_number/IP_number/port_type_number/musical_thing_type(audio)/sample_rate/bit_depth/audio_file_format/channel_number/IP_connection/port_number/port_description/network_protocol/music_protocol/human_name
;
#X obj 244 459 osc/unpackOSC;
#X obj 244 486 osc/routeOSC /connection;
#X obj 244 512 list;
#X obj 241 594 osc/unpackOSC;
#X obj 241 647 list;
#X obj 241 621 osc/routeOSC /disconnection;
#X text 343 458 <-- unpack OSC messages;
#X msg 1212 155 send /hello/\$1/192.168.0.10/Stars_Graphic;
#X obj 244 418 mrpeach/net/udpreceive 224.0.0.0 58584;
#X obj 241 566 mrpeach/net/udpreceive 224.0.0.0 58585;
#X msg 1214 203 send /input/\$1/192.168.0.10/0/controller/1/224.0.0.0/58584/ON/58585/OFF/UDP/OSC/Stars_Graphic
, f 70;
#X msg 1248 570 /goodbye/\$1/192.168.0.10/Stars_Graphic/disconnected
;
#X msg 1217 369 send /output/\$1/192.168.0.10/1/controller/0/500/225.255.255.255/12000/Star_Speed/UDP/OSC/Stars_Graphic
;
#X connect 0 0 1 0;
#X connect 1 0 7 0;
#X connect 2 0 9 0;
#X connect 9 0 0 0;
#X connect 10 0 11 0;
#X connect 11 0 2 0;
#X connect 15 0 1 0;
#X connect 16 0 1 0;
#X connect 17 0 18 0;
#X connect 18 0 20 0;
#X connect 19 0 58 0;
#X connect 19 1 56 0;
#X connect 19 2 53 0;
#X connect 24 0 18 0;
#X connect 25 0 18 0;
#X connect 26 0 53 0;
#X connect 26 0 56 0;
#X connect 26 0 58 0;
#X connect 26 0 35 0;
#X connect 27 0 36 0;
#X connect 28 0 24 0;
#X connect 28 0 26 0;
#X connect 36 0 57 0;
#X connect 37 0 19 0;
#X connect 46 0 47 0;
#X connect 47 0 48 0;
#X connect 48 0 15 0;
#X connect 49 0 51 0;
#X connect 50 0 16 0;
#X connect 51 0 50 0;
#X connect 53 0 25 0;
#X connect 54 0 46 0;
#X connect 55 0 49 0;
#X connect 56 0 25 0;
#X connect 57 0 25 0;
#X connect 57 0 17 0;
#X connect 58 0 25 0;
